<svg width="17" height="16" fill="none" xmlns="http://www.w3.org/2000/svg">
    <g clip-path="url(#clip0)">
        <path d="M16.358 6.138a.849.849 0 00-.732-.585l-4.618-.42L9.182.86a.85.85 0 00-1.564 0L5.792 5.134l-4.619.42A.85.85 0 00.691 7.04l3.49 3.062-1.029 4.534a.85.85 0 001.265.919L8.4 13.175l3.982 2.38a.85.85 0 001.265-.919l-1.029-4.533 3.491-3.061a.85.85 0 00.25-.904z" fill="#FFC107"/>
    </g>
    <defs>
        <clipPath id="clip0">
            <path fill="#fff" d="M.4 0h16v16H.4z"/>
        </clipPath>
    </defs>
</svg>
