<svg width="24" height="24" fill="none" xmlns="http://www.w3.org/2000/svg">
    <path d="M10.81 1.26a.5.5 0 00-.5-.5H1.26a.5.5 0 00-.5.5v9.05a.5.5 0 00.5.5h9.05a.5.5 0 00.5-.5V1.26zm-1 8.55H1.76V1.76h8.05v8.05z" fill="#fff" fill-opacity=".3"/>
    <path d="M23.26 1.26a.5.5 0 00-.5-.5h-9.05a.5.5 0 00-.5.5v9.05a.5.5 0 00.5.5h9.05a.5.5 0 00.5-.5V1.26zm-1 8.55h-8.05V1.76h8.05v8.05z" fill="#fff" fill-opacity=".3"/>
    <path d="M10.81 13.71a.5.5 0 00-.5-.5H1.26a.5.5 0 00-.5.5v9.05a.5.5 0 00.5.5h9.05a.5.5 0 00.5-.5v-9.05zm-1 8.5H1.76v-8h8.05v8z" fill="#fff" fill-opacity=".3"/>
    <path d="M23.26 13.71a.5.5 0 00-.5-.5h-9.05a.5.5 0 00-.5.5v9.05a.5.5 0 00.5.5h9.05a.5.5 0 00.5-.5v-9.05zm-1 8.5h-8.05v-8h8.05v8z" fill="#fff" fill-opacity=".3"/>
</svg>
