<svg width="60" height="32" fill="none" xmlns="http://www.w3.org/2000/svg">
    <path fill="#F33E3E" d="M0 0h60v28H0z"/>
    <path d="M10.425 21V7.415h3.363l3.762 6.346c.152.266.323.595.513.988.19.38.342.697.456.95l.171.38h.038c-.101-.975-.152-1.748-.152-2.318V7.415h3.325V21h-3.344l-3.781-6.327a20.154 20.154 0 01-.513-.969c-.19-.393-.342-.716-.456-.969l-.171-.38h-.038c.101.975.152 1.748.152 2.318V21h-3.325zm14.324 0V7.415h8.512v2.85h-5.187v2.47h4.142v2.85h-4.142v2.565h5.453V21H24.75zm13.038 0L34.481 7.415h3.496l1.71 8.493c.051.253.089.5.114.741.038.228.057.399.057.513v.171h.038c.013-.393.089-.868.228-1.425l2.09-8.493h2.68l2.032 8.493c.064.253.114.5.152.741.038.228.064.399.076.513v.171h.038c0-.393.057-.868.171-1.425l1.862-8.493h3.44L49.224 21H45.52l-1.71-6.859-.266-1.596h-.038a10.467 10.467 0 01-.266 1.596L41.53 21h-3.743z" fill="#fff"/>
    <path d="M60 28l-7 4v-4h7z" fill="#C0272D"/>
</svg>
