<svg width="24" height="24" fill="none" xmlns="http://www.w3.org/2000/svg">
    <path d="M12 0C5.367 0 0 5.368 0 12c0 6.633 5.368 12 12 12 6.633 0 12-5.367 12-12S18.633 0 12 0zm0 22.125A10.12 10.12 0 011.875 12 10.12 10.12 0 0112 1.875 10.12 10.12 0 0122.125 12 10.12 10.12 0 0112 22.125z" fill="#fff"/>
    <path d="M12 6.041a.937.937 0 00-.938.938v6.037a.937.937 0 101.876 0V6.979A.937.937 0 0012 6.04z" fill="#fff"/>
    <path d="M12 17.632a1.266 1.266 0 100-2.53 1.266 1.266 0 000 2.53z" fill="#fff"/>
</svg>
