<svg xmlns="http://www.w3.org/2000/svg" viewBox="0 0 89.758 89.758">
    <g fill="#6a453b">
        <path d="M58.255 23.88H31.503c-4.27 0-7.744 3.474-7.744 7.744v26.752c0 4.27 3.474 7.745 7.744 7.745h26.752c4.27 0 7.745-3.474 7.745-7.745V31.624c0-4.27-3.474-7.744-7.745-7.744zM44.879 58.906c-7.667 0-13.905-6.238-13.905-13.906 0-7.667 6.238-13.905 13.905-13.905 7.668 0 13.906 6.238 13.906 13.905 0 7.667-6.239 13.906-13.906 13.906zM59.232 33.97a3.294 3.294 0 01-3.291-3.29 3.294 3.294 0 013.291-3.29 3.294 3.294 0 013.29 3.29 3.294 3.294 0 01-3.29 3.29z"/>
        <path d="M44.879 36.971c-4.426 0-8.03 3.602-8.03 8.028 0 4.428 3.604 8.031 8.03 8.031 4.428 0 8.029-3.603 8.029-8.031 0-4.425-3.602-8.028-8.029-8.028z"/>
        <path d="M44.879 0C20.094 0 0 20.094 0 44.879c0 24.785 20.094 44.879 44.879 44.879 24.785 0 44.879-20.094 44.879-44.879C89.758 20.094 69.664 0 44.879 0zm26.996 58.376c0 7.511-6.109 13.62-13.62 13.62H31.503c-7.51 0-13.62-6.109-13.62-13.62V31.624c0-7.51 6.11-13.62 13.62-13.62h26.752c7.511 0 13.62 6.11 13.62 13.62v26.752z"/>
    </g>
</svg>
