<svg width="46" height="32" fill="none" xmlns="http://www.w3.org/2000/svg">
    <path fill="#F3853D" d="M0 0h46v28H0z"/>
    <path d="M12.693 21L7.886 7.415h3.61l2.394 7.733c.076.253.158.564.247.931.089.367.158.665.209.893l.057.361h.038c.165-.887.336-1.615.513-2.185l2.432-7.733h3.553L16.151 21h-3.458zm9.553 0V7.415h3.325V21h-3.325zm6.179 0V7.415h5.643c1.317 0 2.381.437 3.192 1.311.823.874 1.235 1.995 1.235 3.363 0 1.38-.412 2.514-1.235 3.401-.81.874-1.875 1.311-3.192 1.311H31.75V21h-3.325zm3.325-7.049h1.634c.557 0 .982-.171 1.273-.513.304-.342.456-.792.456-1.349 0-.557-.146-1-.437-1.33-.291-.33-.703-.494-1.235-.494H31.75v3.686z" fill="#fff"/>
    <path d="M46 28l-7 4v-4h7z" fill="#CB6B2D"/>
</svg>
