<svg width="16" height="16" fill="none" xmlns="http://www.w3.org/2000/svg">
    <g clip-path="url(#clip0)" fill="#fff" fill-opacity=".5">
        <path d="M8.166 1.333h-.733A1.842 1.842 0 005.667 0C4.827 0 4.12.567 3.9 1.333h-.733c-.274 0-.5.227-.5.5v1c0 .64.526 1.167 1.166 1.167H7.5c.64 0 1.166-.527 1.166-1.167v-1c0-.273-.226-.5-.5-.5z"/>
        <path d="M9.5 2h-.167v.833c0 1.014-.82 1.834-1.833 1.834H3.833A1.832 1.832 0 012 2.833V2h-.167C.82 2 0 2.82 0 3.833v8.334C0 13.18.82 14 1.833 14h4.394a5.825 5.825 0 01-.554-2.333H2.5a.504.504 0 01-.5-.5c0-.274.227-.5.5-.5h3.227c.06-.407.16-.794.293-1.167H2.5A.504.504 0 012 9c0-.273.227-.5.5-.5h4c.26-.427.567-.82.927-1.167H2.5a.504.504 0 01-.5-.5c0-.273.227-.5.5-.5h6.293c.767-.4 1.627-.64 2.54-.66v-1.84C11.333 2.82 10.513 2 9.5 2z"/>
        <path d="M11.5 7A4.505 4.505 0 007 11.5c0 2.481 2.019 4.5 4.5 4.5s4.5-2.019 4.5-4.5S13.981 7 11.5 7zm2.168 3.606l-2.333 2.667a.666.666 0 01-.48.227h-.022a.666.666 0 01-.471-.195L9.029 11.97a.666.666 0 11.942-.942l.83.829 1.864-2.13a.667.667 0 011.003.878z"/>
    </g>
    <defs>
        <clipPath id="clip0">
            <path fill="#fff" d="M0 0h16v16H0z"/>
        </clipPath>
    </defs>
</svg>
