<svg width="51" height="32" fill="none" xmlns="http://www.w3.org/2000/svg">
    <path fill="#5CB2F2" d="M0 0h51v28H0z"/>
    <path d="M9.351 21V10.265H5.228v-2.85h11.571v2.85h-4.123V21H9.351zm8.06-6.878c0-1.976.665-3.623 1.995-4.94 1.33-1.33 3.033-1.995 5.11-1.995 2.078 0 3.782.665 5.112 1.995 1.33 1.317 1.995 2.964 1.995 4.94 0 2.027-.665 3.718-1.995 5.073-1.33 1.355-3.034 2.033-5.111 2.033-2.078 0-3.781-.678-5.111-2.033-1.33-1.355-1.995-3.046-1.995-5.073zm3.439 0c0 1.165.342 2.134 1.026 2.907.696.773 1.577 1.159 2.64 1.159 1.065 0 1.939-.386 2.623-1.159.696-.773 1.045-1.742 1.045-2.907 0-1.115-.349-2.04-1.045-2.774-.684-.747-1.558-1.121-2.622-1.121-1.064 0-1.945.374-2.641 1.121-.684.735-1.026 1.66-1.026 2.774zM33.737 21V7.415h5.643c1.318 0 2.382.437 3.192 1.311.824.874 1.235 1.995 1.235 3.363 0 1.38-.411 2.514-1.235 3.401-.81.874-1.874 1.311-3.192 1.311h-2.318V21h-3.325zm3.325-7.049h1.635c.557 0 .981-.171 1.272-.513.304-.342.456-.792.456-1.349 0-.557-.145-1-.436-1.33-.292-.33-.703-.494-1.235-.494h-1.691v3.686z" fill="#fff"/>
    <path d="M51 28l-7 4v-4h7z" fill="#3E8CC6"/>
</svg>
