<svg width="100" height="100" fill="none" xmlns="http://www.w3.org/2000/svg">
    <path d="M50 100c27.614 0 50-22.386 50-50S77.614 0 50 0 0 22.386 0 50s22.386 50 50 50z" fill="#F05825"/>
    <path d="M69.075 43.57a6.041 6.041 0 00-3.804 1.343c-3.68-2.294-8.352-3.675-13.358-3.965l2.614-8.183 7.176 1.675c.19 2.59 2.375 4.638 5.033 4.638 2.783 0 5.05-2.244 5.05-5.002 0-2.756-2.267-5.001-5.05-5.001a5.059 5.059 0 00-4.48 2.7l-8.34-1.944a1.373 1.373 0 00-1.622.914L49.05 40.899c-5.393.13-10.464 1.517-14.416 3.944a6.036 6.036 0 00-3.711-1.273c-3.33 0-6.038 2.682-6.038 5.984 0 2.037 1.038 3.84 2.614 4.92-.067.473-.1.952-.1 1.434 0 4.123 2.417 7.96 6.81 10.799 4.21 2.723 9.78 4.223 15.687 4.223 5.905 0 11.479-1.5 15.688-4.223 4.39-2.839 6.81-6.676 6.81-10.799 0-.439-.031-.877-.087-1.311 1.684-1.061 2.803-2.926 2.803-5.043.001-3.303-2.708-5.985-6.036-5.985zm-2.34-11.779c1.274 0 2.308 1.026 2.308 2.284 0 1.26-1.035 2.285-2.307 2.285a2.296 2.296 0 01-2.304-2.285c0-1.258 1.033-2.284 2.304-2.284zm-27.607 21.46c0-1.858 1.575-3.418 3.45-3.418 1.875 0 3.401 1.56 3.401 3.417 0 1.862-1.524 3.37-3.401 3.37-1.875 0-3.45-1.508-3.45-3.37zm19.138 9.906c-1.748 1.732-4.442 2.573-8.244 2.573l-.025-.002-.027.002c-3.798 0-6.492-.842-8.238-2.573a1.345 1.345 0 010-1.921 1.377 1.377 0 011.94 0c1.203 1.193 3.266 1.775 6.298 1.775.011 0 .021.003.027.003.011 0 .02-.003.025-.003 3.037 0 5.098-.58 6.305-1.775a1.376 1.376 0 011.939 0c.538.53.538 1.39 0 1.92zm-.795-6.537c-1.876 0-3.455-1.508-3.455-3.37 0-1.86 1.579-3.417 3.455-3.417 1.877 0 3.4 1.557 3.4 3.417-.002 1.862-1.523 3.37-3.4 3.37z" fill="#fff"/>
</svg>
