<svg width="139" height="266" fill="none" xmlns="http://www.w3.org/2000/svg">
    <rect width="139" height="266" rx="5" fill="#000" fill-opacity=".46"/>
    <rect x=".5" y=".5" width="138" height="265" rx="4.5" stroke="#fff" stroke-opacity=".35"/>
    <path d="M62.105 14.572a7.302 7.302 0 01-.174-.47.24.24 0 00-.119-.14.226.226 0 00-.178-.01.237.237 0 00-.134.123.252.252 0 00-.011.186c.057.172.12.341.187.503a.244.244 0 00.128.132.226.226 0 00.256-.056.244.244 0 00.066-.175.25.25 0 00-.02-.093z" fill="#FFBC3F"/>
    <path d="M63.878 17.442c.054.032.117.04.177.024a.236.236 0 00.142-.114.252.252 0 00.023-.185.243.243 0 00-.11-.148 4.545 4.545 0 01-1.399-1.325 5.54 5.54 0 01-.293-.471.235.235 0 00-.142-.111.226.226 0 00-.176.024.242.242 0 00-.108.147.253.253 0 00.021.183c.098.177.204.348.319.513.41.597.936 1.096 1.546 1.463z" fill="#FFBC3F"/>
    <path d="M74.958 17.38a.226.226 0 00.124-.037 4.81 4.81 0 00.457-.34.25.25 0 00.034-.34.227.227 0 00-.327-.039 4.34 4.34 0 01-.413.306.244.244 0 00-.094.12.252.252 0 00.078.28c.04.033.09.05.14.05z" fill="#FFBC3F"/>
    <path d="M75.928 16.531a.225.225 0 00.173-.08c.465-.534.843-1.186 1.122-1.939.03-.081.06-.166.088-.25a.252.252 0 00-.01-.187.237.237 0 00-.134-.124.226.226 0 00-.179.011.24.24 0 00-.119.14c-.026.08-.054.158-.083.235-.258.696-.605 1.298-1.031 1.787a.246.246 0 00-.04.262.24.24 0 00.085.106c.038.025.083.04.128.04z" fill="#FFBC3F"/>
    <path d="M60.879 16.105c-.278-2.17.695-4.92.834-5.066.133-.138.944 3.91 3.04 5.323m0 0c.096.065.195.124.297.177m-.298-.177c3.621-1.898 5.667-1.938 9.337.033m-.417.144c2.156-.936 2.851-2.227 3.337-5.644 1.188 1.849 1.528 3.042.834 5.79" stroke="#FFBC3F" stroke-width=".5"/>
    <path d="M49.252 18.091c-.027-.062-.033-.093-.02-.093.02 0 .043.017.07.052l.05.052.22.344c.08.118.157.26.23.427.074.167.14.361.2.584.06.215.108.472.141.77.04.341.047.678.02 1.012a10.2 10.2 0 01-.11.99.439.439 0 00-.02.104c-.007.055-.02.083-.04.083-.014 0-.027-.024-.04-.073a.594.594 0 01-.02-.114 6.121 6.121 0 01-.04-.271 40.973 40.973 0 01-.04-.323l-.02-.334v-.292c0-.027-.004-.087-.01-.177a4.919 4.919 0 00-.05-.74 9.128 9.128 0 00-.05-.448c.013.216.013.431 0 .646-.014.216-.03.434-.05.657-.02.215-.037.434-.05.656a5.365 5.365 0 000 .657c.02.43.103.868.25 1.313.147.445.38.823.7 1.136.04.041.057.062.05.062-.013.007-.036 0-.07-.02a2.089 2.089 0 01-.58-.5 2.885 2.885 0 01-.38-.636 3.744 3.744 0 01-.21-.709 4.78 4.78 0 01-.081-.75.121.121 0 00-.01-.052v-.063c-.134.396-.284.778-.45 1.146-.16.369-.32.723-.481 1.063-.154.34-.3.664-.44.97-.134.298-.24.576-.321.833-.013.035-.023.052-.03.052-.013 0-.02-.01-.02-.031v-.042c.007-.326.07-.667.19-1.02.12-.362.26-.734.42-1.116.168-.389.341-.785.521-1.188.18-.41.337-.827.47-1.25.08-.271.148-.553.201-.845.06-.291.097-.583.11-.875a5.176 5.176 0 00-.03-.854 3.588 3.588 0 00-.18-.793zm1.241 6.003c.074.16.17.31.29.448.047-.292.138-.58.271-.865.133-.292.284-.583.45-.875.174-.292.354-.584.541-.876.187-.291.36-.587.52-.885.121-.216.221-.448.301-.699.087-.25.147-.503.18-.76.04-.264.05-.525.03-.782a2.4 2.4 0 00-.15-.73c-.02-.034-.023-.058-.01-.072.014-.014.034-.004.06.031a.245.245 0 01.06.063c.08.118.144.274.19.468.054.188.09.4.11.636.028.23.04.473.04.73a9.94 9.94 0 01-.18 1.886 8.93 8.93 0 01-.25 1.104l-.04.094c-.013.049-.03.073-.05.073-.013-.007-.023-.035-.03-.083a1.256 1.256 0 01-.01-.104v-.271l.02-.334.02-.333c.014-.111.027-.205.04-.282a5.57 5.57 0 00.03-.281c.02-.153.037-.323.05-.51a5.981 5.981 0 00-.4 1.427c-.02.16-.04.347-.06.563-.02.215-.03.44-.03.677.006.236.03.47.07.698.047.23.11.455.19.678.087.215.197.413.33.594.027.041.034.066.02.073-.013.007-.03 0-.05-.021a2.255 2.255 0 01-.51-.605 3.11 3.11 0 01-.27-.719 3.648 3.648 0 01-.1-.76c0-.264.013-.521.04-.772.013-.09.023-.18.03-.27l.04-.282c-.154.257-.308.507-.461.75-.154.244-.297.487-.43.73a8.889 8.889 0 00-.361.709c-.1.229-.177.458-.23.687l-.02.052c-.014 0-.02-.014-.02-.041V25v-.167c0-.056.006-.111.02-.167l-.14-.073a1.405 1.405 0 01-.12-.094 2.175 2.175 0 01-.11-.125 1.867 1.867 0 01-.11-.187 2.33 2.33 0 01-.101-.25 7.008 7.008 0 01-.09-.282 2.62 2.62 0 01-.04-.24c0-.069.01-.104.03-.104.013 0 .027.014.04.042a.739.739 0 01.11.188l.03.073.1.25.12.229zm.21-1.928c.147-.299.298-.587.451-.865l.38-.677c.16-.299.328-.59.501-.876.174-.291.324-.548.45-.77.014-.036.027-.067.04-.095.02-.027.038-.034.05-.02.014 0 .017.017.01.052l-.02.104c-.093.5-.263.973-.51 1.417-.24.445-.494.893-.76 1.345a7.122 7.122 0 01-.251.385 3.466 3.466 0 00-.18.292 1.76 1.76 0 00-.12.302 2.078 2.078 0 00-.07.427c.026-.076.056-.149.09-.219.033-.069.066-.135.1-.198.187-.333.397-.666.63-1 .234-.333.465-.646.691-.938a1.52 1.52 0 00.07-.083c.04-.049.067-.07.08-.063.014.007.01.038-.01.094l-.03.125c-.033.077-.076.17-.13.281-.046.112-.1.226-.16.344-.053.112-.11.223-.17.334-.06.104-.114.191-.16.26-.027.042-.084.126-.17.25a4.79 4.79 0 00-.28.47c-.1.187-.201.399-.301.635a3.866 3.866 0 00-.21.75 4.498 4.498 0 00-.08-.156 2.896 2.896 0 01-.1-.302 5.626 5.626 0 01-.2-1.323 47.782 47.782 0 010-1.387c.006-.298.006-.597 0-.896 0-.299-.048-.615-.141-.948-.007-.028-.007-.049 0-.063.013 0 .033.021.06.063.12.132.21.327.27.584.06.25.104.517.13.802.027.278.04.552.04.823.007.264.01.476.01.636v.104zm-2.633-.907c.114-.36.24-.726.381-1.094a37.6 37.6 0 00.38-.99l.04-.104c.02-.035.037-.049.05-.042.014 0 .017.025.01.073v.115c-.06.57-.18 1.136-.36 1.699a24.7 24.7 0 01-.6 1.667c-.134.347-.278.698-.431 1.053-.154.347-.28.726-.38 1.135a.298.298 0 00-.02.063c.006.007.006.01 0 .01-.02-.014-.03-.045-.03-.094-.034-.208-.014-.468.06-.781.073-.32.166-.646.28-.98.113-.34.23-.663.35-.969.12-.312.21-.566.27-.76zm-.43 2.48c.167-.395.347-.802.54-1.219.194-.423.381-.826.561-1.208.007-.021.024-.06.05-.115.034-.056.064-.08.09-.073.014 0 .017.031.01.094a.449.449 0 01-.03.135 7.021 7.021 0 01-.2.771c-.04.14-.083.278-.13.417-.047.132-.09.243-.13.334a4.66 4.66 0 00-.11.27c-.047.133-.107.293-.18.48-.067.188-.14.39-.22.605-.074.208-.144.41-.21.604-.068.188-.128.358-.181.51a1.82 1.82 0 00-.08.313c-.014.07-.027.104-.04.104-.014 0-.024-.014-.03-.041a.152.152 0 00-.01-.063 1.026 1.026 0 01-.05-.365c.006-.16.026-.33.06-.51.033-.18.073-.365.12-.552.053-.188.11-.351.17-.49zm5.967-.896a7.66 7.66 0 01-.16.938l-.18.834c-.027.09-.047.132-.06.125-.014 0-.024-.014-.03-.042a.558.558 0 00-.01-.104 5.432 5.432 0 01.02-1.396c.066-.466.14-.942.22-1.428.053-.292.097-.59.13-.896a5.002 5.002 0 000-1c0-.028.007-.05.02-.063.013 0 .02.01.02.031a.067.067 0 00.03.032c.1.152.157.364.17.635.02.264.02.542 0 .834-.02.292-.05.573-.09.844l-.08.656zm-4.535-3.98a3.45 3.45 0 00-.06-.407 4.421 4.421 0 00-.08-.385.121.121 0 01-.01-.053c0-.02.003-.03.01-.03.02 0 .04.01.06.03l.04.042c.073.104.133.209.18.313.047.097.077.26.09.49a3.207 3.207 0 01-.04.709 1.584 1.584 0 01-.06.301c-.02.084-.04.122-.06.115-.014 0-.024-.017-.03-.052a6.08 6.08 0 01-.02-.136v-.145-.115-.334c0-.11-.007-.225-.02-.343zm3.664-.136a2.848 2.848 0 00-.04-.354 2.256 2.256 0 00-.07-.344.417.417 0 01-.02-.052c0-.021.007-.028.02-.021l.03.031.04.021.02.021c.073.097.13.191.17.281.047.09.074.24.08.448 0 .077-.01.174-.03.292a2.842 2.842 0 01-.06.344c-.02.104-.046.195-.08.271-.027.07-.053.097-.08.083-.013-.007-.02-.027-.02-.062v-.125c0-.049.003-.094.01-.136a.648.648 0 00.01-.093 2.62 2.62 0 00.02-.313 2.12 2.12 0 000-.292zm.35 6.17c.04.118.084.225.13.323l.16.291c.008.007.014.021.02.042.008.014.004.02-.01.02a.108.108 0 01-.05-.01.116.116 0 00-.03-.02 1.87 1.87 0 01-.26-.24c-.06-.07-.12-.195-.18-.375a3.066 3.066 0 01-.1-.563 1.548 1.548 0 010-.25c.007-.07.023-.104.05-.104.007 0 .017.017.03.052a.383.383 0 01.03.104.561.561 0 01.03.115l.03.073a2.6 2.6 0 01.08.28c.02.091.044.178.07.261zm4.479-2.887c0 .347-.047.712-.14 1.094a8.003 8.003 0 01-.861 2.168 5.63 5.63 0 01-.581.844c-.074.083-.117.121-.13.114-.014-.007-.007-.059.02-.156.04-.111.09-.236.15-.375.067-.14.13-.275.19-.407l.19-.396c.067-.125.12-.229.16-.312a5.969 5.969 0 00.33-.98c.06-.208.118-.427.171-.656.053-.23.1-.448.14-.657.04-.215.07-.41.09-.583.027-.181.037-.327.03-.438a1.318 1.318 0 010-.24c.014-.042.027-.055.04-.042.014.008.027.028.04.063.02.035.037.066.05.094.047.139.077.295.09.469.014.174.02.305.02.396zm-1.973 2.876a.76.76 0 01-.19.156.445.445 0 01-.23.073.573.573 0 01-.4-.146 1.09 1.09 0 01-.24-.354 2.115 2.115 0 01-.131-.458c-.02-.16-.03-.303-.03-.428 0-.187.017-.403.05-.646.04-.25.097-.497.17-.74.08-.25.174-.483.28-.698.114-.222.247-.4.4-.531a2.83 2.83 0 01.111-.073c.033-.028.023.007-.03.104-.04.076-.08.142-.12.198a.782.782 0 00-.08.187 3.504 3.504 0 00-.26.636 7.63 7.63 0 00-.15.677c-.06.306-.09.612-.09.918 0 .11.002.232.01.364a1.7 1.7 0 00.08.375.8.8 0 00.18.303.51.51 0 00.35.114c.04 0 .087-.01.14-.031a.792.792 0 00.13-.063c.054-.02.08-.024.08-.01s-.01.038-.03.073zm2.233-2.699c.027.104.04.226.04.365 0 .285-.04.6-.12.948-.08.34-.187.695-.32 1.063-.127.368-.28.74-.461 1.115-.174.375-.357.736-.55 1.084-.188.347-.381.67-.581.969-.2.306-.39.57-.571.792l-.04.042a.183.183 0 01-.05.052.115.115 0 01-.04.041c-.014.007-.02-.003-.02-.03 0-.015.04-.108.12-.282.087-.167.193-.379.32-.636.127-.25.264-.524.41-.823.154-.292.301-.573.441-.844s.26-.51.36-.72c.108-.208.178-.35.21-.427.194-.444.358-.889.492-1.334.14-.451.236-.917.29-1.396l.01-.083c.007-.007.027.027.06.104zm-.65-.771c0 .389-.054.785-.161 1.188-.1.396-.227.788-.38 1.177-.154.39-.324.768-.511 1.136-.18.361-.354.698-.52 1.011-.301.584-.555 1.174-.762 1.772a9.306 9.306 0 00-.43 1.886c-.013.076-.023.108-.03.094-.007 0-.017-.021-.03-.063a6.11 6.11 0 01-.04-.26v-.125c0-.313.033-.63.1-.949a7.48 7.48 0 01.26-.938c.107-.305.224-.604.35-.896.134-.292.268-.566.401-.823h-.27a.92.92 0 01-.52-.146 1.151 1.151 0 01-.361-.386 2.123 2.123 0 01-.22-.562 3.19 3.19 0 01-.07-.678 4.875 4.875 0 01.27-1.407c.06-.173.126-.312.2-.416.053-.077.083-.108.09-.094.007.014 0 .059-.02.135a6.44 6.44 0 00-.21.824 4.939 4.939 0 00-.04 1.365c.02.187.06.361.12.52.067.154.16.282.28.386.12.105.284.157.49.157.148 0 .281-.052.401-.157.12-.104.227-.232.32-.385.1-.153.188-.32.261-.5.08-.181.15-.348.21-.5a2.442 2.442 0 01-.52.542c-.1.076-.2.138-.3.187a.663.663 0 01-.291.073.275.275 0 01-.22-.094.749.749 0 01-.13-.23 1.487 1.487 0 01-.05-.291 3.831 3.831 0 01-.01-.26c0-.25.013-.5.04-.75a5.51 5.51 0 01.15-.751c.066-.25.153-.486.26-.709.113-.23.25-.438.41-.625a.184.184 0 01.05-.052.22.22 0 01.05-.042c.02-.007.03-.003.03.01a.4.4 0 01-.04.084 6.504 6.504 0 00-.48 1.25c-.12.459-.18.904-.18 1.334v.209c.006.09.016.184.03.281.02.097.047.184.08.26.04.07.09.105.15.105.02 0 .047-.01.08-.031.28-.146.517-.348.711-.605.194-.257.354-.542.48-.854.127-.32.218-.646.27-.98.061-.34.094-.663.101-.97 0-.11.007-.17.02-.176.013-.007.037.052.07.177.04.201.06.382.06.542zm-1.913 6.17a.969.969 0 01-.05.239 4.97 4.97 0 01-.1.354c-.04.125-.08.247-.12.365l-.09.27a2.98 2.98 0 00-.12.449c-.027.153-.057.309-.09.469a.294.294 0 01-.01.062c-.007.028-.02.042-.04.042-.014 0-.024-.017-.03-.052a.464.464 0 01-.01-.073 1.468 1.468 0 01-.03-.23c0-.097.002-.173.01-.229.02-.173.056-.36.11-.562.053-.195.11-.379.17-.553.066-.166.133-.305.2-.416.066-.112.123-.167.17-.167.02 0 .03.01.03.031zm3.18-1.793c-.047.048-.077.07-.09.062-.013-.007-.013-.024 0-.052a.518.518 0 00.03-.052 1.666 1.666 0 01.23-.24 2.33 2.33 0 01-.35-.708 3.499 3.499 0 01-.13-.792 4.871 4.871 0 01.03-.824c.04-.277.09-.549.15-.813.12-.52.257-1.028.41-1.52.16-.501.294-.98.401-1.439a3.214 3.214 0 00-.58.167c-.168.07-.278.146-.331.229-.02.035-.04.049-.06.042-.014-.007-.007-.039.02-.094a.747.747 0 01.29-.313c.14-.097.3-.177.48-.24.181-.062.374-.11.581-.145a3.11 3.11 0 01.611-.042c.434.014.794.1 1.081.26.294.16.444.396.451.71 0 .194-.067.388-.2.583a2.972 2.972 0 01-.47.552c-.181.167-.375.32-.582.459a7.207 7.207 0 01-.53.312l-.04.146c.1-.09.233-.163.4-.219.167-.055.34-.083.52-.083.188 0 .368.035.541.104.18.063.338.167.471.313.18.208.294.448.34.719.054.264.04.524-.04.781a1.39 1.39 0 01-.37.636c-.174.16-.35.281-.53.365a.607.607 0 01-.11.052c-.054.014-.088.01-.1-.01-.008-.015.01-.039.05-.074.04-.041.07-.069.09-.083a1.59 1.59 0 00.46-.51 1.69 1.69 0 00.23-.668c.034-.236.01-.462-.07-.677a.913.913 0 00-.47-.5 1.142 1.142 0 00-.371-.104 1.708 1.708 0 00-.46-.021 1.126 1.126 0 00-.431.104.54.54 0 00-.27.292 1.48 1.48 0 01.41-.177c.154-.042.307-.06.46-.052.16 0 .311.03.451.093.14.056.257.143.35.261a.857.857 0 01.19.459c.02.16.004.316-.05.468a1.182 1.182 0 01-.24.428c-.106.132-.23.243-.37.333a8.579 8.579 0 01-.62.354c-.228.112-.455.23-.681.355a6.773 6.773 0 00-.651.385 2.88 2.88 0 00-.53.428zm1.202-2.98c-.12.312-.22.628-.3.948a8.226 8.226 0 01-.251.864c-.034.09-.057.133-.07.125-.02-.006-.03-.024-.03-.052v-.104c.02-.528.093-1.049.22-1.563.127-.521.264-1.046.41-1.573.094-.327.18-.66.26-1 .088-.348.138-.72.151-1.116h-.17c.007.188 0 .375-.02.563a2.76 2.76 0 01-.07.469 18.466 18.466 0 01-.76 2.314c-.008.013-.024.048-.051.103-.02.049-.04.07-.06.063-.014-.007-.024-.038-.03-.094 0-.056.003-.094.01-.115a4.09 4.09 0 01.04-.312c.026-.125.05-.254.07-.386.026-.132.053-.26.08-.385a13 13 0 01.09-.323l.05-.24a6.67 6.67 0 00.1-.448c.034-.18.067-.372.1-.573.04-.209.074-.41.1-.605a.51.51 0 00-.12.01 6.734 6.734 0 01-.15.782c-.06.264-.13.532-.21.803l-.24.813c-.08.264-.15.531-.21.802-.054.23-.094.469-.12.719-.028.25-.04.5-.04.75 0 .244.02.483.06.72.04.236.103.461.19.677l.09-.094a1.74 1.74 0 01-.11-.427 2.574 2.574 0 01-.03-.292c0-.118.003-.233.01-.344.006-.111.016-.205.03-.281.013-.077.033-.115.06-.115.006 0 .013.017.02.052a.559.559 0 01.03.125c.006.049.013.094.02.136a11.883 11.883 0 01.05.542c.013.083.023.166.03.25.013.076.03.142.05.198a3.28 3.28 0 01.49-.386c.174-.118.344-.226.51-.323l.502-.281c.16-.09.3-.181.42-.271a.978.978 0 00.4-.553.69.69 0 00-.47-.865 1.137 1.137 0 00-.46-.052 1.048 1.048 0 00-.421.105.483.483 0 00-.25.24zm1.592-1.595c.013.007-.004.045-.05.114-.04.063-.067.108-.08.136a1.3 1.3 0 00.6-.25 1.57 1.57 0 00.43-.47 1.61 1.61 0 00.14-1.27 1.312 1.312 0 00-.33-.563 1.96 1.96 0 00-.53-.375 2.478 2.478 0 00-.651-.209 3.399 3.399 0 00-.7-.052c-.234 0-.458.02-.672.063-.213.041-.4.1-.56.177a.273.273 0 01-.06.02l-.01-.01c-.007-.02.01-.045.05-.073.166-.153.377-.267.63-.344.26-.076.531-.114.811-.114.287 0 .574.041.861.125.287.076.544.198.771.364.234.16.424.369.57.626a1.8 1.8 0 01.251.886c.007.208-.02.399-.08.573a1.678 1.678 0 01-.59.792c-.127.09-.26.166-.401.229.22.104.41.267.57.49.16.215.274.43.341.646.08.285.097.556.05.813-.04.257-.113.49-.22.698-.1.208-.217.389-.35.542-.127.146-.238.25-.331.312-.194.132-.39.237-.59.313-.2.07-.398.125-.591.167a5.64 5.64 0 01-.561.073c-.174.014-.33.024-.47.031-.107.014-.16.01-.16-.01-.008-.014.01-.028.05-.042l.12-.02a6.01 6.01 0 00.77-.199c.254-.083.51-.195.771-.333.127-.07.257-.15.39-.24.14-.097.268-.209.381-.334.12-.132.22-.277.3-.437.087-.16.144-.337.17-.532a2.164 2.164 0 00-.02-.719 1.49 1.49 0 00-.33-.698c-.173-.215-.357-.361-.55-.438a1.366 1.366 0 00-.611-.093c-.053 0-.08-.004-.08-.01 0-.015.036-.04.11-.074.073-.035.12-.059.14-.073.06-.041.124-.09.19-.146.067-.055.104-.076.11-.062zm.12-1.188c0-.223-.114-.382-.34-.48-.228-.104-.541-.173-.942-.208.047.215.077.413.09.594.014.18.01.361-.01.542a3.538 3.538 0 01-.09.552c-.04.188-.087.396-.14.625.14-.069.294-.173.46-.312.167-.146.32-.295.461-.448.147-.16.267-.316.36-.47.1-.159.15-.291.15-.395zm-1.382-1.595c.227-.013.484.014.77.084.295.062.558.167.792.312.12.077.22.17.3.282.08.11.14.229.18.354.047.118.074.24.08.365a.955.955 0 01-.06.406.593.593 0 01-.03.073l-.04.063c-.013.014-.026.017-.04.01-.02 0-.03-.024-.03-.073.007-.049.017-.1.03-.156a.858.858 0 00-.05-.51.87.87 0 00-.28-.366 1.537 1.537 0 00-.44-.25 3.213 3.213 0 00-.521-.145 2.592 2.592 0 00-.51-.053 2.793 2.793 0 00-.431.01 3.21 3.21 0 00-.501.105c-.16.042-.31.09-.45.146-.14.056-.26.114-.36.177a.747.747 0 00-.211.177c-.04.056-.064.073-.07.052 0-.02.006-.052.02-.094a.865.865 0 01.26-.375 1.86 1.86 0 01.44-.302c.167-.083.351-.15.551-.198.2-.049.4-.08.601-.094zm-.49 7.024c-.22.09-.398.17-.531.24-.127.07-.254.16-.38.27a.116.116 0 00-.04.043c-.014.02-.027.027-.04.02-.014-.007-.014-.027 0-.062a1.436 1.436 0 01.3-.344 1.62 1.62 0 01.45-.271c.067-.028.14-.056.22-.083a1.956 1.956 0 01.43-.125c.054-.007.088 0 .101.02.007.014-.013.035-.06.063l-.16.094-.18.083c-.054.028-.09.045-.11.052zm6.446-4.085c.053.07.093.156.12.26a.955.955 0 01.04.345 1.36 1.36 0 01-.3.76c-.194.236-.408.42-.641.553-.227.125-.434.187-.621.187-.114 0-.114-.02 0-.062.06-.021.13-.053.21-.094a4.06 4.06 0 00.27-.167c.094-.07.187-.15.28-.24.101-.09.191-.194.271-.312.134-.195.21-.382.23-.563.027-.188-.006-.33-.1-.427a.417.417 0 00-.28-.136c-.107-.014-.267.045-.48.177a2.27 2.27 0 00-.521.438 5.728 5.728 0 00-.43.552c-.074.098-.124.146-.15.146-.02 0-.01-.062.03-.187.08-.243.19-.47.33-.678.146-.208.32-.385.52-.531.147-.104.28-.177.4-.219a.902.902 0 01.341-.052c.107.007.2.035.28.083.08.042.147.098.2.167zm.54.73a1.446 1.446 0 01-.32.719 1.053 1.053 0 01-.21.187 7.048 7.048 0 00-.18.136c-.027.02-.047.024-.06.01-.014-.014-.004-.038.03-.073.12-.104.24-.243.36-.417.127-.18.193-.378.2-.594 0-.368-.087-.65-.26-.844a.724.724 0 00-.651-.25c-.26.021-.53.125-.811.313-.18.118-.34.257-.48.417-.134.152-.25.32-.351.5a3.3 3.3 0 00-.25.542c-.06.187-.104.375-.13.562-.027.181-.054.376-.08.584-.02.208-.02.413 0 .615.026.201.09.396.19.583.1.181.257.337.47.47.034.02.067.034.1.041.04.007.06.014.06.02 0 .015-.016.022-.05.022a.206.206 0 01-.11-.01.935.935 0 01-.43-.21 1.51 1.51 0 01-.28-.374 2.047 2.047 0 01-.17-.438 2.108 2.108 0 01-.07-.417 4 4 0 01.22-1.625c.04-.112.09-.237.15-.376.066-.139.146-.277.24-.416.093-.146.203-.285.33-.417.127-.14.27-.26.43-.365.154-.097.314-.17.481-.219.167-.049.334-.07.5-.062.168 0 .325.03.472.093.146.056.276.143.39.26.1.112.177.255.23.428.06.174.074.375.04.605zm-.91-.376c.08.098.09.25.03.459-.06.201-.201.406-.421.615a2.49 2.49 0 01-.35.292c-.114.07-.258.132-.431.187-.074.264-.12.525-.14.782-.02.257-.014.465.02.625a.513.513 0 00.06.188c.04.055.093.1.16.135a.68.68 0 00.28.031c.114-.007.254-.045.42-.114.047-.021.074-.025.08-.01.014.006-.006.027-.06.062-.12.097-.246.166-.38.208-.133.035-.26.045-.38.032a.585.585 0 01-.3-.126.508.508 0 01-.16-.28 3.167 3.167 0 01-.07-.762c.006-.264.043-.524.11-.781a3.24 3.24 0 01.3-.72c.133-.229.297-.423.49-.583.36-.299.608-.378.741-.24zm-.1 3.325a1.259 1.259 0 01-.421.385c-.087.049-.18.09-.28.125a.827.827 0 01-.291.053c-.174 0-.337-.039-.49-.115-.148-.084-.261-.247-.341-.49a.174.174 0 01-.02-.073c0-.028.007-.042.02-.042.027-.014.053-.003.08.032.027.027.053.059.08.093.074.09.167.17.28.24.12.07.234.104.34.104.201 0 .375-.03.521-.093.147-.063.287-.146.42-.25.034-.021.071-.042.111-.063.047-.02.044.01-.01.094zm-.141-3.043c-.027-.056-.124-.01-.29.135-.154.125-.277.271-.37.438a3.48 3.48 0 00-.231.531 2.49 2.49 0 00.35-.208c.107-.083.207-.163.3-.24a.79.79 0 00.22-.354c.048-.146.054-.247.02-.302zm2.22-.23a.846.846 0 01.06-.218c.033-.09.077-.174.13-.25.06-.084.13-.157.21-.22a.59.59 0 01.27-.135c.214-.041.391-.027.531.042.14.07.247.15.32.24.028.041.037.066.03.073-.013.014-.036.01-.07-.01a.6.6 0 00-.2-.074.8.8 0 00-.29-.01.72.72 0 00-.3.094.61.61 0 00-.23.27c-.054.119-.09.24-.11.365a3.63 3.63 0 00-.04.355c0 .104.003.194.01.27.006.077.01.13.01.157.013.076.023.174.03.292.013.11.02.225.02.343 0 .119-.004.237-.01.355a1.7 1.7 0 01-.04.292c-.007.02-.017.055-.03.104-.007.049-.017.073-.03.073-.034 0-.05-.024-.05-.073v-.104a4.654 4.654 0 00-.07-.521c-.034-.181-.068-.365-.1-.553a8.077 8.077 0 01-.061-.563 3.552 3.552 0 01.01-.593zm-.35 2.064a3.462 3.462 0 00-.04-.584 7.255 7.255 0 01-.03-.886c.006-.173.023-.35.05-.53a1.6 1.6 0 01.19-.553c.107-.195.24-.337.4-.428.167-.097.31-.142.43-.135h.06c.02 0 .03.003.03.01 0 .014-.002.021-.01.021-.006-.007-.03-.003-.07.01a.816.816 0 00-.32.178 1.147 1.147 0 00-.24.27c-.067.105-.12.213-.16.324-.04.111-.064.212-.07.302-.04.382-.037.716.01 1 .033.23.06.47.08.72.02.243.01.469-.03.677a1.123 1.123 0 01-.21.51c-.1.133-.257.206-.47.22h-.081c-.027-.008-.04-.018-.04-.032 0-.014.03-.038.09-.073a.618.618 0 00.34-.365c.054-.16.084-.378.09-.656zm-1.062 1.23c.094.152.24.267.44.343.208.07.451.063.732-.02a.884.884 0 00.37-.22 1.608 1.608 0 00.42-.75c.04-.139.064-.267.07-.385.007-.195 0-.386-.02-.573a6.67 6.67 0 00-.06-.542l-.06-.521a2.989 2.989 0 010-.49c.014-.174.06-.306.14-.396a.5.5 0 01.291-.167.677.677 0 01.37.021c.127.042.244.108.35.198.028.014.038.031.031.052 0 .014-.007.018-.02.01a7.663 7.663 0 01-.04-.02c-.247-.084-.44-.108-.58-.073-.134.035-.208.16-.221.375-.013.25.003.545.05.886.053.333.073.705.06 1.115.007.139-.01.299-.05.48-.033.18-.093.357-.18.53a1.51 1.51 0 01-.33.449.903.903 0 01-.481.25c-.354.055-.638.035-.851-.063a.903.903 0 01-.45-.448.453.453 0 01-.02-.073h.01l.03.032zm.44 0c.128.034.281.048.461.041.06-.007.134-.024.22-.052.087-.028.134-.035.14-.02.02.027 0 .062-.06.104-.06.041-.136.08-.23.114-.093.028-.19.049-.29.063a.553.553 0 01-.25-.032.75.75 0 01-.27-.177 1.132 1.132 0 01-.16-.25l-.02-.041c-.014-.028-.017-.046-.01-.053.006-.007.016-.007.03 0 .006.007.01.014.01.021.08.077.146.136.2.177.06.035.136.07.23.105zm5.452-4.075c.007.007.01.024.01.052a.12.12 0 01-.01.052c-.06.202-.163.344-.31.427a.814.814 0 01-.39.125c-.14 0-.284-.01-.431-.03a.976.976 0 01-.47-.24c-.02-.014-.03-.028-.03-.042 0-.021.01-.035.03-.042a.51.51 0 01.05-.031c.06-.014.136-.024.23-.031.1-.014.197-.014.29 0 .067.014.147.02.24.02a1.901 1.901 0 00.55-.083.39.39 0 00.181-.146c.02-.028.04-.038.06-.031zm.07-.323l-.03.052a.844.844 0 01-.36.302c-.127.042-.26.06-.4.052a3.144 3.144 0 01-.431-.052 2.196 2.196 0 00-.42-.062.937.937 0 00-.561.177c-.187.125-.347.344-.48.656-.021.042-.034.053-.041.032a.134.134 0 010-.073c.053-.209.117-.382.19-.521.074-.14.15-.25.23-.334a.874.874 0 01.27-.198c.094-.041.191-.07.291-.083.114-.396.2-.782.26-1.157.067-.382.074-.743.02-1.084v-.041c.014-.007.027-.004.04.01.014.014.02.024.02.031.147.334.207.692.18 1.074a6.72 6.72 0 01-.2 1.188c.034.007.06.01.08.01h.07c.034-.18.064-.372.09-.573.034-.209.058-.407.07-.594.02-.188.028-.358.02-.51a.847.847 0 00-.07-.345c-.02-.062-.02-.093 0-.093.014 0 .024.007.03.02a.165.165 0 00.03.042c.094.097.168.23.221.396.054.167.09.344.11.532.02.187.027.375.02.562-.006.181-.026.34-.06.48l-.04.166c.02.014.04.021.06.021.02 0 .04.004.06.01.04-.208.074-.416.1-.625.034-.208.047-.427.04-.656 0-.049.004-.073.01-.073.014 0 .024.01.03.031.007.021.014.038.02.052.08.153.117.344.11.573 0 .23-.016.473-.05.73a.782.782 0 00.421-.125c.034-.02.05-.02.05 0zm-2.072.709c0 .034-.02.069-.06.104a.599.599 0 01-.08.073 4.688 4.688 0 00-.12.104.878.878 0 00-.11.114 1.302 1.302 0 01-.1.146.635.635 0 00-.07.178.16.16 0 01-.03.041c-.008.007-.014.007-.02 0-.02-.02-.02-.066 0-.135.026-.104.052-.188.08-.25a.68.68 0 01.25-.303c.04-.027.08-.052.12-.073a.23.23 0 01.1-.03c.026 0 .04.01.04.03zm.78 4.189c.034-.014.047-.01.04.01-.006.021-.016.035-.03.042a.52.52 0 01-.38-.02 1.103 1.103 0 01-.37-.262 1.765 1.765 0 01-.29-.406c-.08-.16-.13-.316-.15-.469a5.017 5.017 0 01-.01-.948c.026-.306.076-.608.15-.907l.17-.656c-.04 0-.08-.01-.12-.032-.047-.013-.07-.03-.07-.052 0-.014.023-.034.07-.062.186-.098.373-.14.56-.125.194.014.387.038.58.073.121.02.241.038.361.052a.92.92 0 00.41-.084c.014-.014.028-.017.04-.01.014.014.01.038-.01.073a.409.409 0 01-.17.198.955.955 0 01-.23.094c-.053.18-.1.344-.14.49l-.1.354c-.073.333-.16.674-.26 1.021a7.14 7.14 0 00-.19.865c-.014.077-.027.118-.04.125-.014.007-.027-.007-.04-.042a1.713 1.713 0 01-.03-.083 3.226 3.226 0 01-.02-.625 6.16 6.16 0 01.1-.678c.046-.229.1-.458.16-.687.06-.237.123-.473.19-.709h-.1a.493.493 0 01-.1-.01c-.054.146-.11.291-.17.437-.054.14-.107.271-.16.396a90.68 90.68 0 00-.05.104c-.02.05-.037.073-.05.073-.028-.006-.037-.038-.03-.093.006-.063.01-.105.01-.125.013-.105.032-.226.06-.365.033-.14.063-.288.09-.448a.537.537 0 00-.11-.01.76.76 0 01-.121-.032l-.12.407-.1.395a6.58 6.58 0 00-.12.782c-.027.271-.027.552 0 .844.013.132.046.268.1.407.06.139.13.264.21.375.08.11.17.198.27.26a.43.43 0 00.31.063zm.09-.23c.034-.027.054-.027.06 0 .008.021-.006.042-.04.063a.334.334 0 01-.11.052.475.475 0 01-.31-.062.553.553 0 01-.17-.167.84.84 0 01-.12-.271 3.416 3.416 0 01-.06-.344 1.609 1.609 0 01-.01-.302c.007-.083.023-.125.05-.125.033 0 .057.048.07.146l.05.24c.027.11.064.225.11.343.047.118.097.212.15.282.067.09.127.145.18.166a.19.19 0 00.15-.02zm2.123-3.188c-.033.243-.05.48-.05.708 0 .23.017.445.05.646.033.202.08.386.14.553.067.16.15.295.25.406.127.14.29.24.491.302.207.056.437.066.69.032.068-.271.144-.532.231-.782.094-.25.18-.493.26-.73.087-.236.16-.468.22-.698.06-.229.09-.455.09-.677 0-.02.004-.031.01-.031.008 0 .014.01.02.031.014.02.02.035.02.042.081.257.104.517.071.781a3.927 3.927 0 01-.17.792c-.08.271-.174.55-.28.834a6.134 6.134 0 00-.26.865 2.233 2.233 0 00-.06.458c-.008.181.002.362.03.542.032.188.086.372.16.553.08.18.19.34.33.479a.163.163 0 00.03.042l.01.01h-.03c-.007 0-.014-.003-.02-.01a1.943 1.943 0 01-.45-.428c-.114-.16-.201-.326-.261-.5a2.23 2.23 0 01-.1-.51c-.007-.167.003-.32.03-.459-.2.049-.4.056-.6.02a1.792 1.792 0 01-.541-.187.35.35 0 01-.11-.083c-.034-.042-.047-.066-.04-.073l.15.031c.106.014.223.032.35.052l.39.042c.134.007.23.007.29 0a.18.18 0 01.06-.01.678.678 0 00.09-.032.61.61 0 01.04-.198c-.233.056-.46.063-.68.021a1.224 1.224 0 01-.59-.292 1.48 1.48 0 01-.341-.448 3.116 3.116 0 01-.19-.583 4.064 4.064 0 01-.07-.646c-.007-.23 0-.455.02-.678a5.144 5.144 0 01.62-2.073c.18-.313.39-.58.631-.803.247-.23.524-.389.831-.48.14-.041.29-.058.45-.051.16.006.311.038.451.093.14.056.26.136.36.24a.64.64 0 01.2.375c.034.167.02.33-.04.49-.06.153-.143.288-.25.406a.945.945 0 01-.36.24.48.48 0 01-.38-.01c-.047-.014-.057-.028-.03-.042.013-.007.023-.007.03 0 .006.007.016.01.03.01.08.014.17-.003.27-.052.1-.048.19-.118.27-.208a.953.953 0 00.2-.313.669.669 0 00.05-.375.673.673 0 00-.37-.458c-.1-.049-.213-.08-.34-.094a1.265 1.265 0 00-.39.02 1.472 1.472 0 00-.692.355c-.213.18-.403.406-.57.677a4.73 4.73 0 00-.65 1.865zm.791 3.439a.91.91 0 01.16.03c.014.008-.037.011-.15.011-.187 0-.377-.03-.57-.093a2.228 2.228 0 01-.531-.261 2.22 2.22 0 01-.45-.427 1.765 1.765 0 01-.301-.553 4.994 4.994 0 01-.26-1.25 5.642 5.642 0 01.21-1.949 5.98 5.98 0 01.3-.854c.134-.292.297-.58.49-.865.194-.285.428-.546.702-.782a2.13 2.13 0 01.96-.49 2.51 2.51 0 011.012-.041c.32.055.604.177.85.364.248.181.411.407.491.678a.788.788 0 01.03.083c.014.042.014.066 0 .073-.013.007-.026-.007-.04-.042a.443.443 0 00-.07-.114c-.28-.396-.597-.646-.95-.75a2.003 2.003 0 00-1.052-.032 2.6 2.6 0 00-.971.48c-.3.229-.54.486-.721.77a5.437 5.437 0 00-.7 1.574 6.23 6.23 0 00-.221 1.72c.007.285.037.573.09.865.053.292.15.576.29.854.134.271.33.497.591.678.267.18.537.288.811.323zm-1.422-3.95c.047-.361.127-.715.24-1.063.114-.354.264-.674.451-.959.194-.285.43-.531.711-.74.28-.208.61-.354.991-.437a1.68 1.68 0 01.43-.032c.168 0 .331.032.491.094.167.056.32.143.46.26.148.119.268.282.361.49.087.202.117.404.09.605-.02.195-.073.372-.16.532-.08.152-.183.28-.31.385a.675.675 0 01-.36.177.252.252 0 01-.08.01c-.028-.006-.04-.017-.04-.03 0-.015.002-.018.01-.011a.747.747 0 00.27-.146.898.898 0 00.18-.208c.06-.084.113-.18.16-.292.047-.111.077-.233.09-.365a.877.877 0 00-.05-.396.964.964 0 00-.21-.333 1.146 1.146 0 00-.681-.396 1.646 1.646 0 00-1.071.166c-.32.167-.604.4-.851.699a4.217 4.217 0 00-.621.99 6.396 6.396 0 00-.4 1.104 3.347 3.347 0 00-.04.136 3.395 3.395 0 01-.04.135c-.007.035-.014.052-.02.052-.007 0-.014-.017-.02-.052v-.135a1.24 1.24 0 00.01-.146.92.92 0 00.01-.094zm3.434 3.679c-.04.152-.1.344-.18.573l-.2.646c-.02.056-.037.083-.05.083-.027 0-.043-.014-.05-.041v-.053a2.969 2.969 0 01.07-1.042c.04-.166.087-.333.14-.5.06-.166.12-.344.18-.531.08-.243.154-.48.22-.709.067-.236.107-.5.12-.792v-.052c.007-.007.017-.01.03-.01l.03.062c.067.146.094.327.08.542a3.938 3.938 0 01-.08.667c-.046.23-.103.448-.17.656-.06.209-.106.376-.14.5zm.03-1.657a22.487 22.487 0 01-.66 1.646.412.412 0 00-.04.073c-.014.035-.03.049-.05.042-.014-.007-.02-.028-.02-.063v-.093c0-.063.006-.14.02-.23.013-.097.03-.19.05-.281l.06-.281a2.14 2.14 0 01.08-.23 9.22 9.22 0 00.09-.333c.047-.188.093-.39.14-.605.047-.222.084-.437.11-.646.027-.208.027-.364 0-.469-.013-.034-.013-.059 0-.073.013 0 .023.01.03.032l.04.041c.06.098.107.212.14.344.034.125.054.257.06.396a1.97 1.97 0 010 .396 1.587 1.587 0 01-.05.334zm-.59 3.074c.08.174.177.337.29.49.02.02.023.038.01.052a.049.049 0 01-.06 0 .116.116 0 01-.03-.021 1.372 1.372 0 01-.23-.167c-.06-.055-.12-.163-.18-.323a1.846 1.846 0 01-.06-.219 3.186 3.186 0 01-.04-.448c.006-.055.02-.08.04-.073.033 0 .06.042.08.125l.05.157c.026.076.046.15.06.218.013.07.036.14.07.209zm2.846-4.554c.02-.09.03-.195.03-.313.006-.118 0-.24-.02-.364a1.28 1.28 0 00-.11-.355.918.918 0 00-.19-.302.277.277 0 00-.07-.042c-.028 0-.028.021 0 .063.04.09.052.233.04.427a4.856 4.856 0 01-.06.594c-.034.202-.071.386-.111.553l-.06.291a3.38 3.38 0 00-.13.47 2.73 2.73 0 00-.05.458.224.224 0 00-.01.083c0 .042.01.066.03.073.006 0 .02-.017.04-.052a.403.403 0 01.05-.073c.12-.222.234-.465.34-.73a6.5 6.5 0 00.28-.781zm.04 1.573c.026-.125.07-.284.13-.479.06-.201.11-.406.15-.615.04-.215.06-.424.06-.625a.973.973 0 00-.12-.51c-.027-.028-.047-.042-.06-.042-.014 0-.017.014-.01.041 0 .264-.03.511-.09.74a10.55 10.55 0 01-.18.657c-.114.354-.217.701-.31 1.042a3.334 3.334 0 00-.121 1.032v.073c.007.02.02.03.04.03.013 0 .023-.006.03-.02l.03-.063c.067-.166.144-.36.23-.583.087-.23.16-.455.22-.677zm-.711 1.866a1.51 1.51 0 01-.29-.459 2.52 2.52 0 01-.14-.52 2.453 2.453 0 01-.02-.543c.013-.18.04-.35.08-.51.06-.25.136-.5.23-.75a8.64 8.64 0 00.24-.74c.067-.25.103-.494.11-.73a1.465 1.465 0 00-.14-.708c-.02-.035-.034-.053-.04-.053-.007 0-.01.007-.01.021 0 .007.003.014.01.021.02.208.007.424-.04.646a7.556 7.556 0 01-.18.688c-.074.23-.157.469-.25.719-.088.243-.16.493-.221.75a4.11 4.11 0 00-.1.574c-.014.194 0 .389.04.583.04.188.113.368.22.542.107.174.26.333.46.48.014.013.03.02.05.02.02.007.017-.003-.01-.031zm.08-.396a6.353 6.353 0 01-.07-.209 3.974 3.974 0 01-.05-.24 1.015 1.015 0 01-.05-.155c-.02-.077-.037-.115-.05-.115-.027 0-.047.024-.06.073-.007.048-.01.111-.01.187 0 .07.003.146.01.23.013.076.03.142.05.198.04.139.086.236.14.291.06.056.137.101.23.136.04.02.07.031.09.031.007 0 .007-.007 0-.02 0-.008-.003-.011-.01-.011a1.699 1.699 0 01-.13-.177 1.322 1.322 0 01-.09-.22zm.78-5.388c-.033 0-.086-.003-.16-.01-.066-.014-.1-.049-.1-.104 0-.021.03-.046.09-.073.06-.035.127-.08.2-.136.074-.062.141-.139.201-.23a.683.683 0 00.09-.364c0-.18-.033-.316-.1-.406a.42.42 0 00-.05-.063c-.02-.028-.027-.045-.02-.052.013 0 .027.007.04.021a.756.756 0 01.34.323.65.65 0 01.11.344c0 .222-.05.403-.15.542-.1.139-.263.208-.49.208zm-.37-.417c-.08.035-.12.014-.12-.062 0-.056.02-.108.06-.157.04-.055.077-.114.11-.177a.56.56 0 00.08-.208.544.544 0 00-.06-.302.45.45 0 00-.07-.115c-.033-.042-.043-.066-.03-.073.014-.007.04 0 .08.021a.525.525 0 01.34.281c.06.111.09.209.09.292a.42.42 0 01-.16.334.794.794 0 01-.32.166zm-.29-.562c0-.035.01-.073.03-.115.02-.049.053-.073.1-.073.034 0 .06.024.08.073.02.042.03.08.03.115 0 .027-.01.066-.03.114-.02.042-.046.063-.08.063a.103.103 0 01-.1-.063.267.267 0 01-.03-.114zm4.736 2.105c-.014-.007-.03.003-.05.031a.245.245 0 01-.04.063c-.1.131-.19.295-.27.49-.08.194-.15.399-.21.614-.054.215-.1.43-.14.646l-.091.573c-.033.237-.064.462-.09.678l-.06.615c-.02.201-.037.406-.05.614-.014.202-.03.41-.05.626.006.007.01.024.01.052v.177c0 .028.006.042.02.042.006 0 .016-.014.03-.042a.695.695 0 00.04-.073.423.423 0 00.03-.083l.01-.042c.073-.167.137-.361.19-.584.053-.222.097-.444.13-.667l.04-.343.07-.605.09-.74c.04-.27.077-.528.11-.77.04-.251.08-.477.12-.678.047-.202.09-.355.13-.459a.326.326 0 01.02-.062.094.094 0 00.01-.042v-.031zm-.33-.042c0-.007-.024-.01-.07-.01-.02 0-.04.003-.06.01a1.85 1.85 0 00-.701.219c-.214.111-.411.253-.591.427-.174.167-.33.358-.47.573a3.854 3.854 0 00-.331.667 3.866 3.866 0 00-.21.75c-.047.264-.064.511-.05.74.02.3.146.327.38.084.2-.209.387-.434.56-.678.18-.243.348-.5.501-.77.16-.272.31-.546.45-.824l.421-.855c.027-.055.037-.083.03-.083-.013-.014-.03-.014-.05 0-.013.014-.02.028-.02.042-.36.48-.697.938-1.01 1.375-.308.438-.592.872-.852 1.303-.033.035-.057.045-.07.031-.007-.014-.007-.038 0-.073a4.32 4.32 0 01.07-.49c.04-.173.094-.347.16-.52.16-.424.39-.8.691-1.126.3-.326.678-.57 1.131-.73.06-.027.09-.048.09-.062zm-.541-.073c-.007-.014-.023-.02-.05-.02h-.06c-.187 0-.384.055-.591.166-.2.111-.394.254-.58.427a3.29 3.29 0 00-.501.563 2.628 2.628 0 00-.33.584c-.094.25-.174.493-.24.729-.061.23-.094.462-.101.698-.007.125-.003.247.01.365.02.118.053.247.1.386.027.083.07.149.13.197.067.05.134.08.2.094a.587.587 0 00.22 0 .436.436 0 00.191-.083l.04-.042a.67.67 0 00.13-.135c.02-.021.027-.038.02-.052-.007-.014-.04-.004-.1.031a.5.5 0 01-.14.052c-.14.028-.247.017-.32-.031a.436.436 0 01-.15-.209 1.177 1.177 0 01-.04-.312c.006-.118.016-.233.03-.344 0-.042.006-.115.02-.219.02-.104.05-.23.09-.375.04-.153.093-.32.16-.5.073-.181.16-.362.26-.542.1-.18.217-.348.35-.5.14-.153.28-.289.42-.407a3.17 3.17 0 01.401-.292c.134-.076.247-.128.34-.156a.273.273 0 00.08-.031.097.097 0 00.01-.042zm1.211-.115c-.02 0-.036.014-.05.042a.433.433 0 00-.02.052c-.2.431-.34.876-.42 1.334-.08.452-.14.914-.18 1.386l-.12 1.428c-.04.48-.12.959-.24 1.438-.041.153-.081.313-.121.48a3.21 3.21 0 01-.16.49c-.067.159-.157.308-.27.447a1.246 1.246 0 01-.441.365c-.214.118-.41.167-.59.146a1.235 1.235 0 01-.501-.146 1.72 1.72 0 01-.42-.323 7.925 7.925 0 01-.331-.344.342.342 0 01-.04-.052c-.014-.014-.024-.018-.03-.01-.014.006-.017.02-.01.041l.03.063c.153.298.387.559.7.781.074.056.164.104.27.146.108.042.221.07.341.084.127.02.254.017.38-.01a.909.909 0 00.381-.157 2.16 2.16 0 00.52-.49 2.57 2.57 0 00.5-1.063c.048-.188.091-.372.131-.552.114-.473.19-.942.23-1.407.047-.473.084-.938.11-1.397.028-.458.061-.91.101-1.354.04-.452.117-.89.23-1.313a.165.165 0 00.02-.063v-.042zm-1.181 1.99c.033-.145.077-.294.13-.447.06-.16.107-.316.14-.47 0-.013.004-.037.01-.072.014-.035.017-.052.01-.052-.013-.007-.033.01-.06.052a.295.295 0 00-.04.073c-.093.16-.177.33-.25.51-.074.174-.14.334-.2.48a1.648 1.648 0 01-.09.177l-.13.27c-.04.091-.077.178-.11.261-.028.077-.03.122-.01.136.013 0 .033-.014.06-.042a.996.996 0 01.06-.073.95.95 0 01.07-.104 1.65 1.65 0 01.08-.115 9.4 9.4 0 01-.11.438 2.672 2.672 0 01-.09.302 2.492 2.492 0 01-.29.532c-.055.076-.121.16-.201.25a1.527 1.527 0 01-.57.417 1.038 1.038 0 01-.361.062.55.55 0 01-.38-.125.863.863 0 01-.211-.323 1.71 1.71 0 01-.09-.417 2.812 2.812 0 01-.01-.406c.026-.5.137-.987.33-1.459.2-.48.477-.907.831-1.282 0-.007.01-.02.03-.041.02-.021.03-.035.03-.042-.013-.014-.03-.014-.05 0l-.04.02c-.12.077-.247.181-.38.313-.127.132-.25.289-.37.47-.114.173-.221.367-.321.583a5.604 5.604 0 00-.24.667c-.034.118-.06.26-.08.427a4.24 4.24 0 00-.01.51c.013.174.036.352.07.532.04.174.1.33.18.47.087.131.193.239.32.322a.848.848 0 00.49.094 1.27 1.27 0 00.752-.282 2.13 2.13 0 00.25-.24c.073-.082.147-.162.22-.239-.04.243-.08.452-.12.625-.033.167-.067.327-.1.48-.047.208-.09.406-.13.594-.04.194-.084.364-.13.51-.047.146-.1.264-.16.355-.06.097-.13.153-.21.167-.094 0-.141.01-.141.03-.007.022.007.039.04.053a.55.55 0 00.1.031c.1.021.194.004.28-.052a.704.704 0 00.24-.25c.074-.104.138-.23.191-.375.06-.146.11-.296.15-.448.08-.32.147-.633.2-.938a25.5 25.5 0 00.15-.949c.047-.326.084-.653.11-.98.034-.326.088-.656.16-.99zm-1.121 5.17c-.014-.014-.034-.021-.06-.021a.807.807 0 01-.38 0 2.32 2.32 0 01-.331-.115 1.628 1.628 0 01-.35-.208 16.85 16.85 0 00-.361-.25.231.231 0 00-.06-.042c-.027-.014-.04-.014-.04 0-.007.007-.004.024.01.052.02.028.036.049.05.063.087.118.177.229.27.333.1.104.227.188.38.25.1.042.204.07.31.084.108.014.204.014.291 0a.578.578 0 00.22-.053c.054-.027.07-.059.05-.093zm5.597-5.159a3.49 3.49 0 00.01-.594 1.748 1.748 0 00-.13-.573 1.016 1.016 0 00-.32-.448c-.14-.118-.327-.177-.56-.177-.315 0-.588.09-.822.27a2.414 2.414 0 00-.6.657 3.374 3.374 0 00-.391.834c-.094.292-.154.56-.18.802-.04.334-.047.622-.02.865.033.244.09.445.17.605.08.153.18.267.3.344a.781.781 0 00.41.114 1.26 1.26 0 00.652-.177c.233-.132.45-.313.65-.542.2-.236.374-.52.52-.854.154-.34.258-.716.311-1.126zm-3.224.72a4.42 4.42 0 01.2-.918c.108-.333.254-.642.441-.927.194-.285.424-.521.691-.709.267-.194.577-.292.931-.292.267 0 .487.066.661.198.174.132.307.303.4.511.094.201.154.424.18.667.027.236.027.462 0 .677-.06.5-.176.935-.35 1.303a3.584 3.584 0 01-.61.927 2.59 2.59 0 01-.741.553c-.26.118-.511.177-.751.177a.976.976 0 01-.49-.125 1.036 1.036 0 01-.361-.386 2.168 2.168 0 01-.2-.677 4.775 4.775 0 010-.98zm1.122 1.469a.187.187 0 01-.1-.032.347.347 0 01-.12-.198c-.007-.034.006-.059.04-.073.02-.006.046.018.08.073.033.056.07.084.11.084.067 0 .143-.045.23-.136.094-.09.18-.194.26-.312.087-.125.16-.247.22-.365.067-.118.114-.205.14-.26a1.65 1.65 0 00.08-.209c.028-.09.051-.18.071-.27a2.09 2.09 0 00.06-.262c.02-.09.033-.166.04-.229.034-.312.027-.552-.02-.719-.047-.174-.123-.26-.23-.26a.466.466 0 00-.25.083c-.087.049-.17.115-.25.198-.074.083-.14.177-.201.281-.06.098-.103.198-.13.303-.034.118-.057.177-.07.177-.02 0-.03-.06-.03-.177.02-.132.063-.26.13-.386.067-.132.15-.247.25-.344.1-.104.21-.187.33-.25a.73.73 0 01.371-.104c.127 0 .22.049.28.146.067.09.114.205.14.344.027.132.037.27.03.417 0 .138-.006.25-.02.333-.026.188-.07.372-.13.552-.053.174-.12.351-.2.532-.04.083-.1.187-.18.312-.08.119-.174.233-.28.344-.1.111-.21.209-.33.292a.581.581 0 01-.321.115zm.32.198c.007.041-.026.076-.1.104a.542.542 0 01-.21.042c-.207-.007-.367-.077-.48-.209a1.22 1.22 0 01-.231-.469c-.04-.18-.06-.368-.06-.563.007-.194.017-.357.03-.49.027-.229.08-.486.16-.77.08-.285.194-.553.34-.803.147-.25.328-.458.541-.625.214-.174.467-.26.761-.26.194 0 .347.051.46.156a.89.89 0 01.26.385c.061.153.094.32.101.5.013.174.01.334-.01.48-.013.16-.037.306-.07.438-.033.131-.08.277-.14.437-.02.049-.047.104-.08.167-.034.062-.07.09-.11.083-.02-.007-.027-.034-.02-.083.013-.049.026-.108.04-.177l.06-.23c.02-.083.033-.16.04-.229.013-.118.02-.264.02-.438a2.225 2.225 0 00-.04-.52 1.046 1.046 0 00-.16-.428c-.08-.118-.2-.177-.36-.177-.234 0-.452.08-.652.24a2.303 2.303 0 00-.51.573 3.51 3.51 0 00-.36.708c-.087.244-.14.46-.16.647-.014.11-.018.25-.01.417.006.166.03.333.07.5.046.16.12.298.22.416.1.119.236.181.41.188a.358.358 0 00.15-.01c.053-.021.087-.021.1 0zm4.107-4.93c.04-.152.067-.336.08-.552a5.406 5.406 0 000-.656 3.053 3.053 0 00-.1-.626.957.957 0 00-.22-.448c-.04-.041-.074-.055-.1-.041-.02.014-.014.048.02.104.066.125.096.32.09.583 0 .258-.02.539-.06.845a12.253 12.253 0 01-.36 1.72 3.707 3.707 0 00-.1.364c-.034.146-.071.295-.111.448a10.14 10.14 0 00-.15.792c0 .02-.004.062-.01.125-.007.056 0 .09.02.104.013 0 .033-.028.06-.083l.05-.115a50.3 50.3 0 00.49-1.24c.167-.445.3-.886.401-1.323zm-.23 2.543c.033-.125.08-.288.14-.49a16.799 16.799 0 00.35-1.406c.06-.264.104-.518.13-.761.034-.25.044-.48.03-.688a1.346 1.346 0 00-.1-.51.164.164 0 00-.04-.063c-.02-.02-.03-.004-.03.052.014.445-.03.89-.13 1.334-.1.445-.207.848-.32 1.209-.087.285-.177.57-.27.854-.087.285-.164.57-.23.855-.06.278-.1.552-.121.823-.013.271.013.532.08.782.027.09.05.135.07.135.02-.007.03-.052.03-.135 0-.125.01-.264.03-.417.027-.16.06-.327.1-.5a20.201 20.201 0 01.28-1.074zm-.19 2.856c-.234-.028-.444-.15-.631-.365-.18-.215-.3-.48-.36-.792-.06-.299-.077-.601-.05-.907.033-.312.086-.604.16-.875.106-.417.233-.844.38-1.282.147-.444.27-.882.37-1.313a6 6 0 00.18-1.24 2.501 2.501 0 00-.2-1.105c-.013-.007-.023-.02-.03-.041-.006-.028-.016-.039-.03-.032-.02 0-.023.025-.01.073.054.32.057.667.01 1.042a8.912 8.912 0 01-.23 1.157c-.1.396-.217.806-.35 1.23-.127.424-.247.847-.36 1.271a5.765 5.765 0 00-.181 1 3.75 3.75 0 00.07 1.053c.04.18.1.344.18.49.087.146.187.27.3.375.114.097.237.174.371.23.133.055.27.08.41.072h.03a.074.074 0 00.03-.01c0-.02-.02-.031-.06-.031zm-.3-.521a1.685 1.685 0 01-.291-.563l-.03-.094a3.347 3.347 0 00-.04-.135 1.361 1.361 0 00-.04-.125c-.014-.042-.024-.063-.03-.063-.027 0-.04.045-.04.136 0 .09.01.194.03.312.02.118.05.24.09.365.04.118.087.212.14.281.107.125.213.202.32.23.114.027.227.041.34.041.04 0 .07-.01.09-.031.028-.028.01-.049-.05-.063a.7.7 0 01-.49-.291zm4.154-2.335a3.5 3.5 0 00.01-.594 1.751 1.751 0 00-.13-.573 1.015 1.015 0 00-.32-.448c-.14-.118-.328-.177-.561-.177-.314 0-.588.09-.821.27a2.416 2.416 0 00-.6.657 3.374 3.374 0 00-.391.834 4.14 4.14 0 00-.18.802c-.04.334-.047.622-.02.865.033.244.09.445.17.605.08.153.18.267.3.344a.781.781 0 00.41.114 1.26 1.26 0 00.651-.177c.234-.132.45-.313.651-.542.2-.236.374-.52.52-.854.154-.34.258-.716.311-1.126zm-3.224.72c.027-.279.094-.584.2-.918.107-.333.254-.642.441-.927.194-.285.424-.521.69-.709.268-.194.578-.292.932-.292.267 0 .487.066.66.198.174.132.308.303.401.511.094.201.154.424.18.667.027.236.027.462 0 .677-.06.5-.176.935-.35 1.303a3.587 3.587 0 01-.61.927c-.234.244-.481.428-.742.553-.26.118-.51.177-.75.177a.977.977 0 01-.491-.125 1.035 1.035 0 01-.36-.386 2.167 2.167 0 01-.2-.677 4.789 4.789 0 010-.98zm1.122 1.469a.187.187 0 01-.1-.032.347.347 0 01-.12-.198c-.007-.034.006-.059.04-.073.02-.006.046.018.08.073.033.056.07.084.11.084.066 0 .143-.045.23-.136.093-.09.18-.194.26-.312.087-.125.16-.247.22-.365a4.94 4.94 0 00.14-.26 1.65 1.65 0 00.08-.209c.027-.09.05-.18.07-.27.028-.091.047-.178.06-.262.02-.09.034-.166.04-.229.034-.312.028-.552-.02-.719-.046-.174-.123-.26-.23-.26a.466.466 0 00-.25.083c-.087.049-.17.115-.25.198-.073.083-.14.177-.2.281-.06.098-.104.198-.13.303-.034.118-.057.177-.07.177-.02 0-.03-.06-.03-.177.02-.132.063-.26.13-.386a1.28 1.28 0 01.25-.344c.1-.104.21-.187.33-.25a.731.731 0 01.37-.104c.128 0 .221.049.281.146.067.09.114.205.14.344.027.132.037.27.03.417 0 .138-.006.25-.02.333-.026.188-.07.372-.13.552-.053.174-.12.351-.2.532-.04.083-.1.187-.18.312-.08.119-.174.233-.28.344-.1.111-.21.209-.331.292a.581.581 0 01-.32.115zm.32.198c.007.041-.027.076-.1.104a.541.541 0 01-.21.042c-.207-.007-.367-.077-.481-.209a1.222 1.222 0 01-.23-.469c-.04-.18-.06-.368-.06-.563.006-.194.016-.357.03-.49.026-.229.08-.486.16-.77.08-.285.194-.553.34-.803.147-.25.327-.458.54-.625.215-.174.468-.26.762-.26.193 0 .347.051.46.156a.89.89 0 01.26.385c.06.153.094.32.1.5.014.174.01.334-.01.48-.013.16-.036.306-.07.438-.033.131-.08.277-.14.437-.02.049-.046.104-.08.167-.033.062-.07.09-.11.083-.02-.007-.026-.034-.02-.083.014-.049.027-.108.04-.177l.06-.23c.02-.083.034-.16.04-.229.014-.118.02-.264.02-.438a2.224 2.224 0 00-.04-.52 1.046 1.046 0 00-.16-.428c-.08-.118-.2-.177-.36-.177-.234 0-.45.08-.65.24a2.303 2.303 0 00-.511.573 3.511 3.511 0 00-.361.708c-.087.244-.14.46-.16.647-.013.11-.017.25-.01.417.006.166.03.333.07.5.047.16.12.298.22.416.1.119.237.181.41.188a.358.358 0 00.15-.01c.054-.021.088-.021.101 0z" fill="#FFBC3F"/>
    <path fill="#6A6A6A" fill-opacity=".33" d="M1 39h68v97H1z"/>
    <path d="M12.773 119h-.565l-2.148-3.287V119h-.565v-4.266h.566l2.153 3.302v-3.302h.56V119zm2.872 0a1.137 1.137 0 01-.077-.334 1.209 1.209 0 01-.902.393c-.313 0-.57-.088-.77-.264a.864.864 0 01-.3-.674c0-.33.126-.586.376-.767.252-.184.605-.276 1.06-.276h.528v-.249a.604.604 0 00-.17-.451c-.114-.113-.28-.17-.501-.17a.795.795 0 00-.487.146c-.13.098-.196.216-.196.355h-.545c0-.158.056-.311.167-.457.113-.148.266-.266.457-.352.194-.086.405-.129.636-.129.365 0 .651.092.858.276.207.182.315.432.323.753v1.459c0 .291.037.522.11.694V119h-.567zm-.9-.413c.17 0 .331-.044.484-.132a.797.797 0 00.33-.343v-.65h-.424c-.664 0-.996.194-.996.583 0 .17.056.303.17.398a.652.652 0 00.436.144zm2.716-2.757l.015.352c.232-.274.546-.411.94-.411.443 0 .745.17.905.51.106-.152.242-.275.41-.369.17-.094.37-.141.601-.141.695 0 1.049.369 1.06 1.105V119h-.541v-2.092c0-.226-.052-.395-.156-.507-.103-.113-.277-.17-.521-.17a.716.716 0 00-.501.182.724.724 0 00-.232.483V119h-.544v-2.077c0-.461-.226-.692-.677-.692-.356 0-.599.152-.73.455V119h-.542v-3.17h.513zm6.067 3.229c-.43 0-.779-.141-1.048-.422-.27-.283-.405-.661-.405-1.134v-.1c0-.314.06-.594.179-.841a1.41 1.41 0 01.504-.58c.217-.14.451-.211.703-.211.412 0 .732.136.96.408.23.271.344.66.344 1.166v.225h-2.148c.008.313.099.566.273.759a.866.866 0 00.668.287.945.945 0 00.486-.117 1.22 1.22 0 00.349-.311l.33.258c-.265.408-.663.613-1.195.613zm-.067-2.842a.721.721 0 00-.55.24c-.15.158-.241.381-.276.668h1.588v-.041c-.016-.275-.09-.488-.223-.639a.68.68 0 00-.54-.228zm4.233-1.483l1.395 3.481 1.394-3.481h.73V119h-.563v-1.661l.053-1.793-1.4 3.454h-.43l-1.398-3.445.055 1.784V119h-.562v-4.266h.726zm4.284 2.652c0-.311.06-.59.181-.838.123-.248.293-.44.51-.574.219-.135.468-.203.747-.203.432 0 .78.15 1.046.449.267.299.401.696.401 1.192v.038c0 .309-.06.586-.178.832a1.34 1.34 0 01-.507.572c-.219.136-.471.205-.756.205-.43 0-.778-.15-1.046-.449-.266-.298-.398-.694-.398-1.186v-.038zm.544.064c0 .352.081.634.244.847a.786.786 0 00.656.319.779.779 0 00.656-.322c.162-.217.243-.52.243-.908 0-.348-.083-.629-.249-.844a.781.781 0 00-.656-.325.777.777 0 00-.647.319c-.164.213-.246.518-.246.914zm2.89-.061c0-.487.114-.877.345-1.172.23-.297.532-.446.905-.446.371 0 .665.127.882.381V114.5h.542v4.5h-.498l-.026-.34c-.217.266-.519.399-.906.399-.367 0-.667-.151-.9-.452-.23-.3-.345-.693-.345-1.177v-.041zm.541.061c0 .36.074.641.223.844a.72.72 0 00.615.305.792.792 0 00.753-.463v-1.456a.797.797 0 00-.747-.449.724.724 0 00-.621.308c-.149.205-.223.509-.223.911zm4.292 1.609c-.43 0-.78-.141-1.049-.422-.27-.283-.404-.661-.404-1.134v-.1c0-.314.06-.594.179-.841a1.41 1.41 0 01.504-.58c.216-.14.45-.211.703-.211.412 0 .732.136.96.408.23.271.343.66.343 1.166v.225h-2.147c.008.313.099.566.272.759a.866.866 0 00.668.287.945.945 0 00.487-.117 1.22 1.22 0 00.348-.311l.331.258c-.265.408-.664.613-1.195.613zm-.067-2.842a.721.721 0 00-.551.24c-.149.158-.24.381-.275.668h1.588v-.041c-.016-.275-.09-.488-.223-.639a.68.68 0 00-.54-.228zM42.7 119h-.542v-4.5h.542v4.5z" fill="#fff"/>
    <path d="M10.816 124.323c-.026.226-.11.4-.25.523-.14.122-.326.183-.558.183a.753.753 0 01-.607-.271c-.151-.18-.227-.422-.227-.725v-.205c0-.198.035-.372.106-.523a.801.801 0 01.302-.346.834.834 0 01.45-.121c.227 0 .409.063.546.19.136.126.216.301.238.525h-.282c-.025-.17-.078-.293-.16-.369a.476.476 0 00-.341-.115c-.18 0-.321.067-.424.2-.101.132-.152.321-.152.566v.207c0 .231.048.416.145.552a.468.468 0 00.406.205c.156 0 .276-.035.359-.105.084-.071.14-.195.167-.371h.282zm.271-.13c0-.155.03-.295.091-.419a.687.687 0 01.255-.287.692.692 0 01.374-.101c.216 0 .39.074.523.224.133.149.2.348.2.596v.019c0 .154-.03.293-.09.416a.672.672 0 01-.63.388.667.667 0 01-.523-.224c-.133-.149-.2-.347-.2-.593v-.019zm.273.032c0 .176.04.317.121.423.082.107.192.16.329.16a.39.39 0 00.328-.161c.08-.108.121-.26.121-.454a.67.67 0 00-.124-.422.392.392 0 00-.328-.163.39.39 0 00-.324.16c-.082.107-.123.259-.123.457zm2.489.618c-.106.124-.26.186-.465.186-.169 0-.298-.049-.386-.146-.088-.099-.133-.244-.134-.437v-1.031h.271v1.024c0 .24.098.36.293.36.207 0 .345-.077.413-.231v-1.153h.271V125h-.258l-.005-.157zm.933-1.428l.008.199a.578.578 0 01.475-.228c.335 0 .504.189.507.567V125h-.271v-1.049c-.001-.114-.027-.199-.08-.253-.05-.055-.13-.082-.238-.082a.39.39 0 00-.231.07.474.474 0 00-.156.185V125h-.27v-1.585h.256zm1.766-.384v.384h.296v.21h-.296v.982c0 .064.014.112.04.144.026.031.071.047.135.047a.642.642 0 00.129-.018v.22a.767.767 0 01-.208.029c-.121 0-.213-.036-.274-.11a.471.471 0 01-.093-.312v-.982h-.288v-.21h.288v-.384h.271zm1.38.627a.795.795 0 00-.133-.01c-.178 0-.298.076-.362.227V125h-.27v-1.585h.263l.004.183a.423.423 0 01.378-.212c.053 0 .093.007.12.02v.252zm.796.945l.369-1.188h.29l-.637 1.83c-.099.263-.256.395-.47.395l-.052-.004-.101-.019v-.22l.073.006a.358.358 0 00.214-.056.4.4 0 00.128-.203l.06-.162-.566-1.567h.296l.396 1.188zm1.7.58h-.233l.891-2.316h.232l-.89 2.316zm3.538-.86c-.026.226-.11.4-.25.523-.14.122-.326.183-.559.183a.753.753 0 01-.606-.271c-.152-.18-.227-.422-.227-.725v-.205c0-.198.035-.372.105-.523a.801.801 0 01.302-.346.834.834 0 01.451-.121c.227 0 .408.063.545.19.137.126.216.301.239.525h-.283c-.024-.17-.077-.293-.16-.369a.476.476 0 00-.34-.115c-.18 0-.322.067-.424.2-.102.132-.152.321-.152.566v.207c0 .231.048.416.145.552a.468.468 0 00.405.205c.157 0 .276-.035.36-.105.083-.071.139-.195.166-.371h.283zm.637.677h-.27v-1.585h.27V125zm-.293-2.005c0-.044.013-.081.04-.112.027-.03.067-.045.12-.045.053 0 .093.015.12.045a.163.163 0 01.041.112c0 .044-.014.08-.041.109-.027.03-.067.044-.12.044-.053 0-.093-.014-.12-.044a.155.155 0 01-.04-.109zm1.096.036v.384h.296v.21h-.296v.982c0 .064.013.112.04.144.026.031.07.047.134.047a.642.642 0 00.13-.018v.22a.766.766 0 01-.209.029c-.121 0-.212-.036-.274-.11a.471.471 0 01-.092-.312v-.982h-.289v-.21h.289v-.384h.27zm1.132 1.572l.37-1.188h.29l-.638 1.83c-.099.263-.255.395-.47.395l-.051-.004-.101-.019v-.22l.073.006a.358.358 0 00.214-.056.4.4 0 00.127-.203l.06-.162-.565-1.567h.296l.395 1.188z" fill="#fff" fill-opacity=".5"/>
    <path d="M1 45h15v7H1v-7z" fill="#C4C4C4"/>
    <path d="M1 53h13v7H1v-7z" fill="#C4C4C4"/>
    <path d="M1 61h11v7H1v-7z" fill="#C4C4C4"/>
    <path fill="#6A6A6A" fill-opacity=".33" d="M1 137h68v97H1z"/>
    <path d="M12.773 217h-.565l-2.148-3.287V217h-.565v-4.266h.566l2.153 3.302v-3.302h.56V217zm2.872 0a1.137 1.137 0 01-.077-.334 1.209 1.209 0 01-.902.393c-.313 0-.57-.088-.77-.264a.864.864 0 01-.3-.674c0-.33.126-.586.376-.767.252-.184.605-.276 1.06-.276h.528v-.249a.604.604 0 00-.17-.451c-.114-.113-.28-.17-.501-.17a.795.795 0 00-.487.146c-.13.098-.196.216-.196.355h-.545c0-.158.056-.311.167-.457.113-.148.266-.266.457-.352.194-.086.405-.129.636-.129.365 0 .651.092.858.276.207.182.315.432.323.753v1.459c0 .291.037.522.11.694V217h-.567zm-.9-.413c.17 0 .331-.044.484-.132a.797.797 0 00.33-.343v-.65h-.424c-.664 0-.996.194-.996.583 0 .17.056.303.17.398a.652.652 0 00.436.144zm2.716-2.757l.015.352c.232-.274.546-.411.94-.411.443 0 .745.17.905.51.106-.152.242-.275.41-.369.17-.094.37-.141.601-.141.695 0 1.049.369 1.06 1.105V217h-.541v-2.092c0-.226-.052-.395-.156-.507-.103-.113-.277-.17-.521-.17a.716.716 0 00-.501.182.724.724 0 00-.232.483V217h-.544v-2.077c0-.461-.226-.692-.677-.692-.356 0-.599.152-.73.455V217h-.542v-3.17h.513zm6.067 3.229c-.43 0-.779-.141-1.048-.422-.27-.283-.405-.661-.405-1.134v-.1c0-.314.06-.594.179-.841a1.41 1.41 0 01.504-.58c.217-.14.451-.211.703-.211.412 0 .732.136.96.408.23.271.344.66.344 1.166v.225h-2.148c.008.313.099.566.273.759a.866.866 0 00.668.287.945.945 0 00.486-.117 1.22 1.22 0 00.349-.311l.33.258c-.265.408-.663.613-1.195.613zm-.067-2.842a.721.721 0 00-.55.24c-.15.158-.241.381-.276.668h1.588v-.041c-.016-.275-.09-.488-.223-.639a.68.68 0 00-.54-.228zm4.233-1.483l1.395 3.481 1.394-3.481h.73V217h-.563v-1.661l.053-1.793-1.4 3.454h-.43l-1.398-3.445.055 1.784V217h-.562v-4.266h.726zm4.284 2.652c0-.311.06-.59.181-.838.123-.248.293-.44.51-.574.219-.135.468-.203.747-.203.432 0 .78.15 1.046.449.267.299.401.696.401 1.192v.038c0 .309-.06.586-.178.832a1.34 1.34 0 01-.507.572c-.219.136-.471.205-.756.205-.43 0-.778-.15-1.046-.449-.266-.298-.398-.694-.398-1.186v-.038zm.544.064c0 .352.081.634.244.847a.786.786 0 00.656.319.779.779 0 00.656-.322c.162-.217.243-.52.243-.908 0-.348-.083-.629-.249-.844a.781.781 0 00-.656-.325.777.777 0 00-.647.319c-.164.213-.246.518-.246.914zm2.89-.061c0-.487.114-.877.345-1.172.23-.297.532-.446.905-.446.371 0 .665.127.882.381V212.5h.542v4.5h-.498l-.026-.34c-.217.266-.519.399-.906.399-.367 0-.667-.151-.9-.452-.23-.3-.345-.693-.345-1.177v-.041zm.541.061c0 .36.074.641.223.844a.72.72 0 00.615.305.792.792 0 00.753-.463v-1.456a.797.797 0 00-.747-.449.724.724 0 00-.621.308c-.149.205-.223.509-.223.911zm4.292 1.609c-.43 0-.78-.141-1.049-.422-.27-.283-.404-.661-.404-1.134v-.1c0-.314.06-.594.179-.841a1.41 1.41 0 01.504-.58c.216-.14.45-.211.703-.211.412 0 .732.136.96.408.23.271.343.66.343 1.166v.225h-2.147c.008.313.099.566.272.759a.866.866 0 00.668.287.945.945 0 00.487-.117 1.22 1.22 0 00.348-.311l.331.258c-.265.408-.664.613-1.195.613zm-.067-2.842a.721.721 0 00-.551.24c-.149.158-.24.381-.275.668h1.588v-.041c-.016-.275-.09-.488-.223-.639a.68.68 0 00-.54-.228zM42.7 217h-.542v-4.5h.542v4.5z" fill="#fff"/>
    <path d="M10.816 222.323c-.026.226-.11.4-.25.523-.14.122-.326.183-.558.183a.753.753 0 01-.607-.271c-.151-.18-.227-.422-.227-.725v-.205c0-.198.035-.372.106-.523a.801.801 0 01.302-.346.834.834 0 01.45-.121c.227 0 .409.063.546.19.136.126.216.301.238.525h-.282c-.025-.17-.078-.293-.16-.369a.476.476 0 00-.341-.115c-.18 0-.321.067-.424.2-.101.132-.152.321-.152.566v.207c0 .231.048.416.145.552a.468.468 0 00.406.205c.156 0 .276-.035.359-.105.084-.071.14-.195.167-.371h.282zm.271-.13c0-.155.03-.295.091-.419a.687.687 0 01.255-.287.692.692 0 01.374-.101c.216 0 .39.074.523.224.133.149.2.348.2.596v.019c0 .154-.03.293-.09.416a.672.672 0 01-.63.388.667.667 0 01-.523-.224c-.133-.149-.2-.347-.2-.593v-.019zm.273.032c0 .176.04.317.121.423.082.107.192.16.329.16a.39.39 0 00.328-.161c.08-.108.121-.26.121-.454a.67.67 0 00-.124-.422.392.392 0 00-.328-.163.39.39 0 00-.324.16c-.082.107-.123.259-.123.457zm2.489.618c-.106.124-.26.186-.465.186-.169 0-.298-.049-.386-.146-.088-.099-.133-.244-.134-.437v-1.031h.271v1.024c0 .24.098.36.293.36.207 0 .345-.077.413-.231v-1.153h.271V223h-.258l-.005-.157zm.933-1.428l.008.199a.578.578 0 01.475-.228c.335 0 .504.189.507.567V223h-.271v-1.049c-.001-.114-.027-.199-.08-.253-.05-.055-.13-.082-.238-.082a.39.39 0 00-.231.07.474.474 0 00-.156.185V223h-.27v-1.585h.256zm1.766-.384v.384h.296v.21h-.296v.982c0 .064.014.112.04.144.026.031.071.047.135.047a.642.642 0 00.129-.018v.22a.767.767 0 01-.208.029c-.121 0-.213-.036-.274-.11a.471.471 0 01-.093-.312v-.982h-.288v-.21h.288v-.384h.271zm1.38.627a.795.795 0 00-.133-.01c-.178 0-.298.076-.362.227V223h-.27v-1.585h.263l.004.183a.423.423 0 01.378-.212c.053 0 .093.007.12.02v.252zm.796.945l.369-1.188h.29l-.637 1.83c-.099.263-.256.395-.47.395l-.052-.004-.101-.019v-.22l.073.006a.358.358 0 00.214-.056.4.4 0 00.128-.203l.06-.162-.566-1.567h.296l.396 1.188zm1.7.58h-.233l.891-2.316h.232l-.89 2.316zm3.538-.86c-.026.226-.11.4-.25.523-.14.122-.326.183-.559.183a.753.753 0 01-.606-.271c-.152-.18-.227-.422-.227-.725v-.205c0-.198.035-.372.105-.523a.801.801 0 01.302-.346.834.834 0 01.451-.121c.227 0 .408.063.545.19.137.126.216.301.239.525h-.283c-.024-.17-.077-.293-.16-.369a.476.476 0 00-.34-.115c-.18 0-.322.067-.424.2-.102.132-.152.321-.152.566v.207c0 .231.048.416.145.552a.468.468 0 00.405.205c.157 0 .276-.035.36-.105.083-.071.139-.195.166-.371h.283zm.637.677h-.27v-1.585h.27V223zm-.293-2.005c0-.044.013-.081.04-.112.027-.03.067-.045.12-.045.053 0 .093.015.12.045a.163.163 0 01.041.112c0 .044-.014.08-.041.109-.027.03-.067.044-.12.044-.053 0-.093-.014-.12-.044a.155.155 0 01-.04-.109zm1.096.036v.384h.296v.21h-.296v.982c0 .064.013.112.04.144.026.031.07.047.134.047a.642.642 0 00.13-.018v.22a.766.766 0 01-.209.029c-.121 0-.212-.036-.274-.11a.471.471 0 01-.092-.312v-.982h-.289v-.21h.289v-.384h.27zm1.132 1.572l.37-1.188h.29l-.638 1.83c-.099.263-.255.395-.47.395l-.051-.004-.101-.019v-.22l.073.006a.358.358 0 00.214-.056.4.4 0 00.127-.203l.06-.162-.565-1.567h.296l.395 1.188z" fill="#fff" fill-opacity=".5"/>
    <path d="M1 143h15v7H1v-7z" fill="#C4C4C4"/>
    <path d="M1 151h13v7H1v-7z" fill="#C4C4C4"/>
    <path d="M1 159h11v7H1v-7z" fill="#C4C4C4"/>
    <path fill="#6A6A6A" fill-opacity=".33" d="M70 39h68v97H70z"/>
    <path d="M81.773 119h-.565l-2.147-3.287V119h-.566v-4.266h.566l2.153 3.302v-3.302h.56V119zm2.871 0a1.137 1.137 0 01-.076-.334 1.209 1.209 0 01-.902.393c-.313 0-.57-.088-.77-.264a.864.864 0 01-.3-.674c0-.33.126-.586.376-.767.252-.184.605-.276 1.06-.276h.528v-.249a.604.604 0 00-.17-.451c-.114-.113-.28-.17-.501-.17a.795.795 0 00-.487.146c-.13.098-.196.216-.196.355h-.545c0-.158.056-.311.167-.457.113-.148.266-.266.457-.352.194-.086.405-.129.636-.129.365 0 .651.092.858.276.207.182.315.432.323.753v1.459c0 .291.037.522.11.694V119h-.568zm-.899-.413c.17 0 .331-.044.483-.132a.797.797 0 00.332-.343v-.65h-.425c-.664 0-.996.194-.996.583 0 .17.056.303.17.398a.652.652 0 00.436.144zm2.716-2.757l.015.352c.232-.274.546-.411.94-.411.443 0 .745.17.905.51.106-.152.243-.275.41-.369.17-.094.37-.141.601-.141.695 0 1.049.369 1.06 1.105V119h-.541v-2.092c0-.226-.052-.395-.156-.507-.103-.113-.277-.17-.521-.17a.716.716 0 00-.501.182.724.724 0 00-.232.483V119h-.544v-2.077c0-.461-.226-.692-.677-.692-.356 0-.599.152-.73.455V119h-.542v-3.17h.513zm6.067 3.229c-.43 0-.779-.141-1.049-.422-.269-.283-.404-.661-.404-1.134v-.1c0-.314.06-.594.179-.841a1.41 1.41 0 01.504-.58c.217-.14.451-.211.703-.211.412 0 .732.136.96.408.23.271.344.66.344 1.166v.225h-2.148c.008.313.099.566.273.759a.866.866 0 00.668.287.945.945 0 00.486-.117 1.22 1.22 0 00.349-.311l.33.258c-.265.408-.663.613-1.195.613zm-.067-2.842a.721.721 0 00-.55.24c-.15.158-.241.381-.276.668h1.588v-.041c-.016-.275-.09-.488-.223-.639a.68.68 0 00-.54-.228zm4.233-1.483l1.395 3.481 1.394-3.481h.73V119h-.563v-1.661l.053-1.793-1.4 3.454h-.43l-1.398-3.445.055 1.784V119h-.562v-4.266h.726zm4.284 2.652c0-.311.06-.59.181-.838.123-.248.293-.44.51-.574.219-.135.468-.203.747-.203.432 0 .78.15 1.046.449.267.299.401.696.401 1.192v.038c0 .309-.059.586-.178.832a1.35 1.35 0 01-.507.572 1.404 1.404 0 01-.756.205c-.43 0-.778-.15-1.046-.449-.266-.298-.398-.694-.398-1.186v-.038zm.544.064c0 .352.082.634.244.847a.785.785 0 00.656.319.779.779 0 00.656-.322c.162-.217.243-.52.243-.908 0-.348-.083-.629-.249-.844a.781.781 0 00-.656-.325.776.776 0 00-.647.319c-.165.213-.247.518-.247.914zm2.889-.061c0-.487.115-.877.346-1.172.23-.297.532-.446.905-.446.371 0 .665.127.882.381V114.5h.542v4.5h-.498l-.026-.34c-.217.266-.519.399-.906.399-.367 0-.667-.151-.899-.452-.231-.3-.346-.693-.346-1.177v-.041zm.542.061c0 .36.074.641.223.844a.72.72 0 00.615.305.791.791 0 00.753-.463v-1.456a.797.797 0 00-.747-.449.723.723 0 00-.621.308c-.149.205-.223.509-.223.911zm4.292 1.609c-.43 0-.779-.141-1.049-.422-.269-.283-.404-.661-.404-1.134v-.1c0-.314.06-.594.179-.841.121-.248.289-.441.504-.58a1.27 1.27 0 01.703-.211c.412 0 .732.136.961.408.228.271.342.66.342 1.166v.225h-2.147c.008.313.099.566.272.759a.867.867 0 00.668.287.947.947 0 00.487-.117c.133-.078.249-.182.348-.311l.331.258c-.265.408-.664.613-1.195.613zm-.067-2.842a.72.72 0 00-.551.24c-.148.158-.24.381-.275.668h1.587v-.041c-.015-.275-.089-.488-.222-.639a.68.68 0 00-.539-.228zM111.7 119h-.542v-4.5h.542v4.5z" fill="#fff"/>
    <path d="M79.816 124.323c-.026.226-.11.4-.25.523-.14.122-.326.183-.558.183a.753.753 0 01-.607-.271c-.151-.18-.227-.422-.227-.725v-.205c0-.198.035-.372.106-.523a.802.802 0 01.302-.346.835.835 0 01.45-.121c.227 0 .409.063.546.19.136.126.216.301.238.525h-.282c-.025-.17-.078-.293-.16-.369a.476.476 0 00-.341-.115c-.18 0-.321.067-.424.2-.101.132-.152.321-.152.566v.207c0 .231.048.416.145.552a.468.468 0 00.406.205c.156 0 .276-.035.359-.105.084-.071.14-.195.167-.371h.282zm.271-.13c0-.155.03-.295.091-.419a.687.687 0 01.255-.287.692.692 0 01.374-.101c.215 0 .39.074.523.224.133.149.2.348.2.596v.019c0 .154-.03.293-.09.416a.672.672 0 01-.63.388.667.667 0 01-.523-.224c-.133-.149-.2-.347-.2-.593v-.019zm.273.032c0 .176.04.317.121.423.083.107.192.16.329.16a.39.39 0 00.328-.161c.08-.108.121-.26.121-.454a.67.67 0 00-.124-.422.392.392 0 00-.328-.163.39.39 0 00-.324.16c-.082.107-.123.259-.123.457zm2.489.618c-.106.124-.26.186-.465.186-.169 0-.298-.049-.386-.146-.088-.099-.133-.244-.134-.437v-1.031h.271v1.024c0 .24.098.36.293.36.207 0 .345-.077.413-.231v-1.153h.271V125h-.257l-.006-.157zm.933-1.428l.008.199a.578.578 0 01.475-.228c.335 0 .504.189.507.567V125h-.271v-1.049c-.001-.114-.027-.199-.08-.253-.05-.055-.13-.082-.238-.082a.39.39 0 00-.231.07.474.474 0 00-.156.185V125h-.27v-1.585h.256zm1.766-.384v.384h.296v.21h-.296v.982c0 .064.013.112.04.144.026.031.071.047.135.047a.642.642 0 00.129-.018v.22a.767.767 0 01-.208.029c-.122 0-.213-.036-.274-.11a.471.471 0 01-.093-.312v-.982h-.288v-.21h.288v-.384h.271zm1.38.627a.795.795 0 00-.133-.01c-.178 0-.298.076-.362.227V125h-.27v-1.585h.263l.004.183a.423.423 0 01.378-.212c.053 0 .093.007.12.02v.252zm.796.945l.369-1.188h.29l-.637 1.83c-.099.263-.256.395-.47.395l-.052-.004-.101-.019v-.22l.073.006a.358.358 0 00.214-.056.4.4 0 00.128-.203l.06-.162-.566-1.567h.296l.396 1.188zm1.7.58h-.233l.891-2.316h.232l-.89 2.316zm3.538-.86c-.026.226-.11.4-.25.523-.14.122-.326.183-.559.183a.753.753 0 01-.606-.271c-.151-.18-.227-.422-.227-.725v-.205c0-.198.035-.372.105-.523a.801.801 0 01.302-.346.834.834 0 01.451-.121c.227 0 .408.063.545.19.137.126.216.301.239.525h-.283c-.024-.17-.077-.293-.16-.369a.476.476 0 00-.34-.115c-.18 0-.322.067-.424.2-.102.132-.152.321-.152.566v.207c0 .231.048.416.145.552a.468.468 0 00.405.205c.157 0 .276-.035.36-.105.083-.071.139-.195.166-.371h.283zm.637.677h-.27v-1.585h.27V125zm-.293-2.005c0-.044.013-.081.04-.112.027-.03.067-.045.12-.045.053 0 .093.015.12.045a.163.163 0 01.041.112c0 .044-.014.08-.041.109-.027.03-.067.044-.12.044-.053 0-.093-.014-.12-.044a.155.155 0 01-.04-.109zm1.096.036v.384h.296v.21h-.296v.982c0 .064.013.112.04.144.026.031.07.047.134.047a.642.642 0 00.13-.018v.22a.766.766 0 01-.209.029c-.121 0-.212-.036-.274-.11a.471.471 0 01-.092-.312v-.982h-.289v-.21h.289v-.384h.27zm1.132 1.572l.37-1.188h.29l-.638 1.83c-.099.263-.255.395-.47.395l-.051-.004-.101-.019v-.22l.073.006a.358.358 0 00.214-.056.4.4 0 00.127-.203l.06-.162-.565-1.567h.296l.395 1.188z" fill="#fff" fill-opacity=".5"/>
    <path d="M70 45h15v7H70v-7z" fill="#C4C4C4"/>
    <path d="M70 53h13v7H70v-7z" fill="#C4C4C4"/>
    <path d="M70 61h11v7H70v-7z" fill="#C4C4C4"/>
    <path fill="#6A6A6A" fill-opacity=".33" d="M70 137h68v97H70z"/>
    <path d="M81.773 217h-.565l-2.147-3.287V217h-.566v-4.266h.566l2.153 3.302v-3.302h.56V217zm2.871 0a1.137 1.137 0 01-.076-.334 1.209 1.209 0 01-.902.393c-.313 0-.57-.088-.77-.264a.864.864 0 01-.3-.674c0-.33.126-.586.376-.767.252-.184.605-.276 1.06-.276h.528v-.249a.604.604 0 00-.17-.451c-.114-.113-.28-.17-.501-.17a.795.795 0 00-.487.146c-.13.098-.196.216-.196.355h-.545c0-.158.056-.311.167-.457.113-.148.266-.266.457-.352.194-.086.405-.129.636-.129.365 0 .651.092.858.276.207.182.315.432.323.753v1.459c0 .291.037.522.11.694V217h-.568zm-.899-.413c.17 0 .331-.044.483-.132a.797.797 0 00.332-.343v-.65h-.425c-.664 0-.996.194-.996.583 0 .17.056.303.17.398a.652.652 0 00.436.144zm2.716-2.757l.015.352c.232-.274.546-.411.94-.411.443 0 .745.17.905.51.106-.152.243-.275.41-.369.17-.094.37-.141.601-.141.695 0 1.049.369 1.06 1.105V217h-.541v-2.092c0-.226-.052-.395-.156-.507-.103-.113-.277-.17-.521-.17a.716.716 0 00-.501.182.724.724 0 00-.232.483V217h-.544v-2.077c0-.461-.226-.692-.677-.692-.356 0-.599.152-.73.455V217h-.542v-3.17h.513zm6.067 3.229c-.43 0-.779-.141-1.049-.422-.269-.283-.404-.661-.404-1.134v-.1c0-.314.06-.594.179-.841a1.41 1.41 0 01.504-.58c.217-.14.451-.211.703-.211.412 0 .732.136.96.408.23.271.344.66.344 1.166v.225h-2.148c.008.313.099.566.273.759a.866.866 0 00.668.287.945.945 0 00.486-.117 1.22 1.22 0 00.349-.311l.33.258c-.265.408-.663.613-1.195.613zm-.067-2.842a.721.721 0 00-.55.24c-.15.158-.241.381-.276.668h1.588v-.041c-.016-.275-.09-.488-.223-.639a.68.68 0 00-.54-.228zm4.233-1.483l1.395 3.481 1.394-3.481h.73V217h-.563v-1.661l.053-1.793-1.4 3.454h-.43l-1.398-3.445.055 1.784V217h-.562v-4.266h.726zm4.284 2.652c0-.311.06-.59.181-.838.123-.248.293-.44.51-.574.219-.135.468-.203.747-.203.432 0 .78.15 1.046.449.267.299.401.696.401 1.192v.038c0 .309-.059.586-.178.832a1.35 1.35 0 01-.507.572 1.404 1.404 0 01-.756.205c-.43 0-.778-.15-1.046-.449-.266-.298-.398-.694-.398-1.186v-.038zm.544.064c0 .352.082.634.244.847a.785.785 0 00.656.319.779.779 0 00.656-.322c.162-.217.243-.52.243-.908 0-.348-.083-.629-.249-.844a.781.781 0 00-.656-.325.776.776 0 00-.647.319c-.165.213-.247.518-.247.914zm2.889-.061c0-.487.115-.877.346-1.172.23-.297.532-.446.905-.446.371 0 .665.127.882.381V212.5h.542v4.5h-.498l-.026-.34c-.217.266-.519.399-.906.399-.367 0-.667-.151-.899-.452-.231-.3-.346-.693-.346-1.177v-.041zm.542.061c0 .36.074.641.223.844a.72.72 0 00.615.305.791.791 0 00.753-.463v-1.456a.797.797 0 00-.747-.449.723.723 0 00-.621.308c-.149.205-.223.509-.223.911zm4.292 1.609c-.43 0-.779-.141-1.049-.422-.269-.283-.404-.661-.404-1.134v-.1c0-.314.06-.594.179-.841.121-.248.289-.441.504-.58a1.27 1.27 0 01.703-.211c.412 0 .732.136.961.408.228.271.342.66.342 1.166v.225h-2.147c.008.313.099.566.272.759a.867.867 0 00.668.287.947.947 0 00.487-.117c.133-.078.249-.182.348-.311l.331.258c-.265.408-.664.613-1.195.613zm-.067-2.842a.72.72 0 00-.551.24c-.148.158-.24.381-.275.668h1.587v-.041c-.015-.275-.089-.488-.222-.639a.68.68 0 00-.539-.228zM111.7 217h-.542v-4.5h.542v4.5z" fill="#fff"/>
    <path d="M79.816 222.323c-.026.226-.11.4-.25.523-.14.122-.326.183-.558.183a.753.753 0 01-.607-.271c-.151-.18-.227-.422-.227-.725v-.205c0-.198.035-.372.106-.523a.802.802 0 01.302-.346.835.835 0 01.45-.121c.227 0 .409.063.546.19.136.126.216.301.238.525h-.282c-.025-.17-.078-.293-.16-.369a.476.476 0 00-.341-.115c-.18 0-.321.067-.424.2-.101.132-.152.321-.152.566v.207c0 .231.048.416.145.552a.468.468 0 00.406.205c.156 0 .276-.035.359-.105.084-.071.14-.195.167-.371h.282zm.271-.13c0-.155.03-.295.091-.419a.687.687 0 01.255-.287.692.692 0 01.374-.101c.215 0 .39.074.523.224.133.149.2.348.2.596v.019c0 .154-.03.293-.09.416a.672.672 0 01-.63.388.667.667 0 01-.523-.224c-.133-.149-.2-.347-.2-.593v-.019zm.273.032c0 .176.04.317.121.423.083.107.192.16.329.16a.39.39 0 00.328-.161c.08-.108.121-.26.121-.454a.67.67 0 00-.124-.422.392.392 0 00-.328-.163.39.39 0 00-.324.16c-.082.107-.123.259-.123.457zm2.489.618c-.106.124-.26.186-.465.186-.169 0-.298-.049-.386-.146-.088-.099-.133-.244-.134-.437v-1.031h.271v1.024c0 .24.098.36.293.36.207 0 .345-.077.413-.231v-1.153h.271V223h-.257l-.006-.157zm.933-1.428l.008.199a.578.578 0 01.475-.228c.335 0 .504.189.507.567V223h-.271v-1.049c-.001-.114-.027-.199-.08-.253-.05-.055-.13-.082-.238-.082a.39.39 0 00-.231.07.474.474 0 00-.156.185V223h-.27v-1.585h.256zm1.766-.384v.384h.296v.21h-.296v.982c0 .064.013.112.04.144.026.031.071.047.135.047a.642.642 0 00.129-.018v.22a.767.767 0 01-.208.029c-.122 0-.213-.036-.274-.11a.471.471 0 01-.093-.312v-.982h-.288v-.21h.288v-.384h.271zm1.38.627a.795.795 0 00-.133-.01c-.178 0-.298.076-.362.227V223h-.27v-1.585h.263l.004.183a.423.423 0 01.378-.212c.053 0 .093.007.12.02v.252zm.796.945l.369-1.188h.29l-.637 1.83c-.099.263-.256.395-.47.395l-.052-.004-.101-.019v-.22l.073.006a.358.358 0 00.214-.056.4.4 0 00.128-.203l.06-.162-.566-1.567h.296l.396 1.188zm1.7.58h-.233l.891-2.316h.232l-.89 2.316zm3.538-.86c-.026.226-.11.4-.25.523-.14.122-.326.183-.559.183a.753.753 0 01-.606-.271c-.151-.18-.227-.422-.227-.725v-.205c0-.198.035-.372.105-.523a.801.801 0 01.302-.346.834.834 0 01.451-.121c.227 0 .408.063.545.19.137.126.216.301.239.525h-.283c-.024-.17-.077-.293-.16-.369a.476.476 0 00-.34-.115c-.18 0-.322.067-.424.2-.102.132-.152.321-.152.566v.207c0 .231.048.416.145.552a.468.468 0 00.405.205c.157 0 .276-.035.36-.105.083-.071.139-.195.166-.371h.283zm.637.677h-.27v-1.585h.27V223zm-.293-2.005c0-.044.013-.081.04-.112.027-.03.067-.045.12-.045.053 0 .093.015.12.045a.163.163 0 01.041.112c0 .044-.014.08-.041.109-.027.03-.067.044-.12.044-.053 0-.093-.014-.12-.044a.155.155 0 01-.04-.109zm1.096.036v.384h.296v.21h-.296v.982c0 .064.013.112.04.144.026.031.07.047.134.047a.642.642 0 00.13-.018v.22a.766.766 0 01-.209.029c-.121 0-.212-.036-.274-.11a.471.471 0 01-.092-.312v-.982h-.289v-.21h.289v-.384h.27zm1.132 1.572l.37-1.188h.29l-.638 1.83c-.099.263-.255.395-.47.395l-.051-.004-.101-.019v-.22l.073.006a.358.358 0 00.214-.056.4.4 0 00.127-.203l.06-.162-.565-1.567h.296l.395 1.188z" fill="#fff" fill-opacity=".5"/>
    <path d="M70 143h15v7H70v-7z" fill="#C4C4C4"/>
    <path d="M70 151h13v7H70v-7z" fill="#C4C4C4"/>
    <path d="M70 159h11v7H70v-7z" fill="#C4C4C4"/>
</svg>
