<svg height="512" width="512" xmlns="http://www.w3.org/2000/svg">
    <path d="M511.672 255.93c0 141.385-114.615 256-256 256s-256-114.615-256-256 114.615-256 256-256 256 114.615 256 256z" fill="#00aff0"/>
    <path d="M255.339 129.462c-6.918 0-13.7.577-20.3 1.676-11.835-7.824-25.918-12.384-41.074-12.384-41.561 0-75.21 34.163-75.21 76.316 0 15.337 4.448 29.586 12.11 41.55a128.47 128.47 0 00-1.56 20.048c0 70.262 56.409 127.214 126.033 127.214 7.858 0 15.508-.776 22.944-2.14 11.553 7.273 25.162 11.504 39.75 11.504 41.55 0 75.214-34.172 75.214-76.32-.002-15.933-4.804-30.747-13.052-42.993.753-5.657 1.187-11.408 1.187-17.262 0-70.251-56.437-127.209-126.042-127.209zm-60.08 161.602c15.627-1.064 25.011 18.066 33.352 23.387 8.331 5.302 40.03 17.381 56.774-2.138 18.232-21.249-12.125-32.244-34.377-35.572-31.771-4.798-71.883-22.324-68.763-56.863 3.122-34.517 28.755-52.215 55.73-54.712 34.387-3.183 56.773 5.312 74.479 20.719 20.473 17.801 9.395 37.702-3.649 39.303-12.993 1.592-27.586-29.28-56.235-29.744-29.53-.472-49.488 31.336-13.033 40.378 36.473 9.033 75.532 12.744 89.598 46.745 14.076 34.004-21.87 70.116-61.993 72.247-40.09 2.13-58.851-6.915-76.037-23.362-19.193-18.37-11.484-39.323 4.153-40.388z" fill="#fff"/>
</svg>
