<svg width="100" height="100" fill="none" xmlns="http://www.w3.org/2000/svg">
    <path d="M50 100c27.614 0 50-22.386 50-50S77.614 0 50 0 0 22.386 0 50s22.386 50 50 50z" fill="#7C519B"/>
    <path d="M49.731 29.348c.317-.291.541-.332 1.645-.298.579.02 1.42.087 1.883.141 2.331.292 4.217.854 6.281 1.86 2.032.996 3.335 1.936 5.056 3.648 1.61 1.617 2.505 2.841 3.454 4.742 1.321 2.653 2.074 5.806 2.202 9.276.047 1.184.014 1.45-.256 1.785-.516.658-1.648.55-2.032-.188-.125-.244-.16-.454-.198-1.403-.068-1.454-.17-2.393-.374-3.517-.8-4.404-2.912-7.922-6.286-10.445-2.814-2.109-5.72-3.14-9.526-3.36-1.289-.074-1.512-.122-1.803-.346-.541-.428-.569-1.428-.046-1.895zm8.076 8.713c-1.362-.81-3.375-1.412-5.209-1.562-.667-.054-1.031-.189-1.281-.48a1.233 1.233 0 01-.102-1.53c.352-.546.893-.635 2.512-.393 4.113.603 7.299 2.511 9.384 5.61 1.176 1.744 1.906 3.795 2.157 5.994.085.806.085 2.272-.01 2.516-.086.23-.372.542-.616.671-.263.134-.827.121-1.138-.041-.52-.262-.677-.683-.677-1.819 0-1.753-.453-3.6-1.239-5.032a10.299 10.299 0 00-3.781-3.934zm2.29 9.02c-.399.364-1.139.377-1.587.034-.323-.246-.426-.504-.5-1.198-.088-.927-.25-1.578-.53-2.179-.595-1.278-1.645-1.942-3.42-2.159-.833-.1-1.085-.195-1.355-.514-.496-.588-.305-1.541.38-1.895.256-.125.363-.14.934-.106.351.02.873.08 1.151.14 1.335.285 2.36.793 3.231 1.61 1.127 1.064 1.744 2.349 2.015 4.195.183 1.206.108 1.68-.32 2.071zm10.121 17.773c-.499 1.29-2.451 3.713-3.813 4.747-1.233.934-2.108 1.291-3.261 1.348-.947.046-1.34-.037-2.553-.535-9.513-3.917-17.11-9.761-23.14-17.794-3.15-4.194-5.549-8.543-7.19-13.057-.953-2.63-1-3.774-.215-5.122.34-.566 1.78-1.974 2.834-2.757 1.748-1.3 2.555-1.78 3.196-1.917.442-.096 1.206-.02 1.694.157.236.08.605.27.812.405 1.29.854 4.873 5.432 6.044 7.72.67 1.306.895 2.271.684 2.99-.218.77-.578 1.176-2.18 2.47-.645.52-1.25 1.053-1.343 1.197-.245.351-.441 1.042-.441 1.528.006 1.13.74 3.178 1.7 4.756.748 1.225 2.08 2.794 3.403 3.998 1.551 1.421 2.919 2.389 4.466 3.153 1.983.988 3.197 1.237 4.084.825.224-.1.462-.237.534-.298.068-.061.59-.697 1.16-1.4 1.097-1.38 1.35-1.603 2.1-1.86.957-.325 1.932-.239 2.914.262.746.387 2.372 1.396 3.421 2.125 1.383.968 4.338 3.376 4.738 3.856.706.868.829 1.977.352 3.203z" fill="#fff"/>
</svg>
