<svg height="512pt" viewBox="0 0 512 512" width="512pt" xmlns="http://www.w3.org/2000/svg">
    <path d="M208 512c-2.582 0-5.184-.617-7.55-1.898-5.208-2.774-8.45-8.215-8.45-14.102V290.773c0-7.464-3.137-14.636-8.64-19.668L12.097 114.238C4.395 107.156 0 97.128 0 86.718V37.333C0 16.746 16.746 0 37.332 0h437.336C495.254 0 512 16.746 512 37.332v49.387c0 10.41-4.395 20.437-12.074 27.52L328.684 271.124c-5.547 5.012-8.684 12.184-8.684 19.648v129.793c0 12.5-6.207 24.125-16.617 31.059l-86.508 57.664C214.207 511.105 211.113 512 208 512zM37.332 32A5.336 5.336 0 0032 37.332v49.387c0 1.496.64 2.926 1.75 3.949l171.2 156.84c12.097 11.094 19.05 26.86 19.05 43.265V466.09l61.633-41.086a5.34 5.34 0 002.367-4.438V290.773c0-16.425 6.934-32.191 19.07-43.265L478.273 90.645A5.36 5.36 0 00480 86.719V37.332A5.336 5.336 0 00474.668 32zm0 0"/>
</svg>
