<svg width="100" height="100" fill="none" xmlns="http://www.w3.org/2000/svg">
    <path d="M50 100c27.614 0 50-22.386 50-50S77.614 0 50 0 0 22.386 0 50s22.386 50 50 50z" fill="#1EAFE5"/>
    <path d="M49.999 27.087c-12.654 0-22.911 9.499-22.911 21.216 0 6.677 3.332 12.632 8.539 16.523v8.088l7.8-4.283A24.56 24.56 0 0050 69.52c12.655 0 22.915-9.499 22.915-21.218-.002-11.715-10.262-21.214-22.916-21.214zm2.279 28.572l-5.835-6.224-11.387 6.224L47.58 42.362l5.978 6.225L64.8 42.362 52.278 55.66z" fill="#fff"/>
</svg>
