<svg width="16" height="16" fill="none" xmlns="http://www.w3.org/2000/svg">
    <g clip-path="url(#clip0)" fill="#fff" fill-opacity=".5">
        <path d="M8 5.818A2.184 2.184 0 005.818 8c0 1.204.979 2.182 2.182 2.182A2.184 2.184 0 0010.182 8 2.184 2.184 0 008 5.818z"/>
        <path d="M8 2.545C4.364 2.545 1.258 4.807 0 8c1.258 3.193 4.364 5.454 8 5.454 3.64 0 6.742-2.261 8-5.454-1.258-3.193-4.36-5.455-8-5.455zm0 9.091A3.638 3.638 0 014.364 8 3.638 3.638 0 018 4.364 3.638 3.638 0 0111.636 8 3.638 3.638 0 018 11.636z"/>
    </g>
    <defs>
        <clipPath id="clip0">
            <path fill="#fff" d="M0 0h16v16H0z"/>
        </clipPath>
    </defs>
</svg>
