<svg width="16" height="16" fill="none" xmlns="http://www.w3.org/2000/svg">
    <g clip-path="url(#clip0)" fill="#F53A66" fill-opacity=".7">
        <path d="M15.273 0H9.455a.727.727 0 000 1.455h4.062L6.031 8.94A.727.727 0 007.06 9.97l7.486-7.486v4.062a.727.727 0 101.454 0V.727A.727.727 0 0015.273 0z"/>
        <path d="M12.364 7.273a.727.727 0 00-.728.727v6.546H1.455V4.364H8a.727.727 0 000-1.455H.727A.727.727 0 000 3.636v11.637c0 .402.326.727.727.727h11.637a.727.727 0 00.727-.727V8a.727.727 0 00-.727-.727z"/>
    </g>
    <defs>
        <clipPath id="clip0">
            <path fill="#fff" d="M0 0h16v16H0z"/>
        </clipPath>
    </defs>
</svg>
