<svg width="275" height="33" fill="none" xmlns="http://www.w3.org/2000/svg">
    <path d="M33.608 9.908h-4.974a.69.69 0 00-.683.584L25.94 23.246a.413.413 0 00.41.478h2.374a.69.69 0 00.683-.584l.543-3.44a.691.691 0 01.682-.584h1.575c3.276 0 5.167-1.585 5.66-4.727.223-1.374.01-2.454-.633-3.21-.707-.831-1.961-1.27-3.626-1.27zm.574 4.659c-.272 1.784-1.636 1.784-2.954 1.784h-.75l.526-3.333a.415.415 0 01.41-.35h.343c.898 0 1.746 0 2.183.512.262.306.342.76.242 1.387zm14.294-.058h-2.382a.414.414 0 00-.41.35l-.105.666-.167-.241c-.515-.749-1.665-.999-2.813-.999-2.632 0-4.88 1.994-5.317 4.79-.228 1.395.096 2.729.887 3.659.726.855 1.764 1.211 3 1.211 2.12 0 3.297-1.363 3.297-1.363l-.107.662a.414.414 0 00.409.48h2.145a.69.69 0 00.683-.584l1.288-8.152a.413.413 0 00-.408-.479zm-3.32 4.636c-.23 1.36-1.31 2.274-2.688 2.274-.691 0-1.244-.222-1.599-.642-.352-.418-.486-1.012-.374-1.674.215-1.349 1.313-2.292 2.67-2.292.676 0 1.226.225 1.588.649.363.428.507 1.026.403 1.685zm16.005-4.636h-2.394a.694.694 0 00-.572.303l-3.301 4.863-1.4-4.673a.694.694 0 00-.663-.493H50.48a.414.414 0 00-.393.548l2.636 7.737-2.478 3.5a.415.415 0 00.338.654h2.39a.69.69 0 00.568-.297l7.961-11.49a.414.414 0 00-.34-.652z" fill="#253B80"/>
    <path d="M69.085 9.908h-4.974a.691.691 0 00-.683.584l-2.011 12.754a.414.414 0 00.408.478h2.553a.483.483 0 00.477-.408l.571-3.616a.69.69 0 01.682-.584h1.574c3.277 0 5.167-1.585 5.662-4.727.223-1.374.009-2.454-.635-3.21-.706-.831-1.96-1.27-3.624-1.27zm.574 4.659c-.271 1.784-1.635 1.784-2.954 1.784h-.75l.527-3.333a.413.413 0 01.409-.35h.344c.897 0 1.745 0 2.183.512.261.306.34.76.24 1.387zm14.293-.058h-2.38a.412.412 0 00-.41.35l-.105.666-.167-.241c-.516-.749-1.665-.999-2.812-.999-2.632 0-4.88 1.994-5.317 4.79-.227 1.395.095 2.729.886 3.659.727.855 1.765 1.211 3 1.211 2.121 0 3.297-1.363 3.297-1.363l-.106.662a.414.414 0 00.41.48h2.145a.691.691 0 00.682-.584l1.288-8.152a.417.417 0 00-.411-.479zm-3.32 4.636c-.228 1.36-1.31 2.274-2.687 2.274-.69 0-1.245-.222-1.6-.642-.352-.418-.484-1.012-.373-1.674.216-1.349 1.312-2.292 2.669-2.292.676 0 1.226.225 1.588.649.364.428.508 1.026.403 1.685zm6.128-8.887l-2.041 12.988a.414.414 0 00.408.478h2.053a.69.69 0 00.682-.584l2.014-12.753a.414.414 0 00-.41-.48H87.17a.415.415 0 00-.409.351z" fill="#179BD7"/>
    <path d="M5.284 26.203l.38-2.416-.847-.02H.772L3.583 5.94a.23.23 0 01.229-.195h6.821c2.265 0 3.828.47 4.644 1.401.383.436.626.892.744 1.394.124.527.126 1.156.005 1.923l-.009.056v.492l.383.216c.292.149.555.349.774.591.328.373.54.847.629 1.41.092.578.062 1.266-.09 2.045-.174.896-.456 1.676-.837 2.314a4.76 4.76 0 01-1.328 1.455 5.382 5.382 0 01-1.787.807c-.66.171-1.41.258-2.234.258h-.531c-.38 0-.749.137-1.038.382-.29.247-.481.59-.541.965l-.04.218-.672 4.258-.03.156c-.009.05-.023.075-.043.091a.113.113 0 01-.07.026H5.284z" fill="#253B80"/>
    <path d="M16.762 10.576c-.02.13-.044.263-.07.4-.9 4.619-3.977 6.214-7.908 6.214H6.783c-.481 0-.886.35-.961.824l-1.025 6.499-.29 1.842a.512.512 0 00.505.592h3.55c.42 0 .778-.306.844-.72l.035-.18.668-4.242.043-.233a.854.854 0 01.844-.721h.53c3.44 0 6.132-1.396 6.92-5.437.328-1.688.158-3.098-.712-4.089a3.395 3.395 0 00-.972-.75z" fill="#179BD7"/>
    <path d="M15.821 10.2a7.086 7.086 0 00-.875-.193 11.112 11.112 0 00-1.764-.13H7.835a.852.852 0 00-.843.722l-1.138 7.205-.032.21a.972.972 0 01.96-.823h2.002c3.93 0 7.009-1.597 7.908-6.215.027-.137.05-.27.07-.4a4.801 4.801 0 00-.941-.375z" fill="#222D65"/>
    <path d="M6.992 10.6a.85.85 0 01.843-.721h5.347c.633 0 1.225.041 1.764.128.365.058.726.143 1.077.257.266.088.512.192.74.312.268-1.707-.002-2.87-.925-3.921C14.82 5.496 12.984 5 10.634 5H3.812c-.48 0-.889.35-.963.824L.007 23.834a.586.586 0 00.579.679h4.211l1.058-6.71L6.992 10.6z" fill="#253B80"/>
    <path d="M151.712 5.75H138.55v21.497h13.162V5.75z" fill="#FF5F00"/>
    <path d="M139.906 16.5a13.637 13.637 0 015.221-10.747 13.672 13.672 0 00-22.118 10.749 13.67 13.67 0 0022.118 10.749 13.65 13.65 0 01-5.221-10.75z" fill="#EB001B"/>
    <path d="M165.941 24.972v-.44h.19v-.092h-.452v.092h.179v.44h.083zm.877 0v-.532h-.136l-.16.38-.159-.38h-.137v.532h.099v-.402l.148.345h.102l.149-.345v.402h.094z" fill="#F79E1B"/>
    <path d="M167.248 16.5a13.671 13.671 0 01-22.121 10.747 13.67 13.67 0 000-21.498 13.673 13.673 0 0122.121 10.747v.004z" fill="#F79E1B"/>
    <g clip-path="url(#clip0)">
        <path d="M232.211 28.654h-6.007l3.757-23.233h6.007l-3.757 23.233z" fill="#00579F"/>
        <path d="M253.988 5.99c-1.185-.471-3.064-.99-5.388-.99-5.932 0-10.11 3.163-10.136 7.686-.049 3.337 2.991 5.19 5.265 6.303 2.324 1.137 3.114 1.88 3.114 2.892-.023 1.557-1.878 2.274-3.607 2.274-2.398 0-3.684-.37-5.636-1.236l-.791-.37-.841 5.215c1.409.641 4.005 1.211 6.7 1.236 6.303 0 10.406-3.114 10.455-7.934.024-2.645-1.581-4.671-5.042-6.327-2.101-1.063-3.388-1.78-3.388-2.868.024-.989 1.088-2.001 3.46-2.001 1.953-.05 3.388.42 4.475.89l.543.246.817-5.017z" fill="#00579F"/>
        <path d="M261.972 20.423c.495-1.334 2.399-6.5 2.399-6.5-.025.05.493-1.36.79-2.224l.42 2.002s1.137 5.56 1.384 6.722h-4.993zm7.415-15.002h-4.646c-1.433 0-2.522.42-3.14 1.928l-8.923 21.305h6.303l1.261-3.486h7.713c.172.816.717 3.486.717 3.486h5.562L269.387 5.42z" fill="#00579F"/>
        <path d="M221.187 5.421l-5.884 15.843-.642-3.213c-1.088-3.708-4.499-7.736-8.306-9.739l5.389 20.317h6.352l9.443-23.208h-6.352z" fill="#00579F"/>
        <path d="M209.841 5.421h-9.665l-.099.47c7.539 1.928 12.532 6.575 14.584 12.16L212.56 7.375c-.346-1.484-1.409-1.904-2.719-1.953z" fill="#FAA61A"/>
    </g>
    <defs>
        <clipPath id="clip0">
            <path fill="#fff" transform="translate(200.077 5)" d="M0 0h74.157v24H0z"/>
        </clipPath>
    </defs>
</svg>
