<svg width="512" height="512" fill="none" xmlns="http://www.w3.org/2000/svg">
    <g clip-path="url(#clip0)">
        <path d="M208 512c-2.582 0-5.184-.617-7.551-1.898C195.242 507.328 192 501.887 192 496V290.773c0-7.464-3.137-14.636-8.641-19.668L12.098 114.238C4.395 107.156 0 97.128 0 86.718V37.333C0 16.746 16.746 0 37.332 0h437.336C495.254 0 512 16.746 512 37.332v49.387c0 10.41-4.395 20.437-12.074 27.519L328.684 271.125c-5.547 5.012-8.684 12.184-8.684 19.648v129.793a37.25 37.25 0 01-16.617 31.059l-86.508 57.664C214.207 511.105 211.113 512 208 512zM37.332 32A5.336 5.336 0 0032 37.332v49.387c0 1.496.64 2.925 1.75 3.949l171.199 156.84C217.047 258.602 224 274.367 224 290.773V466.09l61.633-41.086a5.341 5.341 0 002.367-4.438V290.773c0-16.425 6.934-32.191 19.07-43.265L478.273 90.644A5.36 5.36 0 00480 86.72V37.332A5.337 5.337 0 00474.668 32H37.332z" fill="#fff"/>
    </g>
    <defs>
        <clipPath id="clip0">
            <path fill="#fff" d="M0 0h512v512H0z"/>
        </clipPath>
    </defs>
</svg>
