<svg width="220" height="99" fill="none" xmlns="http://www.w3.org/2000/svg">
    <g clip-path="url(#clip0)">
        <path d="M75.388 29.552c-.292-.679-.566-1.39-.816-2.112a1.095 1.095 0 10-2.07.716c.267.773.562 1.534.874 2.26a1.096 1.096 0 102.012-.864z" fill="#FFBC3F"/>
        <path d="M83.684 42.46a1.095 1.095 0 101.09-1.899 20.946 20.946 0 01-6.552-5.962c-.492-.682-.95-1.39-1.37-2.118a1.095 1.095 0 00-1.896 1.095c.457.793.956 1.563 1.492 2.306a23.118 23.118 0 007.236 6.579z" fill="#FFBC3F"/>
        <path d="M135.546 42.181c.206 0 .406-.058.581-.167a22.581 22.581 0 002.14-1.524 1.094 1.094 0 00-1.372-1.707c-.617.496-1.262.955-1.932 1.375a1.094 1.094 0 00.583 2.023z" fill="#FFBC3F"/>
        <path d="M140.087 38.365a1.086 1.086 0 00.812-.36c2.178-2.4 3.944-5.334 5.251-8.719.142-.367.281-.748.413-1.13a1.092 1.092 0 00-1.513-1.343 1.097 1.097 0 00-.557.627c-.124.358-.254.713-.387 1.057-1.209 3.133-2.834 5.837-4.829 8.037a1.095 1.095 0 00.81 1.83z" fill="#FFBC3F"/>
        <path d="M69.645 36.45c-1.302-9.764 3.254-22.13 3.905-22.782.622-.622 4.418 17.583 14.226 23.934m0 0c.453.293.917.56 1.395.8m-1.395-.8c16.948-8.532 26.524-8.715 43.703.15m-1.953.65c10.094-4.21 13.348-10.017 15.622-25.384 5.562 8.315 7.153 13.68 3.905 26.035" stroke="#FFBC3F" stroke-width="2"/>
        <path d="M15.223 45.382c-.125-.281-.157-.422-.094-.422.094 0 .203.078.328.234l.234.235 1.031 1.546a12.03 12.03 0 011.078 1.922c.344.75.656 1.624.938 2.624.28.969.5 2.125.656 3.468a22.16 22.16 0 01.093 4.546 44.17 44.17 0 01-.515 4.452c-.031.062-.063.219-.094.469-.031.25-.094.374-.187.374-.063 0-.125-.109-.188-.328a2.582 2.582 0 01-.093-.515c-.063-.344-.125-.75-.188-1.218-.063-.47-.125-.953-.188-1.453-.03-.532-.062-1.031-.093-1.5v-1.312c0-.125-.016-.39-.047-.797 0-.437-.016-.937-.047-1.5a21.362 21.362 0 00-.187-1.827 39.657 39.657 0 00-.235-2.015c.063.968.063 1.937 0 2.905-.062.969-.14 1.953-.234 2.953a87.077 87.077 0 00-.234 2.952 23.266 23.266 0 000 2.953c.093 1.937.484 3.905 1.171 5.904.688 2 1.781 3.703 3.28 5.109.188.187.266.28.235.28-.062.032-.172 0-.328-.093-1.094-.625-2-1.375-2.718-2.25a12.882 12.882 0 01-1.78-2.858 16.348 16.348 0 01-.985-3.187 20.663 20.663 0 01-.375-3.374.522.522 0 00-.047-.234v-.282a53.928 53.928 0 01-2.109 5.155c-.75 1.656-1.5 3.25-2.25 4.78a752.18 752.18 0 01-2.061 4.359 33.4 33.4 0 00-1.5 3.749c-.062.156-.11.234-.14.234-.063 0-.094-.047-.094-.14v-.188c.031-1.468.328-3 .89-4.592a68.993 68.993 0 011.968-5.015c.782-1.75 1.594-3.53 2.438-5.342a53.772 53.772 0 002.202-5.624c.375-1.218.687-2.484.937-3.796.281-1.312.453-2.624.516-3.937a22.359 22.359 0 00-.14-3.842 15.638 15.638 0 00-.844-3.562zm5.81 26.994c.345.718.797 1.39 1.36 2.015.219-1.313.64-2.61 1.265-3.89a48.302 48.302 0 012.11-3.937 138.858 138.858 0 012.53-3.936 59.178 59.178 0 002.437-3.984 16.835 16.835 0 001.406-3.14 16.59 16.59 0 00.843-3.42c.188-1.188.234-2.36.14-3.515a10.426 10.426 0 00-.702-3.28c-.094-.157-.11-.266-.047-.329.062-.062.156-.016.281.14.156.126.25.22.281.282.375.531.672 1.234.89 2.109.25.843.422 1.796.516 2.858.125 1.032.188 2.125.188 3.281a42.86 42.86 0 01-.141 3.468 48.042 48.042 0 01-.703 5.014c-.312 1.812-.703 3.468-1.171 4.968-.032.062-.094.203-.188.422-.063.218-.14.328-.234.328-.063-.031-.11-.156-.14-.375a5.411 5.411 0 01-.048-.469v-1.218l.094-1.5c.031-.531.063-1.03.094-1.5.062-.5.125-.921.187-1.265.031-.187.078-.61.14-1.265.095-.688.173-1.453.235-2.297a26.253 26.253 0 00-.89 2.344 28.16 28.16 0 00-.563 2.015 34.26 34.26 0 00-.421 2.062 78.177 78.177 0 00-.282 2.53c-.093.969-.14 1.984-.14 3.047.031 1.062.14 2.109.328 3.14.219 1.03.515 2.046.89 3.046.406.968.922 1.859 1.547 2.67.125.188.156.298.093.329-.062.031-.14 0-.234-.094-1-.812-1.796-1.718-2.39-2.718a13.633 13.633 0 01-1.265-3.233 15.83 15.83 0 01-.469-3.422c0-1.187.063-2.343.188-3.468.062-.406.109-.812.14-1.218.063-.406.125-.828.188-1.265a159.209 159.209 0 01-2.156 3.374 61.895 61.895 0 00-2.015 3.28 39.277 39.277 0 00-1.687 3.187 17.358 17.358 0 00-1.078 3.093l-.094.234c-.063 0-.094-.062-.094-.187v-.234-.75c0-.25.032-.5.094-.75l-.656-.328a6.559 6.559 0 01-.562-.422 10.005 10.005 0 01-.516-.562 8.366 8.366 0 01-.515-.844 10.23 10.23 0 01-.47-1.124c-.155-.438-.296-.86-.42-1.266a11.32 11.32 0 01-.188-1.078c0-.312.047-.468.14-.468.063 0 .125.062.188.187.093.094.187.219.28.375.095.156.173.313.235.469.063.156.11.265.14.328l.47 1.124.562 1.032zm.985-8.67a90.416 90.416 0 012.109-3.89c.75-1.28 1.343-2.296 1.78-3.046a81.672 81.672 0 012.344-3.937 223.044 223.044 0 002.109-3.468c.062-.156.125-.296.187-.421.094-.125.172-.157.235-.094.062 0 .078.078.046.234l-.093.469a20.448 20.448 0 01-2.39 6.373c-1.125 2-2.312 4.015-3.562 6.046a32.358 32.358 0 01-1.172 1.734c-.312.437-.593.874-.843 1.312-.219.406-.406.86-.563 1.359-.156.5-.265 1.14-.328 1.921.125-.343.266-.671.422-.984.156-.312.313-.609.469-.89.875-1.5 1.859-3 2.952-4.5 1.094-1.499 2.172-2.905 3.234-4.217.062-.062.172-.187.328-.375.187-.218.312-.312.375-.28.062.03.047.17-.047.42-.063.25-.11.438-.14.563-.157.344-.36.766-.61 1.266-.219.5-.468 1.015-.75 1.546-.25.5-.515 1-.796 1.5-.282.468-.532.859-.75 1.171-.125.188-.39.563-.797 1.125a21.39 21.39 0 00-1.312 2.109 34.978 34.978 0 00-1.406 2.859 16.855 16.855 0 00-.984 3.374 18.925 18.925 0 00-.375-.703c-.125-.281-.281-.734-.469-1.36a24.358 24.358 0 01-.937-5.95c-.031-2.032-.031-4.11 0-6.234a86.504 86.504 0 000-4.03c0-1.344-.219-2.765-.656-4.265-.031-.125-.031-.218 0-.28.062 0 .156.093.281.28.563.594.984 1.469 1.265 2.625.282 1.124.485 2.327.61 3.608.125 1.25.187 2.484.187 3.702.031 1.188.047 2.14.047 2.86v.468zM9.693 59.629a85.406 85.406 0 011.78-4.921c.688-1.656 1.281-3.14 1.781-4.452l.188-.469c.094-.156.172-.218.234-.187.063 0 .078.109.047.328v.515a36.805 36.805 0 01-1.687 7.64c-.844 2.53-1.78 5.03-2.812 7.497a119.197 119.197 0 01-2.015 4.734 29.734 29.734 0 00-1.78 5.108c-.063.156-.095.25-.095.28.032.032.032.048 0 .048-.093-.063-.14-.203-.14-.422-.156-.937-.063-2.109.281-3.515a43.532 43.532 0 011.312-4.405 85.77 85.77 0 011.64-4.358c.563-1.406.985-2.547 1.266-3.421zM7.678 70.782c.78-1.78 1.624-3.608 2.53-5.483.906-1.906 1.781-3.718 2.625-5.436.03-.094.109-.266.234-.516.156-.25.297-.359.422-.328.062 0 .078.14.047.422-.032.281-.079.484-.141.61-.094.437-.219.968-.375 1.593a30.45 30.45 0 01-.562 1.874c-.188.625-.39 1.25-.61 1.875a20.884 20.884 0 01-.609 1.5c-.094.187-.265.593-.515 1.218-.219.593-.5 1.312-.844 2.156-.312.843-.656 1.75-1.03 2.718a343.95 343.95 0 00-.985 2.718c-.312.843-.594 1.609-.843 2.296-.22.656-.344 1.125-.375 1.406-.063.313-.125.469-.188.469-.062 0-.11-.063-.14-.188a.653.653 0 00-.047-.28c-.157-.376-.235-.922-.235-1.641.032-.719.125-1.484.282-2.296.156-.813.343-1.64.562-2.484.25-.844.515-1.578.797-2.203zm27.93-4.03a33.17 33.17 0 01-.75 4.218 633.052 633.052 0 01-.843 3.749c-.125.406-.219.593-.281.562-.063 0-.11-.062-.14-.187 0-.156-.016-.313-.047-.469a23.49 23.49 0 01.093-6.28c.313-2.093.656-4.233 1.031-6.42.25-1.312.453-2.656.61-4.03.156-1.406.156-2.906 0-4.5 0-.124.03-.218.093-.28.063 0 .094.046.094.14.031.063.078.11.14.14.47.688.735 1.64.797 2.86a25.02 25.02 0 010 3.748 46.954 46.954 0 01-.422 3.797 979.101 979.101 0 00-.374 2.952zM14.38 48.85a15.007 15.007 0 00-.281-1.828 19.29 19.29 0 00-.375-1.734.52.52 0 01-.047-.234c0-.094.016-.14.047-.14.094 0 .188.046.281.14l.188.187c.343.469.625.938.843 1.406.219.438.36 1.172.422 2.203.031.406.031.906 0 1.5a13.921 13.921 0 01-.187 1.687 6.893 6.893 0 01-.282 1.359c-.093.375-.187.546-.28.515-.063 0-.11-.078-.141-.234-.032-.188-.063-.39-.094-.61v-.656-.515-1.5c0-.5-.031-1.015-.094-1.546zm17.152-.61a12.374 12.374 0 00-.187-1.593 9.78 9.78 0 00-.328-1.546 1.831 1.831 0 01-.094-.235c0-.093.031-.124.094-.093l.14.14.188.094.094.094c.343.437.609.859.796 1.265.219.406.344 1.078.375 2.015 0 .344-.047.781-.14 1.312a12.29 12.29 0 01-.282 1.547 5.613 5.613 0 01-.374 1.218c-.125.313-.25.438-.375.375-.063-.03-.094-.125-.094-.28v-.563c0-.219.015-.422.047-.61.031-.187.047-.328.047-.421.062-.5.093-.969.093-1.406a9.18 9.18 0 000-1.312zm1.64 27.744c.188.531.391 1.016.61 1.453l.75 1.312a.51.51 0 01.093.188c.032.062.016.093-.047.093a.522.522 0 01-.234-.047.546.546 0 00-.14-.093.542.542 0 01-.141-.094 8.612 8.612 0 01-1.078-.984c-.281-.313-.562-.875-.843-1.687a13.171 13.171 0 01-.282-1.172 10.91 10.91 0 01-.187-1.359 6.722 6.722 0 010-1.125c.031-.312.11-.468.234-.468.032 0 .078.078.14.234.063.125.11.281.141.469.063.156.11.328.141.515.063.156.11.266.14.328.157.438.282.86.375 1.266.094.406.204.796.329 1.171zm20.962-12.981c0 1.562-.218 3.202-.656 4.92a33.557 33.557 0 01-1.64 5.015 35.344 35.344 0 01-2.39 4.733c-.875 1.469-1.78 2.734-2.718 3.796-.344.375-.547.547-.61.516-.062-.032-.03-.266.094-.703.188-.5.422-1.063.703-1.687.313-.625.61-1.234.89-1.828l.891-1.78a38.09 38.09 0 00.75-1.407c.219-.469.468-1.078.75-1.828.28-.78.546-1.64.796-2.577.282-.937.547-1.922.797-2.953a75.08 75.08 0 00.656-2.952c.188-.968.328-1.843.422-2.624.125-.813.172-1.469.14-1.969-.03-.562-.03-.921 0-1.077.063-.188.125-.25.188-.188.063.031.125.125.188.281.093.156.171.297.234.422.218.625.36 1.328.422 2.109.062.781.093 1.375.093 1.78zm-9.232 12.934c-.219.25-.515.484-.89.703-.375.219-.735.328-1.078.328-.75 0-1.375-.219-1.875-.656a4.9 4.9 0 01-1.124-1.593 9.23 9.23 0 01-.61-2.062 15.032 15.032 0 01-.14-1.922c0-.843.078-1.812.234-2.905.188-1.125.453-2.234.797-3.328a22.016 22.016 0 011.312-3.14c.531-1 1.156-1.796 1.874-2.39a12.9 12.9 0 01.516-.328c.156-.124.11.032-.14.47-.188.343-.376.64-.563.89-.156.25-.281.53-.375.843-.5.906-.906 1.859-1.218 2.859-.282 1-.516 2.015-.703 3.046a20.53 20.53 0 00-.422 4.124c0 .5.015 1.046.047 1.64a7.36 7.36 0 00.375 1.687c.187.531.468.984.843 1.36.406.343.953.515 1.64.515.188 0 .407-.047.656-.14.25-.094.454-.188.61-.282.25-.094.375-.11.375-.047s-.047.172-.14.328zM55.351 63.8c.126.468.188 1.015.188 1.64 0 1.28-.187 2.702-.562 4.264a41.613 41.613 0 01-1.5 4.78 45.717 45.717 0 01-2.156 5.015 71.701 71.701 0 01-2.577 4.874 52.134 52.134 0 01-2.718 4.358c-.937 1.375-1.828 2.562-2.671 3.562l-.188.187a.838.838 0 01-.234.234.53.53 0 01-.188.188c-.062.031-.093-.016-.093-.14 0-.063.187-.485.562-1.266.406-.75.906-1.703 1.5-2.859a329.261 329.261 0 001.921-3.702 615.234 615.234 0 002.062-3.796 122.345 122.345 0 001.687-3.233c.5-.938.828-1.578.984-1.922.906-2 1.672-3.999 2.297-5.998a32.576 32.576 0 001.359-6.28c.03-.25.047-.375.047-.375.03-.031.125.125.28.468zm-3.045-3.468c0 1.75-.25 3.53-.75 5.342a42.197 42.197 0 01-1.781 5.296 58.518 58.518 0 01-2.39 5.108 183.956 183.956 0 01-2.437 4.546 59.817 59.817 0 00-3.562 7.967 40.456 40.456 0 00-2.015 8.482c-.062.344-.11.484-.14.422-.032 0-.078-.094-.141-.282a10.466 10.466 0 01-.094-.562c-.031-.187-.062-.39-.093-.61v-.561c0-1.407.156-2.828.468-4.265a32.574 32.574 0 011.219-4.218 57.166 57.166 0 011.64-4.03 81.318 81.318 0 011.874-3.703H42.84c-.937 0-1.75-.218-2.437-.655a5.269 5.269 0 01-1.687-1.734c-.437-.72-.781-1.563-1.03-2.531a13.793 13.793 0 01-.329-3.046c0-.407.047-.969.14-1.687.094-.75.235-1.516.422-2.297.188-.812.422-1.593.703-2.343.282-.781.594-1.406.938-1.875.25-.343.39-.484.421-.421.032.062 0 .265-.093.609a27.978 27.978 0 00-.984 3.702 22.525 22.525 0 00-.328 3.796c0 .719.046 1.5.14 2.343.094.844.281 1.625.562 2.344.313.687.75 1.265 1.313 1.734.562.468 1.327.703 2.296.703.687 0 1.312-.235 1.874-.704a7.412 7.412 0 001.5-1.733c.469-.688.875-1.438 1.219-2.25.374-.812.703-1.562.984-2.25a11.306 11.306 0 01-2.437 2.437 8.375 8.375 0 01-1.406.844c-.469.219-.922.328-1.36.328-.436 0-.78-.14-1.03-.422a3.336 3.336 0 01-.61-1.03 6.437 6.437 0 01-.234-1.313 16.653 16.653 0 01-.047-1.171c0-1.125.063-2.25.188-3.375.156-1.156.39-2.28.703-3.374a17.697 17.697 0 011.218-3.187 13.556 13.556 0 011.922-2.811.837.837 0 01.234-.235c.094-.093.172-.156.234-.187.094-.031.141-.016.141.047 0 .03-.063.156-.188.375-.905 1.687-1.655 3.561-2.249 5.623-.562 2.062-.843 4.062-.843 5.999v.937c.03.406.078.828.14 1.266.094.437.219.827.375 1.171.188.313.422.469.703.469.094 0 .219-.047.375-.14a9.673 9.673 0 003.327-2.719 16.769 16.769 0 002.25-3.843 20.21 20.21 0 001.265-4.405c.281-1.53.437-2.984.469-4.358 0-.5.03-.766.093-.797.063-.031.172.234.328.797.188.906.282 1.718.282 2.436zm-8.951 27.743c0 .219-.078.578-.235 1.078-.125.5-.28 1.03-.468 1.593s-.375 1.11-.563 1.64c-.187.532-.328.938-.422 1.219-.25.687-.437 1.359-.562 2.015-.125.687-.265 1.39-.422 2.109 0 .062-.015.156-.047.281-.03.125-.093.188-.187.188-.063 0-.11-.078-.14-.235a1.976 1.976 0 01-.047-.328 6.306 6.306 0 01-.141-1.03c0-.438.016-.782.047-1.032.094-.78.265-1.624.515-2.53.25-.875.516-1.703.797-2.484.313-.75.625-1.375.937-1.875.313-.5.578-.75.797-.75.094 0 .14.047.14.141zm14.886-8.06c-.219.218-.36.312-.422.28-.063-.03-.063-.109 0-.234.063-.094.11-.172.14-.234.25-.281.438-.484.563-.61a7.71 7.71 0 01.516-.468 10.31 10.31 0 01-1.64-3.187 15.186 15.186 0 01-.61-3.561 21.09 21.09 0 01.14-3.703c.188-1.25.422-2.468.704-3.655a91.437 91.437 0 011.921-6.842 80.436 80.436 0 001.875-6.467c-1 .187-1.906.437-2.719.75-.78.312-1.296.656-1.546 1.03-.094.157-.188.22-.281.188-.063-.031-.032-.172.093-.422.25-.531.703-1 1.36-1.406a9.38 9.38 0 012.249-1.078c.843-.28 1.75-.5 2.718-.656 1-.156 1.953-.218 2.859-.187 2.03.062 3.718.453 5.061 1.171 1.375.719 2.078 1.781 2.109 3.187 0 .875-.313 1.75-.937 2.625a13.52 13.52 0 01-2.203 2.483c-.844.75-1.75 1.438-2.718 2.062a34.102 34.102 0 01-2.484 1.406l-.187.656c.468-.406 1.093-.734 1.874-.984a7.948 7.948 0 012.437-.375c.875 0 1.719.157 2.53.469a5.33 5.33 0 012.204 1.406 6.454 6.454 0 011.593 3.233 6.718 6.718 0 01-.188 3.515c-.343 1.156-.921 2.11-1.734 2.859-.812.719-1.64 1.265-2.483 1.64a2.83 2.83 0 01-.516.234c-.25.063-.406.047-.469-.046-.03-.063.047-.172.235-.328.187-.188.328-.313.422-.375.843-.563 1.562-1.328 2.155-2.297.594-.968.953-1.968 1.078-2.999a5.914 5.914 0 00-.328-3.046c-.375-.969-1.109-1.718-2.203-2.25-.437-.218-1.015-.374-1.733-.468a8.325 8.325 0 00-2.156-.094 5.438 5.438 0 00-2.015.469 2.473 2.473 0 00-1.266 1.312 7.1 7.1 0 011.922-.797 7.252 7.252 0 012.156-.234c.75 0 1.452.14 2.108.422.657.25 1.203.64 1.64 1.171.532.656.829 1.344.891 2.062a4.413 4.413 0 01-.234 2.11c-.219.687-.594 1.327-1.125 1.92a7.226 7.226 0 01-1.734 1.5 40.541 40.541 0 01-2.906 1.594 75.704 75.704 0 00-3.186 1.593 32.069 32.069 0 00-3.046 1.734c-.969.594-1.797 1.234-2.484 1.921zm5.623-13.404a35.827 35.827 0 00-1.405 4.265 35.967 35.967 0 01-1.172 3.89c-.156.406-.266.593-.328.562-.094-.031-.14-.11-.14-.234v-.469a33.502 33.502 0 011.03-7.03 217.909 217.909 0 011.922-7.076 94.5 94.5 0 001.218-4.499c.406-1.562.64-3.234.703-5.014h-.796c.03.843 0 1.687-.094 2.53-.063.813-.172 1.515-.328 2.11a70.073 70.073 0 01-1.594 5.248 80.948 80.948 0 01-1.968 5.155l-.234.469c-.094.218-.188.312-.281.28-.063-.03-.11-.171-.141-.421 0-.25.016-.422.047-.515.031-.375.094-.844.187-1.406.125-.563.235-1.14.328-1.734.125-.594.25-1.172.375-1.734.156-.563.297-1.047.422-1.453.031-.156.11-.516.234-1.078.157-.562.313-1.234.469-2.015.156-.813.312-1.672.469-2.578.187-.937.343-1.843.468-2.718-.25 0-.437.016-.562.047a29.154 29.154 0 01-.703 3.515 56.7 56.7 0 01-.984 3.608l-1.125 3.656a47.297 47.297 0 00-.984 3.608 25.814 25.814 0 00-.563 3.234 30.525 30.525 0 00-.187 3.374c0 1.094.094 2.171.281 3.234.188 1.062.485 2.077.89 3.046l.422-.422a7.611 7.611 0 01-.28-.797 7.817 7.817 0 01-.235-1.124c-.063-.344-.11-.781-.14-1.313 0-.53.015-1.046.046-1.546s.078-.922.14-1.265c.063-.344.157-.516.282-.516.031 0 .063.078.094.234.062.157.109.344.14.563.032.219.063.422.094.61.031.187.047.327.047.42.031.282.062.594.094.938.03.344.062.703.093 1.078.063.375.11.75.14 1.125.063.343.142.64.235.89a15.265 15.265 0 012.297-1.734 40.805 40.805 0 012.39-1.453c.812-.437 1.593-.859 2.343-1.265.75-.406 1.406-.812 1.968-1.218.969-.657 1.594-1.484 1.875-2.484.28-1.031.109-1.953-.516-2.765-.406-.531-.968-.906-1.687-1.125a5.528 5.528 0 00-2.156-.234 5.063 5.063 0 00-1.968.468c-.594.282-.984.64-1.172 1.078zm7.452-7.17c.062.031-.016.203-.234.516a6.638 6.638 0 00-.375.609c1.062-.156 2-.531 2.811-1.125.844-.594 1.516-1.297 2.016-2.109.5-.843.812-1.75.937-2.718.125-1 .031-2-.281-3-.313-.999-.828-1.842-1.547-2.53a9.178 9.178 0 00-2.484-1.687 11.94 11.94 0 00-3.046-.937 16.569 16.569 0 00-3.28-.235c-1.094 0-2.14.094-3.14.282-1 .187-1.875.453-2.624.796-.157.063-.25.094-.282.094l-.047-.047c-.03-.093.047-.203.235-.328.78-.687 1.765-1.203 2.952-1.546a13.915 13.915 0 013.796-.516c1.344 0 2.687.188 4.03.563 1.344.343 2.547.89 3.609 1.64a8.527 8.527 0 012.671 2.812c.719 1.124 1.11 2.452 1.172 3.983.031.937-.094 1.797-.375 2.578a7.447 7.447 0 01-1.125 2.015 7.714 7.714 0 01-1.64 1.546 10.95 10.95 0 01-1.875 1.031c1.031.469 1.922 1.203 2.672 2.203.75.968 1.28 1.937 1.593 2.905.375 1.281.453 2.5.234 3.656-.187 1.156-.53 2.202-1.03 3.14a10.73 10.73 0 01-1.64 2.437c-.595.656-1.11 1.124-1.547 1.406a13.574 13.574 0 01-2.765 1.405c-.938.313-1.86.563-2.765.75a27.36 27.36 0 01-2.625.328c-.812.063-1.546.11-2.202.14-.5.063-.75.048-.75-.046-.031-.063.047-.125.234-.188a28.963 28.963 0 004.17-.984 23.292 23.292 0 003.61-1.5 23.166 23.166 0 001.827-1.077 10.29 10.29 0 001.781-1.5 8.703 8.703 0 001.406-1.968 6.751 6.751 0 00.797-2.39 9.356 9.356 0 00-.094-3.234c-.188-1.093-.703-2.14-1.547-3.14-.812-.968-1.671-1.624-2.577-1.968-.875-.343-1.828-.484-2.859-.422-.25 0-.375-.015-.375-.047 0-.062.172-.171.516-.328.343-.156.562-.265.656-.328.281-.187.578-.406.89-.656.313-.25.485-.343.516-.28zm.562-5.342c0-1-.53-1.719-1.593-2.156-1.062-.469-2.53-.781-4.405-.937.218.968.359 1.858.421 2.67a12.71 12.71 0 01-.047 2.438 15.306 15.306 0 01-.421 2.484c-.188.843-.406 1.78-.656 2.811.656-.312 1.374-.78 2.155-1.405.781-.657 1.5-1.328 2.156-2.016.688-.718 1.25-1.421 1.687-2.108.469-.72.703-1.313.703-1.781zm-6.467-7.17c1.062-.063 2.265.062 3.608.374 1.375.282 2.61.75 3.703 1.406a4.98 4.98 0 011.406 1.266c.375.5.656 1.03.843 1.593.219.531.344 1.078.375 1.64a4.13 4.13 0 01-.187 1.547 1.46 1.46 0 00-.094.28 2.567 2.567 0 01-.14.329l-.188.281c-.063.063-.125.078-.188.047-.093 0-.14-.11-.14-.328.031-.219.078-.453.14-.703.157-.875.078-1.64-.234-2.296a3.936 3.936 0 00-1.312-1.64A7.275 7.275 0 0070.94 49.6a15.53 15.53 0 00-2.437-.656 12.64 12.64 0 00-2.39-.235 13.643 13.643 0 00-2.015.047c-.781.094-1.562.25-2.343.469-.75.187-1.453.406-2.11.656-.655.25-1.218.515-1.686.797-.469.28-.797.546-.985.796-.187.25-.296.328-.328.235 0-.094.032-.235.094-.422.219-.625.625-1.187 1.219-1.687a8.746 8.746 0 012.062-1.36c.78-.374 1.64-.671 2.577-.89.937-.218 1.875-.36 2.812-.422zm-2.296 31.586c-1.031.406-1.86.765-2.484 1.078-.594.312-1.187.718-1.781 1.218a.53.53 0 00-.187.188c-.063.093-.125.125-.188.093-.062-.031-.062-.125 0-.28a1.09 1.09 0 01.188-.282 6.58 6.58 0 011.218-1.266c.5-.437 1.203-.843 2.109-1.218.312-.125.656-.25 1.03-.375a11.83 11.83 0 011.126-.375c.374-.094.671-.156.89-.187.25-.031.406 0 .469.094.03.062-.063.156-.281.28-.22.126-.47.266-.75.422l-.844.375c-.25.125-.422.204-.515.235zm30.173-18.37c.25.311.438.702.563 1.17.156.47.219.985.187 1.547a5.895 5.895 0 01-.375 1.687c-.218.594-.562 1.172-1.03 1.734-.907 1.063-1.906 1.89-3 2.484-1.062.562-2.03.844-2.905.844-.532 0-.532-.094 0-.282.28-.093.609-.234.984-.421a19.06 19.06 0 001.265-.75c.437-.313.875-.672 1.312-1.078.469-.406.89-.875 1.266-1.406.624-.875.984-1.718 1.077-2.53.125-.844-.03-1.485-.468-1.922a1.983 1.983 0 00-1.313-.61c-.5-.062-1.25.204-2.249.797a10.532 10.532 0 00-2.437 1.969 25.898 25.898 0 00-2.015 2.484c-.344.437-.578.656-.703.656-.094 0-.047-.282.14-.844.376-1.094.891-2.109 1.547-3.046.688-.937 1.5-1.734 2.437-2.39.687-.469 1.312-.797 1.875-.984.593-.188 1.124-.266 1.593-.235.5.032.937.157 1.312.375.375.188.688.438.938.75zm2.531 3.28c-.125.75-.328 1.39-.61 1.921-.249.5-.546.937-.89 1.312-.312.344-.64.625-.984.844-.312.218-.593.422-.843.609-.125.094-.219.11-.281.047-.063-.063-.016-.172.14-.328.563-.469 1.125-1.094 1.687-1.875.594-.812.906-1.703.938-2.671 0-1.656-.407-2.921-1.219-3.796s-1.828-1.25-3.046-1.125c-1.218.094-2.484.563-3.796 1.406a10.872 10.872 0 00-2.25 1.875 12.968 12.968 0 00-1.64 2.25c-.468.78-.859 1.593-1.171 2.436a14.9 14.9 0 00-.61 2.53c-.124.813-.25 1.688-.374 2.625a13.633 13.633 0 000 2.765c.124.906.421 1.78.89 2.624.469.813 1.203 1.516 2.203 2.11.156.093.312.156.468.187.188.031.281.062.281.093 0 .063-.078.094-.234.094a1.001 1.001 0 01-.515-.047c-.781-.156-1.453-.468-2.016-.937a6.818 6.818 0 01-1.312-1.687 8.963 8.963 0 01-.797-1.968 9.115 9.115 0 01-.328-1.875c-.187-2.468.157-4.905 1.031-7.31.188-.5.422-1.063.703-1.688.313-.624.688-1.25 1.125-1.874a12.31 12.31 0 011.547-1.875 10.281 10.281 0 012.015-1.64 8.957 8.957 0 012.25-.984 7.528 7.528 0 012.343-.281c.78 0 1.515.14 2.202.421.687.25 1.297.64 1.828 1.172.468.5.828 1.14 1.078 1.921.28.781.343 1.688.187 2.718zm-4.264-1.688c.374.438.421 1.125.14 2.063-.281.906-.937 1.827-1.968 2.764-.563.532-1.11.969-1.64 1.313-.532.312-1.203.593-2.016.843a17.809 17.809 0 00-.656 3.515c-.093 1.156-.062 2.093.094 2.812.031.281.125.562.281.843.188.25.438.453.75.61.344.124.781.171 1.312.14s1.188-.203 1.968-.515c.22-.094.344-.11.376-.047.062.031-.032.125-.282.281a5.439 5.439 0 01-1.78.937 5.028 5.028 0 01-1.781.14c-.531-.062-1-.25-1.406-.562-.375-.312-.625-.734-.75-1.265a13.681 13.681 0 01-.328-3.42c.031-1.188.203-2.36.515-3.516a14.272 14.272 0 011.406-3.233 9.79 9.79 0 012.297-2.625c1.687-1.343 2.843-1.702 3.468-1.078zm-.47 14.95c-.218.313-.499.625-.843.937a6.48 6.48 0 01-1.124.797 8.295 8.295 0 01-1.313.562c-.437.157-.89.235-1.359.235a5.254 5.254 0 01-2.296-.516c-.687-.375-1.219-1.109-1.593-2.202a.755.755 0 01-.094-.329c0-.124.031-.187.094-.187.125-.062.25-.015.374.14.126.126.25.266.376.422.343.407.78.766 1.312 1.078.562.313 1.093.469 1.593.469.937 0 1.75-.14 2.437-.422a8.874 8.874 0 001.968-1.125c.156-.093.328-.187.516-.28.218-.095.203.046-.047.421zm-.655-13.684c-.125-.25-.578-.047-1.36.609a6.91 6.91 0 00-1.733 1.968 15.322 15.322 0 00-1.078 2.39 11.82 11.82 0 001.64-.937c.5-.375.969-.734 1.406-1.078.469-.406.812-.937 1.031-1.593.219-.656.25-1.11.094-1.36zm10.392-1.031c.031-.281.125-.61.281-.984.156-.407.359-.781.609-1.125.281-.375.61-.703.984-.984a2.811 2.811 0 011.266-.61c1-.187 1.827-.124 2.484.188.656.312 1.155.672 1.499 1.078.125.187.172.297.141.328-.063.062-.172.047-.328-.047-.188-.125-.5-.234-.938-.328a3.889 3.889 0 00-1.359-.047 3.47 3.47 0 00-1.406.422c-.437.25-.796.656-1.077 1.218a6.259 6.259 0 00-.516 1.64 15.513 15.513 0 00-.187 1.594c0 .469.015.875.046 1.218.032.344.047.578.047.703.063.344.11.781.141 1.313.062.5.094 1.015.094 1.546 0 .531-.016 1.062-.047 1.594-.031.5-.094.937-.188 1.312-.031.093-.078.25-.14.468-.031.219-.078.328-.141.328-.156 0-.234-.109-.234-.328v-.468a20.28 20.28 0 00-.328-2.344c-.156-.812-.313-1.64-.469-2.483a34.526 34.526 0 01-.281-2.531 15.335 15.335 0 01.047-2.671zm-1.64 9.279c.03-.625-.032-1.5-.188-2.625-.125-1.156-.172-2.483-.14-3.983.03-.781.109-1.578.234-2.39.125-.844.422-1.672.89-2.484.5-.875 1.125-1.515 1.875-1.921.781-.438 1.453-.64 2.015-.61h.281c.094 0 .141.016.141.047 0 .063-.016.094-.047.094-.031-.031-.141-.015-.328.047a3.872 3.872 0 00-1.5.797c-.437.343-.812.75-1.125 1.218a7.124 7.124 0 00-.749 1.453c-.188.5-.297.953-.328 1.359-.188 1.718-.172 3.218.046 4.499.157 1.03.282 2.109.375 3.234.094 1.093.047 2.108-.14 3.046-.156.906-.484 1.671-.984 2.296-.469.594-1.203.922-2.203.984h-.375c-.125-.031-.187-.078-.187-.14 0-.063.14-.172.421-.328.813-.375 1.344-.922 1.594-1.64.25-.72.39-1.703.422-2.953zm-4.968 5.53c.437.687 1.125 1.203 2.062 1.546.969.313 2.109.282 3.421-.093a4.181 4.181 0 001.734-.985c.5-.468.906-.984 1.219-1.546a7.066 7.066 0 00.749-1.828 7.591 7.591 0 00.328-1.734c.032-.875 0-1.734-.093-2.577a29.612 29.612 0 00-.281-2.437 248.53 248.53 0 00-.282-2.343 13.063 13.063 0 010-2.203c.063-.781.282-1.375.656-1.78a2.367 2.367 0 011.359-.75 3.296 3.296 0 011.734.093 4.944 4.944 0 011.641.89c.125.063.171.141.14.235 0 .062-.031.078-.093.047l-.188-.094c-1.156-.375-2.062-.484-2.718-.328-.625.156-.969.718-1.031 1.687-.063 1.125.016 2.453.234 3.983.25 1.5.344 3.172.281 5.015.032.625-.046 1.343-.234 2.156a8.742 8.742 0 01-.843 2.39 6.823 6.823 0 01-1.547 2.015 4.288 4.288 0 01-2.249 1.124c-1.656.25-2.984.157-3.984-.28-.968-.438-1.671-1.11-2.109-2.016a1.955 1.955 0 01-.093-.328h.046l.141.14zm2.062 0c.594.156 1.312.218 2.156.187.281-.031.625-.11 1.03-.234.407-.125.626-.156.657-.094.094.125 0 .281-.281.469-.281.187-.64.36-1.078.515a9.52 9.52 0 01-1.36.282c-.468.03-.858-.016-1.17-.141-.594-.25-1.016-.516-1.266-.797a5.035 5.035 0 01-.75-1.124l-.094-.188c-.062-.125-.078-.203-.047-.234.032-.031.079-.031.141 0 .031.03.047.062.047.093.375.344.687.61.937.797.281.156.64.313 1.078.469zm25.517-18.324c.031.031.047.11.047.234a.525.525 0 01-.047.235c-.282.906-.766 1.546-1.453 1.921s-1.297.562-1.828.562c-.656 0-1.328-.047-2.015-.14-.687-.125-1.343-.422-1.968-.89a1.556 1.556 0 00-.235-.188c-.093-.063-.14-.125-.14-.188 0-.093.047-.156.14-.187.094-.063.172-.11.235-.14.281-.063.64-.11 1.078-.141a4.955 4.955 0 011.359 0c.312.062.687.094 1.124.094.438 0 .875-.032 1.313-.094.468-.063.89-.156 1.265-.281.375-.157.656-.375.843-.656.094-.125.188-.172.282-.141zm.328-1.453l-.141.235c-.531.687-1.093 1.14-1.687 1.359a5.337 5.337 0 01-1.875.234 15.377 15.377 0 01-2.015-.234 10.669 10.669 0 00-1.968-.282c-.875-.03-1.75.235-2.624.797-.875.562-1.625 1.547-2.25 2.953-.094.187-.156.234-.187.14a.57.57 0 010-.328c.25-.937.546-1.718.89-2.343s.703-1.125 1.078-1.5c.406-.406.828-.703 1.265-.89a5.18 5.18 0 011.359-.375c.532-1.781.938-3.515 1.219-5.202.312-1.718.344-3.343.094-4.874v-.187c.062-.032.125-.016.187.047.063.062.094.109.094.14.687 1.5.968 3.109.843 4.827-.125 1.687-.437 3.468-.937 5.343.156.03.281.047.375.047h.328c.156-.813.297-1.672.422-2.578.156-.937.265-1.828.328-2.671.094-.844.125-1.61.094-2.297-.032-.687-.141-1.203-.328-1.546-.094-.281-.094-.422 0-.422.062 0 .109.031.14.094a.72.72 0 00.141.187c.437.438.781 1.031 1.031 1.781.25.75.421 1.547.515 2.39.094.844.125 1.687.094 2.53-.031.813-.125 1.532-.281 2.157l-.188.75a.506.506 0 00.281.093c.094 0 .188.016.282.047a44.3 44.3 0 00.468-2.812 15.1 15.1 0 00.188-2.952c0-.219.015-.328.047-.328.062 0 .109.046.14.14.031.094.063.172.094.235.375.687.547 1.546.515 2.577a24.58 24.58 0 01-.234 3.28c.687 0 1.344-.187 1.968-.562.157-.093.235-.093.235 0zm-9.701 3.187c0 .156-.094.312-.281.469a2.777 2.777 0 01-.375.328c-.156.125-.344.28-.563.468a4.026 4.026 0 00-.515.516c-.156.25-.313.468-.469.656-.125.187-.234.453-.328.797a.737.737 0 01-.14.187c-.032.031-.063.031-.094 0-.094-.094-.094-.297 0-.61.125-.468.25-.843.375-1.124.125-.312.359-.64.703-.984.125-.125.281-.25.468-.375.188-.125.375-.234.563-.328.187-.094.343-.14.468-.14s.188.046.188.14zm3.655 18.84c.156-.063.219-.048.188.046-.032.094-.078.156-.141.188-.562.187-1.156.156-1.781-.094s-1.203-.64-1.734-1.172a7.956 7.956 0 01-1.359-1.828c-.375-.718-.609-1.421-.703-2.108a21.705 21.705 0 01-.047-4.265 25.96 25.96 0 01.703-4.077l.797-2.953c-.187 0-.375-.046-.562-.14-.219-.063-.328-.14-.328-.234 0-.063.109-.157.328-.282.875-.437 1.749-.625 2.624-.562.906.063 1.812.172 2.718.328.563.094 1.125.172 1.687.234.594.032 1.234-.093 1.922-.375.062-.062.125-.078.187-.046.063.062.047.171-.047.328-.187.406-.453.703-.796.89a4.546 4.546 0 01-1.078.422c-.25.812-.469 1.546-.656 2.202-.188.625-.344 1.156-.469 1.594-.344 1.5-.75 3.03-1.218 4.593-.438 1.53-.735 2.827-.891 3.89-.062.343-.125.53-.187.561-.063.032-.125-.03-.188-.187a7.314 7.314 0 01-.14-.375 13.92 13.92 0 01-.094-2.812c.094-1 .25-2.015.469-3.046.218-1.03.468-2.062.749-3.093.282-1.062.578-2.124.891-3.187h-.469c-.156 0-.312-.015-.468-.046-.25.656-.516 1.312-.797 1.968-.25.625-.5 1.218-.75 1.78l-.234.47c-.094.218-.172.327-.235.327-.125-.03-.171-.171-.14-.421.031-.282.047-.47.047-.563.062-.468.156-1.015.281-1.64.156-.625.297-1.297.422-2.015a2.644 2.644 0 00-.516-.047 3.701 3.701 0 01-.562-.14c-.188.624-.375 1.233-.563 1.827l-.468 1.78a28.517 28.517 0 00-.563 3.516 19.253 19.253 0 000 3.796c.063.593.219 1.203.469 1.827a8.84 8.84 0 00.984 1.687c.375.5.797.89 1.265 1.172.5.281.985.375 1.453.281zm.422-1.032c.156-.125.25-.125.281 0 .031.094-.031.188-.187.281a1.59 1.59 0 01-.516.235 2.23 2.23 0 01-1.453-.281c-.281-.157-.546-.407-.796-.75-.219-.281-.406-.688-.563-1.219a14.87 14.87 0 01-.281-1.546 7.003 7.003 0 01-.047-1.36c.032-.374.11-.562.235-.562.156 0 .265.219.328.656.093.438.172.797.234 1.078.125.5.297 1.016.516 1.547.218.53.453.953.703 1.265.312.406.593.656.843.75.25.062.484.031.703-.094zm9.934-14.34a22.56 22.56 0 00-.234 3.187c0 1.03.078 2 .234 2.905.156.906.375 1.734.656 2.484.313.719.703 1.328 1.172 1.828.593.624 1.359 1.078 2.296 1.359.969.25 2.046.297 3.234.14a38.09 38.09 0 011.078-3.514c.437-1.125.843-2.219 1.218-3.281.406-1.062.75-2.109 1.031-3.14.281-1.03.422-2.046.422-3.046 0-.094.015-.14.047-.14.031 0 .062.046.093.14.063.094.094.156.094.188a7.913 7.913 0 01.328 3.514 17.015 17.015 0 01-.797 3.562 53.49 53.49 0 01-1.312 3.749c-.5 1.25-.906 2.546-1.218 3.89-.156.593-.25 1.28-.281 2.062-.032.812.015 1.624.14 2.437.156.843.406 1.671.75 2.483a7 7 0 001.547 2.156.735.735 0 00.14.188l.047.046h-.141c-.031 0-.062-.015-.093-.046a8.933 8.933 0 01-2.109-1.922 8.818 8.818 0 01-1.219-2.25 9.647 9.647 0 01-.468-2.296 8.64 8.64 0 01.14-2.062 7.112 7.112 0 01-2.812.094 8.632 8.632 0 01-2.53-.843c-.156-.063-.328-.188-.516-.375-.156-.188-.218-.297-.187-.328l.703.14c.5.063 1.047.14 1.64.234.625.063 1.234.126 1.828.188.625.031 1.078.031 1.359 0a.885.885 0 01.281-.047c.125-.031.266-.078.422-.14 0-.157.015-.297.047-.422.031-.157.078-.313.14-.469a7.862 7.862 0 01-3.187.094 5.828 5.828 0 01-2.764-1.312 6.695 6.695 0 01-1.594-2.015 13.655 13.655 0 01-.89-2.625 17.51 17.51 0 01-.328-2.905c-.031-1.031 0-2.047.094-3.047.124-1.593.437-3.202.937-4.827a20.89 20.89 0 011.968-4.498c.844-1.406 1.828-2.61 2.952-3.609a9.785 9.785 0 013.89-2.156 6.632 6.632 0 012.109-.234c.75.031 1.453.172 2.109.422.656.25 1.218.609 1.687 1.078.5.437.812 1 .937 1.687a3.8 3.8 0 01-.187 2.202 5.9 5.9 0 01-1.172 1.828c-.5.5-1.062.86-1.687 1.078-.625.218-1.218.203-1.781-.047-.218-.063-.265-.125-.14-.188.062-.03.109-.03.14 0 .031.032.078.047.141.047.375.063.797-.015 1.265-.234a4.027 4.027 0 001.265-.937 4.26 4.26 0 00.938-1.406 2.9 2.9 0 00.234-1.687 2.512 2.512 0 00-.609-1.219c-.281-.343-.656-.625-1.125-.843-.469-.219-1-.36-1.593-.422a6.143 6.143 0 00-1.828.094c-1.156.218-2.234.75-3.234 1.593-.999.812-1.89 1.828-2.671 3.046a18.927 18.927 0 00-1.968 3.984 20.637 20.637 0 00-1.078 4.405zm3.702 15.465c.438.062.688.11.75.14.063.032-.172.047-.703.047-.875 0-1.765-.14-2.671-.421a10.61 10.61 0 01-2.484-1.172 10.222 10.222 0 01-2.109-1.921 7.876 7.876 0 01-1.406-2.484c-.687-1.969-1.093-3.843-1.218-5.624a24.407 24.407 0 01.234-5.436c.157-.969.406-2.078.75-3.327.344-1.25.812-2.531 1.406-3.843a26.407 26.407 0 012.296-3.89c.906-1.28 2-2.453 3.281-3.515 1.343-1.124 2.843-1.859 4.499-2.202 1.656-.375 3.233-.438 4.733-.188 1.5.25 2.827.797 3.983 1.64 1.156.813 1.922 1.828 2.297 3.047.031.062.078.187.14.374.063.188.063.297 0 .329-.062.03-.125-.032-.187-.188a2.012 2.012 0 00-.328-.515c-1.312-1.781-2.796-2.906-4.452-3.375-1.656-.468-3.296-.515-4.921-.14-1.593.375-3.109 1.093-4.546 2.156-1.406 1.03-2.53 2.187-3.374 3.468a23.98 23.98 0 00-3.28 7.076 26.946 26.946 0 00-1.031 7.733 23.84 23.84 0 00.421 3.89c.25 1.311.703 2.592 1.359 3.842.625 1.219 1.547 2.234 2.765 3.046 1.25.813 2.515 1.297 3.796 1.453zm-6.654-17.761a25.256 25.256 0 011.124-4.78c.532-1.594 1.235-3.031 2.109-4.312a14.008 14.008 0 013.328-3.327c1.312-.938 2.858-1.594 4.639-1.969.594-.125 1.265-.172 2.015-.14.781 0 1.547.14 2.297.422.781.25 1.499.64 2.155 1.171.688.531 1.25 1.265 1.687 2.203.407.906.547 1.812.422 2.718a6.135 6.135 0 01-.75 2.39 5.6 5.6 0 01-1.452 1.734c-.563.468-1.125.734-1.688.797a1.209 1.209 0 01-.374.046c-.125-.03-.188-.078-.188-.14 0-.063.016-.078.047-.047.031 0 .203-.063.515-.188.219-.093.469-.25.75-.468.313-.25.594-.563.844-.937a6.59 6.59 0 00.75-1.313c.218-.5.359-1.046.421-1.64a3.79 3.79 0 00-.234-1.78 4.321 4.321 0 00-.984-1.5 5.314 5.314 0 00-1.453-1.172 5.23 5.23 0 00-1.734-.61c-1.843-.28-3.515-.03-5.014.75-1.5.75-2.828 1.797-3.984 3.14a18.892 18.892 0 00-2.905 4.453c-.781 1.624-1.375 3.17-1.781 4.64 0 .03-.031.14-.094.327-.062.188-.125.39-.187.61-.063.218-.125.421-.188.609-.031.156-.062.234-.093.234-.032 0-.063-.078-.094-.234v-.61c.031-.25.047-.468.047-.656.031-.218.047-.359.047-.422zm16.074 16.543a34.273 34.273 0 01-.844 2.577c-.343 1.062-.656 2.03-.937 2.906-.094.25-.172.374-.234.374-.125 0-.203-.062-.235-.187v-.234a12.816 12.816 0 01-.046-2.437c.062-.75.187-1.5.375-2.25.187-.75.406-1.5.656-2.25.281-.749.562-1.546.843-2.39a91.784 91.784 0 001.031-3.186c.313-1.062.5-2.25.563-3.562v-.234c.031-.031.078-.047.14-.047l.141.281c.312.657.437 1.469.375 2.437a17.25 17.25 0 01-.375 3 27.303 27.303 0 01-.797 2.952c-.281.937-.5 1.687-.656 2.25zm.141-7.452a100.697 100.697 0 01-1.453 3.702 81.313 81.313 0 01-1.641 3.703c-.031.03-.093.14-.187.328-.062.156-.141.218-.234.187-.063-.031-.094-.125-.094-.281v-.422c0-.281.031-.625.094-1.03.062-.438.14-.86.234-1.266.094-.438.187-.86.281-1.266.125-.406.25-.75.375-1.03.063-.188.203-.688.422-1.5.219-.844.437-1.75.656-2.718.219-1 .391-1.969.516-2.906.124-.937.124-1.64 0-2.109-.063-.156-.063-.265 0-.328.062 0 .109.047.14.14l.188.188c.281.438.499.953.656 1.547.156.562.25 1.156.281 1.78a8.548 8.548 0 010 1.781 6.908 6.908 0 01-.234 1.5zm-2.765 13.825c.374.781.827 1.515 1.359 2.203.093.093.109.171.046.234a.234.234 0 01-.281 0 .545.545 0 01-.14-.094 6.4 6.4 0 01-1.078-.75c-.281-.25-.563-.734-.844-1.452a8.237 8.237 0 01-.281-.985 14.393 14.393 0 01-.187-2.015c.031-.25.093-.359.187-.328.156 0 .281.188.375.563l.234.703c.125.343.219.671.281.984.063.312.172.625.329.937zm13.321-20.48c.093-.406.14-.874.14-1.405.031-.532 0-1.078-.094-1.64a5.575 5.575 0 00-.515-1.594 4.125 4.125 0 00-.89-1.36c-.188-.124-.297-.187-.329-.187-.124 0-.124.094 0 .282.188.406.25 1.046.188 1.921a21.005 21.005 0 01-.281 2.671 33.954 33.954 0 01-.516 2.484c-.156.719-.25 1.156-.281 1.312-.219.563-.422 1.266-.609 2.11-.156.843-.234 1.53-.234 2.061-.032.063-.047.188-.047.375 0 .188.047.297.14.328.032 0 .094-.078.188-.234.093-.156.172-.266.234-.328.562-1 1.094-2.094 1.593-3.28a28.44 28.44 0 001.313-3.515zm.187 7.077c.125-.563.328-1.281.609-2.156.281-.906.516-1.828.703-2.765.188-.968.281-1.906.281-2.812 0-.937-.187-1.702-.562-2.296-.125-.125-.219-.187-.281-.187-.063 0-.078.062-.047.187 0 1.187-.141 2.296-.422 3.327a46.1 46.1 0 01-.843 2.953 112.579 112.579 0 00-1.453 4.686 14.436 14.436 0 00-.562 4.64v.328c.031.093.093.14.187.14.062 0 .109-.03.141-.093l.14-.282c.313-.75.672-1.624 1.078-2.624.406-1.03.75-2.046 1.031-3.046zm-3.327 8.388a6.736 6.736 0 01-1.359-2.061 10.931 10.931 0 01-.656-2.344 10.588 10.588 0 01-.094-2.437 12.96 12.96 0 01.375-2.296c.281-1.125.64-2.25 1.078-3.374a37.928 37.928 0 001.124-3.327c.313-1.125.485-2.219.516-3.28a6.372 6.372 0 00-.656-3.188c-.094-.156-.156-.234-.188-.234-.031 0-.047.031-.047.094 0 .031.016.062.047.093a9.218 9.218 0 01-.187 2.906c-.219 1-.5 2.03-.844 3.093a69.77 69.77 0 01-1.171 3.234 30.129 30.129 0 00-1.031 3.374 17.816 17.816 0 00-.469 2.577 9.3 9.3 0 00.188 2.625 7.522 7.522 0 001.031 2.437c.499.78 1.218 1.5 2.155 2.155a.32.32 0 00.235.094c.093.031.078-.016-.047-.14zm.375-1.78c-.094-.25-.203-.563-.328-.938a17.166 17.166 0 01-.235-1.077c-.062-.125-.14-.36-.234-.703-.094-.344-.172-.516-.234-.516-.125 0-.219.11-.282.328-.031.219-.046.5-.046.844 0 .312.015.656.046 1.03.063.344.141.641.235.891.187.625.406 1.062.656 1.312.281.25.64.453 1.078.61.187.093.328.14.421.14.032 0 .032-.031 0-.094 0-.03-.015-.047-.046-.047a7.708 7.708 0 01-.61-.796 5.841 5.841 0 01-.421-.984zm3.655-24.229c-.156 0-.406-.016-.75-.047-.312-.062-.468-.218-.468-.468 0-.094.14-.204.421-.329a9.27 9.27 0 00.938-.609c.343-.28.656-.625.937-1.03.281-.438.422-.985.422-1.64 0-.813-.157-1.422-.469-1.829a1.869 1.869 0 00-.234-.28c-.094-.126-.125-.204-.094-.235.062 0 .125.031.187.094a.508.508 0 01.188.093c.625.344 1.093.797 1.406 1.36.343.53.515 1.046.515 1.546 0 1-.234 1.812-.703 2.437-.468.625-1.234.937-2.296.937zm-1.734-1.875c-.375.157-.562.063-.562-.28 0-.25.093-.485.281-.704.187-.25.359-.515.515-.796a2.45 2.45 0 00.375-.938c.063-.374-.031-.828-.281-1.359a1.983 1.983 0 00-.328-.515c-.156-.188-.203-.297-.141-.328.063-.031.188 0 .375.093.219.063.36.11.422.141.531.25.922.625 1.172 1.125.281.5.422.937.422 1.312 0 .594-.25 1.093-.75 1.5a3.774 3.774 0 01-1.5.75zm-1.359-2.53c0-.156.047-.328.141-.516.093-.218.25-.328.468-.328.156 0 .281.11.375.328.094.188.141.36.141.516 0 .125-.047.297-.141.515-.094.188-.219.282-.375.282a.484.484 0 01-.468-.282 1.164 1.164 0 01-.141-.515zm22.168 9.466c-.063-.03-.141.016-.234.141a1.092 1.092 0 01-.188.281c-.468.594-.89 1.328-1.265 2.203a23.947 23.947 0 00-.984 2.765c-.25.968-.469 1.937-.656 2.905a602.87 602.87 0 01-.422 2.578 176.524 176.524 0 00-.422 3.046c-.094.937-.187 1.859-.281 2.765a74.361 74.361 0 00-.234 2.765c-.063.906-.141 1.843-.235 2.812.031.031.047.11.047.234V81.608c0 .125.031.187.094.187.031 0 .078-.062.14-.187.063-.094.125-.203.188-.328.062-.125.109-.25.14-.375l.047-.188c.344-.75.641-1.624.891-2.624s.453-2 .609-3c.031-.25.094-.765.187-1.546l.328-2.718c.125-1.031.266-2.14.422-3.327.188-1.219.36-2.375.516-3.468.187-1.125.375-2.14.562-3.046.219-.906.422-1.594.609-2.062.032-.125.063-.22.094-.282a.42.42 0 00.047-.187v-.14zm-1.547-.187c0-.031-.109-.047-.328-.047a.89.89 0 00-.281.047 8.904 8.904 0 00-3.28.984c-1 .5-1.922 1.14-2.765 1.922a14.704 14.704 0 00-2.203 2.577 17.037 17.037 0 00-1.546 3 16.836 16.836 0 00-.985 3.374c-.218 1.187-.296 2.296-.234 3.327.094 1.343.688 1.468 1.781.375a27.425 27.425 0 002.624-3.046 33.692 33.692 0 002.344-3.468 62.873 62.873 0 002.108-3.703l1.969-3.842c.125-.25.172-.375.14-.375-.062-.063-.14-.063-.234 0-.062.062-.094.125-.094.187a336.83 336.83 0 00-4.733 6.186 102.27 102.27 0 00-3.983 5.858c-.157.156-.266.203-.328.14-.032-.062-.032-.171 0-.327a18.51 18.51 0 01.328-2.203c.187-.781.437-1.562.749-2.343a15.402 15.402 0 013.234-5.061c1.406-1.469 3.171-2.562 5.296-3.28.281-.126.421-.22.421-.282zm-2.53-.328c-.031-.063-.11-.094-.235-.094h-.281c-.875 0-1.796.25-2.765.75-.937.5-1.843 1.14-2.718 1.921a14.995 14.995 0 00-2.343 2.531c-.687.906-1.203 1.78-1.547 2.624a40.904 40.904 0 00-1.124 3.28 13.385 13.385 0 00-.469 3.14 9.478 9.478 0 00.047 1.641c.094.531.25 1.11.469 1.734.125.375.328.672.609.89.312.22.625.36.937.422.344.063.687.063 1.031 0 .344-.062.641-.187.891-.375l.187-.187c.125-.094.234-.188.328-.281a2.24 2.24 0 00.281-.328c.094-.094.125-.172.094-.235-.031-.062-.187-.015-.469.14-.25.126-.468.204-.656.235-.656.125-1.156.078-1.499-.14-.313-.22-.547-.531-.703-.938a5.095 5.095 0 01-.188-1.406c.031-.53.078-1.046.141-1.546 0-.188.031-.516.093-.984.094-.469.235-1.031.422-1.687.188-.688.438-1.438.75-2.25.344-.812.75-1.624 1.219-2.437a12.92 12.92 0 011.64-2.25 20.998 20.998 0 011.968-1.827 14.77 14.77 0 011.875-1.312c.624-.344 1.156-.578 1.593-.703.219-.063.344-.11.375-.14a.419.419 0 00.047-.188zm5.67-.516c-.093 0-.172.063-.234.188-.031.062-.063.14-.094.234a23.295 23.295 0 00-1.968 5.999 66.674 66.674 0 00-.844 6.233 7988.6 7988.6 0 00-.562 6.42 38.842 38.842 0 01-1.125 6.467 104.88 104.88 0 00-.562 2.156c-.188.75-.437 1.484-.75 2.203a8.064 8.064 0 01-1.265 2.015c-.5.656-1.187 1.203-2.062 1.64-1 .531-1.922.75-2.765.656a5.956 5.956 0 01-2.343-.656 8.02 8.02 0 01-1.969-1.453 35.977 35.977 0 01-1.546-1.546 1.529 1.529 0 01-.188-.235c-.062-.062-.109-.078-.14-.046-.063.03-.078.093-.047.187l.141.281c.718 1.343 1.812 2.515 3.28 3.515.344.25.765.468 1.265.656.5.187 1.031.312 1.594.375a4.881 4.881 0 001.781-.047 4.346 4.346 0 001.78-.703c1.031-.687 1.844-1.421 2.437-2.203.625-.75 1.125-1.53 1.5-2.343.375-.78.656-1.593.843-2.437.219-.843.422-1.671.61-2.483.531-2.125.89-4.234 1.078-6.327.218-2.125.39-4.218.515-6.28.125-2.062.281-4.093.469-6.092.187-2.03.546-4 1.078-5.905a.723.723 0 00.093-.281v-.188zm-5.53 8.951c.157-.656.36-1.327.61-2.015a14.91 14.91 0 00.656-2.109c0-.062.015-.172.047-.328.062-.156.078-.234.046-.234-.062-.031-.156.047-.281.234-.125.188-.187.297-.187.328a17.554 17.554 0 00-1.172 2.297c-.343.78-.656 1.5-.937 2.155a7.268 7.268 0 01-.422.797l-.609 1.219a34.57 34.57 0 00-.516 1.171c-.125.344-.14.547-.046.61.062 0 .156-.063.281-.188.125-.156.218-.266.281-.328.094-.156.203-.313.328-.469.125-.187.25-.359.375-.515a40.99 40.99 0 01-.516 1.968c-.125.5-.265.953-.421 1.36a8.124 8.124 0 01-.563 1.17c-.187.344-.453.75-.796 1.22-.25.343-.563.718-.938 1.124-.343.375-.75.734-1.218 1.078a7.236 7.236 0 01-1.453.796 5.028 5.028 0 01-1.687.282c-.75 0-1.344-.188-1.781-.563a3.878 3.878 0 01-.984-1.453 7.448 7.448 0 01-.422-1.874 12.302 12.302 0 01-.047-1.828c.125-2.25.641-4.436 1.547-6.56a18.96 18.96 0 013.889-5.765c0-.031.047-.094.141-.187.094-.094.141-.157.141-.188-.063-.062-.141-.062-.235 0l-.187.094c-.562.344-1.156.812-1.781 1.406a15.19 15.19 0 00-1.734 2.109 20.75 20.75 0 00-1.5 2.624 24.631 24.631 0 00-1.124 3 12.378 12.378 0 00-.375 1.92 18.339 18.339 0 00-.047 2.297c.062.781.172 1.578.328 2.39.187.781.469 1.484.844 2.109a5.111 5.111 0 001.499 1.453c.625.343 1.39.484 2.297.421.906-.062 1.624-.218 2.155-.468.563-.25 1.016-.516 1.359-.797a9.762 9.762 0 001.172-1.078c.344-.375.687-.734 1.031-1.078a45.194 45.194 0 01-.562 2.812c-.157.75-.313 1.469-.469 2.156-.219.937-.422 1.828-.609 2.671-.188.875-.391 1.64-.61 2.297-.218.656-.468 1.187-.749 1.593-.282.437-.61.687-.985.75-.437 0-.656.047-.656.14-.031.094.032.172.188.235.156.062.312.11.468.14.469.094.907.016 1.313-.234.437-.25.812-.625 1.124-1.125a7.127 7.127 0 00.891-1.687c.281-.656.515-1.328.703-2.015.375-1.437.687-2.843.937-4.218.25-1.343.484-2.765.703-4.264.219-1.469.391-2.937.516-4.405.156-1.469.406-2.953.749-4.453zm-5.248 23.245c-.063-.063-.157-.094-.282-.094a.758.758 0 01-.187.047 3.914 3.914 0 01-1.593-.047c-.5-.125-1.016-.297-1.547-.515a7.693 7.693 0 01-1.64-.938c-.5-.343-1.062-.718-1.687-1.124a1.1 1.1 0 00-.281-.188c-.125-.062-.188-.062-.188 0-.031.031-.016.11.047.234.094.126.172.22.234.282.406.53.828 1.03 1.266 1.5.468.468 1.062.843 1.78 1.124.469.188.953.313 1.453.375.5.063.953.063 1.359 0 .438-.031.781-.11 1.031-.234.25-.125.328-.266.235-.422zm26.202-23.198a15.21 15.21 0 00.047-2.671 7.611 7.611 0 00-.61-2.578 4.574 4.574 0 00-1.499-2.015c-.656-.53-1.531-.796-2.625-.796-1.468 0-2.749.406-3.843 1.218a11.04 11.04 0 00-2.811 2.953 14.891 14.891 0 00-1.828 3.749c-.437 1.312-.719 2.515-.844 3.608-.187 1.5-.218 2.796-.093 3.89.156 1.093.421 2 .796 2.718.375.687.844 1.203 1.406 1.547a3.771 3.771 0 001.922.515c.968.031 1.984-.234 3.046-.797 1.093-.593 2.109-1.406 3.046-2.437.937-1.062 1.75-2.343 2.437-3.843.719-1.53 1.203-3.217 1.453-5.06zm-15.09 3.234c.125-1.25.437-2.624.937-4.124.5-1.5 1.187-2.89 2.062-4.171a12.541 12.541 0 013.233-3.187c1.25-.875 2.703-1.312 4.359-1.312 1.249 0 2.281.297 3.093.89a5.861 5.861 0 011.874 2.297c.438.906.719 1.906.844 2.999a12.413 12.413 0 010 3.046c-.281 2.25-.828 4.202-1.64 5.858-.813 1.656-1.766 3.046-2.859 4.171-1.093 1.094-2.249 1.922-3.468 2.484-1.218.531-2.39.796-3.515.796-.843 0-1.609-.187-2.296-.562-.656-.375-1.219-.953-1.687-1.734-.438-.812-.75-1.828-.937-3.046-.157-1.25-.157-2.718 0-4.405zm5.248 6.608a.902.902 0 01-.468-.14 1.56 1.56 0 01-.563-.891c-.031-.156.032-.266.188-.328.093-.032.218.078.375.328.156.25.328.375.515.375.313 0 .672-.203 1.078-.61a8.986 8.986 0 001.219-1.406c.406-.562.749-1.109 1.031-1.64.312-.53.531-.922.656-1.171.125-.25.25-.563.375-.938.124-.406.234-.812.328-1.218.125-.406.218-.797.281-1.172a9.38 9.38 0 00.187-1.03c.156-1.407.125-2.485-.094-3.234-.218-.781-.578-1.172-1.077-1.172-.375 0-.766.125-1.172.375a5.066 5.066 0 00-1.172.89 7.843 7.843 0 00-.937 1.266c-.281.437-.484.89-.609 1.359-.156.53-.266.796-.328.796-.094 0-.141-.265-.141-.796a5.25 5.25 0 01.609-1.734 5.78 5.78 0 011.172-1.547 5.93 5.93 0 011.547-1.125 3.527 3.527 0 011.734-.468c.593 0 1.031.219 1.312.656.312.406.531.922.656 1.547.125.593.172 1.218.14 1.874 0 .625-.031 1.125-.093 1.5a13.663 13.663 0 01-.61 2.483 20.75 20.75 0 01-.937 2.39 13.63 13.63 0 01-.843 1.407 11.896 11.896 0 01-1.313 1.546c-.468.5-.984.937-1.546 1.312-.531.344-1.031.516-1.5.516zm1.5.89c.031.188-.125.344-.469.469-.312.125-.64.187-.984.187-.968-.031-1.718-.344-2.249-.937a5.41 5.41 0 01-1.078-2.109 11.188 11.188 0 01-.281-2.53 33 33 0 01.14-2.203c.125-1.031.375-2.187.75-3.468.375-1.281.906-2.484 1.593-3.609a9.972 9.972 0 012.531-2.811c1-.782 2.187-1.172 3.562-1.172.906 0 1.624.234 2.156.703a4 4 0 011.218 1.734c.281.687.437 1.437.469 2.25a9.84 9.84 0 01-.047 2.155 11.822 11.822 0 01-.328 1.968c-.157.594-.375 1.25-.656 1.969a8.478 8.478 0 01-.375.75c-.157.28-.328.406-.516.374-.094-.03-.125-.156-.094-.375.063-.218.125-.484.188-.796l.281-1.031c.094-.375.156-.719.188-1.031.062-.531.093-1.188.093-1.969a9.609 9.609 0 00-.187-2.343c-.125-.75-.375-1.39-.75-1.921-.375-.531-.937-.797-1.687-.797-1.094 0-2.109.36-3.046 1.078-.906.687-1.703 1.547-2.39 2.578-.688 1-1.25 2.061-1.687 3.186-.407 1.094-.657 2.062-.75 2.906-.063.5-.078 1.124-.047 1.874s.14 1.5.328 2.25a4.988 4.988 0 001.031 1.874c.469.531 1.109.813 1.921.844.25.031.485.016.703-.047.25-.094.406-.094.469 0zm19.223-22.166c.188-.688.313-1.516.375-2.484.063-1 .063-1.984 0-2.953-.062-1-.218-1.937-.468-2.812-.219-.874-.563-1.546-1.031-2.015-.188-.187-.344-.25-.469-.187-.094.062-.063.218.094.468.312.563.453 1.438.421 2.625a28.16 28.16 0 01-.281 3.796 47.266 47.266 0 01-.75 4.124 52.82 52.82 0 01-.937 3.608 16.27 16.27 0 00-.469 1.64 64.627 64.627 0 01-.515 2.016 44.569 44.569 0 00-.422 1.968 30.379 30.379 0 00-.281 1.593c0 .094-.016.282-.047.563-.031.25 0 .406.094.468.062 0 .156-.125.281-.374.125-.282.203-.454.234-.516.75-1.75 1.516-3.608 2.297-5.577.781-2 1.406-3.983 1.874-5.951zm-1.078 11.434a80.7 80.7 0 01.657-2.202c.281-.906.562-1.89.843-2.953.281-1.093.547-2.218.797-3.374a29.35 29.35 0 00.609-3.421c.156-1.125.203-2.156.141-3.093-.032-.937-.188-1.703-.469-2.296a.734.734 0 00-.188-.282c-.093-.093-.14-.015-.14.235.062 2-.141 3.999-.609 5.998-.469 2-.969 3.812-1.5 5.436a185.296 185.296 0 01-1.265 3.843 58.683 58.683 0 00-1.078 3.843 25.974 25.974 0 00-.563 3.703c-.062 1.218.063 2.39.375 3.514.125.406.235.61.328.61.094-.032.141-.235.141-.61 0-.562.047-1.187.141-1.874.125-.719.281-1.469.468-2.25.188-.78.391-1.578.609-2.39.219-.843.453-1.656.703-2.437zm-.89 12.841c-1.094-.125-2.078-.672-2.952-1.64-.844-.969-1.406-2.156-1.688-3.562a13.732 13.732 0 01-.234-4.077c.156-1.406.406-2.718.75-3.937a79.859 79.859 0 011.781-5.764c.687-2 1.265-3.968 1.734-5.905.5-1.937.781-3.796.843-5.577.063-1.812-.25-3.468-.937-4.967-.062-.031-.109-.094-.141-.188-.031-.125-.078-.171-.14-.14-.094 0-.11.11-.047.328.25 1.437.266 3 .047 4.686a38.649 38.649 0 01-1.078 5.202 97.217 97.217 0 01-1.64 5.53 196.038 196.038 0 00-1.687 5.718 24.871 24.871 0 00-.844 4.498 16.198 16.198 0 00.328 4.734c.188.812.469 1.546.844 2.202a7.454 7.454 0 001.406 1.687 6.526 6.526 0 001.734 1.031c.624.25 1.265.36 1.921.328h.141a.356.356 0 00.14-.047c0-.093-.094-.14-.281-.14zm-1.406-2.343c-.562-.656-1.015-1.5-1.359-2.53a104.87 104.87 0 00-.141-.423 14.769 14.769 0 00-.187-.609 6.216 6.216 0 00-.187-.562c-.063-.188-.11-.281-.141-.281-.125 0-.188.203-.188.609 0 .406.047.875.141 1.406.094.53.234 1.078.422 1.64.187.531.406.953.656 1.265.5.563 1 .906 1.5 1.031a6.936 6.936 0 001.593.188c.187 0 .328-.047.422-.14.125-.126.047-.22-.235-.282-.906-.094-1.671-.531-2.296-1.312zm19.449-10.498c.093-.843.109-1.734.046-2.671a7.587 7.587 0 00-.609-2.578 4.574 4.574 0 00-1.499-2.015c-.657-.53-1.531-.796-2.625-.796-1.468 0-2.749.406-3.843 1.218a11.04 11.04 0 00-2.811 2.953 14.857 14.857 0 00-1.828 3.749c-.438 1.312-.719 2.515-.844 3.608-.187 1.5-.218 2.796-.093 3.89.156 1.093.421 2 .796 2.718.375.687.844 1.203 1.406 1.547a3.771 3.771 0 001.922.515c.968.031 1.983-.234 3.046-.797 1.093-.593 2.109-1.406 3.046-2.437.937-1.062 1.749-2.343 2.437-3.843.718-1.53 1.203-3.217 1.453-5.06zm-15.091 3.234c.125-1.25.438-2.624.938-4.124.5-1.5 1.187-2.89 2.062-4.171a12.541 12.541 0 013.233-3.187c1.25-.875 2.703-1.312 4.359-1.312 1.249 0 2.28.297 3.093.89a5.861 5.861 0 011.874 2.297c.438.906.719 1.906.844 2.999a12.413 12.413 0 010 3.046c-.281 2.25-.828 4.202-1.64 5.858-.813 1.656-1.766 3.046-2.859 4.171-1.094 1.094-2.25 1.922-3.468 2.484-1.219.531-2.39.796-3.515.796-.843 0-1.609-.187-2.296-.562-.656-.375-1.219-.953-1.687-1.734-.438-.812-.75-1.828-.938-3.046-.156-1.25-.156-2.718 0-4.405zm5.249 6.608a.902.902 0 01-.468-.14 1.56 1.56 0 01-.563-.891c-.031-.156.031-.266.188-.328.093-.032.218.078.375.328.156.25.328.375.515.375.312 0 .672-.203 1.078-.61a8.98 8.98 0 001.218-1.406c.407-.562.75-1.109 1.031-1.64.313-.53.531-.922.656-1.171.125-.25.25-.563.375-.938.125-.406.235-.812.328-1.218.125-.406.219-.797.282-1.172a9.38 9.38 0 00.187-1.03c.156-1.407.125-2.485-.094-3.234-.218-.781-.578-1.172-1.078-1.172-.374 0-.765.125-1.171.375a5.066 5.066 0 00-1.172.89 7.843 7.843 0 00-.937 1.266c-.281.437-.484.89-.609 1.359-.156.53-.266.796-.328.796-.094 0-.141-.265-.141-.796a5.25 5.25 0 01.609-1.734 5.78 5.78 0 011.172-1.547 5.943 5.943 0 011.546-1.125 3.532 3.532 0 011.734-.468c.594 0 1.031.219 1.313.656.312.406.531.922.656 1.547.125.593.172 1.218.14 1.874 0 .625-.031 1.125-.093 1.5a13.663 13.663 0 01-.61 2.483c-.25.782-.562 1.578-.937 2.39-.187.376-.469.844-.843 1.407a11.896 11.896 0 01-1.313 1.546c-.468.5-.984.937-1.546 1.312-.531.344-1.031.516-1.5.516zm1.5.89c.031.188-.125.344-.469.469-.312.125-.64.187-.984.187-.968-.031-1.718-.344-2.249-.937a5.396 5.396 0 01-1.078-2.109 11.188 11.188 0 01-.281-2.53 33 33 0 01.14-2.203c.125-1.031.375-2.187.75-3.468.375-1.281.906-2.484 1.593-3.609a9.972 9.972 0 012.531-2.811c1-.782 2.187-1.172 3.562-1.172.906 0 1.624.234 2.155.703a3.994 3.994 0 011.219 1.734 6.56 6.56 0 01.468 2.25c.063.78.047 1.499-.046 2.155a11.822 11.822 0 01-.328 1.968c-.157.594-.375 1.25-.657 1.969a8.176 8.176 0 01-.374.75c-.157.28-.329.406-.516.374-.094-.03-.125-.156-.094-.375.063-.218.125-.484.188-.796l.281-1.031a7.19 7.19 0 00.187-1.031c.063-.531.094-1.188.094-1.969a9.658 9.658 0 00-.187-2.343c-.125-.75-.375-1.39-.75-1.921-.375-.531-.937-.797-1.687-.797-1.094 0-2.109.36-3.046 1.078-.906.687-1.703 1.547-2.39 2.578-.688 1-1.25 2.061-1.688 3.186-.406 1.094-.656 2.062-.749 2.906-.063.5-.078 1.124-.047 1.874s.14 1.5.328 2.25a4.974 4.974 0 001.031 1.874c.468.531 1.109.813 1.921.844.25.031.484.016.703-.047.25-.094.406-.094.469 0z" fill="#FFBC3F"/>
    </g>
    <defs>
        <clipPath id="clip0">
            <path fill="#fff" d="M0 0h220v98.935H0z"/>
        </clipPath>
    </defs>
</svg>
