<svg width="100" height="100" viewBox="0 0 100 100" fill="none" xmlns="http://www.w3.org/2000/svg">
<path d="M50 100C77.6142 100 100 77.6142 100 50C100 22.3858 77.6142 0 50 0C22.3858 0 0 22.3858 0 50C0 77.6142 22.3858 100 50 100Z" fill="#1EAFE5"/>
<path d="M49.999 27.0869C37.3446 27.0869 27.0879 36.5858 27.0879 48.3025C27.0879 54.9802 30.4201 60.9347 35.6268 64.8258V72.9136L43.4279 68.6314C45.5112 69.2091 47.7146 69.5191 50.0001 69.5191C62.6546 69.5191 72.9146 60.0202 72.9146 48.3014C72.9135 36.5858 62.6534 27.0869 49.999 27.0869ZM52.2779 55.6591L46.4434 49.4347L35.0557 55.6591L47.5801 42.3625L53.5579 48.5869L64.8012 42.3625L52.2779 55.6591Z" fill="white"/>
</svg>
