<svg width="10" height="10" viewBox="0 0 10 10" fill="none" xmlns="http://www.w3.org/2000/svg">
<g clip-path="url(#clip0)">
<path d="M5.55246 5.00099L9.88559 0.667835C10.0381 0.515277 10.0381 0.267934 9.88559 0.115395C9.73303 -0.0371434 9.48569 -0.037163 9.33315 0.115395L5 4.44855L0.666859 0.115395C0.514301 -0.037163 0.266957 -0.037163 0.114419 0.115395C-0.0381201 0.267953 -0.0381396 0.515297 0.114419 0.667835L4.44755 5.00097L0.114419 9.33412C-0.0381396 9.48668 -0.0381396 9.73402 0.114419 9.88656C0.190688 9.96283 0.290668 10.0009 0.390649 10.0009C0.490629 10.0009 0.59059 9.96283 0.666879 9.88656L5 5.55343L9.33313 9.88656C9.4094 9.96283 9.50938 10.0009 9.60936 10.0009C9.70934 10.0009 9.8093 9.96283 9.88559 9.88656C10.0381 9.734 10.0381 9.48666 9.88559 9.33412L5.55246 5.00099Z" fill="white"/>
</g>
<defs>
<clipPath id="clip0">
<rect width="10" height="10" fill="white"/>
</clipPath>
</defs>
</svg>
