<svg width="16" height="16" viewBox="0 0 16 16" fill="none" xmlns="http://www.w3.org/2000/svg">
<g clip-path="url(#clip0)">
<path fill-rule="evenodd" clip-rule="evenodd" d="M11.3337 3.33333H13.3337V6H16.0003V16H0.666992V6H3.33366V3.33333H5.33366V0H11.3337V3.33333ZM8.00033 12.6667H6.66699V15.3333H8.00033V12.6667ZM10.0003 12.6667H8.66699V15.3333H10.0003V12.6667ZM10.0003 1.33333H6.66699V4.66667H4.66699V7.33333H2.00033V14.6667H5.33366V11.3333H11.3337V14.6667H14.667V7.33333H12.0003V4.66667H10.0003V1.33333ZM3.33366 10.6667H4.66699V12H3.33366V10.6667ZM13.3337 10.6667V12H12.0003V10.6667H13.3337ZM6.00033 9.33333H7.33366V10.6667H6.00033V9.33333ZM9.33366 9.33333H10.667V10.6667H9.33366V9.33333ZM3.33366 8.66667H4.66699V10H3.33366V8.66667ZM12.0003 8.66667H13.3337V10H12.0003V8.66667ZM6.00033 7.33333H7.33366V8.66667H6.00033V7.33333ZM9.33366 7.33333H10.667V8.66667H9.33366V7.33333ZM6.00033 5.33333H7.33366V6.66667H6.00033V5.33333ZM9.33366 5.33333H10.667V6.66667H9.33366V5.33333ZM8.00033 2.66667H8.66699V2H9.33366V4H8.66699V3.33333H8.00033V4H7.33366V2H8.00033V2.66667Z" fill="white" fill-opacity="0.2"/>
</g>
<defs>
<clipPath id="clip0">
<rect width="16" height="16" fill="white"/>
</clipPath>
</defs>
</svg>
