<?xml version="1.0" ?><svg height="512px" id="Layer_1" style="enable-background:new 0 0 512 512;" version="1.1" viewBox="0 0 512 512" width="512px" xml:space="preserve" xmlns="http://www.w3.org/2000/svg" xmlns:cc="http://creativecommons.org/ns#" xmlns:dc="http://purl.org/dc/elements/1.1/" xmlns:inkscape="http://www.inkscape.org/namespaces/inkscape" xmlns:rdf="http://www.w3.org/1999/02/22-rdf-syntax-ns#" xmlns:sodipodi="http://sodipodi.sourceforge.net/DTD/sodipodi-0.dtd" xmlns:svg="http://www.w3.org/2000/svg"><defs id="defs19"/><g id="g3002"><path d="m 511.672,255.92999 c 0,141.3849 -114.61511,256 -256,256 -141.3849,0 -256.00000293,-114.6151 -256.00000293,-256 C -0.32800293,114.5451 114.2871,-0.07000732 255.672,-0.07000732 c 141.38489,0 256,114.61510732 256,255.99999732 z" id="circle8" style="fill:#00aff0;fill-opacity:1"/><path d="m 255.33871,129.46244 c -6.91804,0 -13.70044,0.57654 -20.30055,1.67527 -11.83367,-7.82377 -25.91688,-12.38347 -41.07339,-12.38347 -41.56073,0 -75.21053,34.16268 -75.21053,76.31557 0,15.33752 4.44922,29.58611 12.11084,41.54969 -1.03198,6.53632 -1.55955,13.22983 -1.55955,20.04898 0,70.26172 56.40842,127.21311 126.03264,127.21311 7.85783,0 15.5082,-0.7756 22.94358,-2.1387 11.55328,7.2717 25.16204,11.50287 39.7508,11.50287 41.55,0 75.21321,-34.17138 75.21321,-76.31993 -0.002,-15.93311 -4.80359,-30.74684 -13.05226,-42.99325 0.75376,-5.65679 1.1875,-11.40769 1.1875,-17.26192 0,-70.25085 -56.43739,-127.20822 -126.04229,-127.20822 z M 195.2582,291.06432 c 15.62813,-1.06437 25.01188,18.06573 33.35293,23.38717 8.33085,5.30173 40.02984,17.38058 56.77365,-2.13864 18.23246,-21.24853 -12.12492,-32.24383 -34.37685,-35.57219 -31.7709,-4.79717 -71.88339,-22.32386 -68.7628,-56.86284 3.12166,-34.51709 28.75442,-52.21508 55.73042,-54.71162 34.38651,-3.18333 56.77205,5.31213 74.47806,20.71879 20.47349,17.80142 9.39556,37.70207 -3.64863,39.30331 -12.99268,1.59195 -27.58563,-29.27993 -56.23541,-29.744 -29.52988,-0.47278 -49.48765,31.33595 -13.03292,40.37811 36.47351,9.03233 75.53257,12.74322 89.59852,46.74425 14.07563,34.00432 -21.87036,70.11608 -61.99358,72.24761 -40.09049,2.12934 -58.85101,-6.91556 -76.03702,-23.36254 -19.19305,-18.37001 -11.48309,-39.32247 4.15363,-40.38741 z" id="Oval-1-7" style="fill:#ffffff;stroke:none"/></g><g id="Layer_1_1_"/></svg>