<svg width="24" height="24" viewBox="0 0 24 24" fill="none" xmlns="http://www.w3.org/2000/svg">
<path d="M13.2101 4.84024L13.2281 4.81264L13.2443 4.78391C14.1692 3.14423 15.9043 2.12865 17.7866 2.125C20.4829 2.12557 23 4.71792 23 7.76786C23 11.4563 20.6457 14.7796 17.9029 17.3754C15.5991 19.5557 13.1499 21.1005 12 21.7727C10.8501 21.1005 8.40093 19.5557 6.0971 17.3754C3.3543 14.7796 1 11.4563 1 7.76786C1 4.71792 3.51708 2.12557 6.2134 2.125C8.09573 2.12865 9.83081 3.14423 10.7557 4.78391L10.7719 4.81264L10.7899 4.84024C11.0575 5.24902 11.5128 5.49435 12 5.49435C12.4872 5.49435 12.9425 5.24902 13.2101 4.84024Z" stroke="#FFBC3F" stroke-width="2"/>
</svg>
