<svg width="275" height="33" viewBox="0 0 275 33" fill="none" xmlns="http://www.w3.org/2000/svg">
<path d="M33.608 9.90845H28.6342C28.4695 9.90834 28.3103 9.96705 28.1851 10.074C28.0598 10.1809 27.977 10.3291 27.9513 10.4917L25.9397 23.2459C25.9304 23.3051 25.9341 23.3656 25.9505 23.4232C25.9668 23.4808 25.9955 23.5342 26.0345 23.5797C26.0735 23.6252 26.1219 23.6617 26.1763 23.6866C26.2307 23.7116 26.2899 23.7245 26.3498 23.7244H28.7244C28.8892 23.7245 29.0485 23.6657 29.1737 23.5586C29.299 23.4515 29.3818 23.3032 29.4073 23.1404L29.9498 19.7004C29.9753 19.5378 30.058 19.3896 30.1831 19.2825C30.3082 19.1754 30.4674 19.1165 30.632 19.1164H32.2066C35.4829 19.1164 37.3738 17.531 37.8677 14.3892C38.0902 13.0146 37.8771 11.9346 37.2335 11.1783C36.5266 10.3477 35.2728 9.90845 33.608 9.90845V9.90845ZM34.1818 14.5666C33.9098 16.3514 32.5462 16.3514 31.2277 16.3514H30.4771L31.0037 13.0183C31.0191 12.9208 31.0688 12.8319 31.1438 12.7678C31.2189 12.7037 31.3144 12.6684 31.4131 12.6684H31.7571C32.6553 12.6684 33.5026 12.6684 33.9404 13.1804C34.2015 13.4859 34.2815 13.9397 34.1818 14.5666V14.5666ZM48.4757 14.5092H46.0938C45.9951 14.5092 45.8996 14.5444 45.8246 14.6085C45.7495 14.6727 45.6998 14.7615 45.6844 14.859L45.5789 15.5252L45.4124 15.2837C44.8968 14.5354 43.7469 14.2852 42.5993 14.2852C39.9673 14.2852 37.7193 16.2786 37.2815 19.075C37.0538 20.4699 37.3775 21.8037 38.1688 22.7339C38.8946 23.5892 39.9331 23.9455 41.1688 23.9455C43.2895 23.9455 44.4655 22.5819 44.4655 22.5819L44.3593 23.2437C44.3498 23.3029 44.3533 23.3634 44.3695 23.4211C44.3857 23.4788 44.4142 23.5323 44.453 23.5779C44.4919 23.6236 44.5402 23.6602 44.5945 23.6854C44.6489 23.7106 44.7081 23.7236 44.768 23.7237H46.9135C47.0782 23.7238 47.2376 23.665 47.3628 23.5579C47.4881 23.4508 47.5709 23.3025 47.5964 23.1397L48.8837 14.9877C48.8931 14.9287 48.8897 14.8683 48.8735 14.8107C48.8574 14.7531 48.8289 14.6998 48.7901 14.6543C48.7513 14.6088 48.7031 14.5722 48.6488 14.5472C48.5945 14.5221 48.5355 14.5092 48.4757 14.5092V14.5092ZM45.1557 19.1448C44.9258 20.5055 43.8458 21.419 42.4684 21.419C41.7768 21.419 41.224 21.1972 40.8691 20.7768C40.5171 20.3594 40.3833 19.7652 40.4953 19.1034C40.7098 17.7543 41.808 16.811 43.1644 16.811C43.8408 16.811 44.3906 17.0357 44.7528 17.4597C45.1157 17.8881 45.2597 18.4859 45.1557 19.1448V19.1448ZM61.1608 14.5092H58.7673C58.6544 14.5094 58.5433 14.5371 58.4436 14.5899C58.3438 14.6428 58.2585 14.7192 58.1949 14.8124L54.8938 19.675L53.4946 15.0023C53.4516 14.8597 53.3639 14.7348 53.2445 14.646C53.125 14.5572 52.9801 14.5092 52.8313 14.5092H50.4793C50.4133 14.509 50.3482 14.5246 50.2894 14.5547C50.2306 14.5847 50.1799 14.6284 50.1414 14.6821C50.1029 14.7357 50.0778 14.7978 50.0681 14.8631C50.0585 14.9284 50.0645 14.9951 50.0858 15.0575L52.7222 22.7943L50.2437 26.2932C50.1996 26.3552 50.1735 26.4282 50.1681 26.5041C50.1628 26.58 50.1785 26.6559 50.2134 26.7235C50.2483 26.7911 50.3012 26.8477 50.3661 26.8873C50.4311 26.9268 50.5058 26.9478 50.5818 26.9477H52.9724C53.084 26.9479 53.194 26.921 53.2929 26.8693C53.3918 26.8176 53.4768 26.7427 53.5404 26.651L61.5011 15.1601C61.5443 15.0979 61.5696 15.0251 61.5743 14.9496C61.579 14.8741 61.563 14.7987 61.5279 14.7316C61.4929 14.6646 61.4401 14.6084 61.3754 14.5692C61.3107 14.53 61.2364 14.5092 61.1608 14.5092V14.5092Z" fill="#253B80"/>
<path d="M69.0851 9.90844H64.1105C63.946 9.90851 63.7869 9.9673 63.6618 10.0742C63.5368 10.1811 63.454 10.3292 63.4283 10.4917L61.4167 23.2459C61.4074 23.305 61.4109 23.3654 61.4272 23.423C61.4434 23.4805 61.4719 23.5339 61.5108 23.5794C61.5496 23.6249 61.5979 23.6614 61.6522 23.6864C61.7065 23.7115 61.7656 23.7244 61.8254 23.7244H64.3782C64.4933 23.7243 64.6047 23.683 64.6921 23.6081C64.7796 23.5332 64.8374 23.4295 64.8553 23.3157L65.4262 19.7004C65.4516 19.5378 65.5344 19.3896 65.6594 19.2825C65.7845 19.1754 65.9437 19.1165 66.1084 19.1164H67.6822C70.9593 19.1164 72.8494 17.531 73.344 14.3892C73.5673 13.0146 73.3527 11.9346 72.7091 11.1783C72.0029 10.3477 70.7498 9.90844 69.0851 9.90844V9.90844ZM69.6589 14.5666C69.3876 16.3514 68.024 16.3514 66.7047 16.3514H65.9549L66.4822 13.0183C66.4973 12.9207 66.5468 12.8319 66.6218 12.7677C66.6968 12.7035 66.7922 12.6683 66.8909 12.6684H67.2349C68.1323 12.6684 68.9803 12.6684 69.4182 13.1804C69.6793 13.4859 69.7585 13.9397 69.6589 14.5666V14.5666ZM83.952 14.5092H81.5716C81.4729 14.5089 81.3774 14.5441 81.3024 14.6082C81.2274 14.6724 81.1779 14.7614 81.1629 14.859L81.0574 15.5252L80.8902 15.2837C80.3745 14.5354 79.2254 14.2852 78.0778 14.2852C75.4458 14.2852 73.1985 16.2786 72.7607 19.075C72.5338 20.4699 72.856 21.8037 73.6473 22.7339C74.3745 23.5892 75.4116 23.9455 76.6473 23.9455C78.768 23.9455 79.944 22.5819 79.944 22.5819L79.8378 23.2437C79.8283 23.303 79.8318 23.3637 79.8481 23.4215C79.8644 23.4793 79.893 23.5328 79.932 23.5785C79.971 23.6241 80.0195 23.6608 80.074 23.6858C80.1286 23.7109 80.1879 23.7238 80.248 23.7237H82.3927C82.5574 23.7236 82.7165 23.6647 82.8416 23.5577C82.9667 23.4506 83.0494 23.3024 83.0749 23.1397L84.3629 14.9877C84.372 14.9285 84.3682 14.868 84.3518 14.8104C84.3353 14.7527 84.3066 14.6994 84.2675 14.6539C84.2285 14.6084 84.1801 14.572 84.1256 14.547C84.0711 14.522 84.0119 14.5091 83.952 14.5092V14.5092ZM80.632 19.1448C80.4036 20.5055 79.3222 21.419 77.9447 21.419C77.2545 21.419 76.7003 21.1972 76.3454 20.7768C75.9934 20.3594 75.8611 19.7652 75.9716 19.1034C76.1876 17.7543 77.2843 16.811 78.6407 16.811C79.3171 16.811 79.8669 17.0357 80.2291 17.4597C80.5934 17.8881 80.7374 18.4859 80.632 19.1448V19.1448ZM86.76 10.2583L84.7185 23.2459C84.7092 23.305 84.7127 23.3654 84.729 23.423C84.7452 23.4805 84.7737 23.5339 84.8126 23.5794C84.8514 23.6249 84.8997 23.6614 84.954 23.6864C85.0083 23.7115 85.0674 23.7244 85.1273 23.7244H87.1796C87.5207 23.7244 87.8102 23.4772 87.8625 23.1404L89.8756 10.387C89.885 10.3279 89.8814 10.2674 89.8652 10.2098C89.8489 10.1522 89.8204 10.0988 89.7816 10.0533C89.7427 10.0077 89.6945 9.97114 89.6402 9.94601C89.5859 9.92089 89.5267 9.90782 89.4669 9.90771H87.1687C87.07 9.90806 86.9747 9.94353 86.8998 10.0078C86.8249 10.072 86.7754 10.1608 86.76 10.2583Z" fill="#179BD7"/>
<path d="M5.28433 26.2028L5.6647 23.7868L4.81742 23.7672H0.771606L3.58324 5.93954C3.59161 5.88507 3.61928 5.83542 3.6612 5.79964C3.70312 5.76386 3.7565 5.74434 3.81161 5.74463H10.6334C12.8982 5.74463 14.4611 6.2159 15.2771 7.14609C15.6596 7.58245 15.9032 8.03845 16.0211 8.54027C16.1447 9.06681 16.1469 9.6959 16.0261 10.4632L16.0174 10.5192V11.0108L16.4 11.2275C16.692 11.3755 16.9545 11.5756 17.1745 11.8181C17.5018 12.1912 17.7134 12.6654 17.8029 13.2275C17.8952 13.8057 17.8647 14.4937 17.7134 15.2726C17.5389 16.1686 17.2567 16.949 16.8756 17.5875C16.5394 18.1596 16.0873 18.655 15.5483 19.0421C15.0422 19.4014 14.4407 19.6741 13.7607 19.8486C13.1018 20.0203 12.3505 20.1068 11.5265 20.1068H10.9956C10.616 20.1068 10.2472 20.2435 9.95779 20.4886C9.66874 20.7363 9.477 21.0786 9.4167 21.4544L9.3767 21.6719L8.7047 25.9301L8.67415 26.0864C8.66615 26.1359 8.65233 26.1606 8.63197 26.1774C8.61224 26.1935 8.58763 26.2025 8.56215 26.2028H5.28433Z" fill="#253B80"/>
<path d="M16.7622 10.5759C16.7418 10.7061 16.7185 10.8392 16.6924 10.9759C15.7927 15.5948 12.7149 17.1905 8.78399 17.1905H6.78254C6.30181 17.1905 5.89672 17.5396 5.82181 18.0137L4.79708 24.5127L4.5069 26.3548C4.49534 26.4279 4.49975 26.5026 4.51984 26.5738C4.53992 26.645 4.57519 26.711 4.62323 26.7673C4.67127 26.8236 4.73093 26.8687 4.7981 26.8997C4.86528 26.9307 4.93837 26.9468 5.01235 26.9468H8.56217C8.98253 26.9468 9.33963 26.6414 9.40581 26.2268L9.44072 26.0465L10.1091 21.805L10.152 21.5723C10.2174 21.1563 10.5753 20.8508 10.9956 20.8508H11.5265C14.9658 20.8508 17.6582 19.4545 18.4451 15.4137C18.7738 13.7257 18.6036 12.3163 17.7338 11.325C17.4581 11.0184 17.1289 10.7645 16.7622 10.5759V10.5759Z" fill="#179BD7"/>
<path d="M15.821 10.2009C15.5338 10.1178 15.2416 10.0529 14.9461 10.0067C14.3624 9.91696 13.7724 9.87391 13.1818 9.87794H7.83487C7.63138 9.87779 7.43455 9.95043 7.27996 10.0828C7.12537 10.2151 7.02321 10.3983 6.99196 10.5994L5.8545 17.8038L5.82178 18.0139C5.85721 17.7846 5.97356 17.5755 6.14978 17.4245C6.326 17.2735 6.55044 17.1906 6.7825 17.1907H8.78396C12.7149 17.1907 15.7927 15.5943 16.6923 10.9761C16.7192 10.8394 16.7418 10.7063 16.7621 10.5761C16.5247 10.4516 16.2773 10.3473 16.0225 10.2641C15.9557 10.242 15.8885 10.2209 15.821 10.2009V10.2009Z" fill="#222D65"/>
<path d="M6.99206 10.5993C7.02304 10.3981 7.12514 10.2148 7.27981 10.0825C7.43449 9.9503 7.63146 9.87791 7.83496 9.87855H13.1819C13.8153 9.87855 14.4066 9.92 14.9462 10.0073C15.3114 10.0647 15.6715 10.1505 16.0233 10.264C16.2888 10.352 16.5353 10.456 16.763 10.576C17.0306 8.86909 16.7608 7.70691 15.8379 6.65455C14.8204 5.496 12.9841 5 10.6342 5H3.81242C3.33242 5 2.92297 5.34909 2.84878 5.824L0.00732913 23.8349C-0.00590589 23.9185 -0.000870413 24.004 0.0220892 24.0855C0.0450488 24.167 0.0853876 24.2426 0.140331 24.307C0.195274 24.3714 0.263518 24.4231 0.340367 24.4586C0.417217 24.4942 0.500849 24.5126 0.585511 24.5127H4.79715L5.8546 17.8036L6.99206 10.5993V10.5993Z" fill="#253B80"/>
<path d="M151.712 5.74951H138.55V27.247H151.712V5.74951Z" fill="#FF5F00"/>
<path d="M139.906 16.5001C139.904 14.43 140.373 12.3868 141.278 10.5249C142.183 8.663 143.499 7.03128 145.127 5.75321C143.11 4.16823 140.688 3.18263 138.138 2.90904C135.588 2.63546 133.012 3.08493 130.705 4.2061C128.397 5.32726 126.452 7.07488 125.092 9.24921C123.731 11.4235 123.009 13.9369 123.009 16.502C123.009 19.067 123.731 21.5804 125.092 23.7547C126.452 25.929 128.397 27.6766 130.705 28.7978C133.012 29.919 135.588 30.3684 138.138 30.0949C140.688 29.8213 143.11 28.8357 145.127 27.2507C143.498 25.9722 142.182 24.3399 141.277 22.4773C140.373 20.6147 139.904 18.5707 139.906 16.5001V16.5001Z" fill="#EB001B"/>
<path d="M165.941 24.9721V24.5316H166.131V24.4404H165.679V24.5316H165.858V24.9721H165.941ZM166.818 24.9721V24.4404H166.682L166.522 24.8202L166.363 24.4404H166.226V24.9721H166.325V24.5695L166.473 24.9151H166.575L166.724 24.5695V24.9721H166.818Z" fill="#F79E1B"/>
<path d="M167.248 16.5001C167.248 19.0653 166.526 21.5788 165.165 23.7532C163.804 25.9276 161.858 27.6752 159.551 28.7962C157.243 29.9172 154.667 30.3664 152.117 30.0924C149.566 29.8185 147.144 28.8324 145.127 27.2469C146.755 25.9677 148.071 24.3355 148.976 22.4735C149.881 20.6115 150.351 18.5684 150.351 16.4982C150.351 14.4279 149.881 12.3848 148.976 10.5228C148.071 8.66079 146.755 7.02862 145.127 5.74942C147.144 4.16395 149.566 3.17786 152.117 2.90389C154.667 2.62991 157.243 3.07909 159.551 4.2001C161.858 5.3211 163.804 7.06869 165.165 9.24309C166.526 11.4175 167.248 13.931 167.248 16.4963V16.5001Z" fill="#F79E1B"/>
<g clip-path="url(#clip0)">
<path d="M232.211 28.6538H226.204L229.961 5.42114H235.968L232.211 28.6538Z" fill="#00579F"/>
<path d="M253.988 5.98911C252.803 5.51903 250.924 5 248.6 5C242.668 5 238.49 8.16343 238.464 12.6862C238.415 16.0231 241.455 17.8764 243.729 18.9891C246.053 20.126 246.843 20.8681 246.843 21.8815C246.82 23.4379 244.965 24.1553 243.236 24.1553C240.838 24.1553 239.552 23.7854 237.6 22.9195L236.809 22.5483L235.968 27.7635C237.377 28.4054 239.973 28.975 242.668 29C248.971 29 253.074 25.8855 253.123 21.0658C253.147 18.4211 251.542 16.3946 248.081 14.7386C245.98 13.6756 244.693 12.9588 244.693 11.8712C244.717 10.8824 245.781 9.86964 248.153 9.86964C250.106 9.82004 251.541 10.2895 252.628 10.7592L253.171 11.0059L253.988 5.98911V5.98911Z" fill="#00579F"/>
<path d="M261.972 20.4233C262.467 19.0886 264.371 13.923 264.371 13.923C264.346 13.9726 264.864 12.5637 265.161 11.6987L265.581 13.7006C265.581 13.7006 266.718 19.2617 266.965 20.4233C266.026 20.4233 263.159 20.4233 261.972 20.4233ZM269.387 5.42114H264.741C263.308 5.42114 262.219 5.84096 261.601 7.34876L252.678 28.6535H258.981C258.981 28.6535 260.019 25.786 260.242 25.1684C260.933 25.1684 267.065 25.1684 267.955 25.1684C268.127 25.9841 268.672 28.6535 268.672 28.6535H274.234L269.387 5.42114V5.42114Z" fill="#00579F"/>
<path d="M221.187 5.42114L215.303 21.2636L214.661 18.0505C213.573 14.3431 210.162 10.3151 206.355 8.31225L211.744 28.6291H218.096L227.539 5.42114H221.187V5.42114Z" fill="#00579F"/>
<path d="M209.841 5.42114H200.176L200.077 5.89056C207.616 7.81851 212.609 12.4658 214.661 18.0515L212.56 7.37406C212.214 5.89024 211.151 5.47009 209.841 5.42114Z" fill="#FAA61A"/>
</g>
<defs>
<clipPath id="clip0">
<rect width="74.1569" height="24" fill="white" transform="translate(200.077 5)"/>
</clipPath>
</defs>
</svg>
