<svg width="139" height="266" viewBox="0 0 139 266" fill="none" xmlns="http://www.w3.org/2000/svg">
<rect width="139" height="266" rx="5" fill="black" fill-opacity="0.46"/>
<rect x="0.5" y="0.5" width="138" height="265" rx="4.5" stroke="white" stroke-opacity="0.35"/>
<path d="M61.1055 14.5715C61.0432 14.4204 60.9847 14.2624 60.9311 14.1018C60.9108 14.0407 60.868 13.9906 60.8122 13.9624C60.7564 13.9342 60.6921 13.9302 60.6335 13.9513C60.5748 13.9725 60.5267 14.017 60.4996 14.0751C60.4725 14.1332 60.4686 14.2001 60.489 14.2611C60.5461 14.4328 60.6089 14.602 60.6757 14.7637C60.6875 14.7935 60.7049 14.8206 60.7269 14.8434C60.7489 14.8661 60.7749 14.8841 60.8036 14.8963C60.8324 14.9085 60.8631 14.9146 60.8941 14.9143C60.9251 14.914 60.9557 14.9073 60.9842 14.8945C61.0127 14.8818 61.0385 14.8633 61.06 14.8401C61.0816 14.8169 61.0985 14.7895 61.1098 14.7594C61.1211 14.7294 61.1265 14.6973 61.1258 14.6651C61.1251 14.6328 61.1182 14.601 61.1055 14.5715Z" fill="#FFBC3F"/>
<path d="M62.8778 17.4419C62.9317 17.474 62.9955 17.4826 63.0554 17.4658C63.1153 17.4489 63.1663 17.4079 63.1972 17.3519C63.2281 17.2959 63.2363 17.2294 63.2201 17.1671C63.2039 17.1048 63.1645 17.0517 63.1107 17.0195C62.5587 16.6865 62.0814 16.2345 61.711 15.6937C61.6058 15.542 61.5081 15.3847 61.4183 15.2227C61.3868 15.1677 61.3358 15.1278 61.2763 15.1117C61.2168 15.0956 61.1536 15.1044 61.1004 15.1364C61.0471 15.1684 61.0081 15.221 60.9918 15.2827C60.9755 15.3444 60.9832 15.4103 61.0132 15.4662C61.111 15.6426 61.2174 15.8138 61.3319 15.979C61.7411 16.5758 62.2682 17.0746 62.8778 17.4419Z" fill="#FFBC3F"/>
<path d="M73.9579 17.3798C74.0018 17.3798 74.0446 17.3669 74.0819 17.3425C74.2404 17.239 74.3931 17.1258 74.5391 17.0036C74.5869 16.9629 74.6173 16.9042 74.6236 16.8404C74.63 16.7766 74.6117 16.7127 74.573 16.6627C74.5344 16.6126 74.4785 16.5805 74.417 16.5733C74.3558 16.5661 74.2944 16.5844 74.246 16.6241C74.1142 16.7344 73.9765 16.8364 73.8333 16.9299C73.7904 16.958 73.7573 16.9999 73.739 17.0492C73.7209 17.0986 73.7187 17.1528 73.7329 17.2036C73.7468 17.2544 73.7763 17.2991 73.8169 17.3309C73.8575 17.3627 73.907 17.3798 73.9579 17.3798Z" fill="#FFBC3F"/>
<path d="M74.9276 16.5311C74.9605 16.5311 74.9927 16.5241 75.0225 16.5103C75.0525 16.4965 75.0792 16.4764 75.1012 16.4512C75.5664 15.9173 75.9438 15.265 76.223 14.5123C76.2534 14.4306 76.2831 14.3459 76.3112 14.2611C76.3315 14.2001 76.3279 14.1332 76.3006 14.0751C76.2737 14.017 76.2253 13.9725 76.1669 13.9513C76.1082 13.9302 76.044 13.9342 75.9881 13.9624C75.9322 13.9906 75.8893 14.0407 75.869 14.1018C75.8426 14.1813 75.8148 14.2604 75.7864 14.3368C75.5281 15.0334 75.181 15.6347 74.7547 16.124C74.7241 16.1589 74.704 16.2023 74.6968 16.2489C74.6896 16.2954 74.6957 16.3431 74.7141 16.3862C74.7324 16.4293 74.7622 16.466 74.8003 16.4917C74.8381 16.5174 74.8826 16.5311 74.9276 16.5311Z" fill="#FFBC3F"/>
<path d="M59.8788 16.1052C59.6007 13.9342 60.5741 11.1842 60.7131 11.0395C60.8461 10.9011 61.6569 14.9492 63.7524 16.3616M63.7524 16.3616C63.849 16.4267 63.9483 16.4862 64.0504 16.5394M63.7524 16.3616C67.3731 14.4642 69.4188 14.4235 73.0889 16.3947M72.6717 16.5394C74.8281 15.6033 75.5231 14.3119 76.009 10.8947C77.1973 12.7439 77.5372 13.9369 76.8433 16.6842" stroke="#FFBC3F" stroke-width="0.5"/>
<path d="M48.2519 18.0915C48.2252 18.029 48.2186 17.9977 48.2319 17.9977C48.2519 17.9977 48.2753 18.0151 48.302 18.0498C48.3287 18.0776 48.3454 18.095 48.352 18.1019C48.4188 18.2061 48.4922 18.3207 48.5723 18.4458C48.6524 18.5639 48.7292 18.7063 48.8026 18.8731C48.876 19.0398 48.9427 19.2343 49.0028 19.4566C49.0629 19.672 49.1096 19.9291 49.143 20.2278C49.183 20.5682 49.1897 20.9052 49.163 21.2386C49.143 21.5652 49.1063 21.8952 49.0529 22.2286C49.0462 22.2425 49.0395 22.2773 49.0328 22.3329C49.0262 22.3884 49.0128 22.4162 48.9928 22.4162C48.9795 22.4162 48.9661 22.3919 48.9528 22.3433C48.9394 22.2877 48.9327 22.2495 48.9327 22.2286C48.9194 22.1522 48.906 22.0619 48.8927 21.9577C48.8793 21.8535 48.866 21.7458 48.8526 21.6346C48.846 21.5165 48.8393 21.4054 48.8326 21.3012C48.8326 21.19 48.8326 21.0928 48.8326 21.0094C48.8326 20.9816 48.8293 20.9225 48.8226 20.8322C48.8226 20.735 48.8193 20.6238 48.8126 20.4988C48.8059 20.3737 48.7926 20.2382 48.7725 20.0923C48.7592 19.9395 48.7425 19.7901 48.7225 19.6442C48.7358 19.8596 48.7358 20.075 48.7225 20.2903C48.7091 20.5057 48.6924 20.7245 48.6724 20.9469C48.6524 21.1622 48.6357 21.3811 48.6224 21.6034C48.609 21.8188 48.609 22.0376 48.6224 22.2599C48.6424 22.6906 48.7258 23.1283 48.8727 23.573C49.0195 24.0176 49.2531 24.3962 49.5735 24.7089C49.6135 24.7505 49.6302 24.7714 49.6235 24.7714C49.6102 24.7783 49.5868 24.7714 49.5535 24.7505C49.3199 24.6116 49.1263 24.4449 48.9728 24.2503C48.8193 24.0558 48.6924 23.8439 48.5923 23.6146C48.4989 23.3854 48.4288 23.1492 48.3821 22.906C48.3354 22.6559 48.3087 22.4058 48.302 22.1557C48.302 22.1349 48.2986 22.1175 48.292 22.1036C48.292 22.0828 48.292 22.0619 48.292 22.0411C48.1585 22.4371 48.0083 22.8192 47.8414 23.1874C47.6813 23.5556 47.5211 23.9099 47.3609 24.2503C47.2074 24.5908 47.0605 24.9138 46.9204 25.2195C46.7869 25.5182 46.6801 25.7961 46.6 26.0532C46.5866 26.0879 46.5766 26.1053 46.5699 26.1053C46.5566 26.1053 46.5499 26.0949 46.5499 26.074C46.5499 26.0532 46.5499 26.0393 46.5499 26.0323C46.5566 25.7058 46.62 25.3654 46.7401 25.0111C46.8603 24.6498 47.0004 24.2781 47.1606 23.896C47.3275 23.507 47.501 23.111 47.6813 22.708C47.8615 22.2981 48.0183 21.8813 48.1518 21.4575C48.2319 21.1865 48.2986 20.9052 48.352 20.6134C48.4121 20.3216 48.4488 20.0298 48.4622 19.738C48.4755 19.4462 48.4655 19.1614 48.4321 18.8835C48.3988 18.5986 48.3387 18.3346 48.2519 18.0915ZM49.4934 24.094C49.5668 24.2538 49.6636 24.4032 49.7837 24.5421C49.8305 24.2503 49.9206 23.962 50.0541 23.6772C50.1875 23.3854 50.3377 23.0936 50.5046 22.8018C50.6781 22.51 50.8583 22.2182 51.0452 21.9264C51.2321 21.6346 51.4057 21.3394 51.5658 21.0406C51.686 20.8253 51.7861 20.5925 51.8662 20.3424C51.953 20.0923 52.013 19.8387 52.0464 19.5817C52.0865 19.3177 52.0965 19.0572 52.0764 18.8001C52.0631 18.5431 52.013 18.2999 51.9263 18.0706C51.9062 18.0359 51.9029 18.0116 51.9163 17.9977C51.9296 17.9838 51.9496 17.9942 51.9763 18.029C52.0097 18.0567 52.0297 18.0776 52.0364 18.0915C52.1165 18.2096 52.1799 18.3659 52.2266 18.5604C52.28 18.748 52.3167 18.9599 52.3368 19.1961C52.3635 19.4254 52.3768 19.6685 52.3768 19.9256C52.3768 20.1826 52.3668 20.4397 52.3468 20.6968C52.3201 21.0372 52.27 21.4089 52.1966 21.8118C52.1298 22.2148 52.0464 22.583 51.9463 22.9164C51.9396 22.9303 51.9263 22.9616 51.9062 23.0102C51.8929 23.0589 51.8762 23.0832 51.8562 23.0832C51.8428 23.0762 51.8328 23.0484 51.8262 22.9998C51.8195 22.9442 51.8161 22.9095 51.8161 22.8956C51.8161 22.8192 51.8161 22.7289 51.8161 22.6246C51.8228 22.5135 51.8295 22.4023 51.8362 22.2912C51.8428 22.1731 51.8495 22.0619 51.8562 21.9577C51.8695 21.8465 51.8829 21.7527 51.8962 21.6763C51.9029 21.6346 51.9129 21.5409 51.9263 21.395C51.9463 21.2421 51.963 21.0719 51.9763 20.8843C51.8962 21.0789 51.8328 21.2525 51.7861 21.4054C51.7394 21.5582 51.6993 21.7076 51.666 21.8535C51.6326 21.9994 51.6026 22.1522 51.5759 22.312C51.5558 22.4718 51.5358 22.6594 51.5158 22.8748C51.4958 23.0901 51.4857 23.3159 51.4857 23.5521C51.4924 23.7883 51.5158 24.0211 51.5558 24.2503C51.6026 24.4796 51.666 24.7054 51.7461 24.9277C51.8328 25.1431 51.943 25.3411 52.0764 25.5217C52.1031 25.5634 52.1098 25.5877 52.0965 25.5946C52.0831 25.6016 52.0664 25.5946 52.0464 25.5738C51.8328 25.3932 51.6626 25.1917 51.5358 24.9694C51.4157 24.7401 51.3256 24.5004 51.2655 24.2503C51.2054 24.0002 51.172 23.7466 51.1654 23.4896C51.1654 23.2256 51.1787 22.9685 51.2054 22.7184C51.2188 22.6281 51.2288 22.5378 51.2355 22.4475C51.2488 22.3572 51.2622 22.2634 51.2755 22.1661C51.122 22.4232 50.9685 22.6733 50.815 22.9164C50.6614 23.1596 50.5179 23.4028 50.3844 23.6459C50.251 23.8821 50.1308 24.1183 50.024 24.3545C49.9239 24.5838 49.8471 24.8131 49.7937 25.0423C49.7804 25.0771 49.7737 25.0944 49.7737 25.0944C49.7604 25.0944 49.7537 25.0805 49.7537 25.0528C49.7537 25.025 49.7537 25.0076 49.7537 25.0006C49.7537 24.9451 49.7537 24.8895 49.7537 24.8339C49.7537 24.7783 49.7604 24.7228 49.7737 24.6672C49.7203 24.6394 49.6736 24.6151 49.6336 24.5942C49.5935 24.5664 49.5535 24.5352 49.5134 24.5004C49.48 24.4657 49.4433 24.424 49.4033 24.3754C49.3699 24.3268 49.3332 24.2642 49.2932 24.1878C49.2598 24.1183 49.2264 24.035 49.193 23.9377C49.1597 23.8404 49.1296 23.7466 49.1029 23.6563C49.0829 23.5591 49.0696 23.4792 49.0629 23.4166C49.0629 23.3472 49.0729 23.3124 49.0929 23.3124C49.1063 23.3124 49.1196 23.3263 49.133 23.3541C49.153 23.375 49.173 23.4028 49.193 23.4375C49.2131 23.4722 49.2297 23.507 49.2431 23.5417C49.2564 23.5764 49.2665 23.6008 49.2731 23.6146C49.3065 23.698 49.3399 23.7814 49.3733 23.8648C49.4133 23.9412 49.4533 24.0176 49.4934 24.094ZM49.7036 22.1661C49.8505 21.8674 50.0007 21.5791 50.1542 21.3012C50.3144 21.0163 50.4412 20.7905 50.5346 20.6238C50.6948 20.3251 50.8617 20.0333 51.0352 19.7484C51.2088 19.4566 51.3589 19.1996 51.4857 18.9773C51.4991 18.9425 51.5124 18.9113 51.5258 18.8835C51.5458 18.8557 51.5625 18.8487 51.5759 18.8626C51.5892 18.8626 51.5925 18.88 51.5859 18.9147C51.5792 18.9495 51.5725 18.9842 51.5658 19.019C51.4724 19.5192 51.3022 19.9916 51.0552 20.4362C50.815 20.8809 50.5613 21.329 50.2943 21.7805C50.2009 21.9334 50.1175 22.0619 50.044 22.1661C49.9773 22.2634 49.9172 22.3606 49.8638 22.4579C49.8171 22.5482 49.7771 22.649 49.7437 22.7601C49.7103 22.8713 49.687 23.0137 49.6736 23.1874C49.7003 23.111 49.7303 23.038 49.7637 22.9685C49.7971 22.8991 49.8305 22.8331 49.8638 22.7705C50.0507 22.4371 50.261 22.1036 50.4946 21.7701C50.7282 21.4366 50.9585 21.124 51.1854 20.8322C51.1987 20.8183 51.2221 20.7905 51.2555 20.7489C51.2955 20.7002 51.3222 20.6794 51.3356 20.6863C51.3489 20.6933 51.3456 20.7245 51.3256 20.7801C51.3122 20.8357 51.3022 20.8774 51.2955 20.9052C51.2622 20.9816 51.2188 21.0754 51.1654 21.1865C51.1186 21.2977 51.0653 21.4123 51.0052 21.5304C50.9518 21.6416 50.8951 21.7528 50.835 21.8639C50.7749 21.9681 50.7215 22.055 50.6748 22.1244C50.6481 22.1661 50.5914 22.2495 50.5046 22.3745C50.4178 22.4996 50.3244 22.6559 50.2243 22.8435C50.1241 23.0311 50.024 23.243 49.9239 23.4792C49.8305 23.7154 49.7604 23.9655 49.7137 24.2295C49.6936 24.1878 49.6669 24.1357 49.6336 24.0732C49.6069 24.0106 49.5735 23.9099 49.5334 23.771C49.4133 23.3333 49.3466 22.8921 49.3332 22.4475C49.3265 21.9959 49.3265 21.5339 49.3332 21.0615C49.3399 20.7627 49.3399 20.464 49.3332 20.1653C49.3332 19.8665 49.2865 19.5504 49.193 19.217C49.1864 19.1892 49.1864 19.1683 49.193 19.1544C49.2064 19.1544 49.2264 19.1753 49.2531 19.217C49.3733 19.349 49.4634 19.5435 49.5234 19.8005C49.5835 20.0506 49.6269 20.3181 49.6536 20.603C49.6803 20.8809 49.6936 21.1553 49.6936 21.4262C49.7003 21.6902 49.7036 21.9021 49.7036 22.0619V22.1661ZM47.0705 21.2595C47.184 20.8982 47.3108 20.5335 47.451 20.1653C47.5978 19.7971 47.7246 19.4671 47.8314 19.1753C47.8448 19.1405 47.8581 19.1058 47.8715 19.0711C47.8915 19.0363 47.9082 19.0224 47.9215 19.0294C47.9349 19.0294 47.9382 19.0537 47.9315 19.1023C47.9315 19.144 47.9315 19.1822 47.9315 19.217C47.8715 19.7866 47.7513 20.3529 47.5711 20.9156C47.3909 21.4783 47.1907 22.0341 46.9704 22.583C46.8369 22.9303 46.6934 23.2812 46.5399 23.6355C46.3864 23.9829 46.2596 24.3615 46.1595 24.7714C46.1461 24.8061 46.1394 24.827 46.1394 24.8339C46.1461 24.8409 46.1461 24.8443 46.1394 24.8443C46.1194 24.8304 46.1094 24.7992 46.1094 24.7505C46.076 24.5421 46.096 24.2816 46.1695 23.969C46.2429 23.6494 46.3363 23.3229 46.4498 22.9894C46.5633 22.649 46.6801 22.3259 46.8002 22.0202C46.9204 21.7076 47.0105 21.454 47.0705 21.2595ZM46.64 23.7397C46.8069 23.3437 46.9871 22.9373 47.1807 22.5204C47.3742 22.0966 47.5611 21.6937 47.7413 21.3116C47.748 21.2908 47.7647 21.2525 47.7914 21.197C47.8248 21.1414 47.8548 21.1171 47.8815 21.124C47.8948 21.124 47.8982 21.1553 47.8915 21.2178C47.8848 21.2803 47.8748 21.3255 47.8615 21.3533C47.8414 21.4505 47.8147 21.5686 47.7814 21.7076C47.748 21.8396 47.7079 21.9785 47.6612 22.1244C47.6212 22.2634 47.5778 22.4023 47.5311 22.5413C47.4844 22.6733 47.441 22.7844 47.4009 22.8748C47.3809 22.9164 47.3442 23.0068 47.2908 23.1457C47.2441 23.2777 47.184 23.4375 47.1106 23.6251C47.0438 23.8126 46.9704 24.0141 46.8903 24.2295C46.8169 24.4379 46.7468 24.6394 46.6801 24.8339C46.6133 25.0215 46.5533 25.1917 46.4999 25.3445C46.4531 25.4904 46.4264 25.5946 46.4198 25.6572C46.4064 25.7266 46.3931 25.7614 46.3797 25.7614C46.3664 25.7614 46.3564 25.7475 46.3497 25.7197C46.3497 25.6919 46.3463 25.6711 46.3397 25.6572C46.3063 25.5738 46.2896 25.4522 46.2896 25.2924C46.2963 25.1326 46.3163 24.9624 46.3497 24.7818C46.3831 24.6012 46.4231 24.4171 46.4698 24.2295C46.5232 24.0419 46.5799 23.8786 46.64 23.7397ZM52.6071 22.8435C52.5737 23.1561 52.5203 23.4688 52.4469 23.7814C52.3801 24.094 52.3201 24.3719 52.2667 24.6151C52.24 24.7054 52.2199 24.7471 52.2066 24.7401C52.1933 24.7401 52.1832 24.7262 52.1766 24.6984C52.1766 24.6637 52.1732 24.629 52.1666 24.5942C52.1132 24.1288 52.1198 23.6633 52.1866 23.1978C52.2533 22.7323 52.3267 22.2564 52.4068 21.7701C52.4602 21.4783 52.5036 21.1796 52.537 20.8739C52.5704 20.5613 52.5704 20.2278 52.537 19.8735C52.537 19.8457 52.5437 19.8249 52.557 19.811C52.5704 19.811 52.577 19.8214 52.577 19.8422C52.5837 19.8561 52.5937 19.8665 52.6071 19.8735C52.7072 20.0263 52.7639 20.2382 52.7773 20.5092C52.7973 20.7732 52.7973 21.0511 52.7773 21.3429C52.7573 21.6346 52.7272 21.916 52.6872 22.187C52.6538 22.4579 52.6271 22.6768 52.6071 22.8435ZM48.0717 18.8626C48.0584 18.7167 48.0383 18.5813 48.0116 18.4562C47.9916 18.3312 47.9649 18.2026 47.9315 18.0706C47.9249 18.0567 47.9215 18.0394 47.9215 18.0185C47.9215 17.9977 47.9249 17.9873 47.9315 17.9873C47.9516 17.9873 47.9716 17.9977 47.9916 18.0185L48.0317 18.0602C48.1051 18.1644 48.1652 18.2686 48.2119 18.3729C48.2586 18.4701 48.2886 18.6334 48.302 18.8626C48.3087 18.953 48.3087 19.0641 48.302 19.1961C48.2953 19.3281 48.282 19.4532 48.2619 19.5713C48.2486 19.6894 48.2286 19.7901 48.2019 19.8735C48.1818 19.9569 48.1618 19.9951 48.1418 19.9881C48.1284 19.9881 48.1184 19.9708 48.1118 19.936C48.1051 19.8943 48.0984 19.8492 48.0917 19.8005C48.0917 19.7519 48.0917 19.7033 48.0917 19.6546C48.0917 19.5991 48.0917 19.5609 48.0917 19.54C48.0917 19.4219 48.0917 19.3107 48.0917 19.2065C48.0917 19.0954 48.0851 18.9807 48.0717 18.8626ZM51.736 18.7272C51.7294 18.6021 51.716 18.484 51.696 18.3729C51.6826 18.2617 51.6593 18.1471 51.6259 18.029C51.6192 18.0151 51.6126 17.9977 51.6059 17.9769C51.6059 17.956 51.6126 17.9491 51.6259 17.956C51.6393 17.9699 51.6493 17.9803 51.6559 17.9873C51.6693 17.9942 51.6826 18.0012 51.696 18.0081L51.716 18.029C51.7894 18.1262 51.8462 18.22 51.8862 18.3103C51.9329 18.4006 51.9596 18.55 51.9663 18.7584C51.9663 18.8349 51.9563 18.9321 51.9363 19.0502C51.9229 19.1683 51.9029 19.283 51.8762 19.3941C51.8562 19.4983 51.8295 19.5886 51.7961 19.6651C51.7694 19.7345 51.7427 19.7623 51.716 19.7484C51.7027 19.7415 51.696 19.7206 51.696 19.6859C51.696 19.6442 51.696 19.6025 51.696 19.5609C51.696 19.5122 51.6993 19.4671 51.706 19.4254C51.7127 19.3837 51.716 19.3524 51.716 19.3316C51.7294 19.2204 51.736 19.1162 51.736 19.019C51.7427 18.9217 51.7427 18.8244 51.736 18.7272ZM52.0865 24.8964C52.1265 25.0145 52.1699 25.1222 52.2166 25.2195C52.27 25.3168 52.3234 25.414 52.3768 25.5113C52.3835 25.5182 52.3902 25.5321 52.3968 25.553C52.4035 25.5669 52.4002 25.5738 52.3868 25.5738C52.3668 25.5738 52.3501 25.5703 52.3368 25.5634C52.3301 25.5564 52.3201 25.5495 52.3067 25.5425C52.2934 25.5356 52.2834 25.5286 52.2767 25.5217C52.1832 25.4453 52.1065 25.3723 52.0464 25.3029C51.9863 25.2334 51.9263 25.1083 51.8662 24.9277C51.8462 24.8582 51.8262 24.7714 51.8061 24.6672C51.7861 24.563 51.7728 24.4622 51.7661 24.365C51.7594 24.2677 51.7594 24.1843 51.7661 24.1149C51.7728 24.0454 51.7894 24.0106 51.8161 24.0106C51.8228 24.0106 51.8328 24.028 51.8462 24.0628C51.8595 24.0905 51.8695 24.1253 51.8762 24.167C51.8896 24.2017 51.8996 24.2399 51.9062 24.2816C51.9196 24.3163 51.9296 24.3406 51.9363 24.3545C51.9697 24.4518 51.9964 24.5456 52.0164 24.6359C52.0364 24.7262 52.0598 24.8131 52.0865 24.8964ZM56.5646 22.0098C56.5646 22.3572 56.5179 22.7219 56.4245 23.104C56.3377 23.4792 56.2209 23.8509 56.0741 24.2191C55.9272 24.5873 55.757 24.9381 55.5635 25.2716C55.3766 25.5981 55.183 25.8795 54.9828 26.1157C54.9094 26.1991 54.866 26.2373 54.8526 26.2303C54.8393 26.2234 54.8459 26.1713 54.8726 26.074C54.9127 25.9629 54.9627 25.8378 55.0228 25.6989C55.0896 25.5599 55.153 25.4244 55.213 25.2924C55.2798 25.1535 55.3432 25.0215 55.4033 24.8964C55.47 24.7714 55.5234 24.6672 55.5635 24.5838C55.6102 24.4796 55.6636 24.3441 55.7236 24.1774C55.7837 24.0037 55.8405 23.8126 55.8938 23.6042C55.9539 23.3958 56.0107 23.177 56.064 22.9477C56.1174 22.7184 56.1642 22.4996 56.2042 22.2912C56.2443 22.0758 56.2743 21.8813 56.2943 21.7076C56.321 21.527 56.331 21.3811 56.3244 21.2699C56.3177 21.1449 56.3177 21.065 56.3244 21.0302C56.3377 20.9885 56.3511 20.9746 56.3644 20.9885C56.3778 20.9955 56.3911 21.0163 56.4045 21.0511C56.4245 21.0858 56.4412 21.1171 56.4545 21.1449C56.5012 21.2838 56.5313 21.4401 56.5446 21.6138C56.558 21.7875 56.5646 21.9195 56.5646 22.0098ZM54.5923 24.886C54.5456 24.9416 54.4822 24.9937 54.4021 25.0423C54.322 25.091 54.2452 25.1153 54.1718 25.1153C54.0116 25.1153 53.8781 25.0666 53.7713 24.9694C53.6712 24.8721 53.5911 24.754 53.5311 24.6151C53.471 24.4692 53.4276 24.3163 53.4009 24.1565C53.3809 23.9968 53.3709 23.8543 53.3709 23.7293C53.3709 23.5417 53.3876 23.3263 53.4209 23.0832C53.461 22.8331 53.5177 22.5864 53.5911 22.3433C53.6712 22.0932 53.7647 21.8604 53.8715 21.6451C53.9849 21.4228 54.1184 21.2456 54.2719 21.1136C54.312 21.0858 54.3487 21.0615 54.3821 21.0406C54.4154 21.0129 54.4054 21.0476 54.352 21.1449C54.312 21.2213 54.2719 21.2873 54.2319 21.3429C54.1985 21.3984 54.1718 21.461 54.1518 21.5304C54.045 21.7319 53.9582 21.9438 53.8915 22.1661C53.8314 22.3884 53.7814 22.6142 53.7413 22.8435C53.6812 23.1492 53.6512 23.4549 53.6512 23.7605C53.6512 23.8717 53.6545 23.9933 53.6612 24.1253C53.6746 24.2573 53.7013 24.3823 53.7413 24.5004C53.7814 24.6185 53.8414 24.7193 53.9215 24.8026C54.0083 24.8791 54.1251 24.9173 54.2719 24.9173C54.312 24.9173 54.3587 24.9069 54.4121 24.886C54.4655 24.8652 54.5089 24.8443 54.5422 24.8235C54.5956 24.8026 54.6223 24.7992 54.6223 24.8131C54.6223 24.827 54.6123 24.8513 54.5923 24.886ZM56.8249 22.187C56.8516 22.2912 56.865 22.4128 56.865 22.5517C56.865 22.8365 56.8249 23.1526 56.7449 23.5C56.6648 23.8404 56.558 24.1948 56.4245 24.563C56.2977 24.9312 56.1441 25.3029 55.9639 25.678C55.7904 26.0532 55.6068 26.4144 55.4133 26.7618C55.2264 27.1092 55.0328 27.4322 54.8326 27.731C54.6324 28.0366 54.4421 28.3006 54.2619 28.523C54.2552 28.5299 54.2419 28.5438 54.2219 28.5646C54.2085 28.5855 54.1918 28.6029 54.1718 28.6168C54.1585 28.6376 54.1451 28.6515 54.1318 28.6584C54.1184 28.6654 54.1117 28.655 54.1117 28.6272C54.1117 28.6133 54.1518 28.5195 54.2319 28.3458C54.3187 28.1791 54.4254 27.9672 54.5523 27.7101C54.6791 27.46 54.8159 27.1856 54.9627 26.8869C55.1163 26.5951 55.2631 26.3137 55.4033 26.0428C55.5434 25.7718 55.6636 25.5321 55.7637 25.3237C55.8705 25.1153 55.9406 24.9729 55.9739 24.8964C56.1675 24.4518 56.331 24.0072 56.4645 23.5625C56.6047 23.111 56.7015 22.6455 56.7549 22.1661C56.7615 22.1105 56.7649 22.0828 56.7649 22.0828C56.7716 22.0758 56.7916 22.1105 56.8249 22.187ZM56.1742 21.4158C56.1742 21.8049 56.1208 22.2009 56.014 22.6038C55.9139 22.9998 55.7871 23.3923 55.6335 23.7814C55.48 24.1704 55.3098 24.5491 55.1229 24.9173C54.9427 25.2785 54.7692 25.6155 54.6023 25.9281C54.302 26.5117 54.0483 27.1022 53.8414 27.6997C53.6345 28.3041 53.491 28.9329 53.4109 29.5859C53.3976 29.6623 53.3876 29.6936 53.3809 29.6797C53.3742 29.6797 53.3642 29.6589 53.3508 29.6172C53.3442 29.5824 53.3375 29.5408 53.3308 29.4921C53.3241 29.4504 53.3175 29.4053 53.3108 29.3566C53.3108 29.308 53.3108 29.2663 53.3108 29.2316C53.3108 28.919 53.3442 28.6029 53.4109 28.2833C53.4777 27.9637 53.5644 27.6511 53.6712 27.3454C53.778 27.0397 53.8948 26.741 54.0216 26.4492C54.1551 26.1574 54.2886 25.883 54.4221 25.6259H54.1518C53.9516 25.6259 53.778 25.5773 53.6312 25.48C53.4843 25.3828 53.3642 25.2542 53.2707 25.0944C53.1773 24.9346 53.1039 24.7471 53.0505 24.5317C53.0038 24.3163 52.9804 24.0905 52.9804 23.8543C52.9804 23.764 52.9904 23.639 53.0104 23.4792C53.0305 23.3124 53.0605 23.1422 53.1005 22.9685C53.1406 22.7879 53.1907 22.6142 53.2507 22.4475C53.3108 22.2738 53.3775 22.1349 53.451 22.0306C53.5044 21.9542 53.5344 21.923 53.5411 21.9369C53.5477 21.9508 53.5411 21.9959 53.521 22.0723C53.4343 22.3363 53.3642 22.6108 53.3108 22.8956C53.2641 23.1804 53.2407 23.4618 53.2407 23.7397C53.2407 23.8995 53.2507 24.0732 53.2707 24.2608C53.2908 24.4483 53.3308 24.622 53.3909 24.7818C53.4576 24.9346 53.5511 25.0632 53.6712 25.1674C53.7914 25.2716 53.9549 25.3237 54.1618 25.3237C54.3086 25.3237 54.4421 25.2716 54.5623 25.1674C54.6824 25.0632 54.7892 24.9346 54.8827 24.7818C54.9828 24.629 55.0695 24.4622 55.143 24.2816C55.2231 24.101 55.2931 23.9342 55.3532 23.7814C55.2865 23.8786 55.2064 23.9759 55.1129 24.0732C55.0262 24.1635 54.9327 24.2469 54.8326 24.3233C54.7325 24.3997 54.6324 24.4622 54.5322 24.5109C54.4321 24.5595 54.3353 24.5838 54.2419 24.5838C54.1485 24.5838 54.075 24.5525 54.0216 24.49C53.9682 24.4275 53.9249 24.3511 53.8915 24.2608C53.8648 24.1635 53.8481 24.0662 53.8414 23.969C53.8347 23.8717 53.8314 23.7849 53.8314 23.7084C53.8314 23.4583 53.8448 23.2082 53.8715 22.9581C53.9048 22.7011 53.9549 22.451 54.0216 22.2078C54.0884 21.9577 54.1751 21.7215 54.2819 21.4992C54.3954 21.2699 54.5322 21.0615 54.6924 20.8739C54.7058 20.8531 54.7225 20.8357 54.7425 20.8218C54.7625 20.801 54.7792 20.7871 54.7925 20.7801C54.8126 20.7732 54.8226 20.7766 54.8226 20.7905C54.8226 20.7975 54.8092 20.8253 54.7825 20.8739C54.589 21.2491 54.4288 21.6659 54.302 22.1244C54.1818 22.583 54.1218 23.0276 54.1218 23.4583C54.1218 23.5 54.1218 23.5695 54.1218 23.6668C54.1284 23.7571 54.1384 23.8509 54.1518 23.9481C54.1718 24.0454 54.1985 24.1322 54.2319 24.2086C54.2719 24.2781 54.322 24.3129 54.3821 24.3129C54.4021 24.3129 54.4288 24.3024 54.4622 24.2816C54.7425 24.1357 54.9794 23.9342 55.173 23.6772C55.3666 23.4201 55.5267 23.1353 55.6536 22.8226C55.7804 22.5031 55.8705 22.1765 55.9239 21.8431C55.984 21.5026 56.0173 21.1796 56.024 20.8739C56.024 20.7627 56.0307 20.7037 56.044 20.6968C56.0574 20.6898 56.0807 20.7489 56.1141 20.8739C56.1542 21.0754 56.1742 21.256 56.1742 21.4158ZM54.2619 27.5851C54.2619 27.6337 54.2452 27.7136 54.2119 27.8248C54.1852 27.9359 54.1518 28.054 54.1117 28.1791C54.0717 28.3041 54.0316 28.4257 53.9916 28.5438C53.9516 28.6619 53.9215 28.7522 53.9015 28.8148C53.8481 28.9676 53.808 29.117 53.7814 29.2629C53.7547 29.4157 53.7246 29.572 53.6912 29.7318C53.6912 29.7457 53.6879 29.7665 53.6812 29.7943C53.6746 29.8221 53.6612 29.836 53.6412 29.836C53.6278 29.836 53.6178 29.8186 53.6111 29.7839C53.6045 29.7492 53.6011 29.7249 53.6011 29.711C53.5878 29.6554 53.5778 29.579 53.5711 29.4817C53.5711 29.3844 53.5744 29.308 53.5811 29.2524C53.6011 29.0788 53.6378 28.8912 53.6912 28.6897C53.7446 28.4952 53.8014 28.3111 53.8614 28.1374C53.9282 27.9706 53.9949 27.8317 54.0617 27.7205C54.1284 27.6094 54.1852 27.5538 54.2319 27.5538C54.2519 27.5538 54.2619 27.5642 54.2619 27.5851ZM57.4421 25.7926C57.3954 25.8413 57.3654 25.8621 57.352 25.8552C57.3387 25.8482 57.3387 25.8309 57.352 25.8031C57.3654 25.7822 57.3754 25.7649 57.3821 25.751C57.4355 25.6884 57.4755 25.6433 57.5022 25.6155C57.5356 25.5808 57.5723 25.546 57.6124 25.5113C57.4522 25.289 57.3354 25.0528 57.2619 24.8026C57.1885 24.5456 57.1451 24.2816 57.1318 24.0106C57.1184 23.7397 57.1284 23.4653 57.1618 23.1874C57.2019 22.9095 57.2519 22.6385 57.312 22.3745C57.4321 21.8535 57.569 21.3463 57.7225 20.8531C57.8827 20.3529 58.0162 19.8735 58.123 19.415C57.9094 19.4566 57.7158 19.5122 57.5423 19.5817C57.3754 19.6512 57.2653 19.7276 57.2119 19.811C57.1919 19.8457 57.1718 19.8596 57.1518 19.8526C57.1385 19.8457 57.1451 19.8144 57.1718 19.7589C57.2252 19.6407 57.322 19.5365 57.4622 19.4462C57.6023 19.349 57.7625 19.2691 57.9427 19.2065C58.123 19.144 58.3165 19.0954 58.5234 19.0606C58.737 19.0259 58.9406 19.012 59.1342 19.019C59.568 19.0329 59.9284 19.1197 60.2154 19.2795C60.5091 19.4393 60.6593 19.6755 60.666 19.9881C60.666 20.1826 60.5992 20.3772 60.4657 20.5717C60.3389 20.7662 60.1821 20.9503 59.9952 21.124C59.815 21.2908 59.6214 21.4436 59.4145 21.5825C59.2076 21.7145 59.0307 21.8188 58.8839 21.8952L58.8438 22.0411C58.9439 21.9508 59.0774 21.8778 59.2443 21.8222C59.4111 21.7666 59.5847 21.7389 59.7649 21.7389C59.9518 21.7389 60.132 21.7736 60.3055 21.8431C60.4857 21.9056 60.6426 22.0098 60.7761 22.1557C60.9563 22.3641 61.0698 22.6038 61.1165 22.8748C61.1699 23.1388 61.1565 23.3993 61.0764 23.6563C61.003 23.9134 60.8795 24.1253 60.706 24.292C60.5325 24.4518 60.3556 24.5734 60.1754 24.6568C60.1554 24.6706 60.1186 24.688 60.0653 24.7089C60.0119 24.7228 59.9785 24.7193 59.9651 24.6984C59.9585 24.6845 59.9751 24.6602 60.0152 24.6255C60.0552 24.5838 60.0853 24.556 60.1053 24.5421C60.2855 24.4171 60.439 24.2469 60.5658 24.0315C60.6927 23.8161 60.7694 23.5938 60.7961 23.3645C60.8295 23.1283 60.8061 22.9025 60.726 22.6872C60.6459 22.4718 60.4891 22.3051 60.2555 22.187C60.162 22.1383 60.0386 22.1036 59.885 22.0828C59.7315 22.055 59.578 22.048 59.4245 22.0619C59.271 22.0689 59.1275 22.1036 58.994 22.1661C58.8672 22.2286 58.7771 22.3259 58.7237 22.4579C58.8438 22.3815 58.9806 22.3224 59.1342 22.2808C59.2877 22.2391 59.4412 22.2217 59.5947 22.2286C59.7549 22.2286 59.9051 22.2599 60.0452 22.3224C60.1854 22.378 60.3022 22.4649 60.3956 22.583C60.5091 22.7289 60.5725 22.8817 60.5859 23.0415C60.6059 23.2013 60.5892 23.3576 60.5358 23.5104C60.4891 23.6633 60.409 23.8057 60.2955 23.9377C60.1887 24.0697 60.0653 24.1809 59.9251 24.2712C59.7382 24.3893 59.5313 24.5074 59.3044 24.6255C59.0774 24.7366 58.8505 24.8548 58.6235 24.9798C58.3966 25.0979 58.1797 25.2264 57.9728 25.3654C57.7659 25.4974 57.589 25.6398 57.4421 25.7926ZM58.6436 22.8122C58.5234 23.1249 58.4233 23.441 58.3432 23.7605C58.2698 24.0732 58.1864 24.3615 58.0929 24.6255C58.0595 24.7158 58.0362 24.7575 58.0228 24.7505C58.0028 24.7436 57.9928 24.7262 57.9928 24.6984C57.9928 24.6637 57.9928 24.629 57.9928 24.5942C58.0128 24.0662 58.0862 23.5452 58.2131 23.0311C58.3399 22.51 58.4767 21.9855 58.6235 21.4575C58.717 21.131 58.8038 20.7975 58.8839 20.4571C58.9706 20.1097 59.0207 19.738 59.034 19.342H58.8638C58.8705 19.5296 58.8638 19.7172 58.8438 19.9047C58.8305 20.0854 58.8071 20.2417 58.7737 20.3737C58.6803 20.7489 58.5668 21.1379 58.4333 21.5409C58.2998 21.9438 58.1597 22.3259 58.0128 22.6872C58.0062 22.7011 57.9895 22.7358 57.9628 22.7914C57.9427 22.84 57.9227 22.8609 57.9027 22.8539C57.8893 22.847 57.8793 22.8157 57.8727 22.7601C57.8727 22.7045 57.876 22.6663 57.8827 22.6455C57.8893 22.5621 57.9027 22.4579 57.9227 22.3329C57.9494 22.2078 57.9728 22.0793 57.9928 21.9473C58.0195 21.8153 58.0462 21.6867 58.0729 21.5617C58.1063 21.4366 58.1363 21.329 58.163 21.2386C58.1697 21.2039 58.1864 21.124 58.2131 20.999C58.2464 20.8739 58.2798 20.7245 58.3132 20.5509C58.3466 20.3702 58.3799 20.1792 58.4133 19.9777C58.4533 19.7693 58.4867 19.5678 58.5134 19.3733C58.46 19.3733 58.42 19.3767 58.3933 19.3837C58.3599 19.6407 58.3098 19.9013 58.2431 20.1653C58.183 20.4293 58.1129 20.6968 58.0328 20.9677C57.9528 21.2386 57.8727 21.5096 57.7926 21.7805C57.7125 22.0445 57.6424 22.312 57.5823 22.583C57.5289 22.8122 57.4889 23.0519 57.4622 23.302C57.4355 23.5521 57.4221 23.8022 57.4221 24.0523C57.4221 24.2955 57.4421 24.5352 57.4822 24.7714C57.5222 25.0076 57.5857 25.2334 57.6724 25.4488L57.7625 25.355C57.7425 25.3063 57.7225 25.2473 57.7025 25.1778C57.6824 25.1083 57.6657 25.025 57.6524 24.9277C57.639 24.8513 57.629 24.754 57.6224 24.6359C57.6224 24.5178 57.6257 24.4032 57.6324 24.292C57.639 24.1809 57.6491 24.0871 57.6624 24.0106C57.6758 23.9342 57.6958 23.896 57.7225 23.896C57.7292 23.896 57.7358 23.9134 57.7425 23.9481C57.7559 23.9829 57.7659 24.0245 57.7725 24.0732C57.7792 24.1218 57.7859 24.167 57.7926 24.2086C57.7992 24.2503 57.8026 24.2816 57.8026 24.3024C57.8092 24.365 57.8159 24.4344 57.8226 24.5109C57.8293 24.5873 57.8359 24.6672 57.8426 24.7505C57.856 24.8339 57.866 24.9173 57.8727 25.0006C57.886 25.0771 57.9027 25.1431 57.9227 25.1986C58.0762 25.0528 58.2398 24.9242 58.4133 24.8131C58.5868 24.695 58.757 24.5873 58.9239 24.49C59.0974 24.3928 59.2643 24.299 59.4245 24.2086C59.5847 24.1183 59.7248 24.028 59.845 23.9377C60.0519 23.7918 60.1854 23.6077 60.2455 23.3854C60.3055 23.1561 60.2688 22.9512 60.1353 22.7705C60.0486 22.6524 59.9284 22.5691 59.7749 22.5204C59.6281 22.4718 59.4746 22.4544 59.3144 22.4683C59.1608 22.4753 59.0207 22.51 58.8939 22.5725C58.767 22.6351 58.6836 22.715 58.6436 22.8122ZM60.2355 21.2178C60.2488 21.2248 60.2321 21.263 60.1854 21.3324C60.1453 21.395 60.1186 21.4401 60.1053 21.4679C60.3322 21.4332 60.5325 21.3498 60.706 21.2178C60.8862 21.0858 61.0297 20.9295 61.1365 20.7489C61.2433 20.5613 61.3101 20.3598 61.3368 20.1444C61.3635 19.9221 61.3434 19.6998 61.2767 19.4775C61.2099 19.2552 61.0998 19.0676 60.9463 18.9147C60.7928 18.7619 60.6159 18.6369 60.4157 18.5396C60.2154 18.4423 59.9985 18.3729 59.7649 18.3312C59.5313 18.2895 59.2977 18.2721 59.0641 18.2791C58.8305 18.2791 58.6069 18.2999 58.3933 18.3416C58.1797 18.3833 57.9928 18.4423 57.8326 18.5187C57.7992 18.5326 57.7792 18.5396 57.7725 18.5396C57.7725 18.5396 57.7692 18.5361 57.7625 18.5292C57.7559 18.5083 57.7725 18.484 57.8126 18.4562C57.9795 18.3034 58.1897 18.1887 58.4433 18.1123C58.7036 18.0359 58.974 17.9977 59.2543 17.9977C59.5413 17.9977 59.8283 18.0394 60.1153 18.1227C60.4023 18.1992 60.6593 18.3207 60.8862 18.4875C61.1198 18.6473 61.3101 18.8557 61.4569 19.1127C61.6104 19.3629 61.6938 19.6581 61.7072 19.9985C61.7139 20.207 61.6872 20.398 61.6271 20.5717C61.567 20.7384 61.4869 20.8878 61.3868 21.0198C61.2867 21.1518 61.1699 21.2664 61.0364 21.3637C60.9096 21.454 60.7761 21.5304 60.6359 21.593C60.8562 21.6972 61.0464 21.8604 61.2066 22.0828C61.3668 22.2981 61.4803 22.5135 61.547 22.7289C61.6271 23.0137 61.6438 23.2846 61.5971 23.5417C61.557 23.7988 61.4836 24.0315 61.3768 24.2399C61.2767 24.4483 61.1599 24.629 61.0264 24.7818C60.8996 24.9277 60.7894 25.0319 60.696 25.0944C60.5024 25.2264 60.3055 25.3306 60.1053 25.4071C59.9051 25.4765 59.7082 25.5321 59.5146 25.5738C59.321 25.6085 59.1341 25.6329 58.9539 25.6468C58.7804 25.6606 58.6235 25.6711 58.4834 25.678C58.3766 25.6919 58.3232 25.6884 58.3232 25.6676C58.3165 25.6537 58.3332 25.6398 58.3733 25.6259C58.42 25.619 58.46 25.612 58.4934 25.6051C58.7537 25.5564 59.0107 25.4904 59.2643 25.4071C59.5179 25.3237 59.7749 25.2125 60.0352 25.0736C60.162 25.0041 60.2922 24.9242 60.4257 24.8339C60.5658 24.7366 60.6927 24.6255 60.8061 24.5004C60.9263 24.3684 61.0264 24.2225 61.1065 24.0628C61.1933 23.903 61.25 23.7258 61.2767 23.5313C61.3101 23.2881 61.3034 23.0484 61.2567 22.8122C61.2166 22.5691 61.1065 22.3363 60.9263 22.114C60.7527 21.8986 60.5692 21.7527 60.3756 21.6763C60.1887 21.5999 59.9852 21.5686 59.7649 21.5825C59.7115 21.5825 59.6848 21.5791 59.6848 21.5721C59.6848 21.5582 59.7215 21.5339 59.7949 21.4992C59.8684 21.4644 59.9151 21.4401 59.9351 21.4262C59.9952 21.3845 60.0586 21.3359 60.1253 21.2803C60.1921 21.2248 60.2288 21.2039 60.2355 21.2178ZM60.3556 20.0298C60.3556 19.8075 60.2421 19.6477 60.0152 19.5504C59.7883 19.4462 59.4746 19.3767 59.0741 19.342C59.1208 19.5574 59.1508 19.7554 59.1642 19.936C59.1775 20.1166 59.1742 20.2973 59.1542 20.4779C59.1408 20.6516 59.1108 20.8357 59.0641 21.0302C59.024 21.2178 58.9773 21.4262 58.9239 21.6555C59.0641 21.586 59.2176 21.4818 59.3844 21.3429C59.5513 21.197 59.7048 21.0476 59.845 20.8948C59.9918 20.735 60.112 20.5786 60.2054 20.4258C60.3055 20.266 60.3556 20.134 60.3556 20.0298ZM58.974 18.4354C59.2009 18.4215 59.4579 18.4493 59.7449 18.5187C60.0386 18.5813 60.3022 18.6855 60.5358 18.8314C60.6559 18.9078 60.7561 19.0016 60.8362 19.1127C60.9163 19.2239 60.9763 19.342 61.0164 19.4671C61.0631 19.5852 61.0898 19.7067 61.0965 19.8318C61.1031 19.9569 61.0898 20.0715 61.0564 20.1757C61.0497 20.1896 61.0431 20.2104 61.0364 20.2382C61.0297 20.2591 61.0197 20.2834 61.0064 20.3112C60.993 20.332 60.9797 20.3529 60.9663 20.3737C60.953 20.3876 60.9396 20.3911 60.9263 20.3841C60.9062 20.3841 60.8962 20.3598 60.8962 20.3112C60.9029 20.2625 60.9129 20.2104 60.9263 20.1549C60.9596 19.9603 60.943 19.7901 60.8762 19.6442C60.8161 19.4983 60.7227 19.3767 60.5959 19.2795C60.4691 19.1753 60.3222 19.0919 60.1554 19.0294C59.9885 18.9669 59.815 18.9182 59.6347 18.8835C59.4612 18.8487 59.291 18.8314 59.1241 18.8314C58.9573 18.8244 58.8138 18.8279 58.6936 18.8418C58.5268 18.8626 58.3599 18.8974 58.193 18.946C58.0328 18.9877 57.8827 19.0363 57.7425 19.0919C57.6023 19.1475 57.4822 19.2065 57.3821 19.2691C57.282 19.3316 57.2119 19.3906 57.1718 19.4462C57.1318 19.5018 57.1084 19.5192 57.1017 19.4983C57.1017 19.4775 57.1084 19.4462 57.1218 19.4045C57.1685 19.2656 57.2553 19.1405 57.3821 19.0294C57.5089 18.9113 57.6557 18.8105 57.8226 18.7272C57.9895 18.6438 58.173 18.5778 58.3733 18.5292C58.5735 18.4805 58.7737 18.4493 58.974 18.4354ZM58.4834 25.4592C58.2631 25.5495 58.0862 25.6294 57.9528 25.6989C57.8259 25.7683 57.6991 25.8586 57.5723 25.9698C57.559 25.9768 57.5456 25.9906 57.5323 26.0115C57.5189 26.0323 57.5056 26.0393 57.4922 26.0323C57.4789 26.0254 57.4789 26.0045 57.4922 25.9698C57.5056 25.942 57.5189 25.9212 57.5323 25.9073C57.599 25.81 57.6858 25.7162 57.7926 25.6259C57.8994 25.5286 58.0495 25.4383 58.2431 25.355C58.3098 25.3272 58.3833 25.2994 58.4634 25.2716C58.5501 25.2369 58.6302 25.2091 58.7036 25.1882C58.7837 25.1674 58.8471 25.1535 58.8939 25.1465C58.9473 25.1396 58.9806 25.1465 58.994 25.1674C59.0007 25.1813 58.9806 25.2021 58.9339 25.2299C58.8872 25.2577 58.8338 25.289 58.7737 25.3237C58.7137 25.3515 58.6536 25.3793 58.5935 25.4071C58.5401 25.4349 58.5034 25.4522 58.4834 25.4592ZM64.9296 21.3741C64.983 21.4436 65.0231 21.5304 65.0498 21.6346C65.0831 21.7389 65.0965 21.8535 65.0898 21.9785C65.0831 22.0966 65.0564 22.2217 65.0097 22.3537C64.963 22.4857 64.8896 22.6142 64.7894 22.7393C64.5959 22.9755 64.3823 23.1596 64.1487 23.2916C63.9218 23.4166 63.7148 23.4792 63.528 23.4792C63.4145 23.4792 63.4145 23.4583 63.528 23.4166C63.588 23.3958 63.6581 23.3645 63.7382 23.3229C63.825 23.2742 63.9151 23.2186 64.0085 23.1561C64.102 23.0866 64.1954 23.0068 64.2889 22.9164C64.389 22.8261 64.4791 22.7219 64.5592 22.6038C64.6927 22.4093 64.7694 22.2217 64.7894 22.0411C64.8161 21.8535 64.7828 21.7111 64.6893 21.6138C64.6092 21.5304 64.5158 21.4853 64.409 21.4783C64.3022 21.4644 64.142 21.5235 63.9284 21.6555C63.7349 21.7736 63.5613 21.9195 63.4078 22.0932C63.2543 22.2669 63.1108 22.451 62.9773 22.6455C62.9039 22.7428 62.8538 22.7914 62.8271 22.7914C62.8071 22.7914 62.8171 22.7289 62.8572 22.6038C62.9373 22.3606 63.0474 22.1349 63.1876 21.9264C63.3344 21.718 63.5079 21.5409 63.7082 21.395C63.855 21.2908 63.9885 21.2178 64.1086 21.1761C64.2355 21.1344 64.3489 21.1171 64.449 21.124C64.5558 21.131 64.6493 21.1588 64.7294 21.2074C64.8095 21.2491 64.8762 21.3046 64.9296 21.3741ZM65.4703 22.1036C65.4436 22.2703 65.4002 22.4128 65.3401 22.5309C65.2867 22.642 65.2233 22.7393 65.1499 22.8226C65.0831 22.8991 65.013 22.9616 64.9396 23.0102C64.8729 23.0589 64.8128 23.104 64.7594 23.1457C64.7327 23.1665 64.7127 23.17 64.6993 23.1561C64.686 23.1422 64.696 23.1179 64.7294 23.0832C64.8495 22.979 64.9697 22.84 65.0898 22.6663C65.2166 22.4857 65.2834 22.2877 65.29 22.0723C65.29 21.7041 65.2033 21.4227 65.0297 21.2282C64.8562 21.0337 64.6393 20.9503 64.379 20.9781C64.1187 20.999 63.8483 21.1032 63.568 21.2908C63.3878 21.4089 63.2276 21.5478 63.0874 21.7076C62.9539 21.8604 62.8371 22.0272 62.737 22.2078C62.6369 22.3815 62.5535 22.5621 62.4867 22.7497C62.4267 22.9373 62.3833 23.1249 62.3566 23.3124C62.3299 23.4931 62.3032 23.6876 62.2765 23.896C62.2565 24.1044 62.2565 24.3094 62.2765 24.5109C62.3032 24.7123 62.3666 24.9069 62.4667 25.0944C62.5668 25.2751 62.7237 25.4314 62.9373 25.5634C62.9706 25.5842 63.004 25.5981 63.0374 25.6051C63.0774 25.612 63.0974 25.619 63.0974 25.6259C63.0974 25.6398 63.0808 25.6468 63.0474 25.6468C63.014 25.6537 62.9773 25.6502 62.9373 25.6363C62.7704 25.6016 62.6269 25.5321 62.5067 25.4279C62.3933 25.3168 62.2998 25.1917 62.2264 25.0528C62.153 24.9138 62.0963 24.7679 62.0562 24.6151C62.0162 24.4622 61.9928 24.3233 61.9861 24.1982C61.9461 23.6494 62.0195 23.1075 62.2064 22.5725C62.2464 22.4614 62.2965 22.3363 62.3566 22.1974C62.4233 22.0584 62.5034 21.9195 62.5969 21.7805C62.6903 21.6346 62.8004 21.4957 62.9272 21.3637C63.0541 21.2248 63.1976 21.1032 63.3578 20.999C63.5113 20.9017 63.6715 20.8288 63.8383 20.7801C64.0052 20.7315 64.1721 20.7106 64.3389 20.7176C64.5058 20.7176 64.6626 20.7489 64.8095 20.8114C64.9563 20.867 65.0865 20.9538 65.1999 21.0719C65.3001 21.1831 65.3768 21.3255 65.4302 21.4992C65.4903 21.6729 65.5036 21.8743 65.4703 22.1036ZM64.5592 21.7284C64.6393 21.8257 64.6493 21.9785 64.5892 22.187C64.5291 22.3884 64.389 22.5934 64.1687 22.8018C64.0486 22.9199 63.9318 23.0172 63.8183 23.0936C63.7048 23.1631 63.5613 23.2256 63.3878 23.2812C63.3144 23.5452 63.2676 23.8057 63.2476 24.0628C63.2276 24.3198 63.2343 24.5282 63.2676 24.688C63.2743 24.7505 63.2943 24.8131 63.3277 24.8756C63.3678 24.9312 63.4212 24.9763 63.4879 25.0111C63.5613 25.0389 63.6548 25.0493 63.7682 25.0423C63.8817 25.0354 64.0219 24.9972 64.1887 24.9277C64.2355 24.9069 64.2622 24.9034 64.2688 24.9173C64.2822 24.9242 64.2622 24.9451 64.2088 24.9798C64.0886 25.0771 63.9618 25.1465 63.8283 25.1882C63.6948 25.223 63.568 25.2334 63.4479 25.2195C63.3344 25.2056 63.2343 25.1639 63.1475 25.0944C63.0674 25.025 63.014 24.9312 62.9873 24.8131C62.9339 24.5699 62.9106 24.3163 62.9172 24.0523C62.9239 23.7883 62.9606 23.5278 63.0274 23.2708C63.1008 23.0137 63.2009 22.774 63.3277 22.5517C63.4612 22.3224 63.6247 22.1279 63.8183 21.9681C64.1787 21.6694 64.4257 21.5895 64.5592 21.7284ZM64.4591 25.0528C64.4123 25.1222 64.3523 25.1917 64.2788 25.2612C64.2121 25.3237 64.132 25.3828 64.0386 25.4383C63.9518 25.487 63.8583 25.5286 63.7582 25.5634C63.6648 25.5981 63.568 25.6155 63.4679 25.6155C63.2943 25.6155 63.1308 25.5773 62.9773 25.5009C62.8305 25.4175 62.717 25.2542 62.6369 25.0111C62.6236 24.9833 62.6169 24.959 62.6169 24.9381C62.6169 24.9103 62.6236 24.8964 62.6369 24.8964C62.6636 24.8825 62.6903 24.893 62.717 24.9277C62.7437 24.9555 62.7704 24.9868 62.7971 25.0215C62.8705 25.1118 62.964 25.1917 63.0774 25.2612C63.1976 25.3306 63.311 25.3654 63.4178 25.3654C63.6181 25.3654 63.7916 25.3341 63.9384 25.2716C64.0853 25.2091 64.2254 25.1257 64.3589 25.0215C64.3923 25.0006 64.429 24.9798 64.4691 24.959C64.5158 24.9381 64.5125 24.9694 64.4591 25.0528ZM64.3189 22.0098C64.2922 21.9542 64.1954 21.9994 64.0285 22.1453C63.875 22.2703 63.7516 22.4162 63.6581 22.583C63.5713 22.7428 63.4946 22.9199 63.4278 23.1144C63.5547 23.0519 63.6715 22.9824 63.7782 22.906C63.885 22.8226 63.9852 22.7428 64.0786 22.6663C64.1787 22.576 64.2521 22.4579 64.2989 22.312C64.3456 22.1661 64.3523 22.0654 64.3189 22.0098ZM66.539 21.7805C66.5457 21.718 66.5657 21.6451 66.5991 21.5617C66.6325 21.4714 66.6758 21.388 66.7292 21.3116C66.7893 21.2282 66.8594 21.1553 66.9395 21.0928C67.0196 21.0233 67.1097 20.9781 67.2098 20.9573C67.4234 20.9156 67.6003 20.9295 67.7404 20.999C67.8806 21.0684 67.9874 21.1483 68.0608 21.2386C68.0875 21.2803 68.0975 21.3046 68.0909 21.3116C68.0775 21.3255 68.0541 21.322 68.0208 21.3012C67.9807 21.2734 67.914 21.2491 67.8205 21.2282C67.7338 21.2074 67.637 21.2039 67.5302 21.2178C67.4301 21.2248 67.33 21.256 67.2298 21.3116C67.1364 21.3672 67.0596 21.4575 66.9996 21.5825C66.9462 21.7006 66.9095 21.8222 66.8894 21.9473C66.8694 22.0723 66.8561 22.1904 66.8494 22.3016C66.8494 22.4058 66.8527 22.4961 66.8594 22.5725C66.8661 22.649 66.8694 22.7011 66.8694 22.7289C66.8828 22.8053 66.8928 22.9025 66.8994 23.0206C66.9128 23.1318 66.9195 23.2464 66.9195 23.3645C66.9195 23.4826 66.9161 23.6008 66.9095 23.7189C66.9028 23.83 66.8894 23.9273 66.8694 24.0106C66.8627 24.0315 66.8527 24.0662 66.8394 24.1149C66.8327 24.1635 66.8227 24.1878 66.8093 24.1878C66.776 24.1878 66.7593 24.1635 66.7593 24.1149C66.7593 24.0662 66.7593 24.0315 66.7593 24.0106C66.7459 23.837 66.7226 23.6633 66.6892 23.4896C66.6558 23.309 66.6224 23.1249 66.5891 22.9373C66.5624 22.7497 66.5424 22.5621 66.529 22.3745C66.5157 22.18 66.519 21.982 66.539 21.7805ZM66.1886 23.8439C66.1953 23.705 66.1819 23.5104 66.1486 23.2603C66.1219 23.0033 66.1118 22.708 66.1185 22.3745C66.1252 22.2009 66.1419 22.0237 66.1686 21.8431C66.1953 21.6555 66.2587 21.4714 66.3588 21.2908C66.4656 21.0962 66.5991 20.9538 66.7593 20.8635C66.9261 20.7662 67.0696 20.7211 67.1898 20.728C67.2098 20.728 67.2298 20.728 67.2499 20.728C67.2699 20.728 67.2799 20.7315 67.2799 20.7384C67.2799 20.7523 67.2766 20.7593 67.2699 20.7593C67.2632 20.7523 67.2398 20.7558 67.1998 20.7697C67.0797 20.8044 66.9729 20.8635 66.8794 20.9469C66.786 21.0233 66.7059 21.1136 66.6391 21.2178C66.5724 21.322 66.519 21.4297 66.4789 21.5409C66.4389 21.652 66.4155 21.7528 66.4089 21.8431C66.3688 22.2252 66.3722 22.5586 66.4189 22.8435C66.4522 23.0728 66.4789 23.3124 66.499 23.5625C66.519 23.8057 66.509 24.0315 66.4689 24.2399C66.4356 24.4414 66.3655 24.6116 66.2587 24.7505C66.1586 24.8825 66.0017 24.9555 65.7881 24.9694C65.7681 24.9694 65.7414 24.9694 65.708 24.9694C65.6813 24.9624 65.668 24.952 65.668 24.9381C65.668 24.9242 65.698 24.8999 65.7581 24.8652C65.9316 24.7818 66.0451 24.6602 66.0985 24.5004C66.1519 24.3406 66.1819 24.1218 66.1886 23.8439ZM65.1273 25.0736C65.2208 25.2264 65.3676 25.3411 65.5679 25.4175C65.7748 25.487 66.0184 25.48 66.2987 25.3966C66.4389 25.355 66.5624 25.282 66.6692 25.1778C66.776 25.0736 66.8627 24.959 66.9295 24.8339C67.0029 24.7019 67.0563 24.5664 67.0897 24.4275C67.1297 24.2885 67.1531 24.16 67.1597 24.0419C67.1664 23.8474 67.1597 23.6563 67.1397 23.4688C67.1264 23.2812 67.1064 23.1005 67.0797 22.9269C67.0596 22.7462 67.0396 22.5725 67.0196 22.4058C67.0062 22.2391 67.0062 22.0758 67.0196 21.916C67.0329 21.7423 67.0797 21.6103 67.1597 21.52C67.2398 21.4297 67.3366 21.3741 67.4501 21.3533C67.5702 21.3255 67.6937 21.3324 67.8205 21.3741C67.9473 21.4158 68.0641 21.4818 68.1709 21.5721C68.1976 21.586 68.2077 21.6034 68.201 21.6242C68.201 21.6381 68.1943 21.6416 68.181 21.6346C68.1676 21.6277 68.1543 21.6208 68.1409 21.6138C67.894 21.5304 67.7004 21.5061 67.5602 21.5409C67.4267 21.5756 67.3533 21.7006 67.34 21.916C67.3266 22.1661 67.3433 22.4614 67.39 22.8018C67.4434 23.1353 67.4634 23.507 67.4501 23.9169C67.4568 24.0558 67.4401 24.2156 67.4 24.3962C67.3667 24.5769 67.3066 24.754 67.2198 24.9277C67.1397 25.0944 67.0296 25.2438 66.8894 25.3758C66.7559 25.5078 66.5957 25.5912 66.4089 25.6259C66.0551 25.6815 65.7714 25.6606 65.5579 25.5634C65.3509 25.4661 65.2008 25.3168 65.1073 25.1153C65.094 25.0736 65.0873 25.0493 65.0873 25.0423H65.0973C65.0973 25.0423 65.1073 25.0528 65.1273 25.0736ZM65.5679 25.0736C65.6947 25.1083 65.8482 25.1222 66.0284 25.1153C66.0885 25.1083 66.1619 25.091 66.2487 25.0632C66.3354 25.0354 66.3822 25.0284 66.3888 25.0423C66.4089 25.0701 66.3888 25.1049 66.3288 25.1465C66.2687 25.1882 66.1919 25.2264 66.0985 25.2612C66.0051 25.289 65.9083 25.3098 65.8082 25.3237C65.708 25.3306 65.6246 25.3202 65.5579 25.2924C65.431 25.2369 65.3409 25.1778 65.2875 25.1153C65.2275 25.0458 65.1741 24.9624 65.1273 24.8652L65.1073 24.8235C65.094 24.7957 65.0906 24.7783 65.0973 24.7714C65.104 24.7644 65.114 24.7644 65.1273 24.7714C65.134 24.7783 65.1374 24.7853 65.1374 24.7922C65.2175 24.8686 65.2842 24.9277 65.3376 24.9694C65.3977 25.0041 65.4744 25.0389 65.5679 25.0736ZM71.0191 20.999C71.0258 21.0059 71.0292 21.0233 71.0292 21.0511C71.0292 21.0719 71.0258 21.0893 71.0191 21.1032C70.9591 21.3046 70.8556 21.4471 70.7088 21.5304C70.5619 21.6138 70.4318 21.6555 70.3183 21.6555C70.1782 21.6555 70.0346 21.6451 69.8878 21.6242C69.741 21.5964 69.6008 21.5304 69.4673 21.4262C69.454 21.4123 69.4373 21.3984 69.4172 21.3845C69.3972 21.3706 69.3872 21.3567 69.3872 21.3429C69.3872 21.322 69.3972 21.3081 69.4172 21.3012C69.4373 21.2873 69.454 21.2769 69.4673 21.2699C69.5274 21.256 69.6041 21.2456 69.6976 21.2386C69.7977 21.2248 69.8945 21.2248 69.9879 21.2386C70.0547 21.2525 70.1348 21.2595 70.2282 21.2595C70.3217 21.2595 70.4151 21.2525 70.5085 21.2386C70.6087 21.2248 70.6988 21.2039 70.7789 21.1761C70.859 21.1414 70.919 21.0928 70.9591 21.0302C70.9791 21.0024 70.9991 20.992 71.0191 20.999ZM71.0892 20.6759L71.0592 20.728C70.9457 20.8809 70.8256 20.9816 70.6988 21.0302C70.5719 21.0719 70.4385 21.0893 70.2983 21.0823C70.1581 21.0754 70.0146 21.058 69.8678 21.0302C69.7276 20.9955 69.5875 20.9746 69.4473 20.9677C69.2604 20.9608 69.0735 21.0198 68.8866 21.1449C68.6997 21.2699 68.5395 21.4888 68.4061 21.8014C68.386 21.8431 68.3727 21.8535 68.366 21.8326C68.3593 21.8049 68.3593 21.7805 68.366 21.7597C68.4194 21.5513 68.4828 21.3776 68.5562 21.2386C68.6297 21.0997 68.7064 20.9885 68.7865 20.9052C68.8733 20.8149 68.9634 20.7489 69.0568 20.7072C69.1503 20.6655 69.247 20.6377 69.3472 20.6238C69.4606 20.2278 69.5474 19.8422 69.6075 19.4671C69.6742 19.085 69.6809 18.7237 69.6275 18.3833C69.6275 18.3555 69.6275 18.3416 69.6275 18.3416C69.6408 18.3346 69.6542 18.3381 69.6675 18.352C69.6809 18.3659 69.6876 18.3763 69.6876 18.3833C69.8344 18.7167 69.8945 19.0745 69.8678 19.4566C69.8411 19.8318 69.7743 20.2278 69.6675 20.6446C69.7009 20.6516 69.7276 20.6551 69.7476 20.6551C69.7677 20.6551 69.791 20.6551 69.8177 20.6551C69.8511 20.4744 69.8811 20.2834 69.9078 20.0819C69.9412 19.8735 69.9646 19.6755 69.9779 19.4879C69.9979 19.3003 70.0046 19.1301 69.9979 18.9773C69.9913 18.8244 69.9679 18.7098 69.9279 18.6334C69.9078 18.5709 69.9078 18.5396 69.9279 18.5396C69.9412 18.5396 69.9512 18.5465 69.9579 18.5604C69.9646 18.5743 69.9746 18.5882 69.9879 18.6021C70.0814 18.6994 70.1548 18.8314 70.2082 18.9981C70.2616 19.1649 70.2983 19.342 70.3183 19.5296C70.3383 19.7172 70.345 19.9047 70.3383 20.0923C70.3317 20.273 70.3116 20.4328 70.2783 20.5717L70.2382 20.7384C70.2582 20.7523 70.2783 20.7593 70.2983 20.7593C70.3183 20.7593 70.3383 20.7627 70.3584 20.7697C70.3984 20.5613 70.4318 20.3529 70.4585 20.1444C70.4919 19.936 70.5052 19.7172 70.4985 19.4879C70.4985 19.4393 70.5019 19.415 70.5085 19.415C70.5219 19.415 70.5319 19.4254 70.5386 19.4462C70.5453 19.4671 70.5519 19.4844 70.5586 19.4983C70.6387 19.6512 70.6754 19.8422 70.6687 20.0715C70.6687 20.3008 70.652 20.5439 70.6187 20.801C70.7655 20.801 70.9057 20.7593 71.0392 20.6759C71.0725 20.6551 71.0892 20.6551 71.0892 20.6759ZM69.0168 21.3845C69.0168 21.4193 68.9968 21.454 68.9567 21.4888C68.9233 21.5235 68.8966 21.5478 68.8766 21.5617C68.8432 21.5895 68.8032 21.6242 68.7565 21.6659C68.7164 21.7006 68.6797 21.7389 68.6463 21.7805C68.613 21.8361 68.5796 21.8848 68.5462 21.9264C68.5195 21.9681 68.4962 22.0272 68.4761 22.1036C68.4695 22.1175 68.4595 22.1314 68.4461 22.1453C68.4394 22.1522 68.4328 22.1522 68.4261 22.1453C68.4061 22.1244 68.4061 22.0793 68.4261 22.0098C68.4528 21.9056 68.4795 21.8222 68.5062 21.7597C68.5329 21.6902 68.5829 21.6173 68.6563 21.5409C68.683 21.5131 68.7164 21.4853 68.7565 21.4575C68.7965 21.4297 68.8366 21.4054 68.8766 21.3845C68.9167 21.3637 68.95 21.3533 68.9767 21.3533C69.0034 21.3533 69.0168 21.3637 69.0168 21.3845ZM69.7977 25.5738C69.8311 25.5599 69.8444 25.5634 69.8377 25.5842C69.8311 25.6051 69.8211 25.619 69.8077 25.6259C69.6876 25.6676 69.5608 25.6606 69.4273 25.6051C69.2938 25.5495 69.1703 25.4626 69.0568 25.3445C68.9434 25.2264 68.8466 25.091 68.7665 24.9381C68.6864 24.7783 68.6363 24.622 68.6163 24.4692C68.5829 24.1426 68.5796 23.8265 68.6063 23.5209C68.633 23.2152 68.683 22.913 68.7565 22.6142L68.9267 21.9577C68.8866 21.9577 68.8466 21.9473 68.8065 21.9264C68.7598 21.9125 68.7364 21.8952 68.7364 21.8743C68.7364 21.8604 68.7598 21.8396 68.8065 21.8118C68.9934 21.7145 69.1803 21.6729 69.3672 21.6868C69.5608 21.7006 69.7543 21.725 69.9479 21.7597C70.068 21.7805 70.1882 21.7979 70.3083 21.8118C70.4351 21.8188 70.5719 21.791 70.7188 21.7284C70.7321 21.7145 70.7455 21.7111 70.7588 21.718C70.7722 21.7319 70.7688 21.7562 70.7488 21.791C70.7088 21.8813 70.652 21.9473 70.5786 21.989C70.5052 22.0306 70.4284 22.0619 70.3484 22.0828C70.295 22.2634 70.2482 22.4266 70.2082 22.5725C70.1681 22.7115 70.1348 22.8296 70.1081 22.9269C70.0346 23.2603 69.9479 23.6008 69.8478 23.9481C69.7543 24.2885 69.6909 24.5769 69.6575 24.8131C69.6442 24.8895 69.6308 24.9312 69.6175 24.9381C69.6041 24.9451 69.5908 24.9312 69.5774 24.8964C69.5641 24.8617 69.5541 24.8339 69.5474 24.8131C69.5207 24.6116 69.514 24.4032 69.5274 24.1878C69.5474 23.9655 69.5808 23.7397 69.6275 23.5104C69.6742 23.2812 69.7276 23.0519 69.7877 22.8226C69.8478 22.5864 69.9112 22.3502 69.9779 22.114C69.9445 22.114 69.9112 22.114 69.8778 22.114C69.8444 22.114 69.8111 22.1105 69.7777 22.1036C69.7243 22.2495 69.6675 22.3954 69.6075 22.5413C69.5541 22.6802 69.5007 22.8122 69.4473 22.9373C69.4406 22.9512 69.4239 22.9859 69.3972 23.0415C69.3772 23.0901 69.3605 23.1144 69.3472 23.1144C69.3205 23.1075 69.3105 23.0762 69.3171 23.0206C69.3238 22.9581 69.3271 22.9164 69.3271 22.8956C69.3405 22.7914 69.3605 22.6698 69.3872 22.5309C69.4206 22.3919 69.4506 22.2425 69.4773 22.0828C69.4439 22.0758 69.4072 22.0723 69.3672 22.0723C69.3271 22.0654 69.2871 22.055 69.247 22.0411C69.207 22.18 69.167 22.3155 69.1269 22.4475C69.0935 22.5795 69.0602 22.7115 69.0268 22.8435C68.9734 23.0866 68.9333 23.3472 68.9066 23.6251C68.8799 23.896 68.8799 24.1774 68.9066 24.4692C68.92 24.6012 68.9534 24.7366 69.0068 24.8756C69.0668 25.0145 69.1369 25.1396 69.217 25.2508C69.2971 25.3619 69.3872 25.4488 69.4873 25.5113C69.5941 25.5738 69.6976 25.5946 69.7977 25.5738ZM69.8878 25.3445C69.9212 25.3168 69.9412 25.3168 69.9479 25.3445C69.9546 25.3654 69.9412 25.3862 69.9078 25.4071C69.8811 25.4279 69.8444 25.4453 69.7977 25.4592C69.7577 25.4661 69.7109 25.4661 69.6575 25.4592C69.6041 25.4522 69.5474 25.4314 69.4873 25.3966C69.4273 25.3619 69.3705 25.3063 69.3171 25.2299C69.2704 25.1674 69.2304 25.0771 69.197 24.959C69.1703 24.8409 69.1503 24.7262 69.1369 24.6151C69.1236 24.497 69.1202 24.3962 69.1269 24.3129C69.1336 24.2295 69.1503 24.1878 69.177 24.1878C69.2103 24.1878 69.2337 24.2364 69.247 24.3337C69.2671 24.431 69.2838 24.5109 69.2971 24.5734C69.3238 24.6845 69.3605 24.7992 69.4072 24.9173C69.454 25.0354 69.504 25.1292 69.5574 25.1986C69.6242 25.289 69.6842 25.3445 69.7376 25.3654C69.791 25.3793 69.8411 25.3723 69.8878 25.3445ZM72.0101 22.1557C71.9767 22.3989 71.96 22.6351 71.96 22.8643C71.96 23.0936 71.9767 23.309 72.0101 23.5104C72.0435 23.7119 72.0902 23.896 72.1503 24.0628C72.217 24.2225 72.3004 24.358 72.4006 24.4692C72.5274 24.6081 72.6909 24.7089 72.8911 24.7714C73.098 24.827 73.3283 24.8374 73.5819 24.8026C73.6487 24.5317 73.7254 24.2712 73.8122 24.0211C73.9056 23.771 73.9924 23.5278 74.0725 23.2916C74.1593 23.0554 74.2327 22.8226 74.2928 22.5934C74.3528 22.3641 74.3829 22.1383 74.3829 21.916C74.3829 21.8952 74.3862 21.8848 74.3929 21.8848C74.3996 21.8848 74.4062 21.8952 74.4129 21.916C74.4263 21.9369 74.4329 21.9508 74.4329 21.9577C74.513 22.2148 74.5364 22.4753 74.503 22.7393C74.4763 22.9963 74.4196 23.2603 74.3328 23.5313C74.2527 23.8022 74.1593 24.0801 74.0525 24.365C73.9457 24.6429 73.8589 24.9312 73.7922 25.2299C73.7588 25.3619 73.7388 25.5148 73.7321 25.6884C73.7254 25.8691 73.7354 26.0497 73.7621 26.2303C73.7955 26.4179 73.8489 26.602 73.9223 26.7826C74.0024 26.9633 74.1125 27.1231 74.2527 27.262C74.2594 27.2759 74.2694 27.2898 74.2828 27.3037L74.2928 27.3141C74.2928 27.3141 74.2828 27.3141 74.2627 27.3141C74.2561 27.3141 74.2494 27.3106 74.2427 27.3037C74.0625 27.1786 73.9123 27.0362 73.7922 26.8764C73.6787 26.7166 73.5919 26.5499 73.5319 26.3762C73.4785 26.2095 73.4451 26.0393 73.4317 25.8656C73.4251 25.6989 73.4351 25.546 73.4618 25.4071C73.2615 25.4557 73.0613 25.4626 72.8611 25.4279C72.6675 25.3932 72.4873 25.3306 72.3205 25.2403C72.2871 25.2264 72.2504 25.1986 72.2103 25.157C72.177 25.1153 72.1636 25.091 72.1703 25.084C72.1703 25.084 72.2203 25.0944 72.3205 25.1153C72.4273 25.1292 72.5441 25.1465 72.6709 25.1674C72.8044 25.1813 72.9345 25.1952 73.0613 25.2091C73.1948 25.216 73.2916 25.216 73.3517 25.2091C73.3717 25.2021 73.3917 25.1986 73.4117 25.1986C73.4384 25.1917 73.4685 25.1813 73.5018 25.1674C73.5018 25.1326 73.5052 25.1014 73.5118 25.0736C73.5185 25.0389 73.5285 25.0041 73.5419 24.9694C73.3083 25.025 73.0813 25.0319 72.8611 24.9902C72.6408 24.9485 72.4439 24.8513 72.2704 24.6984C72.1302 24.5734 72.0168 24.424 71.93 24.2503C71.8499 24.0697 71.7865 23.8752 71.7398 23.6668C71.6997 23.4583 71.6764 23.243 71.6697 23.0206C71.663 22.7914 71.6697 22.5656 71.6897 22.3433C71.7164 21.989 71.7832 21.6312 71.89 21.2699C71.9967 20.9086 72.1369 20.5752 72.3104 20.2695C72.4907 19.9569 72.7009 19.6894 72.9412 19.4671C73.1881 19.2378 73.4651 19.078 73.7721 18.9877C73.9123 18.946 74.0625 18.9286 74.2227 18.9356C74.3829 18.9425 74.533 18.9738 74.6732 19.0294C74.8134 19.085 74.9335 19.1649 75.0336 19.2691C75.1404 19.3663 75.2072 19.4914 75.2339 19.6442C75.2672 19.811 75.2539 19.9742 75.1938 20.134C75.1338 20.2869 75.0503 20.4223 74.9435 20.5404C74.8367 20.6516 74.7166 20.7315 74.5831 20.7801C74.4496 20.8288 74.3228 20.8253 74.2027 20.7697C74.1559 20.7558 74.1459 20.7419 74.1726 20.728C74.186 20.7211 74.196 20.7211 74.2027 20.728C74.2093 20.735 74.2193 20.7384 74.2327 20.7384C74.3128 20.7523 74.4029 20.735 74.503 20.6863C74.6031 20.6377 74.6932 20.5682 74.7733 20.4779C74.8601 20.3876 74.9268 20.2834 74.9736 20.1653C75.027 20.0402 75.0437 19.9152 75.0236 19.7901C75.0036 19.6859 74.9602 19.5956 74.8935 19.5192C74.8334 19.4427 74.7533 19.3802 74.6532 19.3316C74.5531 19.283 74.4396 19.2517 74.3128 19.2378C74.1926 19.2239 74.0625 19.2309 73.9223 19.2586C73.6754 19.3073 73.4451 19.4254 73.2315 19.613C73.0179 19.7936 72.8277 20.0194 72.6609 20.2903C72.494 20.5543 72.3538 20.8496 72.2404 21.1761C72.1269 21.5026 72.0501 21.8292 72.0101 22.1557ZM72.801 25.5946C72.8944 25.6085 72.9478 25.619 72.9612 25.6259C72.9745 25.6329 72.9245 25.6363 72.811 25.6363C72.6242 25.6363 72.4339 25.6051 72.2404 25.5425C72.0535 25.48 71.8766 25.3932 71.7097 25.282C71.5429 25.1639 71.3927 25.0215 71.2592 24.8548C71.1257 24.688 71.0256 24.5039 70.9589 24.3024C70.812 23.8648 70.7252 23.4479 70.6985 23.0519C70.6718 22.649 70.6885 22.246 70.7486 21.8431C70.782 21.6277 70.8354 21.3811 70.9088 21.1032C70.9822 20.8253 71.0823 20.5404 71.2091 20.2486C71.3426 19.9569 71.5062 19.6685 71.6997 19.3837C71.8933 19.0989 72.1269 18.8383 72.4006 18.6021C72.6876 18.352 73.0079 18.1887 73.3617 18.1123C73.7154 18.029 74.0525 18.0151 74.3729 18.0706C74.6932 18.1262 74.9769 18.2478 75.2239 18.4354C75.4708 18.616 75.6343 18.8418 75.7144 19.1127C75.7211 19.1266 75.7311 19.1544 75.7445 19.1961C75.7578 19.2378 75.7578 19.2621 75.7445 19.2691C75.7311 19.276 75.7178 19.2621 75.7044 19.2274C75.6911 19.1926 75.6677 19.1544 75.6343 19.1127C75.354 18.7167 75.037 18.4666 74.6832 18.3624C74.3295 18.2582 73.9791 18.2478 73.632 18.3312C73.2916 18.4145 72.9679 18.5743 72.6609 18.8105C72.3605 19.0398 72.1202 19.2969 71.94 19.5817C71.6263 20.0611 71.3927 20.5856 71.2392 21.1553C71.0857 21.718 71.0122 22.2912 71.0189 22.8748C71.0256 23.1596 71.0556 23.4479 71.109 23.7397C71.1624 24.0315 71.2592 24.3163 71.3994 24.5942C71.5329 24.8652 71.7298 25.091 71.9901 25.2716C72.2571 25.4522 72.5274 25.5599 72.801 25.5946ZM71.3793 21.6451C71.4261 21.2838 71.5062 20.9295 71.6196 20.5821C71.7331 20.2278 71.8833 19.9082 72.0702 19.6234C72.2637 19.3385 72.5007 19.0919 72.781 18.8835C73.0613 18.6751 73.3917 18.5292 73.7721 18.4458C73.899 18.418 74.0425 18.4076 74.2027 18.4145C74.3695 18.4145 74.533 18.4458 74.6932 18.5083C74.8601 18.5639 75.0136 18.6507 75.1538 18.7689C75.3006 18.887 75.4208 19.0502 75.5142 19.2586C75.601 19.4601 75.631 19.6616 75.6043 19.8631C75.5843 20.0576 75.5309 20.2348 75.4441 20.3945C75.364 20.5474 75.2606 20.6759 75.1338 20.7801C75.0136 20.8843 74.8935 20.9434 74.7733 20.9573C74.7533 20.9642 74.7266 20.9677 74.6932 20.9677C74.6665 20.9608 74.6532 20.9503 74.6532 20.9364C74.6532 20.9225 74.6565 20.9191 74.6632 20.926C74.6699 20.926 74.7066 20.9121 74.7733 20.8843C74.8201 20.8635 74.8735 20.8288 74.9335 20.7801C75.0003 20.7245 75.0603 20.6551 75.1137 20.5717C75.1738 20.4883 75.2272 20.3911 75.2739 20.2799C75.3206 20.1688 75.3507 20.0472 75.364 19.9152C75.3774 19.7762 75.3607 19.6442 75.314 19.5192C75.2672 19.3941 75.1972 19.283 75.1037 19.1857C75.017 19.0815 74.9135 18.9946 74.7934 18.9252C74.6732 18.8557 74.5497 18.8105 74.4229 18.7897C74.0291 18.7272 73.672 18.7827 73.3517 18.9564C73.0313 19.1232 72.7476 19.3559 72.5007 19.6546C72.2537 19.9464 72.0468 20.2764 71.8799 20.6446C71.7131 21.0059 71.5863 21.3498 71.4995 21.6763C71.4995 21.6833 71.4928 21.7076 71.4795 21.7493C71.4661 21.791 71.4528 21.8361 71.4394 21.8848C71.4261 21.9334 71.4127 21.9785 71.3994 22.0202C71.3927 22.055 71.386 22.0723 71.3793 22.0723C71.3727 22.0723 71.366 22.055 71.3593 22.0202C71.3593 21.9785 71.3593 21.9334 71.3593 21.8848C71.366 21.8292 71.3693 21.7805 71.3693 21.7389C71.376 21.6902 71.3793 21.659 71.3793 21.6451ZM74.8134 25.3237C74.7733 25.4765 74.7133 25.6676 74.6332 25.8969C74.5597 26.1331 74.493 26.3484 74.4329 26.543C74.4129 26.5985 74.3962 26.6263 74.3829 26.6263C74.3562 26.6263 74.3395 26.6124 74.3328 26.5846C74.3328 26.5638 74.3328 26.5464 74.3328 26.5325C74.3128 26.345 74.3095 26.1643 74.3228 25.9906C74.3361 25.8239 74.3628 25.6572 74.4029 25.4904C74.4429 25.3237 74.4897 25.157 74.5431 24.9902C74.6031 24.8235 74.6632 24.6463 74.7233 24.4588C74.8034 24.2156 74.8768 23.9794 74.9435 23.7501C75.0103 23.5139 75.0503 23.2499 75.0637 22.9581C75.0637 22.9234 75.0637 22.906 75.0637 22.906C75.0703 22.8991 75.0804 22.8956 75.0937 22.8956L75.1237 22.9581C75.1905 23.104 75.2172 23.2846 75.2038 23.5C75.1972 23.7154 75.1705 23.9377 75.1237 24.167C75.077 24.3962 75.0203 24.6151 74.9535 24.8235C74.8935 25.0319 74.8468 25.1986 74.8134 25.3237ZM74.8434 23.6668C74.75 23.9308 74.6465 24.2052 74.533 24.49C74.4196 24.7749 74.3028 25.0493 74.1826 25.3133C74.176 25.3202 74.1626 25.3445 74.1426 25.3862C74.1292 25.421 74.1126 25.4349 74.0925 25.4279C74.0792 25.421 74.0725 25.4001 74.0725 25.3654C74.0725 25.3237 74.0725 25.2924 74.0725 25.2716C74.0725 25.2091 74.0792 25.1326 74.0925 25.0423C74.1059 24.9451 74.1226 24.8513 74.1426 24.761C74.1626 24.6637 74.1826 24.5699 74.2027 24.4796C74.2294 24.3893 74.2561 24.3129 74.2828 24.2503C74.2961 24.2086 74.3261 24.0975 74.3729 23.9169C74.4196 23.7293 74.4663 23.5278 74.513 23.3124C74.5597 23.0901 74.5965 22.8748 74.6232 22.6663C74.6499 22.4579 74.6499 22.3016 74.6232 22.1974C74.6098 22.1626 74.6098 22.1383 74.6232 22.1244C74.6365 22.1244 74.6465 22.1349 74.6532 22.1557C74.6665 22.1696 74.6799 22.1835 74.6932 22.1974C74.7533 22.2946 74.8 22.4093 74.8334 22.5413C74.8668 22.6663 74.8868 22.7983 74.8935 22.9373C74.9068 23.0693 74.9068 23.2013 74.8935 23.3333C74.8868 23.4583 74.8701 23.5695 74.8434 23.6668ZM74.2527 26.741C74.3328 26.9146 74.4296 27.0779 74.5431 27.2308C74.5631 27.2516 74.5664 27.269 74.5531 27.2829C74.533 27.2968 74.513 27.2968 74.493 27.2829C74.4797 27.2759 74.4696 27.269 74.463 27.262C74.3695 27.2064 74.2928 27.1509 74.2327 27.0953C74.1726 27.0397 74.1126 26.932 74.0525 26.7722C74.0325 26.7166 74.0124 26.6437 73.9924 26.5534C73.9791 26.47 73.969 26.3866 73.9624 26.3033C73.9557 26.2269 73.9524 26.1609 73.9524 26.1053C73.959 26.0497 73.9724 26.0254 73.9924 26.0323C74.0258 26.0323 74.0525 26.074 74.0725 26.1574C74.0992 26.2408 74.1159 26.2929 74.1226 26.3137C74.1493 26.3901 74.1693 26.4631 74.1826 26.5325C74.196 26.602 74.2193 26.6715 74.2527 26.741ZM77.0986 22.187C77.1186 22.0966 77.1286 21.9924 77.1286 21.8743C77.1353 21.7562 77.1286 21.6346 77.1086 21.5096C77.0886 21.3845 77.0519 21.2664 76.9985 21.1553C76.9517 21.0372 76.8883 20.9364 76.8082 20.8531C76.7682 20.8253 76.7448 20.8114 76.7382 20.8114C76.7115 20.8114 76.7115 20.8322 76.7382 20.8739C76.7782 20.9642 76.7915 21.1066 76.7782 21.3012C76.7715 21.4888 76.7515 21.6868 76.7181 21.8952C76.6848 22.0966 76.648 22.2808 76.608 22.4475C76.5746 22.6073 76.5546 22.7045 76.5479 22.7393C76.5012 22.8643 76.4578 23.0206 76.4178 23.2082C76.3844 23.3958 76.3677 23.5486 76.3677 23.6668C76.361 23.6806 76.3577 23.7084 76.3577 23.7501C76.3577 23.7918 76.3677 23.8161 76.3877 23.8231C76.3944 23.8231 76.4078 23.8057 76.4278 23.771C76.4478 23.7362 76.4645 23.7119 76.4778 23.698C76.598 23.4757 76.7115 23.2325 76.8182 22.9685C76.9317 22.7045 77.0252 22.444 77.0986 22.187ZM77.1386 23.7605C77.1653 23.6355 77.2087 23.4757 77.2688 23.2812C77.3289 23.0797 77.3789 22.8748 77.419 22.6663C77.459 22.451 77.479 22.2425 77.479 22.0411C77.479 21.8326 77.439 21.6624 77.3589 21.5304C77.3322 21.5026 77.3122 21.4888 77.2988 21.4888C77.2855 21.4888 77.2821 21.5026 77.2888 21.5304C77.2888 21.7944 77.2588 22.0411 77.1987 22.2703C77.1453 22.4926 77.0852 22.7115 77.0185 22.9269C76.905 23.2812 76.8016 23.6285 76.7081 23.969C76.6147 24.3024 76.5746 24.6463 76.588 25.0006C76.588 25.0215 76.588 25.0458 76.588 25.0736C76.5947 25.0944 76.608 25.1049 76.628 25.1049C76.6414 25.1049 76.6514 25.0979 76.6581 25.084C76.6647 25.0701 76.6747 25.0493 76.6881 25.0215C76.7548 24.8548 76.8316 24.6602 76.9184 24.4379C77.0051 24.2086 77.0786 23.9829 77.1386 23.7605ZM76.4278 25.6259C76.301 25.487 76.2042 25.3341 76.1374 25.1674C76.0707 24.9937 76.024 24.82 75.9973 24.6463C75.9706 24.4657 75.9639 24.2851 75.9773 24.1044C75.9906 23.9238 76.0173 23.7536 76.0574 23.5938C76.1174 23.3437 76.1942 23.0936 76.2876 22.8435C76.3811 22.5934 76.4612 22.3468 76.5279 22.1036C76.5947 21.8535 76.6314 21.6103 76.638 21.3741C76.6514 21.131 76.6047 20.8948 76.4979 20.6655C76.4778 20.6308 76.4645 20.6134 76.4578 20.6134C76.4511 20.6134 76.4478 20.6203 76.4478 20.6342C76.4478 20.6412 76.4511 20.6481 76.4578 20.6551C76.4778 20.8635 76.4645 21.0789 76.4178 21.3012C76.3711 21.5235 76.311 21.7528 76.2376 21.989C76.1641 22.2182 76.0807 22.4579 75.9873 22.708C75.9005 22.9512 75.8271 23.2013 75.767 23.4583C75.7203 23.6459 75.6869 23.837 75.6669 24.0315C75.6535 24.226 75.6669 24.4205 75.7069 24.6151C75.747 24.8026 75.8204 24.9833 75.9272 25.157C76.034 25.3306 76.1875 25.4904 76.3877 25.6363C76.4011 25.6502 76.4178 25.6572 76.4378 25.6572C76.4578 25.6641 76.4545 25.6537 76.4278 25.6259ZM76.5079 25.2299C76.4879 25.1743 76.4645 25.1049 76.4378 25.0215C76.4178 24.9381 76.4011 24.8582 76.3877 24.7818C76.3744 24.754 76.3577 24.7019 76.3377 24.6255C76.3177 24.5491 76.301 24.5109 76.2876 24.5109C76.2609 24.5109 76.2409 24.5352 76.2276 24.5838C76.2209 24.6324 76.2175 24.695 76.2175 24.7714C76.2175 24.8409 76.2209 24.9173 76.2276 25.0006C76.2409 25.0771 76.2576 25.1431 76.2776 25.1986C76.3177 25.3376 76.3644 25.4349 76.4178 25.4904C76.4778 25.546 76.5546 25.5912 76.648 25.6259C76.6881 25.6468 76.7181 25.6572 76.7382 25.6572C76.7448 25.6572 76.7448 25.6502 76.7382 25.6363C76.7382 25.6294 76.7348 25.6259 76.7281 25.6259C76.6814 25.5703 76.638 25.5113 76.598 25.4488C76.5646 25.3862 76.5346 25.3133 76.5079 25.2299ZM77.2888 19.8422C77.2554 19.8422 77.202 19.8388 77.1286 19.8318C77.0619 19.8179 77.0285 19.7832 77.0285 19.7276C77.0285 19.7067 77.0585 19.6824 77.1186 19.6546C77.1787 19.6199 77.2454 19.5747 77.3188 19.5192C77.3923 19.4566 77.459 19.3802 77.5191 19.2899C77.5791 19.1926 77.6092 19.0711 77.6092 18.9252C77.6092 18.7445 77.5758 18.6091 77.5091 18.5187C77.4957 18.4979 77.479 18.4771 77.459 18.4562C77.439 18.4284 77.4323 18.4111 77.439 18.4041C77.4523 18.4041 77.4657 18.4111 77.479 18.425C77.4991 18.4319 77.5124 18.4389 77.5191 18.4458C77.6526 18.5222 77.7527 18.623 77.8194 18.748C77.8929 18.8661 77.9296 18.9807 77.9296 19.0919C77.9296 19.3142 77.8795 19.4949 77.7794 19.6338C77.6793 19.7727 77.5157 19.8422 77.2888 19.8422ZM76.9184 19.4254C76.8383 19.4601 76.7982 19.4393 76.7982 19.3629C76.7982 19.3073 76.8182 19.2552 76.8583 19.2065C76.8983 19.151 76.9351 19.0919 76.9684 19.0294C77.0085 18.9669 77.0352 18.8974 77.0485 18.821C77.0619 18.7376 77.0418 18.6369 76.9885 18.5187C76.9751 18.484 76.9517 18.4458 76.9184 18.4041C76.885 18.3624 76.875 18.3381 76.8883 18.3312C76.9017 18.3242 76.9284 18.3312 76.9684 18.352C77.0151 18.3659 77.0452 18.3763 77.0585 18.3833C77.172 18.4389 77.2554 18.5222 77.3088 18.6334C77.3689 18.7445 77.3989 18.8418 77.3989 18.9252C77.3989 19.0572 77.3455 19.1683 77.2387 19.2586C77.1386 19.342 77.0318 19.3976 76.9184 19.4254ZM76.628 18.8626C76.628 18.8279 76.638 18.7897 76.6581 18.748C76.6781 18.6994 76.7115 18.6751 76.7582 18.6751C76.7915 18.6751 76.8182 18.6994 76.8383 18.748C76.8583 18.7897 76.8683 18.8279 76.8683 18.8626C76.8683 18.8904 76.8583 18.9286 76.8383 18.9773C76.8182 19.019 76.7915 19.0398 76.7582 19.0398C76.7115 19.0398 76.6781 19.019 76.6581 18.9773C76.638 18.9356 76.628 18.8974 76.628 18.8626ZM81.3639 20.9677C81.3505 20.9608 81.3339 20.9712 81.3138 20.999C81.3005 21.0267 81.2871 21.0476 81.2738 21.0615C81.1737 21.1935 81.0836 21.3568 81.0035 21.5513C80.9234 21.7458 80.8533 21.9508 80.7932 22.1661C80.7398 22.3815 80.6931 22.5969 80.6531 22.8122C80.6197 23.0276 80.5896 23.2186 80.563 23.3854C80.5296 23.6216 80.4995 23.8474 80.4728 24.0628C80.4528 24.2712 80.4328 24.4761 80.4128 24.6776C80.3927 24.8791 80.3761 25.084 80.3627 25.2924C80.3494 25.4939 80.3327 25.7023 80.3127 25.9177C80.3193 25.9246 80.3227 25.942 80.3227 25.9698C80.3227 26.0045 80.3227 26.0358 80.3227 26.0636C80.3227 26.0983 80.3227 26.1261 80.3227 26.147C80.3227 26.1748 80.3293 26.1886 80.3427 26.1886C80.3494 26.1886 80.3594 26.1748 80.3727 26.147C80.3861 26.1261 80.3994 26.1018 80.4128 26.074C80.4261 26.0462 80.4361 26.0184 80.4428 25.9906C80.4495 25.9629 80.4528 25.949 80.4528 25.949C80.5262 25.7822 80.5897 25.5877 80.643 25.3654C80.6964 25.1431 80.7398 24.9208 80.7732 24.6984C80.7799 24.6429 80.7932 24.5282 80.8132 24.3545C80.8333 24.1809 80.8566 23.9794 80.8833 23.7501C80.91 23.5209 80.9401 23.2742 80.9734 23.0102C81.0135 22.7393 81.0502 22.4822 81.0836 22.2391C81.1236 21.989 81.1637 21.7632 81.2037 21.5617C81.2504 21.3602 81.2938 21.2074 81.3339 21.1032C81.3405 21.0754 81.3472 21.0545 81.3539 21.0406C81.3606 21.0268 81.3639 21.0129 81.3639 20.999V20.9677ZM81.0335 20.926C81.0335 20.9191 81.0101 20.9156 80.9634 20.9156C80.9434 20.9156 80.9234 20.9191 80.9034 20.926C80.6497 20.9538 80.4161 21.0268 80.2025 21.1449C79.9889 21.256 79.792 21.3984 79.6118 21.5721C79.4383 21.7389 79.2814 21.9299 79.1413 22.1453C79.0078 22.3606 78.8977 22.583 78.8109 22.8122C78.7174 23.0484 78.6474 23.2985 78.6006 23.5625C78.5539 23.8265 78.5372 24.0732 78.5506 24.3024C78.5706 24.6012 78.6974 24.629 78.931 24.3858C79.1313 24.1774 79.3181 23.9516 79.4917 23.7084C79.6719 23.4653 79.8388 23.2082 79.9923 22.9373C80.1525 22.6663 80.3026 22.3919 80.4428 22.114C80.583 21.8292 80.7231 21.5443 80.8633 21.2595C80.89 21.2039 80.9 21.1761 80.8933 21.1761C80.88 21.1622 80.8633 21.1622 80.8433 21.1761C80.8299 21.19 80.8233 21.2039 80.8233 21.2178C80.4628 21.6972 80.1258 22.1557 79.8121 22.5934C79.505 23.0311 79.2214 23.4653 78.9611 23.896C78.9277 23.9308 78.9043 23.9412 78.891 23.9273C78.8843 23.9134 78.8843 23.8891 78.891 23.8543C78.9043 23.6945 78.9277 23.5313 78.9611 23.3645C79.0011 23.1909 79.0545 23.0172 79.1213 22.8435C79.2814 22.4197 79.5117 22.0445 79.8121 21.718C80.1124 21.3915 80.4895 21.1483 80.9434 20.9885C81.0035 20.9608 81.0335 20.9399 81.0335 20.926ZM80.4929 20.8531C80.4862 20.8392 80.4695 20.8322 80.4428 20.8322C80.4228 20.8322 80.4028 20.8322 80.3827 20.8322C80.1959 20.8322 79.999 20.8878 79.792 20.999C79.5918 21.1101 79.3982 21.2525 79.2114 21.4262C79.0245 21.593 78.8576 21.7805 78.7108 21.989C78.5639 22.1904 78.4538 22.385 78.3804 22.5725C78.2869 22.8226 78.2068 23.0658 78.1401 23.302C78.08 23.5313 78.0466 23.764 78.04 24.0002C78.0333 24.1253 78.0366 24.2469 78.05 24.365C78.07 24.4831 78.1034 24.6116 78.1501 24.7505C78.1768 24.8339 78.2202 24.8999 78.2803 24.9485C78.347 24.9972 78.4137 25.0284 78.4805 25.0423C78.5539 25.0562 78.6273 25.0562 78.7008 25.0423C78.7742 25.0284 78.8376 25.0006 78.891 24.959C78.8977 24.952 78.911 24.9381 78.931 24.9173C78.9577 24.8964 78.9811 24.8756 79.0011 24.8548C79.0278 24.827 79.0478 24.8026 79.0612 24.7818C79.0812 24.761 79.0879 24.7436 79.0812 24.7297C79.0745 24.7158 79.0412 24.7262 78.9811 24.761C78.9277 24.7888 78.881 24.8061 78.8409 24.8131C78.7008 24.8409 78.594 24.8304 78.5205 24.7818C78.4538 24.7332 78.4037 24.6637 78.3704 24.5734C78.3437 24.4761 78.3303 24.3719 78.3303 24.2608C78.337 24.1426 78.347 24.028 78.3603 23.9169C78.3603 23.8752 78.367 23.8022 78.3804 23.698C78.4004 23.5938 78.4304 23.4688 78.4705 23.3229C78.5105 23.17 78.5639 23.0033 78.6307 22.8226C78.7041 22.642 78.7909 22.4614 78.891 22.2808C78.9911 22.1001 79.1079 21.9334 79.2414 21.7805C79.3816 21.6277 79.5217 21.4922 79.6619 21.3741C79.8021 21.256 79.9355 21.1588 80.0624 21.0823C80.1959 21.0059 80.3093 20.9538 80.4028 20.926C80.4495 20.9121 80.4762 20.9017 80.4829 20.8948C80.4895 20.8809 80.4929 20.867 80.4929 20.8531ZM81.7043 20.7384C81.6843 20.7384 81.6676 20.7523 81.6542 20.7801C81.6476 20.794 81.6409 20.8114 81.6342 20.8322C81.434 21.263 81.2938 21.7076 81.2137 22.1661C81.1336 22.6177 81.0736 23.0797 81.0335 23.5521C80.9935 24.0245 80.9534 24.5004 80.9134 24.9798C80.8733 25.4592 80.7932 25.9385 80.6731 26.4179C80.633 26.5708 80.593 26.7305 80.5529 26.8973C80.5129 27.064 80.4595 27.2273 80.3927 27.3871C80.326 27.5469 80.2359 27.6962 80.1224 27.8352C80.0156 27.9811 79.8688 28.1026 79.6819 28.1999C79.4683 28.318 79.2714 28.3666 79.0912 28.3458C78.911 28.3319 78.7441 28.2833 78.5906 28.1999C78.4371 28.1165 78.2969 28.0089 78.1701 27.8769C78.0433 27.7518 77.9332 27.6372 77.8397 27.533C77.8264 27.5191 77.813 27.5017 77.7997 27.4809C77.7863 27.467 77.7763 27.4635 77.7697 27.4704C77.7563 27.4774 77.753 27.4913 77.7596 27.5121C77.773 27.5399 77.783 27.5608 77.7897 27.5746C77.9432 27.8734 78.1768 28.1339 78.4905 28.3562C78.5639 28.4118 78.654 28.4604 78.7608 28.5021C78.8676 28.5438 78.9811 28.5716 79.1012 28.5855C79.228 28.6063 79.3549 28.6029 79.4817 28.5751C79.6152 28.5542 79.742 28.5021 79.8621 28.4188C80.0824 28.2659 80.2559 28.1026 80.3827 27.929C80.5162 27.7622 80.623 27.5885 80.7031 27.4079C80.7832 27.2342 80.8433 27.0536 80.8833 26.866C80.9301 26.6784 80.9734 26.4943 81.0135 26.3137C81.127 25.8413 81.2037 25.3723 81.2438 24.9069C81.2905 24.4344 81.3272 23.969 81.3539 23.5104C81.3806 23.0519 81.414 22.6003 81.454 22.1557C81.4941 21.7041 81.5708 21.2664 81.6843 20.8426C81.6976 20.8149 81.7043 20.794 81.7043 20.7801V20.7384ZM80.5229 22.7289C80.5563 22.583 80.5997 22.4336 80.6531 22.2808C80.7131 22.121 80.7598 21.9646 80.7932 21.8118C80.7932 21.7979 80.7966 21.7736 80.8032 21.7389C80.8166 21.7041 80.8199 21.6868 80.8132 21.6868C80.7999 21.6798 80.7799 21.6972 80.7532 21.7389C80.7265 21.7805 80.7131 21.8049 80.7131 21.8118C80.6197 21.9716 80.5363 22.1418 80.4628 22.3224C80.3894 22.4961 80.3227 22.6559 80.2626 22.8018C80.2492 22.8365 80.2192 22.8956 80.1725 22.979C80.1324 23.0623 80.0891 23.1526 80.0423 23.2499C80.0023 23.3402 79.9656 23.4271 79.9322 23.5104C79.9055 23.5869 79.9022 23.632 79.9222 23.6459C79.9355 23.6459 79.9556 23.632 79.9823 23.6042C80.009 23.5695 80.029 23.5452 80.0423 23.5313C80.0624 23.4965 80.0857 23.4618 80.1124 23.4271C80.1391 23.3854 80.1658 23.3472 80.1925 23.3124C80.1525 23.4861 80.1158 23.632 80.0824 23.7501C80.0557 23.8613 80.0257 23.962 79.9923 24.0523C79.9589 24.1426 79.9189 24.2295 79.8721 24.3129C79.8321 24.3893 79.7754 24.4796 79.7019 24.5838C79.6485 24.6602 79.5818 24.7436 79.5017 24.8339C79.4283 24.9173 79.3415 24.9972 79.2414 25.0736C79.1479 25.1431 79.0445 25.2021 78.931 25.2508C78.8176 25.2924 78.6974 25.3133 78.5706 25.3133C78.4104 25.3133 78.2836 25.2716 78.1901 25.1882C78.0967 25.0979 78.0266 24.9902 77.9799 24.8652C77.9332 24.7332 77.9031 24.5942 77.8898 24.4483C77.8764 24.3024 77.8731 24.167 77.8798 24.0419C77.9065 23.5417 78.0166 23.0554 78.2102 22.583C78.4104 22.1036 78.6874 21.6763 79.0412 21.3012C79.0412 21.2942 79.0512 21.2803 79.0712 21.2595C79.0912 21.2386 79.1012 21.2248 79.1012 21.2178C79.0879 21.2039 79.0712 21.2039 79.0512 21.2178L79.0111 21.2386C78.891 21.3151 78.7642 21.4193 78.6307 21.5513C78.5039 21.6833 78.3804 21.8396 78.2602 22.0202C78.1468 22.1939 78.04 22.3884 77.9399 22.6038C77.8464 22.8192 77.7663 23.0415 77.6996 23.2708C77.6662 23.3889 77.6395 23.5313 77.6195 23.698C77.6061 23.8578 77.6028 24.028 77.6095 24.2086C77.6228 24.3823 77.6462 24.5595 77.6795 24.7401C77.7196 24.9138 77.7797 25.0701 77.8598 25.2091C77.9465 25.3411 78.0533 25.4488 78.1801 25.5321C78.3136 25.6085 78.4772 25.6398 78.6707 25.6259C78.8643 25.612 79.0178 25.5773 79.1313 25.5217C79.2514 25.4661 79.3482 25.4071 79.4216 25.3445C79.515 25.2681 79.5985 25.1882 79.6719 25.1049C79.7453 25.0215 79.8187 24.9416 79.8922 24.8652C79.8521 25.1083 79.8121 25.3168 79.772 25.4904C79.7386 25.6572 79.7053 25.817 79.6719 25.9698C79.6252 26.1782 79.5818 26.3762 79.5417 26.5638C79.5017 26.7583 79.4583 26.9285 79.4116 27.0744C79.3649 27.2203 79.3115 27.3384 79.2514 27.4288C79.1913 27.526 79.1213 27.5816 79.0412 27.5955C78.9477 27.5955 78.901 27.6059 78.901 27.6268C78.8943 27.6476 78.9077 27.665 78.941 27.6789C78.9744 27.6928 79.0078 27.7032 79.0412 27.7101C79.1413 27.731 79.2347 27.7136 79.3215 27.658C79.4149 27.6024 79.495 27.5191 79.5618 27.4079C79.6352 27.3037 79.6986 27.1786 79.752 27.0328C79.8121 26.8869 79.8621 26.7375 79.9022 26.5846C79.9823 26.2651 80.049 25.9524 80.1024 25.6468C80.1558 25.348 80.2059 25.0319 80.2526 24.6984C80.2993 24.3719 80.336 24.0454 80.3627 23.7189C80.3961 23.3923 80.4495 23.0623 80.5229 22.7289ZM79.4016 27.8977C79.3882 27.8838 79.3682 27.8769 79.3415 27.8769C79.3215 27.8838 79.3081 27.8873 79.3015 27.8873C79.188 27.9081 79.0745 27.9046 78.9611 27.8769C78.8543 27.8491 78.7441 27.8109 78.6307 27.7622C78.5039 27.7066 78.387 27.6372 78.2803 27.5538C78.1735 27.4774 78.0533 27.394 77.9198 27.3037C77.9065 27.2898 77.8865 27.2759 77.8598 27.262C77.8331 27.2481 77.8197 27.2481 77.8197 27.262C77.813 27.269 77.8164 27.2863 77.8297 27.3141C77.8497 27.3419 77.8664 27.3628 77.8798 27.3766C77.9665 27.4948 78.0567 27.6059 78.1501 27.7101C78.2502 27.8143 78.377 27.8977 78.5306 27.9602C78.6307 28.0019 78.7341 28.0297 78.8409 28.0436C78.9477 28.0575 79.0445 28.0575 79.1313 28.0436C79.2247 28.0366 79.2981 28.0193 79.3515 27.9915C79.4049 27.9637 79.4216 27.9324 79.4016 27.8977ZM84.9993 22.7393C85.0193 22.5517 85.0227 22.3537 85.0093 22.1453C84.996 21.9369 84.9526 21.7458 84.8792 21.5721C84.8124 21.3915 84.7056 21.2421 84.5588 21.124C84.4186 21.0059 84.2317 20.9469 83.9981 20.9469C83.6844 20.9469 83.4108 21.0372 83.1772 21.2178C82.9435 21.3915 82.7433 21.6103 82.5764 21.8743C82.4096 22.1314 82.2794 22.4093 82.186 22.708C82.0925 22.9998 82.0325 23.2673 82.0058 23.5104C81.9657 23.8439 81.959 24.1322 81.9857 24.3754C82.0191 24.6185 82.0759 24.82 82.1559 24.9798C82.236 25.1326 82.3362 25.2473 82.4563 25.3237C82.5831 25.4001 82.7199 25.4383 82.8668 25.4383C83.0737 25.4453 83.2906 25.3862 83.5176 25.2612C83.7512 25.1292 83.9681 24.9485 84.1683 24.7193C84.3686 24.4831 84.5421 24.1982 84.6889 23.8648C84.8425 23.5243 84.9459 23.1492 84.9993 22.7393ZM81.7755 23.4583C81.8022 23.1804 81.8689 22.8748 81.9757 22.5413C82.0825 22.2078 82.2294 21.8986 82.4163 21.6138C82.6098 21.329 82.8401 21.0928 83.1071 20.9052C83.3741 20.7106 83.6844 20.6134 84.0382 20.6134C84.3052 20.6134 84.5254 20.6794 84.699 20.8114C84.8725 20.9434 85.006 21.1136 85.0994 21.322C85.1929 21.5235 85.2529 21.7458 85.2796 21.989C85.3063 22.2252 85.3063 22.451 85.2796 22.6663C85.2196 23.1665 85.1028 23.6008 84.9292 23.969C84.7557 24.3372 84.5521 24.6463 84.3185 24.8964C84.0849 25.1396 83.8379 25.3237 83.5776 25.4488C83.3173 25.5669 83.067 25.6259 82.8267 25.6259C82.6465 25.6259 82.483 25.5842 82.3362 25.5009C82.196 25.4175 82.0759 25.289 81.9757 25.1153C81.8823 24.9346 81.8155 24.7089 81.7755 24.4379C81.7421 24.16 81.7421 23.8335 81.7755 23.4583ZM82.8968 24.9277C82.8635 24.9277 82.8301 24.9173 82.7967 24.8964C82.7633 24.8686 82.7366 24.8374 82.7166 24.8026C82.6966 24.7679 82.6832 24.7332 82.6766 24.6984C82.6699 24.6637 82.6832 24.6394 82.7166 24.6255C82.7366 24.6185 82.7633 24.6429 82.7967 24.6984C82.8301 24.754 82.8668 24.7818 82.9068 24.7818C82.9736 24.7818 83.0503 24.7366 83.1371 24.6463C83.2306 24.556 83.3173 24.4518 83.3974 24.3337C83.4842 24.2086 83.5576 24.0871 83.6177 23.969C83.6844 23.8509 83.7311 23.764 83.7578 23.7084C83.7845 23.6529 83.8112 23.5834 83.8379 23.5C83.8646 23.4097 83.888 23.3194 83.908 23.2291C83.9347 23.1388 83.9547 23.0519 83.9681 22.9685C83.9881 22.8782 84.0015 22.8018 84.0081 22.7393C84.0415 22.4266 84.0348 22.187 83.9881 22.0202C83.9414 21.8465 83.8646 21.7597 83.7578 21.7597C83.6777 21.7597 83.5943 21.7875 83.5075 21.8431C83.4208 21.8917 83.3373 21.9577 83.2572 22.0411C83.1838 22.1244 83.1171 22.2182 83.057 22.3224C82.9969 22.4197 82.9536 22.5204 82.9269 22.6246C82.8935 22.7428 82.8701 22.8018 82.8568 22.8018C82.8368 22.8018 82.8267 22.7428 82.8267 22.6246C82.8468 22.4926 82.8901 22.3641 82.9569 22.2391C83.0236 22.1071 83.1071 21.9924 83.2072 21.8952C83.3073 21.791 83.4174 21.7076 83.5376 21.6451C83.6577 21.5756 83.7812 21.5409 83.908 21.5409C84.0348 21.5409 84.1283 21.5895 84.1884 21.6868C84.2551 21.7771 84.3018 21.8917 84.3285 22.0306C84.3552 22.1626 84.3652 22.3016 84.3586 22.4475C84.3586 22.5864 84.3519 22.6976 84.3385 22.781C84.3118 22.9685 84.2684 23.1526 84.2084 23.3333C84.155 23.507 84.0882 23.6841 84.0081 23.8648C83.9681 23.9481 83.908 24.0523 83.8279 24.1774C83.7478 24.2955 83.6544 24.4101 83.5476 24.5213C83.4475 24.6324 83.3373 24.7297 83.2172 24.8131C83.1037 24.8895 82.9969 24.9277 82.8968 24.9277ZM83.2172 25.1257C83.2239 25.1674 83.1905 25.2021 83.1171 25.2299C83.0503 25.2577 82.9803 25.2716 82.9068 25.2716C82.6999 25.2646 82.5397 25.1952 82.4263 25.0632C82.3195 24.9312 82.2427 24.7749 82.196 24.5942C82.1559 24.4136 82.1359 24.226 82.1359 24.0315C82.1426 23.837 82.1526 23.6737 82.166 23.5417C82.1927 23.3124 82.2461 23.0554 82.3261 22.7705C82.4062 22.4857 82.5197 22.2182 82.6665 21.9681C82.8134 21.718 82.9936 21.5096 83.2072 21.3429C83.4208 21.1692 83.6744 21.0823 83.9681 21.0823C84.1617 21.0823 84.3152 21.1344 84.4286 21.2386C84.5488 21.3429 84.6355 21.4714 84.6889 21.6242C84.749 21.7771 84.7824 21.9438 84.7891 22.1244C84.8024 22.2981 84.7991 22.4579 84.779 22.6038C84.7657 22.7636 84.7423 22.9095 84.709 23.0415C84.6756 23.1735 84.6289 23.3194 84.5688 23.4792C84.5488 23.5278 84.5221 23.5834 84.4887 23.6459C84.4553 23.7084 84.4186 23.7362 84.3786 23.7293C84.3585 23.7223 84.3519 23.6945 84.3586 23.6459C84.3719 23.5973 84.3853 23.5382 84.3986 23.4688C84.4186 23.3923 84.4386 23.3159 84.4587 23.2395C84.4787 23.1561 84.492 23.0797 84.4987 23.0102C84.5121 22.8921 84.5187 22.7462 84.5187 22.5725C84.5254 22.3919 84.5121 22.2182 84.4787 22.0515C84.452 21.8848 84.3986 21.7423 84.3185 21.6242C84.2384 21.5061 84.1183 21.4471 83.9581 21.4471C83.7245 21.4471 83.5075 21.527 83.3073 21.6868C83.1137 21.8396 82.9435 22.0306 82.7967 22.2599C82.6499 22.4822 82.5297 22.7184 82.4363 22.9685C82.3495 23.2117 82.2961 23.4271 82.2761 23.6146C82.2627 23.7258 82.2594 23.8648 82.2661 24.0315C82.2728 24.1982 82.2961 24.365 82.3362 24.5317C82.3829 24.6915 82.4563 24.8304 82.5564 24.9485C82.6565 25.0666 82.7934 25.1292 82.9669 25.1361C83.0203 25.1431 83.0704 25.1396 83.1171 25.1257C83.1705 25.1049 83.2039 25.1049 83.2172 25.1257ZM87.324 20.1965C87.364 20.0437 87.3907 19.8596 87.4041 19.6442C87.4174 19.4219 87.4174 19.2031 87.4041 18.9877C87.3907 18.7654 87.3574 18.557 87.304 18.3624C87.2573 18.1679 87.1838 18.0185 87.0837 17.9143C87.0437 17.8726 87.0103 17.8587 86.9836 17.8726C86.9636 17.8865 86.9702 17.9213 87.0036 17.9769C87.0704 18.1019 87.1004 18.2964 87.0937 18.5604C87.0937 18.8175 87.0737 19.0989 87.0337 19.4045C86.9936 19.7102 86.9402 20.0159 86.8735 20.3216C86.8067 20.6273 86.74 20.8948 86.6732 21.124C86.6399 21.2213 86.6065 21.3429 86.5731 21.4888C86.5397 21.6346 86.503 21.784 86.463 21.9369C86.4296 22.0828 86.3996 22.2286 86.3729 22.3745C86.3462 22.5135 86.3262 22.6316 86.3128 22.7289C86.3128 22.7497 86.3095 22.7914 86.3028 22.8539C86.2961 22.9095 86.3028 22.9442 86.3228 22.9581C86.3362 22.9581 86.3562 22.9303 86.3829 22.8748C86.4096 22.8122 86.4263 22.774 86.4329 22.7601C86.5931 22.3711 86.7567 21.9577 86.9235 21.52C87.0904 21.0754 87.2239 20.6342 87.324 20.1965ZM87.0937 22.7393C87.1271 22.6142 87.1738 22.451 87.2339 22.2495C87.294 22.048 87.354 21.8292 87.4141 21.593C87.4742 21.3498 87.5309 21.0997 87.5843 20.8426C87.6444 20.5786 87.6878 20.3251 87.7145 20.0819C87.7478 19.8318 87.7578 19.6025 87.7445 19.3941C87.7378 19.1857 87.7045 19.0155 87.6444 18.8835C87.6377 18.8626 87.6244 18.8418 87.6043 18.821C87.5843 18.8001 87.5743 18.8175 87.5743 18.8731C87.5876 19.3177 87.5443 19.7623 87.4441 20.207C87.344 20.6516 87.2372 21.0545 87.1238 21.4158C87.037 21.7006 86.9469 21.9855 86.8534 22.2703C86.7667 22.5552 86.6899 22.84 86.6232 23.1249C86.5631 23.4028 86.5231 23.6772 86.503 23.9481C86.4897 24.2191 86.5164 24.4796 86.5831 24.7297C86.6098 24.82 86.6332 24.8652 86.6532 24.8652C86.6732 24.8582 86.6832 24.8131 86.6832 24.7297C86.6832 24.6046 86.6933 24.4657 86.7133 24.3129C86.74 24.1531 86.7733 23.9863 86.8134 23.8126C86.8534 23.639 86.8968 23.4618 86.9436 23.2812C86.9903 23.0936 87.0403 22.913 87.0937 22.7393ZM86.9035 25.5946C86.6699 25.5669 86.4596 25.4453 86.2728 25.2299C86.0925 25.0145 85.9724 24.7505 85.9123 24.4379C85.8523 24.1392 85.8356 23.837 85.8623 23.5313C85.8956 23.2186 85.949 22.9269 86.0225 22.6559C86.1293 22.2391 86.2561 21.8118 86.4029 21.3741C86.5498 20.9295 86.6732 20.4918 86.7733 20.0611C86.8801 19.6303 86.9402 19.217 86.9536 18.821C86.9669 18.418 86.9002 18.0498 86.7533 17.7163C86.74 17.7094 86.73 17.6955 86.7233 17.6746C86.7166 17.6469 86.7066 17.6364 86.6933 17.6434C86.6732 17.6434 86.6699 17.6677 86.6832 17.7163C86.7366 18.0359 86.74 18.3833 86.6933 18.7584C86.6465 19.1266 86.5698 19.5122 86.463 19.9152C86.3629 20.3112 86.2461 20.7211 86.1126 21.1449C85.9857 21.5686 85.8656 21.9924 85.7521 22.4162C85.6654 22.7289 85.6053 23.0623 85.5719 23.4166C85.5452 23.764 85.5686 24.1149 85.642 24.4692C85.6821 24.6498 85.7421 24.8131 85.8222 24.959C85.909 25.1049 86.0091 25.2299 86.1226 25.3341C86.236 25.4314 86.3595 25.5078 86.493 25.5634C86.6265 25.619 86.7633 25.6433 86.9035 25.6363H86.9335C86.9402 25.6363 86.9502 25.6329 86.9636 25.6259C86.9636 25.6051 86.9436 25.5946 86.9035 25.5946ZM86.6031 25.0736C86.483 24.9277 86.3862 24.7401 86.3128 24.5109C86.3061 24.49 86.2961 24.4588 86.2828 24.4171C86.2694 24.3684 86.2561 24.3233 86.2427 24.2816C86.2294 24.233 86.216 24.1913 86.2027 24.1565C86.1893 24.1149 86.1793 24.094 86.1726 24.094C86.1459 24.094 86.1326 24.1392 86.1326 24.2295C86.1326 24.3198 86.1426 24.424 86.1626 24.5421C86.1827 24.6602 86.2127 24.7818 86.2527 24.9069C86.2928 25.025 86.3395 25.1188 86.3929 25.1882C86.4997 25.3133 86.6065 25.3897 86.7133 25.4175C86.8267 25.4453 86.9402 25.4592 87.0537 25.4592C87.0937 25.4592 87.1238 25.4488 87.1438 25.4279C87.1705 25.4001 87.1538 25.3793 87.0937 25.3654C86.9002 25.3445 86.7366 25.2473 86.6031 25.0736ZM90.7581 22.7393C90.7781 22.5517 90.7814 22.3537 90.7681 22.1453C90.7547 21.9369 90.7113 21.7458 90.6379 21.5721C90.5712 21.3915 90.4644 21.2421 90.3175 21.124C90.1774 21.0059 89.9905 20.9469 89.7569 20.9469C89.4432 20.9469 89.1695 21.0372 88.9359 21.2178C88.7023 21.3915 88.5021 21.6103 88.3352 21.8743C88.1683 22.1314 88.0382 22.4093 87.9447 22.708C87.8513 22.9998 87.7912 23.2673 87.7645 23.5104C87.7245 23.8439 87.7178 24.1322 87.7445 24.3754C87.7779 24.6185 87.8346 24.82 87.9147 24.9798C87.9948 25.1326 88.0949 25.2473 88.2151 25.3237C88.3419 25.4001 88.4787 25.4383 88.6255 25.4383C88.8325 25.4453 89.0494 25.3862 89.2763 25.2612C89.5099 25.1292 89.7268 24.9485 89.9271 24.7193C90.1273 24.4831 90.3009 24.1982 90.4477 23.8648C90.6012 23.5243 90.7047 23.1492 90.7581 22.7393ZM87.5342 23.4583C87.5609 23.1804 87.6277 22.8748 87.7345 22.5413C87.8413 22.2078 87.9881 21.8986 88.175 21.6138C88.3686 21.329 88.5988 21.0928 88.8658 20.9052C89.1328 20.7106 89.4432 20.6134 89.7969 20.6134C90.0639 20.6134 90.2842 20.6794 90.4577 20.8114C90.6312 20.9434 90.7647 21.1136 90.8582 21.322C90.9516 21.5235 91.0117 21.7458 91.0384 21.989C91.0651 22.2252 91.0651 22.451 91.0384 22.6663C90.9783 23.1665 90.8615 23.6008 90.688 23.969C90.5144 24.3372 90.3109 24.6463 90.0773 24.8964C89.8436 25.1396 89.5967 25.3237 89.3364 25.4488C89.0761 25.5669 88.8258 25.6259 88.5855 25.6259C88.4053 25.6259 88.2418 25.5842 88.0949 25.5009C87.9547 25.4175 87.8346 25.289 87.7345 25.1153C87.641 24.9346 87.5743 24.7089 87.5342 24.4379C87.5009 24.16 87.5009 23.8335 87.5342 23.4583ZM88.6556 24.9277C88.6222 24.9277 88.5888 24.9173 88.5555 24.8964C88.5221 24.8686 88.4954 24.8374 88.4754 24.8026C88.4553 24.7679 88.442 24.7332 88.4353 24.6984C88.4286 24.6637 88.442 24.6394 88.4754 24.6255C88.4954 24.6185 88.5221 24.6429 88.5555 24.6984C88.5888 24.754 88.6255 24.7818 88.6656 24.7818C88.7323 24.7818 88.8091 24.7366 88.8959 24.6463C88.9893 24.556 89.0761 24.4518 89.1562 24.3337C89.2429 24.2086 89.3164 24.0871 89.3764 23.969C89.4432 23.8509 89.4899 23.764 89.5166 23.7084C89.5433 23.6529 89.57 23.5834 89.5967 23.5C89.6234 23.4097 89.6467 23.3194 89.6668 23.2291C89.6935 23.1388 89.7135 23.0519 89.7268 22.9685C89.7469 22.8782 89.7602 22.8018 89.7669 22.7393C89.8003 22.4266 89.7936 22.187 89.7469 22.0202C89.7001 21.8465 89.6234 21.7597 89.5166 21.7597C89.4365 21.7597 89.3531 21.7875 89.2663 21.8431C89.1795 21.8917 89.0961 21.9577 89.016 22.0411C88.9426 22.1244 88.8758 22.2182 88.8158 22.3224C88.7557 22.4197 88.7123 22.5204 88.6856 22.6246C88.6522 22.7428 88.6289 22.8018 88.6155 22.8018C88.5955 22.8018 88.5855 22.7428 88.5855 22.6246C88.6055 22.4926 88.6489 22.3641 88.7156 22.2391C88.7824 22.1071 88.8658 21.9924 88.9659 21.8952C89.0661 21.791 89.1762 21.7076 89.2963 21.6451C89.4165 21.5756 89.54 21.5409 89.6668 21.5409C89.7936 21.5409 89.887 21.5895 89.9471 21.6868C90.0138 21.7771 90.0606 21.8917 90.0873 22.0306C90.114 22.1626 90.124 22.3016 90.1173 22.4475C90.1173 22.5864 90.1106 22.6976 90.0973 22.781C90.0706 22.9685 90.0272 23.1526 89.9671 23.3333C89.9137 23.507 89.847 23.6841 89.7669 23.8648C89.7268 23.9481 89.6668 24.0523 89.5867 24.1774C89.5066 24.2955 89.4131 24.4101 89.3063 24.5213C89.2062 24.6324 89.0961 24.7297 88.976 24.8131C88.8625 24.8895 88.7557 24.9277 88.6556 24.9277ZM88.976 25.1257C88.9826 25.1674 88.9493 25.2021 88.8758 25.2299C88.8091 25.2577 88.739 25.2716 88.6656 25.2716C88.4587 25.2646 88.2985 25.1952 88.185 25.0632C88.0782 24.9312 88.0015 24.7749 87.9547 24.5942C87.9147 24.4136 87.8947 24.226 87.8947 24.0315C87.9013 23.837 87.9114 23.6737 87.9247 23.5417C87.9514 23.3124 88.0048 23.0554 88.0849 22.7705C88.165 22.4857 88.2785 22.2182 88.4253 21.9681C88.5721 21.718 88.7524 21.5096 88.9659 21.3429C89.1795 21.1692 89.4332 21.0823 89.7268 21.0823C89.9204 21.0823 90.0739 21.1344 90.1874 21.2386C90.3075 21.3429 90.3943 21.4714 90.4477 21.6242C90.5078 21.7771 90.5411 21.9438 90.5478 22.1244C90.5612 22.2981 90.5578 22.4579 90.5378 22.6038C90.5244 22.7636 90.5011 22.9095 90.4677 23.0415C90.4343 23.1735 90.3876 23.3194 90.3275 23.4792C90.3075 23.5278 90.2808 23.5834 90.2475 23.6459C90.2141 23.7084 90.1774 23.7362 90.1373 23.7293C90.1173 23.7223 90.1106 23.6945 90.1173 23.6459C90.1307 23.5973 90.144 23.5382 90.1573 23.4688C90.1774 23.3923 90.1974 23.3159 90.2174 23.2395C90.2374 23.1561 90.2508 23.0797 90.2575 23.0102C90.2708 22.8921 90.2775 22.7462 90.2775 22.5725C90.2842 22.3919 90.2708 22.2182 90.2374 22.0515C90.2107 21.8848 90.1574 21.7423 90.0773 21.6242C89.9972 21.5061 89.877 21.4471 89.7168 21.4471C89.4832 21.4471 89.2663 21.527 89.0661 21.6868C88.8725 21.8396 88.7023 22.0306 88.5555 22.2599C88.4086 22.4822 88.2885 22.7184 88.195 22.9685C88.1083 23.2117 88.0549 23.4271 88.0348 23.6146C88.0215 23.7258 88.0182 23.8648 88.0248 24.0315C88.0315 24.1982 88.0549 24.365 88.0949 24.5317C88.1416 24.6915 88.2151 24.8304 88.3152 24.9485C88.4153 25.0666 88.5521 25.1292 88.7257 25.1361C88.7791 25.1431 88.8291 25.1396 88.8758 25.1257C88.9292 25.1049 88.9626 25.1049 88.976 25.1257Z" fill="#FFBC3F"/>
<g clip-path="url(#clip0)">
<rect x="1" y="39" width="137" height="137" fill="#6A6A6A" fill-opacity="0.33"/>
<path d="M20.8911 149.515H20.3257L18.1782 146.228V149.515H17.6128V145.25H18.1782L20.3315 148.552V145.25H20.8911V149.515ZM23.7622 149.515C23.731 149.453 23.7056 149.342 23.686 149.181C23.4341 149.443 23.1333 149.574 22.7837 149.574C22.4712 149.574 22.2144 149.486 22.0132 149.31C21.814 149.133 21.7144 148.908 21.7144 148.637C21.7144 148.306 21.8394 148.051 22.0894 147.869C22.3413 147.685 22.6948 147.594 23.1499 147.594H23.6772V147.345C23.6772 147.155 23.6206 147.005 23.5073 146.893C23.394 146.78 23.2271 146.723 23.0063 146.723C22.813 146.723 22.6509 146.772 22.52 146.87C22.3892 146.968 22.3237 147.086 22.3237 147.224H21.7788C21.7788 147.066 21.8345 146.914 21.9458 146.767C22.0591 146.619 22.2114 146.502 22.4028 146.416C22.5962 146.33 22.8081 146.287 23.0386 146.287C23.4038 146.287 23.6899 146.379 23.897 146.562C24.104 146.744 24.2114 146.995 24.2192 147.315V148.774C24.2192 149.065 24.2563 149.297 24.3306 149.469V149.515H23.7622ZM22.8628 149.102C23.0327 149.102 23.1938 149.058 23.3462 148.971C23.4985 148.883 23.6089 148.768 23.6772 148.628V147.977H23.2524C22.5884 147.977 22.2563 148.172 22.2563 148.56C22.2563 148.73 22.313 148.863 22.4263 148.959C22.5396 149.055 22.6851 149.102 22.8628 149.102ZM25.5786 146.346L25.5933 146.697C25.8257 146.424 26.1392 146.287 26.5337 146.287C26.9771 146.287 27.2788 146.457 27.439 146.797C27.5444 146.644 27.6812 146.521 27.8491 146.428C28.019 146.334 28.2192 146.287 28.4497 146.287C29.145 146.287 29.4985 146.655 29.5103 147.391V149.515H28.9683V147.424C28.9683 147.197 28.9165 147.028 28.813 146.917C28.7095 146.804 28.5356 146.747 28.2915 146.747C28.0903 146.747 27.9233 146.807 27.7905 146.929C27.6577 147.048 27.5806 147.209 27.5591 147.412V149.515H27.0142V147.438C27.0142 146.977 26.7886 146.747 26.3374 146.747C25.9819 146.747 25.7388 146.898 25.6079 147.201V149.515H25.0659V146.346H25.5786ZM31.646 149.574C31.2163 149.574 30.8667 149.433 30.5972 149.152C30.3276 148.869 30.1929 148.491 30.1929 148.018V147.919C30.1929 147.604 30.2524 147.324 30.3716 147.078C30.4927 146.83 30.6606 146.637 30.8755 146.498C31.0923 146.357 31.3267 146.287 31.5786 146.287C31.9907 146.287 32.311 146.423 32.5396 146.694C32.7681 146.966 32.8823 147.354 32.8823 147.86V148.086H30.7349C30.7427 148.398 30.8335 148.651 31.0073 148.845C31.1831 149.036 31.4058 149.132 31.6753 149.132C31.8667 149.132 32.0288 149.093 32.1616 149.014C32.2944 148.936 32.4106 148.833 32.5103 148.704L32.8413 148.962C32.5757 149.37 32.1772 149.574 31.646 149.574ZM31.5786 146.732C31.3599 146.732 31.1763 146.812 31.0278 146.972C30.8794 147.131 30.7876 147.353 30.7524 147.64H32.3403V147.599C32.3247 147.324 32.2505 147.111 32.1177 146.961C31.9849 146.808 31.8052 146.732 31.5786 146.732ZM35.812 145.25L37.2065 148.73L38.6011 145.25H39.3306V149.515H38.7681V147.854L38.8208 146.061L37.4204 149.515H36.9897L35.5923 146.07L35.6479 147.854V149.515H35.0854V145.25H35.812ZM40.0952 147.901C40.0952 147.591 40.1558 147.311 40.2769 147.063C40.3999 146.815 40.5698 146.624 40.7866 146.489C41.0054 146.354 41.2544 146.287 41.5337 146.287C41.9653 146.287 42.314 146.436 42.5796 146.735C42.8472 147.034 42.981 147.431 42.981 147.928V147.966C42.981 148.274 42.9214 148.552 42.8022 148.798C42.6851 149.042 42.5161 149.232 42.2954 149.369C42.0767 149.506 41.8247 149.574 41.5396 149.574C41.1099 149.574 40.7612 149.425 40.4937 149.126C40.228 148.827 40.0952 148.431 40.0952 147.939V147.901ZM40.6401 147.966C40.6401 148.317 40.7212 148.599 40.8833 148.812C41.0474 149.025 41.2661 149.132 41.5396 149.132C41.8149 149.132 42.0337 149.024 42.1958 148.809C42.3579 148.593 42.439 148.29 42.439 147.901C42.439 147.554 42.356 147.272 42.1899 147.057C42.0259 146.841 41.8071 146.732 41.5337 146.732C41.2661 146.732 41.0503 146.839 40.8862 147.052C40.7222 147.264 40.6401 147.569 40.6401 147.966ZM43.5288 147.904C43.5288 147.418 43.644 147.027 43.8745 146.732C44.105 146.435 44.4067 146.287 44.7798 146.287C45.1509 146.287 45.4448 146.414 45.6616 146.668V145.015H46.2036V149.515H45.7056L45.6792 149.176C45.4624 149.441 45.1606 149.574 44.7739 149.574C44.4067 149.574 44.1069 149.424 43.8745 149.123C43.644 148.822 43.5288 148.43 43.5288 147.945V147.904ZM44.0708 147.966C44.0708 148.325 44.145 148.606 44.2935 148.809C44.4419 149.013 44.647 149.114 44.9087 149.114C45.2524 149.114 45.5034 148.96 45.6616 148.651V147.195C45.4995 146.896 45.2505 146.747 44.9146 146.747C44.6489 146.747 44.4419 146.849 44.2935 147.055C44.145 147.26 44.0708 147.563 44.0708 147.966ZM48.3628 149.574C47.9331 149.574 47.5835 149.433 47.314 149.152C47.0444 148.869 46.9097 148.491 46.9097 148.018V147.919C46.9097 147.604 46.9692 147.324 47.0884 147.078C47.2095 146.83 47.3774 146.637 47.5923 146.498C47.8091 146.357 48.0435 146.287 48.2954 146.287C48.7075 146.287 49.0278 146.423 49.2563 146.694C49.4849 146.966 49.5991 147.354 49.5991 147.86V148.086H47.4517C47.4595 148.398 47.5503 148.651 47.7241 148.845C47.8999 149.036 48.1226 149.132 48.3921 149.132C48.5835 149.132 48.7456 149.093 48.8784 149.014C49.0112 148.936 49.1274 148.833 49.2271 148.704L49.5581 148.962C49.2925 149.37 48.894 149.574 48.3628 149.574ZM48.2954 146.732C48.0767 146.732 47.8931 146.812 47.7446 146.972C47.5962 147.131 47.5044 147.353 47.4692 147.64H49.0571V147.599C49.0415 147.324 48.9673 147.111 48.8345 146.961C48.7017 146.808 48.522 146.732 48.2954 146.732ZM50.8179 149.515H50.2759V145.015H50.8179V149.515Z" fill="white"/>
<path d="M18.9341 158.55C18.9077 158.776 18.8242 158.95 18.6836 159.073C18.5439 159.195 18.3579 159.256 18.1255 159.256C17.8735 159.256 17.6714 159.166 17.519 158.985C17.3677 158.804 17.292 158.563 17.292 158.26V158.055C17.292 157.857 17.3271 157.682 17.3975 157.532C17.4688 157.382 17.5693 157.266 17.6992 157.186C17.8291 157.105 17.9795 157.065 18.1504 157.065C18.377 157.065 18.5586 157.128 18.6953 157.255C18.832 157.381 18.9116 157.556 18.9341 157.78H18.6514C18.627 157.61 18.5737 157.487 18.4917 157.41C18.4106 157.334 18.2969 157.296 18.1504 157.296C17.9707 157.296 17.8296 157.363 17.7271 157.495C17.6255 157.628 17.5747 157.817 17.5747 158.062V158.269C17.5747 158.5 17.623 158.684 17.7197 158.821C17.8164 158.958 17.9517 159.026 18.1255 159.026C18.2817 159.026 18.4014 158.991 18.4844 158.921C18.5684 158.849 18.624 158.726 18.6514 158.55H18.9341ZM19.2051 158.42C19.2051 158.264 19.2354 158.125 19.2959 158.001C19.3574 157.877 19.4424 157.781 19.5508 157.714C19.6602 157.646 19.7847 157.613 19.9243 157.613C20.1401 157.613 20.3145 157.687 20.4473 157.837C20.5811 157.986 20.6479 158.185 20.6479 158.433V158.452C20.6479 158.606 20.6182 158.745 20.5586 158.868C20.5 158.99 20.4155 159.085 20.3052 159.154C20.1958 159.222 20.0698 159.256 19.9272 159.256C19.7124 159.256 19.5381 159.181 19.4043 159.032C19.2715 158.883 19.2051 158.685 19.2051 158.439V158.42ZM19.4775 158.452C19.4775 158.628 19.5181 158.769 19.5991 158.875C19.6812 158.982 19.7905 159.035 19.9272 159.035C20.0649 159.035 20.1743 158.981 20.2554 158.874C20.3364 158.765 20.377 158.614 20.377 158.42C20.377 158.246 20.3354 158.105 20.2524 157.998C20.1704 157.889 20.061 157.835 19.9243 157.835C19.7905 157.835 19.6826 157.888 19.6006 157.995C19.5186 158.101 19.4775 158.254 19.4775 158.452ZM21.9663 159.07C21.8608 159.194 21.7061 159.256 21.502 159.256C21.333 159.256 21.2041 159.207 21.1152 159.11C21.0273 159.011 20.9829 158.865 20.9819 158.673V157.642H21.2529V158.666C21.2529 158.906 21.3506 159.026 21.5459 159.026C21.7529 159.026 21.8906 158.949 21.959 158.795V157.642H22.23V159.227H21.9722L21.9663 159.07ZM22.8994 157.642L22.9082 157.841C23.0293 157.689 23.1875 157.613 23.3828 157.613C23.7178 157.613 23.8867 157.802 23.8896 158.179V159.227H23.6187V158.178C23.6177 158.064 23.5913 157.979 23.5396 157.925C23.4888 157.87 23.4092 157.843 23.3008 157.843C23.2129 157.843 23.1357 157.866 23.0693 157.913C23.0029 157.96 22.9512 158.021 22.9141 158.097V159.227H22.6431V157.642H22.8994ZM24.666 157.258V157.642H24.9619V157.851H24.666V158.834C24.666 158.898 24.6792 158.946 24.7056 158.978C24.7319 159.009 24.7769 159.025 24.8403 159.025C24.8716 159.025 24.9146 159.019 24.9692 159.007V159.227C24.8979 159.246 24.8286 159.256 24.7612 159.256C24.6401 159.256 24.5488 159.219 24.4873 159.146C24.4258 159.073 24.395 158.969 24.395 158.834V157.851H24.1064V157.642H24.395V157.258H24.666ZM26.0459 157.885C26.0049 157.878 25.9604 157.875 25.9126 157.875C25.7349 157.875 25.6143 157.95 25.5508 158.102V159.227H25.2798V157.642H25.5435L25.5479 157.825C25.6367 157.683 25.7627 157.613 25.9258 157.613C25.9785 157.613 26.0186 157.619 26.0459 157.633V157.885ZM26.8413 158.83L27.2104 157.642H27.5005L26.8633 159.471C26.7646 159.735 26.6079 159.867 26.3931 159.867L26.3418 159.863L26.2407 159.844V159.624L26.314 159.63C26.4058 159.63 26.4771 159.611 26.5278 159.574C26.5796 159.537 26.6221 159.469 26.6553 159.37L26.7153 159.209L26.1499 157.642H26.4458L26.8413 158.83ZM28.542 159.41H28.3091L29.1997 157.094H29.4312L28.542 159.41ZM32.0796 158.55C32.0532 158.776 31.9697 158.95 31.8291 159.073C31.6895 159.195 31.5034 159.256 31.271 159.256C31.019 159.256 30.8169 159.166 30.6646 158.985C30.5132 158.804 30.4375 158.563 30.4375 158.26V158.055C30.4375 157.857 30.4727 157.682 30.543 157.532C30.6143 157.382 30.7148 157.266 30.8447 157.186C30.9746 157.105 31.125 157.065 31.2959 157.065C31.5225 157.065 31.7041 157.128 31.8408 157.255C31.9775 157.381 32.0571 157.556 32.0796 157.78H31.7969C31.7725 157.61 31.7192 157.487 31.6372 157.41C31.5562 157.334 31.4424 157.296 31.2959 157.296C31.1162 157.296 30.9751 157.363 30.8726 157.495C30.771 157.628 30.7202 157.817 30.7202 158.062V158.269C30.7202 158.5 30.7686 158.684 30.8652 158.821C30.9619 158.958 31.0972 159.026 31.271 159.026C31.4272 159.026 31.5469 158.991 31.6299 158.921C31.7139 158.849 31.7695 158.726 31.7969 158.55H32.0796ZM32.7168 159.227H32.4458V157.642H32.7168V159.227ZM32.4238 157.221C32.4238 157.177 32.437 157.14 32.4634 157.11C32.4907 157.08 32.5308 157.065 32.5835 157.065C32.6362 157.065 32.6763 157.08 32.7036 157.11C32.731 157.14 32.7446 157.177 32.7446 157.221C32.7446 157.265 32.731 157.302 32.7036 157.331C32.6763 157.361 32.6362 157.375 32.5835 157.375C32.5308 157.375 32.4907 157.361 32.4634 157.331C32.437 157.302 32.4238 157.265 32.4238 157.221ZM33.5195 157.258V157.642H33.8154V157.851H33.5195V158.834C33.5195 158.898 33.5327 158.946 33.5591 158.978C33.5854 159.009 33.6304 159.025 33.6938 159.025C33.7251 159.025 33.7681 159.019 33.8228 159.007V159.227C33.7515 159.246 33.6821 159.256 33.6147 159.256C33.4937 159.256 33.4023 159.219 33.3408 159.146C33.2793 159.073 33.2485 158.969 33.2485 158.834V157.851H32.96V157.642H33.2485V157.258H33.5195ZM34.6519 158.83L35.021 157.642H35.311L34.6738 159.471C34.5752 159.735 34.4185 159.867 34.2036 159.867L34.1523 159.863L34.0513 159.844V159.624L34.1245 159.63C34.2163 159.63 34.2876 159.611 34.3384 159.574C34.3901 159.537 34.4326 159.469 34.4658 159.37L34.5259 159.209L33.9604 157.642H34.2563L34.6519 158.83Z" fill="white" fill-opacity="0.5"/>
<path d="M1 47.4742H31.2206V57.3608H1V47.4742Z" fill="#C4C4C4"/>
<path d="M1 58.7732H27.1912V68.6598H1V58.7732Z" fill="#C4C4C4"/>
<path d="M1 70.0721H23.1618V79.9587H1V70.0721Z" fill="#C4C4C4"/>
<rect x="1" y="177" width="137" height="137" fill="#6A6A6A" fill-opacity="0.33"/>
<path d="M1 185.474H31.2206V195.361H1V185.474Z" fill="#C4C4C4"/>
<path d="M1 196.773H27.1912V206.66H1V196.773Z" fill="#C4C4C4"/>
<path d="M1 208.072H23.1618V217.959H1V208.072Z" fill="#C4C4C4"/>
</g>
<defs>
<clipPath id="clip0">
<path d="M1 39H138V261C138 263.209 136.209 265 134 265H5C2.79086 265 1 263.209 1 261V39Z" fill="white"/>
</clipPath>
</defs>
</svg>
