<svg width="24" height="24" viewBox="0 0 24 24" fill="none" xmlns="http://www.w3.org/2000/svg">
<path d="M10.8103 1.26001C10.8103 0.98376 10.5865 0.76001 10.3103 0.76001H1.26025C0.984004 0.76001 0.760254 0.98376 0.760254 1.26001V10.31C0.760254 10.5863 0.984004 10.81 1.26025 10.81H10.3103C10.5865 10.81 10.8103 10.5863 10.8103 10.31V1.26001ZM9.81025 9.81001H1.76025V1.76001H9.81025V9.81001Z" fill="white" fill-opacity="0.3"/>
<path d="M23.26 1.26001C23.26 0.98376 23.0362 0.76001 22.76 0.76001H13.71C13.4337 0.76001 13.21 0.98376 13.21 1.26001V10.31C13.21 10.5863 13.4337 10.81 13.71 10.81H22.76C23.0362 10.81 23.26 10.5863 23.26 10.31V1.26001ZM22.26 9.81001H14.21V1.76001H22.26V9.81001Z" fill="white" fill-opacity="0.3"/>
<path d="M10.8103 13.71C10.8103 13.4337 10.5865 13.21 10.3103 13.21H1.26025C0.984004 13.21 0.760254 13.4337 0.760254 13.71V22.76C0.760254 23.0362 0.984004 23.26 1.26025 23.26H10.3103C10.5865 23.26 10.8103 23.0362 10.8103 22.76V13.71ZM9.81025 22.21H1.76025V14.21H9.81025V22.21Z" fill="white" fill-opacity="0.3"/>
<path d="M23.26 13.71C23.26 13.4337 23.0362 13.21 22.76 13.21H13.71C13.4337 13.21 13.21 13.4337 13.21 13.71V22.76C13.21 23.0362 13.4337 23.26 13.71 23.26H22.76C23.0362 23.26 23.26 23.0362 23.26 22.76V13.71ZM22.26 22.21H14.21V14.21H22.26V22.21Z" fill="white" fill-opacity="0.3"/>
</svg>
