<svg width="16" height="16" viewBox="0 0 16 16" fill="none" xmlns="http://www.w3.org/2000/svg">
<g clip-path="url(#clip0)">
<path d="M15.2728 0H9.45464C9.05298 0 8.72736 0.325625 8.72736 0.727281C8.72736 1.12894 9.05298 1.45456 9.45464 1.45456H13.517L6.03134 8.94031C5.74737 9.22428 5.74737 9.68478 6.03134 9.96881C6.1733 10.1108 6.35943 10.1818 6.54555 10.1818C6.73168 10.1818 6.91783 10.1108 7.05977 9.96878L14.5456 2.48306V6.54547C14.5456 6.94712 14.8712 7.27275 15.2728 7.27275C15.6745 7.27275 16.0001 6.94712 16.0001 6.54547V0.727281C16.0001 0.325625 15.6745 0 15.2728 0Z" fill="#F53A66" fill-opacity="0.7"/>
<path d="M12.3636 7.2728C11.962 7.2728 11.6363 7.59843 11.6363 8.00009V14.5456H1.45453V4.36371H8C8.40166 4.36371 8.72728 4.03809 8.72728 3.63643C8.72728 3.23477 8.40166 2.90918 8 2.90918H0.727281C0.325625 2.90918 0 3.2348 0 3.63646V15.2728C0 15.6745 0.325625 16.0001 0.727281 16.0001H12.3637C12.7653 16.0001 13.0909 15.6745 13.0909 15.2728V8.00009C13.0909 7.59843 12.7653 7.2728 12.3636 7.2728Z" fill="#F53A66" fill-opacity="0.7"/>
</g>
<defs>
<clipPath id="clip0">
<rect width="16" height="16" fill="white"/>
</clipPath>
</defs>
</svg>
