<svg width="51" height="32" viewBox="0 0 51 32" fill="none" xmlns="http://www.w3.org/2000/svg">
<rect width="51" height="28" fill="#5CB2F2"/>
<path d="M9.351 21V10.265H5.228V7.415H16.799V10.265H12.676V21H9.351ZM17.4106 14.122C17.4106 12.146 18.0756 10.4993 19.4056 9.182C20.7356 7.852 22.4392 7.187 24.5166 7.187C26.5939 7.187 28.2976 7.852 29.6276 9.182C30.9576 10.4993 31.6226 12.146 31.6226 14.122C31.6226 16.1487 30.9576 17.8397 29.6276 19.195C28.2976 20.5503 26.5939 21.228 24.5166 21.228C22.4392 21.228 20.7356 20.5503 19.4056 19.195C18.0756 17.8397 17.4106 16.1487 17.4106 14.122ZM20.8496 14.122C20.8496 15.2873 21.1916 16.2563 21.8756 17.029C22.5722 17.8017 23.4526 18.188 24.5166 18.188C25.5806 18.188 26.4546 17.8017 27.1386 17.029C27.8352 16.2563 28.1836 15.2873 28.1836 14.122C28.1836 13.0073 27.8352 12.0827 27.1386 11.348C26.4546 10.6007 25.5806 10.227 24.5166 10.227C23.4526 10.227 22.5722 10.6007 21.8756 11.348C21.1916 12.0827 20.8496 13.0073 20.8496 14.122ZM33.7375 21V7.415H39.3805C40.6978 7.415 41.7618 7.852 42.5725 8.726C43.3958 9.6 43.8075 10.721 43.8075 12.089C43.8075 13.4697 43.3958 14.6033 42.5725 15.49C41.7618 16.364 40.6978 16.801 39.3805 16.801H37.0625V21H33.7375ZM37.0625 13.951H38.6965C39.2538 13.951 39.6782 13.78 39.9695 13.438C40.2735 13.096 40.4255 12.6463 40.4255 12.089C40.4255 11.5317 40.2798 11.0883 39.9885 10.759C39.6972 10.4297 39.2855 10.265 38.7535 10.265H37.0625V13.951Z" fill="white"/>
<path d="M51 28L44 32L44 28L51 28Z" fill="#3E8CC6"/>
</svg>
