<svg width="60" height="32" viewBox="0 0 60 32" fill="none" xmlns="http://www.w3.org/2000/svg">
<rect width="60" height="28" fill="#F33E3E"/>
<path d="M10.425 21V7.415H13.788L17.55 13.761C17.702 14.027 17.873 14.3563 18.063 14.749C18.253 15.129 18.405 15.4457 18.519 15.699L18.69 16.079H18.728C18.6267 15.1037 18.576 14.331 18.576 13.761V7.415H21.901V21H18.557L14.776 14.673C14.624 14.407 14.453 14.084 14.263 13.704C14.073 13.3113 13.921 12.9883 13.807 12.735L13.636 12.355H13.598C13.6993 13.3303 13.75 14.103 13.75 14.673V21H10.425ZM24.7492 21V7.415H33.2612V10.265H28.0742V12.735H32.2162V15.585H28.0742V18.15H33.5272V21H24.7492ZM37.7874 21L34.4814 7.415H37.9774L39.6874 15.908C39.738 16.1613 39.776 16.4083 39.8014 16.649C39.8394 16.877 39.8584 17.048 39.8584 17.162V17.333H39.8964C39.909 16.9403 39.985 16.4653 40.1244 15.908L42.2144 7.415H44.8934L46.9264 15.908C46.9897 16.1613 47.0404 16.4083 47.0784 16.649C47.1164 16.877 47.1417 17.048 47.1544 17.162V17.333H47.1924C47.1924 16.9403 47.2494 16.4653 47.3634 15.908L49.2254 7.415H52.6644L49.2254 21H45.5204L43.8104 14.141L43.5444 12.545H43.5064C43.4684 13.0263 43.3797 13.5583 43.2404 14.141L41.5304 21H37.7874Z" fill="white"/>
<path d="M60 28L53 32L53 28L60 28Z" fill="#C0272D"/>
</svg>
