<svg width="16" height="16" viewBox="0 0 16 16" fill="none" xmlns="http://www.w3.org/2000/svg">
<g clip-path="url(#clip0)">
<path d="M8.1665 1.33333H7.43317C7.21317 0.566667 6.5065 0 5.6665 0C4.8265 0 4.11984 0.566667 3.89984 1.33333H3.1665C2.89317 1.33333 2.6665 1.56 2.6665 1.83333V2.83333C2.6665 3.47333 3.19317 4 3.83317 4H7.49984C8.13984 4 8.6665 3.47333 8.6665 2.83333V1.83333C8.6665 1.56 8.43984 1.33333 8.1665 1.33333Z" fill="white" fill-opacity="0.5"/>
<path d="M9.5 2H9.33333V2.83333C9.33333 3.84667 8.51333 4.66667 7.5 4.66667H3.83333C2.82 4.66667 2 3.84667 2 2.83333V2H1.83333C0.82 2 0 2.82 0 3.83333V12.1667C0 13.18 0.82 14 1.83333 14H6.22667C5.89333 13.2867 5.69333 12.5 5.67333 11.6667H2.5C2.22667 11.6667 2 11.44 2 11.1667C2 10.8933 2.22667 10.6667 2.5 10.6667H5.72667C5.78667 10.26 5.88667 9.87333 6.02 9.5H2.5C2.22667 9.5 2 9.27333 2 9C2 8.72666 2.22667 8.5 2.5 8.5H6.5C6.76 8.07333 7.06667 7.68 7.42667 7.33333H2.5C2.22667 7.33333 2 7.10666 2 6.83333C2 6.56 2.22667 6.33333 2.5 6.33333H8.79333C9.56 5.93333 10.42 5.69333 11.3333 5.67333V3.83333C11.3333 2.82 10.5133 2 9.5 2Z" fill="white" fill-opacity="0.5"/>
<path d="M11.5 7C9.01867 7 7 9.01867 7 11.5C7 13.9813 9.01867 16 11.5 16C13.9813 16 16 13.9813 16 11.5C16 9.01867 13.9813 7 11.5 7ZM13.668 10.606L11.3347 13.2727C11.2133 13.4113 11.04 13.494 10.8553 13.5C10.848 13.5 10.8407 13.5 10.8333 13.5C10.6567 13.5 10.4873 13.43 10.362 13.3047L9.02867 11.9713C8.768 11.7107 8.768 11.2893 9.02867 11.0287C9.28933 10.768 9.71067 10.768 9.97133 11.0287L10.8007 11.858L12.6647 9.72733C12.9073 9.45133 13.328 9.422 13.6053 9.66467C13.8827 9.90733 13.9107 10.3287 13.668 10.606Z" fill="white" fill-opacity="0.5"/>
</g>
<defs>
<clipPath id="clip0">
<rect width="16" height="16" fill="white"/>
</clipPath>
</defs>
</svg>
