<svg width="17" height="16" viewBox="0 0 17 16" fill="none" xmlns="http://www.w3.org/2000/svg">
<g clip-path="url(#clip0)">
<path d="M16.3584 6.13797C16.2537 5.81398 15.9663 5.58388 15.6264 5.55324L11.0083 5.13391L9.18223 0.859755C9.04758 0.546514 8.74094 0.34375 8.40023 0.34375C8.05952 0.34375 7.75287 0.546514 7.61823 0.860487L5.79213 5.13391L1.17336 5.55324C0.833993 5.58461 0.547365 5.81398 0.442016 6.13797C0.336666 6.46195 0.433959 6.81731 0.690679 7.04131L4.18137 10.1027L3.15205 14.6368C3.07673 14.9702 3.20612 15.3148 3.48274 15.5148C3.63143 15.6222 3.80538 15.6769 3.9808 15.6769C4.13205 15.6769 4.28208 15.6361 4.41673 15.5556L8.40023 13.1748L12.3823 15.5556C12.6737 15.7309 13.041 15.7149 13.317 15.5148C13.5937 15.3142 13.723 14.9695 13.6477 14.6368L12.6184 10.1027L16.109 7.04192C16.3658 6.81731 16.4638 6.46256 16.3584 6.13797Z" fill="#FFC107"/>
</g>
<defs>
<clipPath id="clip0">
<rect x="0.400024" width="16" height="16" fill="white"/>
</clipPath>
</defs>
</svg>
