<svg width="16" height="16" viewBox="0 0 16 16" fill="none" xmlns="http://www.w3.org/2000/svg">
<g clip-path="url(#clip0)">
<path d="M8.00017 5.81812C6.79653 5.81812 5.81836 6.79628 5.81836 7.99992C5.81836 9.20356 6.79653 10.1817 8.00017 10.1817C9.20381 10.1817 10.182 9.20356 10.182 7.99992C10.182 6.79628 9.20377 5.81812 8.00017 5.81812Z" fill="white" fill-opacity="0.5"/>
<path d="M8.00002 2.54541C4.36364 2.54541 1.25819 4.80721 0 7.99996C1.25819 11.1927 4.36364 13.4545 8.00002 13.4545C11.64 13.4545 14.7418 11.1927 16 7.99996C14.7418 4.80721 11.64 2.54541 8.00002 2.54541ZM8.00002 11.6363C5.99274 11.6363 4.36364 10.0072 4.36364 7.99992C4.36364 5.99265 5.99274 4.36358 8.00002 4.36358C10.0073 4.36358 11.6364 5.99268 11.6364 7.99996C11.6364 10.0072 10.0073 11.6363 8.00002 11.6363Z" fill="white" fill-opacity="0.5"/>
</g>
<defs>
<clipPath id="clip0">
<rect width="16" height="16" fill="white"/>
</clipPath>
</defs>
</svg>
