<svg width="16" height="16" viewBox="0 0 16 16" fill="none" xmlns="http://www.w3.org/2000/svg">
<path d="M9 5.33333C9.184 5.33333 9.33333 5.48267 9.33333 5.66667V10.3333C9.33333 10.5173 9.184 10.6667 9 10.6667H1.66667C1.48267 10.6667 1.33333 10.5173 1.33333 10.3333V5.66667C1.33333 5.48267 1.48267 5.33333 1.66667 5.33333H9ZM10.6667 5.33333C10.6667 4.59733 10.0693 4 9.33333 4H1.33333C0.597333 4 0 4.59733 0 5.33333V10.6667C0 11.4027 0.597333 12 1.33333 12H9.33333C10.0693 12 10.6667 11.4027 10.6667 10.6667V5.33333ZM14.6667 6.56933V9.43133L13.3333 8.49267V7.50733L14.6667 6.56933ZM16 4L12 6.81533V9.18467L16 12V4Z" fill="white" fill-opacity="0.2"/>
</svg>
