<svg width="46" height="32" viewBox="0 0 46 32" fill="none" xmlns="http://www.w3.org/2000/svg">
<rect width="46" height="28" fill="#F3853D"/>
<path d="M12.693 21L7.886 7.415H11.496L13.89 15.148C13.966 15.4013 14.0483 15.7117 14.137 16.079C14.2257 16.4463 14.2953 16.744 14.346 16.972L14.403 17.333H14.441C14.6057 16.4463 14.7767 15.718 14.954 15.148L17.386 7.415H20.939L16.151 21H12.693ZM22.2463 21V7.415H25.5713V21H22.2463ZM28.425 21V7.415H34.068C35.3853 7.415 36.4493 7.852 37.26 8.726C38.0833 9.6 38.495 10.721 38.495 12.089C38.495 13.4697 38.0833 14.6033 37.26 15.49C36.4493 16.364 35.3853 16.801 34.068 16.801H31.75V21H28.425ZM31.75 13.951H33.384C33.9413 13.951 34.3657 13.78 34.657 13.438C34.961 13.096 35.113 12.6463 35.113 12.089C35.113 11.5317 34.9673 11.0883 34.676 10.759C34.3847 10.4297 33.973 10.265 33.441 10.265H31.75V13.951Z" fill="white"/>
<path d="M46 28L39 32L39 28L46 28Z" fill="#CB6B2D"/>
</svg>
