<svg width="52" height="52" viewBox="0 0 52 52" fill="none" xmlns="http://www.w3.org/2000/svg">
<path fill-rule="evenodd" clip-rule="evenodd" d="M24.9167 0C38.6685 0 49.8333 11.1648 49.8333 24.9167C49.8333 38.6685 38.6685 49.8333 24.9167 49.8333C11.1648 49.8333 0 38.6685 0 24.9167C0 11.1648 11.1648 0 24.9167 0ZM24.9167 2.16667C37.4725 2.16667 47.6667 12.3608 47.6667 24.9167C47.6667 37.4725 37.4725 47.6667 24.9167 47.6667C12.3608 47.6667 2.16667 37.4725 2.16667 24.9167C2.16667 12.3608 12.3608 2.16667 24.9167 2.16667ZM26 23.8333H39V26H26V39H23.8333V26H10.8333V23.8333H23.8333V10.8333H26V23.8333Z" fill="#FFBC3F"/>
</svg>
