<svg width="24" height="24" viewBox="0 0 24 24" fill="none" xmlns="http://www.w3.org/2000/svg">
<g clip-path="url(#clip0)">
<path d="M12.9375 23.0626L12.9375 3.2083L16.2105 6.49724C16.5758 6.86422 17.1693 6.86563 17.5363 6.50038C17.9033 6.13513 17.9047 5.5415 17.5395 5.17452L12.6645 0.275891C12.6642 0.275563 12.6639 0.275329 12.6636 0.275047C12.2984 -0.0909996 11.7029 -0.0921715 11.3364 0.274953C11.3361 0.275282 11.3358 0.275516 11.3355 0.275797L6.46052 5.17442C6.09536 5.54136 6.09663 6.13498 6.46371 6.50028C6.83069 6.86553 7.42427 6.86413 7.78952 6.49714L11.0625 3.2083L11.0625 23.0626C11.0625 23.5804 11.4822 24.0001 12 24.0001C12.5178 24.0001 12.9375 23.5804 12.9375 23.0626Z" fill="#F53A66"/>
</g>
<defs>
<clipPath id="clip0">
<rect x="24" width="24" height="24" transform="rotate(90 24 0)" fill="white"/>
</clipPath>
</defs>
</svg>
