<svg width="16" height="16" viewBox="0 0 16 16" fill="none" xmlns="http://www.w3.org/2000/svg">
<path d="M8 2.00032C11.676 2.00032 14.6667 4.45699 14.6667 7.47565C14.6667 10.8356 11.236 12.9149 8.058 12.9149C6.70667 12.9149 5.69267 12.6223 5.026 12.4403L2.35667 13.2376L3.19133 11.3043C2.55667 10.6376 1.33333 9.57899 1.33333 7.47565C1.33333 4.45699 4.324 2.00032 8 2.00032ZM8 0.666992C3.58133 0.666992 0 3.71565 0 7.47565C0 9.06899 0.621333 10.5363 1.618 11.5849L0 15.3336L5.042 13.8269C6.09867 14.1163 7.10933 14.2483 8.05733 14.2483C12.7893 14.2489 16 10.9609 16 7.47565C16 3.71565 12.4187 0.666992 8 0.666992Z" fill="white" fill-opacity="0.2"/>
</svg>
