<svg width="20" height="20" viewBox="0 0 20 20" fill="none" xmlns="http://www.w3.org/2000/svg">
<path opacity="0.1" d="M10 0C4.47715 0 0 4.47715 0 10C0 15.5228 4.47715 20 10 20C15.5228 20 20 15.5228 20 10C19.9936 4.47982 15.5202 0.00642897 10 0Z" fill="black"/>
<path d="M15.3131 6.77785L9.8413 14.2034C9.71081 14.3765 9.51621 14.49 9.30125 14.5182C9.08629 14.5465 8.86899 14.4872 8.69818 14.3537L4.79076 11.2297C4.44595 10.9537 4.39012 10.4505 4.66605 10.1057C4.94198 9.76091 5.44519 9.70508 5.78999 9.98101L9.04831 12.5878L14.0261 5.83218C14.1893 5.58723 14.474 5.45181 14.767 5.47967C15.06 5.50754 15.314 5.69418 15.4282 5.96549C15.5423 6.23681 15.4981 6.5489 15.3131 6.77785Z" fill="black"/>
</svg>
