<svg width="100" height="100" viewBox="0 0 100 100" fill="none" xmlns="http://www.w3.org/2000/svg">
<path d="M50 100C77.6142 100 100 77.6142 100 50C100 22.3858 77.6142 0 50 0C22.3858 0 0 22.3858 0 50C0 77.6142 22.3858 100 50 100Z" fill="#7C519B"/>
<path d="M49.7313 29.3481C50.048 29.057 50.2724 29.0159 51.3758 29.0503C51.9546 29.0703 52.7969 29.137 53.2591 29.1914C55.5902 29.4825 57.4758 30.0447 59.5402 31.0514C61.5724 32.047 62.8747 32.987 64.5958 34.6992C66.2058 36.3159 67.1013 37.5403 68.0502 39.4414C69.3713 42.0936 70.1235 45.247 70.2524 48.717C70.2991 49.9014 70.2658 50.167 69.9958 50.5025C69.4802 51.1603 68.348 51.0514 67.9635 50.3136C67.8391 50.0703 67.8046 49.8603 67.7658 48.9114C67.698 47.457 67.5969 46.5181 67.3924 45.3936C66.5924 40.9903 64.4802 37.4725 61.1058 34.9492C58.2924 32.8403 55.3869 31.8092 51.5802 31.5881C50.2913 31.5147 50.068 31.467 49.7769 31.2425C49.2358 30.8147 49.208 29.8147 49.7313 29.3481ZM57.8069 38.0614C56.4446 37.2503 54.4324 36.6492 52.598 36.4992C51.9313 36.4447 51.5669 36.3103 51.3169 36.0192C50.9302 35.5792 50.8902 34.9836 51.2146 34.4892C51.5669 33.9425 52.108 33.8536 53.7269 34.0959C57.8402 34.6992 61.0258 36.607 63.1113 39.7059C64.2869 41.4503 65.0169 43.5014 65.268 45.7003C65.3535 46.5059 65.3535 47.9725 65.258 48.2159C65.1724 48.4459 64.8858 48.7581 64.6424 48.887C64.3791 49.0214 63.8146 49.0081 63.5035 48.8459C62.9835 48.5836 62.8269 48.1625 62.8269 47.027C62.8269 45.2736 62.3735 43.427 61.588 41.9947C60.6924 40.3547 59.3924 39.0036 57.8069 38.0614ZM60.0969 47.0803C59.698 47.4447 58.958 47.4581 58.5102 47.1147C58.1869 46.8692 58.0835 46.6114 58.0091 45.917C57.9224 44.9903 57.7602 44.3392 57.4802 43.7381C56.8846 42.4603 55.8346 41.7959 54.0591 41.5792C53.2269 41.4792 52.9746 41.3836 52.7046 41.0647C52.2091 40.477 52.4002 39.5236 53.0846 39.1703C53.3413 39.0447 53.448 39.0292 54.0191 39.0636C54.3702 39.0836 54.8924 39.1436 55.1702 39.2047C56.5046 39.4892 57.5291 39.997 58.4013 40.8147C59.528 41.8781 60.1446 43.1625 60.4158 45.0092C60.5991 46.2147 60.5235 46.6881 60.0969 47.0803ZM70.218 64.8536C69.7191 66.1447 67.7669 68.567 66.4046 69.6014C65.1724 70.5347 64.2969 70.8925 63.1435 70.9492C62.1969 70.9947 61.8035 70.9125 60.5913 70.4136C51.078 66.497 43.4813 60.6525 37.4502 52.6203C34.3013 48.4259 31.9024 44.077 30.2602 39.5625C29.308 36.9325 29.2613 35.7892 30.0458 34.4414C30.3858 33.8747 31.8269 32.467 32.8802 31.6836C34.628 30.3836 35.4346 29.9036 36.0758 29.767C36.518 29.6714 37.2824 29.747 37.7702 29.9236C38.0058 30.0036 38.3746 30.1947 38.5824 30.3292C39.8713 31.1825 43.4546 35.7614 44.6258 38.0481C45.2969 39.3547 45.5213 40.3203 45.3102 41.0381C45.0924 41.8081 44.7324 42.2147 43.1291 43.5081C42.4847 44.0292 41.8802 44.5625 41.7869 44.7059C41.5424 45.057 41.3458 45.7481 41.3458 46.2336C41.3524 47.3647 42.0858 49.4125 43.0469 50.9903C43.7935 52.2147 45.1258 53.7836 46.4491 54.9881C48.0002 56.4092 49.368 57.377 50.9147 58.1414C52.898 59.1292 54.1124 59.3781 54.9991 58.9659C55.2235 58.8659 55.4613 58.7292 55.5335 58.6681C55.6013 58.607 56.1224 57.9714 56.6935 57.2681C57.7902 55.8881 58.0424 55.6647 58.7935 55.4081C59.7502 55.0825 60.7246 55.1692 61.7069 55.6703C62.4535 56.057 64.0791 57.0659 65.128 57.7947C66.5113 58.7625 69.4658 61.1714 69.8658 61.6514C70.5724 62.5192 70.6946 63.6281 70.218 64.8536Z" fill="white"/>
</svg>
