<svg width="512" height="512" viewBox="0 0 512 512" fill="none" xmlns="http://www.w3.org/2000/svg">
<g clip-path="url(#clip0)">
<path d="M208 512C205.418 512 202.816 511.383 200.449 510.102C195.242 507.328 192 501.887 192 496V290.773C192 283.309 188.863 276.137 183.359 271.105L12.0977 114.238C4.39453 107.156 0 97.1289 0 86.7188V37.332C0 16.7461 16.7461 0 37.332 0H474.668C495.254 0 512 16.7461 512 37.332V86.7188C512 97.1289 507.605 107.156 499.926 114.238L328.684 271.125C323.137 276.137 320 283.309 320 290.773V420.566C320 433.066 313.793 444.691 303.383 451.625L216.875 509.289C214.207 511.105 211.113 512 208 512ZM37.332 32C34.3906 32 32 34.3906 32 37.332V86.7188C32 88.2148 32.6406 89.6445 33.75 90.668L204.949 247.508C217.047 258.602 224 274.367 224 290.773V466.09L285.633 425.004C287.105 424.02 288 422.355 288 420.566V290.773C288 274.348 294.934 258.582 307.07 247.508L478.273 90.6445C479.359 89.6445 480 88.2148 480 86.7188V37.332C480 34.3906 477.609 32 474.668 32H37.332Z" fill="white"/>
</g>
<defs>
<clipPath id="clip0">
<rect width="512" height="512" fill="white"/>
</clipPath>
</defs>
</svg>
