<svg width="24" height="24" viewBox="0 0 24 24" fill="none" xmlns="http://www.w3.org/2000/svg">
<path d="M12 0C5.36705 0 0 5.36752 0 12C0 18.633 5.36752 24 12 24C18.633 24 24 18.6325 24 12C24 5.36705 18.6325 0 12 0ZM12 22.125C6.40345 22.125 1.875 17.5962 1.875 12C1.875 6.40345 6.40383 1.875 12 1.875C17.5965 1.875 22.125 6.40383 22.125 12C22.125 17.5965 17.5962 22.125 12 22.125Z" fill="white"/>
<path d="M12 6.04102C11.4822 6.04102 11.0625 6.46073 11.0625 6.97851V13.0157C11.0625 13.5335 11.4822 13.9532 12 13.9532C12.5178 13.9532 12.9375 13.5335 12.9375 13.0157V6.97851C12.9375 6.46073 12.5178 6.04102 12 6.04102Z" fill="white"/>
<path d="M12 17.6323C12.699 17.6323 13.2656 17.0657 13.2656 16.3667C13.2656 15.6677 12.699 15.1011 12 15.1011C11.301 15.1011 10.7344 15.6677 10.7344 16.3667C10.7344 17.0657 11.301 17.6323 12 17.6323Z" fill="white"/>
</svg>
