<svg width="17" height="16" viewBox="0 0 17 16" fill="none" xmlns="http://www.w3.org/2000/svg">
<g clip-path="url(#clip0)">
<path d="M16.1585 6.13797C16.0538 5.81398 15.7664 5.58388 15.4264 5.55324L10.8084 5.13391L8.98228 0.859755C8.84763 0.546514 8.54098 0.34375 8.20028 0.34375C7.85957 0.34375 7.55292 0.546514 7.41827 0.860487L5.59218 5.13391L0.973407 5.55324C0.634042 5.58461 0.347414 5.81398 0.242064 6.13797C0.136715 6.46195 0.234008 6.81731 0.490728 7.04131L3.98142 10.1027L2.9521 14.6368C2.87678 14.9702 3.00617 15.3148 3.28279 15.5148C3.43148 15.6222 3.60543 15.6769 3.78085 15.6769C3.9321 15.6769 4.08213 15.6361 4.21678 15.5556L8.20028 13.1748L12.1823 15.5556C12.4737 15.7309 12.841 15.7149 13.117 15.5148C13.3938 15.3142 13.523 14.9695 13.4477 14.6368L12.4184 10.1027L15.9091 7.04192C16.1658 6.81731 16.2638 6.46256 16.1585 6.13797Z" fill="#CCCCCC"/>
</g>
<defs>
<clipPath id="clip0">
<rect x="0.200195" width="16" height="16" fill="white"/>
</clipPath>
</defs>
</svg>
