<svg width="16" height="16" viewBox="0 0 16 16" fill="none" xmlns="http://www.w3.org/2000/svg">
<g clip-path="url(#clip0)">
<path d="M15.7821 7.4739L11.0208 2.71257C10.7303 2.42206 10.2591 2.42206 9.96864 2.71257C9.67807 3.00313 9.67807 3.47414 9.96864 3.7647L13.4599 7.25601L0.743959 7.25601C0.333115 7.25601 0 7.58913 0 7.99997C0 8.41076 0.333115 8.74393 0.743959 8.74393L13.4599 8.74393L9.96875 12.2352C9.67819 12.5258 9.67819 12.9968 9.96875 13.2874C10.114 13.4325 10.3044 13.5053 10.4948 13.5053C10.6852 13.5053 10.8756 13.4325 11.0209 13.2874L15.7821 8.52604C16.0727 8.23548 16.0727 7.76446 15.7821 7.4739Z" fill="black"/>
</g>
<defs>
<clipPath id="clip0">
<rect width="16" height="16" fill="white"/>
</clipPath>
</defs>
</svg>
