<svg width="100" height="100" viewBox="0 0 100 100" fill="none" xmlns="http://www.w3.org/2000/svg">
<path d="M50 100C77.6142 100 100 77.6142 100 50C100 22.3858 77.6142 0 50 0C22.3858 0 0 22.3858 0 50C0 77.6142 22.3858 100 50 100Z" fill="#F05825"/>
<path d="M69.0746 43.5692C67.6324 43.5692 66.3113 44.0747 65.2713 44.9125C61.5913 42.6192 56.9191 41.238 51.9135 40.948L54.5269 32.7647L61.7035 34.4403C61.8924 37.0291 64.078 39.078 66.7357 39.078C69.5191 39.078 71.7869 36.8336 71.7869 34.0758C71.7869 31.3203 69.5191 29.0747 66.7357 29.0747C64.7902 29.0747 63.098 30.1725 62.2557 31.7758L53.9157 29.8314C53.218 29.668 52.5113 30.0658 52.2935 30.7447L49.0513 40.8991C43.658 41.0291 38.5869 42.4158 34.6346 44.8425C33.6113 44.048 32.3224 43.5703 30.9235 43.5703C27.5935 43.5703 24.8857 46.2525 24.8857 49.5536C24.8857 51.5914 25.9235 53.3947 27.5002 54.4736C27.4335 54.9469 27.4002 55.4258 27.4002 55.908C27.4002 60.0314 29.8169 63.868 34.2102 66.7069C38.4191 69.4303 43.9902 70.9303 49.8969 70.9303C55.8024 70.9303 61.3757 69.4303 65.5846 66.7069C69.9757 63.868 72.3946 60.0314 72.3946 55.908C72.3946 55.4692 72.3635 55.0314 72.308 54.5969C73.9924 53.5358 75.1113 51.6714 75.1113 49.5536C75.1124 46.2514 72.4035 43.5692 69.0746 43.5692ZM66.7357 31.7914C68.0091 31.7914 69.0435 32.8169 69.0435 34.0747C69.0435 35.3358 68.008 36.3603 66.7357 36.3603C65.4646 36.3603 64.4324 35.3358 64.4324 34.0747C64.4313 32.8169 65.4646 31.7914 66.7357 31.7914ZM39.128 53.2503C39.128 51.3925 40.7035 49.8325 42.578 49.8325C44.4535 49.8325 45.9791 51.3925 45.9791 53.2503C45.9791 55.1125 44.4546 56.6203 42.578 56.6203C40.7035 56.6203 39.128 55.1125 39.128 53.2503ZM58.2657 63.1569C56.518 64.8891 53.8235 65.7303 50.0224 65.7303C50.0157 65.7303 50.0069 65.728 49.9969 65.728C49.9902 65.728 49.9802 65.7303 49.9702 65.7303C46.1724 65.7303 43.478 64.888 41.7324 63.1569C41.1946 62.6247 41.1946 61.7658 41.7324 61.2358C42.2669 60.7036 43.1357 60.7036 43.6713 61.2358C44.8746 62.4291 46.938 63.0114 49.9702 63.0114C49.9813 63.0114 49.9913 63.0136 49.9969 63.0136C50.008 63.0136 50.0169 63.0114 50.0224 63.0114C53.0591 63.0114 55.1202 62.4303 56.3269 61.2358C56.8635 60.7025 57.7335 60.7036 58.2657 61.2358C58.8035 61.7658 58.8035 62.6269 58.2657 63.1569ZM57.4713 56.6203C55.5946 56.6203 54.0157 55.1125 54.0157 53.2503C54.0157 51.3903 55.5946 49.8325 57.4713 49.8325C59.348 49.8325 60.8702 51.3903 60.8702 53.2503C60.8691 55.1125 59.348 56.6203 57.4713 56.6203Z" fill="white"/>
</svg>
