<svg width="220" height="99" viewBox="0 0 220 99" fill="none" xmlns="http://www.w3.org/2000/svg">
<g clip-path="url(#clip0)">
<path d="M75.3883 29.5524C75.0963 28.873 74.8225 28.1621 74.5717 27.4399C74.4767 27.1654 74.2766 26.94 74.0153 26.8131C73.754 26.6863 73.4531 26.6683 73.1787 26.7634C72.9042 26.8584 72.6788 27.0586 72.5518 27.3199C72.4251 27.5812 72.4071 27.8821 72.5023 28.1565C72.7695 28.9285 73.0636 29.6895 73.3761 30.4167C73.4316 30.5508 73.513 30.6726 73.6159 30.7749C73.7188 30.8772 73.8409 30.9582 73.9752 31.013C74.1097 31.0677 74.2535 31.0952 74.3987 31.0939C74.5438 31.0924 74.6872 31.0622 74.8205 31.005C74.9538 30.9478 75.0744 30.8646 75.1753 30.7602C75.2762 30.6559 75.3554 30.5327 75.4082 30.3975C75.4611 30.2624 75.4864 30.1181 75.4831 29.973C75.4797 29.8279 75.4474 29.685 75.3883 29.5524Z" fill="#FFBC3F"/>
<path d="M83.684 42.4608C83.9359 42.6053 84.2348 42.644 84.5152 42.5681C84.7955 42.4922 85.0342 42.308 85.1787 42.0561C85.3234 41.8042 85.3619 41.5053 85.286 41.2249C85.2101 40.9446 85.0259 40.7059 84.774 40.5614C82.19 39.0638 79.9562 37.0308 78.2223 34.5989C77.7299 33.9166 77.2725 33.2096 76.8521 32.4807C76.7048 32.2335 76.4661 32.0541 76.1875 31.9816C75.9091 31.9091 75.6132 31.9491 75.3639 32.0929C75.1146 32.2369 74.9321 32.4732 74.8557 32.7507C74.7793 33.0281 74.8153 33.3246 74.9558 33.5758C75.4135 34.3694 75.9115 35.1391 76.4479 35.8819C78.3632 38.5658 80.8304 40.809 83.684 42.4608Z" fill="#FFBC3F"/>
<path d="M135.546 42.1814C135.752 42.1814 135.952 42.1233 136.127 42.014C136.869 41.5482 137.583 41.0394 138.267 40.4897C138.491 40.3068 138.633 40.043 138.663 39.7559C138.692 39.4688 138.607 39.1815 138.426 38.9565C138.245 38.7316 137.983 38.5872 137.695 38.5548C137.409 38.5224 137.121 38.6045 136.895 38.7834C136.278 39.2791 135.633 39.7381 134.963 40.1583C134.762 40.2846 134.608 40.4729 134.522 40.695C134.437 40.9171 134.427 41.1608 134.493 41.3894C134.558 41.6179 134.696 41.8187 134.886 41.9617C135.076 42.1045 135.308 42.1817 135.546 42.1814Z" fill="#FFBC3F"/>
<path d="M140.087 38.3647C140.24 38.3649 140.391 38.333 140.53 38.2711C140.671 38.2092 140.796 38.1186 140.899 38.0054C143.077 35.6044 144.843 32.6708 146.15 29.2862C146.292 28.9189 146.431 28.538 146.563 28.1565C146.658 27.8821 146.641 27.5812 146.513 27.3199C146.387 27.0586 146.161 26.8584 145.887 26.7634C145.613 26.6683 145.312 26.6863 145.05 26.8131C144.789 26.94 144.588 27.1654 144.493 27.4399C144.369 27.7978 144.239 28.1534 144.106 28.4971C142.897 31.6295 141.272 34.3335 139.277 36.534C139.134 36.6911 139.04 36.8861 139.006 37.0954C138.972 37.3048 139.001 37.5193 139.087 37.7131C139.173 37.907 139.312 38.0718 139.49 38.1874C139.667 38.3031 139.876 38.3647 140.087 38.3647Z" fill="#FFBC3F"/>
<path d="M69.6448 36.4495C68.343 26.6862 72.8992 14.3194 73.5501 13.6685C74.1723 13.0462 77.9678 31.2509 87.7763 37.6024M87.7763 37.6024C88.2285 37.8951 88.6934 38.1628 89.1714 38.4022M87.7763 37.6024C104.724 29.0699 114.3 28.8869 131.479 37.7513M129.526 38.4022C139.62 34.1925 142.874 28.3848 145.148 13.0176C150.71 21.3333 152.301 26.6982 149.053 39.0531" stroke="#FFBC3F" stroke-width="2"/>
<path d="M15.2227 45.3819C15.0977 45.1008 15.0665 44.9602 15.129 44.9602C15.2227 44.9602 15.3321 45.0383 15.457 45.1945C15.582 45.3195 15.6601 45.3976 15.6913 45.4288C16.0038 45.8974 16.3474 46.4129 16.7224 46.9753C17.0973 47.5064 17.4566 48.1469 17.8002 48.8967C18.1439 49.6466 18.4563 50.5214 18.7375 51.5211C19.0187 52.4896 19.2374 53.6456 19.3936 54.989C19.5811 56.5199 19.6123 58.0352 19.4873 59.5348C19.3936 61.0032 19.2218 62.4873 18.9718 63.9869C18.9406 64.0494 18.9093 64.2056 18.8781 64.4556C18.8468 64.7055 18.7844 64.8305 18.6906 64.8305C18.6281 64.8305 18.5657 64.7211 18.5032 64.5024C18.4407 64.2525 18.4095 64.0806 18.4095 63.9869C18.347 63.6432 18.2845 63.2371 18.222 62.7685C18.1595 62.2998 18.097 61.8156 18.0345 61.3157C18.0033 60.7845 17.9721 60.2847 17.9408 59.816C17.9408 59.3161 17.9408 58.8788 17.9408 58.5038C17.9408 58.3789 17.9252 58.1133 17.8939 57.7071C17.8939 57.2698 17.8783 56.7699 17.8471 56.2075C17.8158 55.6451 17.7534 55.0359 17.6596 54.3798C17.5971 53.6925 17.519 53.0208 17.4253 52.3647C17.4878 53.3332 17.4878 54.3017 17.4253 55.2702C17.3628 56.2387 17.2847 57.2229 17.191 58.2227C17.0973 59.1912 17.0192 60.1753 16.9567 61.1751C16.8942 62.1436 16.8942 63.1277 16.9567 64.1275C17.0504 66.0646 17.4409 68.0328 18.1283 70.0324C18.8156 72.0319 19.9091 73.7346 21.4087 75.1405C21.5962 75.328 21.6743 75.4217 21.6431 75.4217C21.5806 75.4529 21.4712 75.4217 21.315 75.328C20.2215 74.7031 19.3155 73.9533 18.5969 73.0785C17.8783 72.2037 17.2847 71.2508 16.8161 70.2198C16.3787 69.1888 16.0506 68.1266 15.8319 67.0331C15.6132 65.9083 15.4883 64.7836 15.457 63.6589C15.457 63.5651 15.4414 63.487 15.4102 63.4245C15.4102 63.3308 15.4102 63.2371 15.4102 63.1434C14.7853 64.9242 14.0824 66.6425 13.3013 68.2984C12.5515 69.9543 11.8016 71.5476 11.0518 73.0785C10.3332 74.6094 9.6459 76.0622 8.98981 77.4369C8.36495 78.7803 7.86507 80.03 7.49016 81.186C7.42768 81.3422 7.38081 81.4203 7.34957 81.4203C7.28709 81.4203 7.25584 81.3734 7.25584 81.2797C7.25584 81.186 7.25584 81.1235 7.25584 81.0922C7.28709 79.6238 7.58389 78.0929 8.14626 76.4996C8.70862 74.875 9.36472 73.2035 10.1145 71.4851C10.8956 69.7356 11.7079 67.9547 12.5515 66.1427C13.395 64.2993 14.1292 62.4248 14.7541 60.519C15.129 59.3005 15.4414 58.0352 15.6913 56.723C15.9725 55.4108 16.1444 54.0986 16.2068 52.7864C16.2693 51.4743 16.2225 50.1933 16.0663 48.9436C15.91 47.6627 15.6289 46.4754 15.2227 45.3819ZM21.0338 72.3756C21.3775 73.0941 21.8305 73.7659 22.3929 74.3907C22.6116 73.0785 23.0334 71.7819 23.6582 70.501C24.2831 69.1888 24.986 67.8766 25.7671 66.5644C26.5794 65.2522 27.4229 63.9401 28.2977 62.6279C29.1725 61.3157 29.9848 59.9879 30.7347 58.6444C31.297 57.6759 31.7657 56.6293 32.1406 55.5045C32.5467 54.3798 32.8279 53.2395 32.9841 52.0835C33.1716 50.8963 33.2184 49.7247 33.1247 48.5687C33.0622 47.4127 32.8279 46.3192 32.4218 45.2882C32.328 45.132 32.3124 45.0227 32.3749 44.9602C32.4374 44.8977 32.5311 44.9445 32.6561 45.1008C32.8123 45.2257 32.906 45.3195 32.9373 45.3819C33.3122 45.9131 33.609 46.616 33.8277 47.4908C34.0776 48.3344 34.2495 49.2873 34.3432 50.3495C34.4682 51.3805 34.5306 52.474 34.5306 53.63C34.5306 54.786 34.4838 55.9419 34.39 57.0979C34.2651 58.6288 34.0308 60.3003 33.6871 62.1124C33.3747 63.9244 32.9841 65.5803 32.5155 67.0799C32.4842 67.1424 32.4218 67.283 32.328 67.5017C32.2655 67.7204 32.1874 67.8298 32.0937 67.8298C32.0312 67.7985 31.9844 67.6735 31.9531 67.4548C31.9219 67.2049 31.9063 67.0487 31.9063 66.9862C31.9063 66.6425 31.9063 66.2364 31.9063 65.7677C31.9375 65.2679 31.9687 64.768 32 64.2681C32.0312 63.737 32.0625 63.2371 32.0937 62.7685C32.1562 62.2686 32.2187 61.8468 32.2812 61.5031C32.3124 61.3157 32.3593 60.8939 32.4218 60.2378C32.5155 59.5505 32.5936 58.785 32.6561 57.9415C32.2812 58.8163 31.9844 59.5973 31.7657 60.2847C31.547 60.972 31.3595 61.6437 31.2033 62.2998C31.0471 62.9559 30.9065 63.6432 30.7815 64.3618C30.6878 65.0804 30.5941 65.924 30.5003 66.8925C30.4066 67.861 30.3597 68.8764 30.3597 69.9386C30.391 71.0009 30.5003 72.0475 30.6878 73.0785C30.9065 74.1095 31.2033 75.1249 31.5782 76.1247C31.9844 77.0932 32.4999 77.9836 33.1247 78.7959C33.2497 78.9834 33.2809 79.0927 33.2184 79.124C33.156 79.1552 33.0779 79.124 32.9841 79.0302C31.9844 78.2179 31.1877 77.3119 30.5941 76.3121C30.0317 75.2811 29.6099 74.2032 29.3287 73.0785C29.0476 71.9538 28.8913 70.8134 28.8601 69.6574C28.8601 68.4702 28.9226 67.3143 29.0476 66.1895C29.11 65.7834 29.1569 65.3772 29.1882 64.9711C29.2506 64.5649 29.3131 64.1431 29.3756 63.7057C28.657 64.8617 27.9384 65.9864 27.2199 67.0799C26.5013 68.1734 25.8296 69.2669 25.2047 70.3604C24.5799 71.4227 24.0175 72.4849 23.5176 73.5472C23.049 74.5782 22.6897 75.6092 22.4397 76.6402C22.3773 76.7964 22.346 76.8745 22.346 76.8745C22.2835 76.8745 22.2523 76.812 22.2523 76.687C22.2523 76.5621 22.2523 76.484 22.2523 76.4527C22.2523 76.2028 22.2523 75.9528 22.2523 75.7029C22.2523 75.4529 22.2835 75.203 22.346 74.9531C22.0961 74.8281 21.8774 74.7188 21.6899 74.625C21.5025 74.5001 21.315 74.3595 21.1276 74.2032C20.9713 74.047 20.7995 73.8596 20.6121 73.6409C20.4558 73.4222 20.284 73.141 20.0966 72.7973C19.9403 72.4849 19.7841 72.11 19.6279 71.6726C19.4717 71.2352 19.3311 70.8134 19.2061 70.4073C19.1124 69.9699 19.0499 69.6106 19.0187 69.3294C19.0187 69.017 19.0655 68.8608 19.1593 68.8608C19.2218 68.8608 19.2842 68.9232 19.3467 69.0482C19.4405 69.1419 19.5342 69.2669 19.6279 69.4231C19.7216 69.5793 19.7997 69.7356 19.8622 69.8918C19.9247 70.048 19.9716 70.1573 20.0028 70.2198C20.159 70.5947 20.3153 70.9696 20.4715 71.3445C20.6589 71.6882 20.8464 72.0319 21.0338 72.3756ZM22.018 63.7057C22.7053 62.3623 23.4083 61.0657 24.1269 59.816C24.8767 58.5351 25.4703 57.5197 25.9077 56.7699C26.6575 55.4264 27.4386 54.1143 28.2509 52.8333C29.0632 51.5211 29.7661 50.3651 30.3597 49.3654C30.4222 49.2092 30.4847 49.0686 30.5472 48.9436C30.6409 48.8186 30.719 48.7874 30.7815 48.8499C30.844 48.8499 30.8596 48.928 30.8284 49.0842C30.7971 49.2404 30.7659 49.3966 30.7347 49.5528C30.2973 51.8023 29.5006 53.9268 28.3446 55.9263C27.2199 57.9258 26.0326 59.941 24.7829 61.9718C24.3455 62.6591 23.955 63.2371 23.6113 63.7057C23.2989 64.1431 23.0177 64.5805 22.7678 65.0179C22.5491 65.4241 22.3616 65.8771 22.2054 66.377C22.0492 66.8769 21.9399 67.5173 21.8774 68.2984C22.0024 67.9547 22.1429 67.6267 22.2992 67.3143C22.4554 67.0018 22.6116 66.705 22.7678 66.4238C23.6426 64.9242 24.6267 63.4245 25.7202 61.9249C26.8137 60.4253 27.8916 59.0193 28.9538 57.7071C29.0163 57.6447 29.1257 57.5197 29.2819 57.3322C29.4693 57.1135 29.5943 57.0198 29.6568 57.0511C29.7193 57.0823 29.7037 57.2229 29.6099 57.4728C29.5474 57.7228 29.5006 57.9102 29.4693 58.0352C29.3131 58.3789 29.11 58.8006 28.8601 59.3005C28.6414 59.8004 28.3915 60.3159 28.1103 60.847C27.8603 61.3469 27.5948 61.8468 27.3136 62.3467C27.0324 62.8153 26.7825 63.2058 26.5638 63.5183C26.4388 63.7057 26.1732 64.0806 25.7671 64.643C25.3609 65.2054 24.9235 65.9083 24.4549 66.7519C23.9863 67.5954 23.5176 68.5483 23.049 69.6106C22.6116 70.6728 22.2835 71.7976 22.0648 72.9848C21.9711 72.7973 21.8461 72.563 21.6899 72.2818C21.565 72.0006 21.4087 71.5476 21.2213 70.9228C20.6589 68.9545 20.3465 66.9706 20.284 64.9711C20.2528 62.9403 20.2528 60.8627 20.284 58.7382C20.3153 57.3947 20.3153 56.0513 20.284 54.7079C20.284 53.3644 20.0653 51.9429 19.6279 50.4432C19.5967 50.3183 19.5967 50.2245 19.6279 50.1621C19.6904 50.1621 19.7841 50.2558 19.9091 50.4432C20.4715 51.0369 20.8932 51.9116 21.1744 53.0676C21.4556 54.1924 21.6587 55.3952 21.7837 56.6761C21.9086 57.9258 21.9711 59.1599 21.9711 60.3784C22.0024 61.5656 22.018 62.5185 22.018 63.2371V63.7057ZM9.69277 59.6286C10.2239 58.004 10.8175 56.3637 11.4736 54.7079C12.1609 53.052 12.7545 51.568 13.2544 50.2558C13.3169 50.0996 13.3794 49.9434 13.4419 49.7871C13.5356 49.6309 13.6137 49.5685 13.6762 49.5997C13.7387 49.5997 13.7543 49.709 13.7231 49.9277C13.7231 50.1152 13.7231 50.287 13.7231 50.4432C13.4419 53.0051 12.8795 55.5514 12.036 58.0821C11.1924 60.6127 10.2551 63.1121 9.22413 65.5803C8.59927 67.1424 7.92756 68.7202 7.20898 70.3135C6.4904 71.8757 5.89679 73.5784 5.42815 75.4217C5.36566 75.5779 5.33442 75.6716 5.33442 75.7029C5.36566 75.7341 5.36566 75.7498 5.33442 75.7498C5.24069 75.6873 5.19383 75.5467 5.19383 75.328C5.03762 74.3907 5.13135 73.2191 5.47501 71.8132C5.81868 70.376 6.25608 68.9076 6.7872 67.408C7.31833 65.8771 7.86507 64.4243 8.42744 63.0496C8.98981 61.6437 9.41158 60.5034 9.69277 59.6286ZM7.67762 70.7822C8.45868 69.0014 9.30223 67.1737 10.2083 65.2991C11.1143 63.3933 11.9891 61.5812 12.8326 59.8629C12.8639 59.7692 12.942 59.5973 13.067 59.3474C13.2232 59.0974 13.3638 58.9881 13.4887 59.0193C13.5512 59.0193 13.5668 59.1599 13.5356 59.4411C13.5044 59.7223 13.4575 59.9254 13.395 60.0503C13.3013 60.4877 13.1763 61.0189 13.0201 61.6437C12.8639 62.2373 12.6764 62.8622 12.4577 63.5183C12.2703 64.1431 12.0672 64.768 11.8485 65.3928C11.6298 65.9864 11.4267 66.4863 11.2393 66.8925C11.1455 67.0799 10.9737 67.4861 10.7238 68.1109C10.5051 68.7045 10.2239 69.4231 9.88022 70.2667C9.5678 71.1102 9.22413 72.0163 8.84922 72.9848C8.50555 73.9221 8.1775 74.8281 7.86507 75.7029C7.55265 76.5464 7.27146 77.3119 7.02152 77.9992C6.80282 78.6553 6.67785 79.124 6.64661 79.4051C6.58413 79.7176 6.52164 79.8738 6.45916 79.8738C6.39667 79.8738 6.34981 79.8113 6.31856 79.6863C6.31856 79.5614 6.30294 79.4676 6.2717 79.4051C6.11549 79.0302 6.03738 78.4835 6.03738 77.7649C6.06862 77.0463 6.16235 76.2809 6.31856 75.4686C6.47478 74.6563 6.66223 73.8283 6.88093 72.9848C7.13087 72.1412 7.39643 71.407 7.67762 70.7822ZM35.6085 66.7519C35.4523 68.1578 35.2024 69.5637 34.8587 70.9696C34.5463 72.3756 34.2651 73.6253 34.0151 74.7187C33.8902 75.1249 33.7964 75.3124 33.7339 75.2811C33.6715 75.2811 33.6246 75.2186 33.5934 75.0937C33.5934 74.9375 33.5777 74.7812 33.5465 74.625C33.2966 72.5318 33.3278 70.4385 33.6402 68.3453C33.9527 66.252 34.2963 64.1119 34.6712 61.9249C34.9212 60.6127 35.1242 59.2693 35.2805 57.8946C35.4367 56.4887 35.4367 54.989 35.2805 53.3957C35.2805 53.2707 35.3117 53.177 35.3742 53.1145C35.4367 53.1145 35.4679 53.1614 35.4679 53.2551C35.4992 53.3176 35.546 53.3644 35.6085 53.3957C36.0771 54.083 36.3427 55.0359 36.4052 56.2544C36.4989 57.4416 36.4989 58.6913 36.4052 60.0035C36.3115 61.3157 36.1709 62.581 35.9834 63.7995C35.8272 65.0179 35.7022 66.0021 35.6085 66.7519ZM14.3792 48.8499C14.3167 48.1938 14.2229 47.5845 14.098 47.0222C14.0042 46.4598 13.8793 45.8818 13.7231 45.2882C13.6918 45.2257 13.6762 45.1476 13.6762 45.0539C13.6762 44.9602 13.6918 44.9133 13.7231 44.9133C13.8168 44.9133 13.9105 44.9602 14.0042 45.0539L14.1917 45.2414C14.5354 45.71 14.8166 46.1786 15.0353 46.6473C15.2539 47.0847 15.3945 47.8189 15.457 48.8499C15.4883 49.256 15.4883 49.7559 15.457 50.3495C15.4258 50.9431 15.3633 51.5055 15.2696 52.0366C15.2071 52.5677 15.1134 53.0208 14.9884 53.3957C14.8947 53.7706 14.8009 53.9424 14.7072 53.9112C14.6447 53.9112 14.5979 53.8331 14.5666 53.6769C14.5354 53.4894 14.5041 53.2863 14.4729 53.0676C14.4729 52.8489 14.4729 52.6302 14.4729 52.4115C14.4729 52.1616 14.4729 51.9898 14.4729 51.896C14.4729 51.3649 14.4729 50.865 14.4729 50.3964C14.4729 49.8965 14.4416 49.381 14.3792 48.8499ZM31.5313 48.2406C31.5001 47.6783 31.4376 47.1472 31.3439 46.6473C31.2814 46.1474 31.1721 45.6319 31.0158 45.1008C30.9846 45.0383 30.9534 44.9602 30.9221 44.8664C30.9221 44.7727 30.9534 44.7415 31.0158 44.7727C31.0783 44.8352 31.1252 44.8821 31.1564 44.9133C31.2189 44.9445 31.2814 44.9758 31.3439 45.007L31.4376 45.1008C31.7813 45.5382 32.0469 45.9599 32.2343 46.3661C32.453 46.7722 32.578 47.444 32.6092 48.3812C32.6092 48.7249 32.5624 49.1623 32.4686 49.6934C32.4061 50.2245 32.3124 50.74 32.1874 51.2399C32.0937 51.7086 31.9687 52.1147 31.8125 52.4584C31.6876 52.7708 31.5626 52.8958 31.4376 52.8333C31.3751 52.8021 31.3439 52.7083 31.3439 52.5521C31.3439 52.3647 31.3439 52.1772 31.3439 51.9898C31.3439 51.7711 31.3595 51.568 31.3908 51.3805C31.422 51.1931 31.4376 51.0525 31.4376 50.9587C31.5001 50.4589 31.5313 49.9902 31.5313 49.5528C31.5626 49.1154 31.5626 48.678 31.5313 48.2406ZM33.1716 75.9841C33.359 76.5152 33.5621 76.9995 33.7808 77.4369C34.0308 77.8743 34.2807 78.3116 34.5306 78.749C34.5619 78.7803 34.5931 78.8428 34.6244 78.9365C34.6556 78.999 34.64 79.0302 34.5775 79.0302C34.4838 79.0302 34.4057 79.0146 34.3432 78.9834C34.3119 78.9521 34.2651 78.9209 34.2026 78.8896C34.1401 78.8584 34.0932 78.8272 34.062 78.7959C33.6246 78.4522 33.2653 78.1242 32.9841 77.8118C32.7029 77.4993 32.4218 76.937 32.1406 76.1247C32.0469 75.8122 31.9531 75.4217 31.8594 74.9531C31.7657 74.4844 31.7032 74.0314 31.6719 73.594C31.6407 73.1566 31.6407 72.7817 31.6719 72.4693C31.7032 72.1569 31.7813 72.0006 31.9063 72.0006C31.9375 72.0006 31.9844 72.0787 32.0469 72.235C32.1093 72.3599 32.1562 72.5161 32.1874 72.7036C32.2499 72.8598 32.2968 73.0316 32.328 73.2191C32.3905 73.3753 32.4374 73.4847 32.4686 73.5472C32.6248 73.9846 32.7498 74.4063 32.8435 74.8125C32.9373 75.2186 33.0466 75.6092 33.1716 75.9841ZM54.1333 63.0028C54.1333 64.5649 53.9146 66.2051 53.4772 67.9235C53.071 69.6106 52.5243 71.2821 51.837 72.9379C51.1496 74.5938 50.3529 76.1715 49.4469 77.6712C48.5721 79.1396 47.6661 80.4049 46.7288 81.4672C46.3851 81.8421 46.182 82.0139 46.1196 81.9827C46.0571 81.9514 46.0883 81.7171 46.2133 81.2797C46.4007 80.7798 46.6351 80.2174 46.9162 79.5926C47.2287 78.9677 47.5255 78.3585 47.8067 77.7649C48.1191 77.1401 48.4159 76.5464 48.6971 75.9841C49.0095 75.4217 49.2594 74.9531 49.4469 74.5782C49.6656 74.1095 49.9155 73.5003 50.1967 72.7505C50.4779 71.9694 50.7435 71.1102 50.9934 70.1729C51.2746 69.2357 51.5401 68.2515 51.7901 67.2205C52.04 66.1895 52.2587 65.2054 52.4462 64.2681C52.6336 63.2996 52.7742 62.4248 52.868 61.6437C52.9929 60.8314 53.0398 60.1753 53.0086 59.6754C52.9773 59.1131 52.9773 58.7538 53.0086 58.5976C53.071 58.4101 53.1335 58.3476 53.196 58.4101C53.2585 58.4414 53.321 58.5351 53.3835 58.6913C53.4772 58.8475 53.5553 58.9881 53.6178 59.1131C53.8365 59.7379 53.9771 60.4409 54.0396 61.2219C54.102 62.003 54.1333 62.5966 54.1333 63.0028ZM44.9011 75.9372C44.6824 76.1872 44.3856 76.4215 44.0107 76.6402C43.6358 76.8589 43.2765 76.9682 42.9328 76.9682C42.183 76.9682 41.5581 76.7495 41.0583 76.3121C40.5896 75.8747 40.2147 75.3436 39.9335 74.7187C39.6523 74.0627 39.4493 73.3753 39.3243 72.6567C39.2306 71.9382 39.1837 71.2977 39.1837 70.7353C39.1837 69.8918 39.2618 68.9232 39.418 67.8298C39.6055 66.705 39.871 65.5959 40.2147 64.5024C40.5896 63.3777 41.027 62.3311 41.5269 61.3625C42.058 60.3628 42.6829 59.5661 43.4015 58.9725C43.5889 58.8475 43.7607 58.7382 43.917 58.6444C44.0732 58.5195 44.0263 58.6757 43.7764 59.1131C43.5889 59.4567 43.4015 59.7535 43.214 60.0035C43.0578 60.2534 42.9328 60.5346 42.8391 60.847C42.3392 61.7531 41.9331 62.706 41.6206 63.7057C41.3394 64.7055 41.1051 65.7209 40.9177 66.7519C40.6365 68.1266 40.4959 69.5012 40.4959 70.8759C40.4959 71.3758 40.5115 71.9225 40.5428 72.5161C40.6052 73.1098 40.7302 73.6721 40.9177 74.2032C41.1051 74.7344 41.3863 75.1874 41.7612 75.5623C42.1674 75.906 42.7141 76.0778 43.4015 76.0778C43.5889 76.0778 43.8076 76.0309 44.0575 75.9372C44.3075 75.8435 44.5106 75.7498 44.6668 75.656C44.9167 75.5623 45.0417 75.5467 45.0417 75.6092C45.0417 75.6716 44.9948 75.781 44.9011 75.9372ZM55.3517 63.7995C55.4767 64.2681 55.5392 64.8148 55.5392 65.4397C55.5392 66.7206 55.3517 68.1422 54.9768 69.7043C54.6019 71.2352 54.102 72.8286 53.4772 74.4844C52.8836 76.1403 52.165 77.8118 51.3214 79.4989C50.5091 81.186 49.65 82.8106 48.7439 84.3727C47.8691 85.9348 46.9631 87.3876 46.0258 88.7311C45.0886 90.1057 44.1981 91.2929 43.3546 92.2927C43.3233 92.324 43.2609 92.3864 43.1671 92.4802C43.1046 92.5739 43.0265 92.652 42.9328 92.7145C42.8703 92.8082 42.8078 92.8707 42.7454 92.9019C42.6829 92.9332 42.6516 92.8863 42.6516 92.7614C42.6516 92.6989 42.8391 92.2771 43.214 91.496C43.6202 90.7462 44.12 89.7933 44.7136 88.6373C45.3073 87.5126 45.9477 86.2785 46.6351 84.9351C47.3536 83.6229 48.041 82.3576 48.6971 81.1391C49.3532 79.9206 49.9155 78.8428 50.3842 77.9055C50.8841 76.9682 51.2121 76.3277 51.3683 75.9841C52.2744 73.9845 53.0398 71.985 53.6646 69.9855C54.3207 67.9547 54.7738 65.8615 55.0237 63.7057C55.0549 63.4558 55.0706 63.3308 55.0706 63.3308C55.1018 63.2996 55.1955 63.4558 55.3517 63.7995ZM52.3056 60.3315C52.3056 62.0811 52.0557 63.8619 51.5558 65.674C51.0871 67.4548 50.4935 69.2201 49.7749 70.9696C49.0564 72.7192 48.2597 74.4219 47.3849 76.0778C46.5413 77.7024 45.729 79.2177 44.948 80.6236C43.542 83.248 42.3548 85.9036 41.3863 88.5905C40.4178 91.3086 39.7461 94.136 39.3712 97.0728C39.3087 97.4165 39.2618 97.5571 39.2306 97.4946C39.1993 97.4946 39.1525 97.4009 39.09 97.2134C39.0587 97.0572 39.0275 96.8698 38.9962 96.6511C38.965 96.4636 38.9338 96.2605 38.9025 96.0418C38.9025 95.8231 38.9025 95.6357 38.9025 95.4795C38.9025 94.0735 39.0587 92.652 39.3712 91.2148C39.6836 89.7777 40.0897 88.3718 40.5896 86.9971C41.0895 85.6224 41.6362 84.279 42.2299 82.9668C42.8547 81.6546 43.4796 80.4205 44.1044 79.2645H42.8391C41.9018 79.2645 41.0895 79.0459 40.4022 78.6085C39.7148 78.1711 39.1525 77.5931 38.7151 76.8745C38.2777 76.1559 37.934 75.3124 37.6841 74.3438C37.4654 73.3753 37.356 72.3599 37.356 71.2977C37.356 70.8915 37.4029 70.3292 37.4966 69.6106C37.5903 68.8608 37.7309 68.0953 37.9184 67.3143C38.1058 66.5019 38.3402 65.7209 38.6213 64.9711C38.9025 64.19 39.2149 63.5651 39.5586 63.0965C39.8086 62.7528 39.9491 62.6122 39.9804 62.6747C40.0116 62.7372 39.9804 62.9403 39.8867 63.284C39.4805 64.4712 39.1525 65.7053 38.9025 66.9862C38.6838 68.2672 38.5745 69.5325 38.5745 70.7822C38.5745 71.5008 38.6213 72.2818 38.7151 73.1254C38.8088 73.9689 38.9962 74.75 39.2774 75.4686C39.5899 76.1559 40.0273 76.7339 40.5896 77.2025C41.152 77.6712 41.9174 77.9055 42.8859 77.9055C43.5733 77.9055 44.1981 77.6712 44.7605 77.2025C45.3229 76.7339 45.8228 76.1559 46.2602 75.4686C46.7288 74.7812 47.1349 74.0314 47.4786 73.2191C47.8535 72.4068 48.1816 71.657 48.4628 70.9696C48.1503 71.407 47.7754 71.8444 47.338 72.2818C46.9319 72.688 46.4945 73.0629 46.0258 73.4066C45.5572 73.7502 45.0886 74.0314 44.6199 74.2501C44.1513 74.4688 43.6983 74.5782 43.2609 74.5782C42.8235 74.5782 42.4798 74.4376 42.2299 74.1564C41.9799 73.8752 41.7768 73.5315 41.6206 73.1254C41.4957 72.688 41.4175 72.2506 41.3863 71.8132C41.3551 71.3758 41.3394 70.9853 41.3394 70.6416C41.3394 69.5169 41.4019 68.3921 41.5269 67.2674C41.6831 66.1114 41.9174 64.9867 42.2299 63.8932C42.5423 62.7685 42.9484 61.7062 43.4483 60.7064C43.9794 59.6754 44.6199 58.7382 45.3697 57.8946C45.4322 57.8009 45.5103 57.7228 45.6041 57.6603C45.6978 57.5666 45.7759 57.5041 45.8384 57.4728C45.9321 57.4416 45.979 57.4572 45.979 57.5197C45.979 57.5509 45.9165 57.6759 45.7915 57.8946C44.8855 59.5817 44.1357 61.4563 43.542 63.5183C42.9797 65.5803 42.6985 67.5798 42.6985 69.5169C42.6985 69.7043 42.6985 70.0167 42.6985 70.4541C42.7297 70.8603 42.7766 71.2821 42.8391 71.7195C42.9328 72.1569 43.0578 72.5474 43.214 72.8911C43.4015 73.2035 43.6358 73.3597 43.917 73.3597C44.0107 73.3597 44.1357 73.3128 44.2919 73.2191C45.6041 72.563 46.7132 71.657 47.6192 70.501C48.5252 69.345 49.2751 68.0641 49.8687 66.6582C50.4623 65.221 50.8841 63.7526 51.134 62.2529C51.4152 60.7221 51.5714 59.2693 51.6026 57.8946C51.6026 57.3947 51.6339 57.1292 51.6964 57.0979C51.7589 57.0667 51.8682 57.3322 52.0244 57.8946C52.2119 58.8006 52.3056 59.613 52.3056 60.3315ZM43.3546 88.075C43.3546 88.2937 43.2765 88.6529 43.1203 89.1528C42.9953 89.6527 42.8391 90.1838 42.6516 90.7462C42.4642 91.3086 42.2767 91.8553 42.0893 92.3864C41.9018 92.9176 41.7612 93.3237 41.6675 93.6049C41.4175 94.2922 41.2301 94.964 41.1051 95.62C40.9802 96.3074 40.8396 97.0103 40.6833 97.7289C40.6833 97.7914 40.6677 97.8851 40.6365 98.0101C40.6052 98.1351 40.5428 98.1976 40.449 98.1976C40.3865 98.1976 40.3397 98.1195 40.3084 97.9632C40.2772 97.807 40.2616 97.6977 40.2616 97.6352C40.1991 97.3853 40.1522 97.0416 40.121 96.6042C40.121 96.1668 40.1366 95.8231 40.1678 95.5732C40.2616 94.7921 40.4334 93.9486 40.6833 93.0425C40.9333 92.1677 41.1989 91.3398 41.48 90.5587C41.7925 89.8089 42.1049 89.1841 42.4173 88.6842C42.7297 88.1843 42.9953 87.9344 43.214 87.9344C43.3077 87.9344 43.3546 87.9812 43.3546 88.075ZM58.2408 80.0144C58.0221 80.2331 57.8815 80.3268 57.819 80.2956C57.7565 80.2643 57.7565 80.1862 57.819 80.0612C57.8815 79.9675 57.9283 79.8894 57.9596 79.8269C58.2095 79.5457 58.397 79.3427 58.522 79.2177C58.6782 79.0615 58.85 78.9053 59.0375 78.749C58.2876 77.7493 57.7409 76.687 57.3972 75.5623C57.0536 74.4063 56.8505 73.2191 56.788 72.0006C56.7255 70.7822 56.7724 69.5481 56.9286 68.2984C57.116 67.0487 57.3504 65.8302 57.6315 64.643C58.1939 62.2998 58.8344 60.0191 59.553 57.8009C60.3028 55.5514 60.9276 53.3957 61.4275 51.3337C60.4278 51.5211 59.5217 51.7711 58.7094 52.0835C57.9283 52.3959 57.4128 52.7396 57.1629 53.1145C57.0692 53.2707 56.9755 53.3332 56.8817 53.3019C56.8192 53.2707 56.8505 53.1301 56.9755 52.8802C57.2254 52.349 57.6784 51.8804 58.3345 51.4743C58.9906 51.0369 59.7404 50.6776 60.584 50.3964C61.4275 50.1152 62.3336 49.8965 63.3021 49.7403C64.3018 49.5841 65.2547 49.5216 66.1608 49.5528C68.1916 49.6153 69.8786 50.0058 71.2221 50.7244C72.5968 51.443 73.2997 52.5053 73.331 53.9112C73.331 54.786 73.0185 55.6608 72.3937 56.5356C71.8001 57.4103 71.0659 58.2383 70.1911 59.0193C69.3475 59.7692 68.4415 60.4565 67.473 61.0814C66.5044 61.675 65.6765 62.1436 64.9892 62.4873L64.8017 63.1434C65.2704 62.7372 65.8952 62.4092 66.6763 62.1592C67.4573 61.9093 68.2697 61.7843 69.1132 61.7843C69.988 61.7843 70.8316 61.9405 71.6439 62.2529C72.4874 62.5341 73.2216 63.0028 73.8465 63.6589C74.69 64.5961 75.2211 65.674 75.4398 66.8925C75.6898 68.0797 75.6273 69.2513 75.2524 70.4073C74.9087 71.5632 74.3307 72.5161 73.5184 73.266C72.7061 73.9846 71.8782 74.5313 71.0346 74.9062C70.9409 74.9687 70.7691 75.0468 70.5191 75.1405C70.2692 75.203 70.113 75.1874 70.0505 75.0937C70.0192 75.0312 70.0974 74.9218 70.2848 74.7656C70.4723 74.5782 70.6128 74.4532 70.7066 74.3907C71.5501 73.8283 72.2687 73.0629 72.8623 72.0944C73.4559 71.1259 73.8152 70.1261 73.9402 69.0951C74.0964 68.0328 73.9871 67.0174 73.6121 66.0489C73.2372 65.0804 72.503 64.3306 71.4095 63.7995C70.9721 63.5808 70.3941 63.4246 69.6756 63.3308C68.957 63.2059 68.2384 63.1746 67.5198 63.2371C66.8013 63.2683 66.1295 63.4245 65.5047 63.7057C64.9111 63.9869 64.4893 64.4243 64.2394 65.0179C64.8017 64.6743 65.4422 64.4087 66.1608 64.2212C66.8794 64.0338 67.5979 63.9557 68.3165 63.9869C69.0663 63.9869 69.7693 64.1275 70.4254 64.4087C71.0815 64.6586 71.6282 65.0492 72.0656 65.5803C72.5968 66.2364 72.8936 66.9237 72.956 67.6423C73.0498 68.3609 72.9717 69.0638 72.7217 69.7512C72.503 70.4385 72.1281 71.079 71.597 71.6726C71.0971 72.2662 70.5191 72.7661 69.863 73.1722C68.9882 73.7034 68.0197 74.2345 66.9575 74.7656C65.8952 75.2655 64.833 75.7966 63.7707 76.359C62.7085 76.8901 61.6931 77.4681 60.7246 78.0929C59.756 78.6866 58.9281 79.327 58.2408 80.0144ZM63.8644 66.6113C63.3021 68.0172 62.8334 69.4387 62.4585 70.8759C62.1149 72.2818 61.7243 73.5784 61.2869 74.7656C61.1307 75.1718 61.0214 75.3592 60.9589 75.328C60.8652 75.2967 60.8183 75.2186 60.8183 75.0937C60.8183 74.9375 60.8183 74.7812 60.8183 74.625C60.912 72.2506 61.2557 69.9074 61.8493 67.5954C62.4429 65.2522 63.0834 62.8934 63.7707 60.519C64.2081 59.0506 64.6143 57.5509 64.9892 56.0201C65.3953 54.4579 65.6297 52.7864 65.6921 51.0056H64.8955C64.9267 51.8492 64.8955 52.6927 64.8017 53.5363C64.7392 54.3486 64.6299 55.0515 64.4737 55.6451C64.0363 57.3322 63.5052 59.0818 62.8803 60.8939C62.2555 62.706 61.5994 64.4243 60.912 66.0489C60.8808 66.1114 60.8027 66.2676 60.6777 66.5176C60.584 66.7363 60.4902 66.83 60.3965 66.7987C60.334 66.7675 60.2872 66.6269 60.2559 66.377C60.2559 66.127 60.2715 65.9552 60.3028 65.8615C60.334 65.4866 60.3965 65.0179 60.4902 64.4556C60.6152 63.8932 60.7246 63.3152 60.8183 62.7216C60.9433 62.128 61.0682 61.55 61.1932 60.9876C61.3494 60.4253 61.49 59.941 61.615 59.5348C61.6462 59.3786 61.7243 59.0193 61.8493 58.457C62.0055 57.8946 62.1617 57.2229 62.3179 56.4418C62.4741 55.6295 62.6304 54.7703 62.7866 53.8643C62.974 52.927 63.1302 52.021 63.2552 51.1462C63.0053 51.1462 62.8178 51.1618 62.6928 51.1931C62.5366 52.349 62.3023 53.5206 61.9899 54.7079C61.7087 55.8951 61.3807 57.0979 61.0057 58.3164C60.6308 59.5348 60.2559 60.7533 59.881 61.9718C59.5061 63.159 59.1781 64.3618 58.8969 65.5803C58.6469 66.6113 58.4595 67.6892 58.3345 68.8139C58.2095 69.9386 58.147 71.0634 58.147 72.1881C58.147 73.2816 58.2408 74.3595 58.4282 75.4217C58.6157 76.484 58.9125 77.4993 59.3186 78.4679L59.7404 78.0461C59.6467 77.8274 59.553 77.5618 59.4592 77.2494C59.3655 76.937 59.2874 76.5621 59.2249 76.1247C59.1624 75.781 59.1156 75.3436 59.0843 74.8125C59.0843 74.2814 59.0999 73.7659 59.1312 73.266C59.1624 72.7661 59.2093 72.3443 59.2718 72.0006C59.3343 71.657 59.428 71.4851 59.553 71.4851C59.5842 71.4851 59.6155 71.5632 59.6467 71.7195C59.7092 71.8757 59.756 72.0631 59.7873 72.2818C59.8185 72.5005 59.8498 72.7036 59.881 72.8911C59.9123 73.0785 59.9279 73.2191 59.9279 73.3128C59.9591 73.594 59.9904 73.9064 60.0216 74.2501C60.0528 74.5938 60.0841 74.9531 60.1153 75.328C60.1778 75.7029 60.2247 76.0778 60.2559 76.4527C60.3184 76.7964 60.3965 77.0932 60.4902 77.3431C61.2088 76.687 61.9743 76.109 62.7866 75.6092C63.5989 75.078 64.3956 74.5938 65.1766 74.1564C65.9889 73.719 66.77 73.2972 67.5198 72.8911C68.2697 72.4849 68.9258 72.0787 69.4881 71.6726C70.4566 71.0165 71.0815 70.1886 71.3627 69.1888C71.6439 68.1578 71.472 67.2361 70.8472 66.4238C70.441 65.8927 69.8786 65.5178 69.1601 65.2991C68.4727 65.0804 67.7542 65.0023 67.0043 65.0648C66.2857 65.096 65.6297 65.2522 65.036 65.5334C64.4424 65.8146 64.0519 66.1739 63.8644 66.6113ZM71.3158 59.4411C71.3783 59.4724 71.3002 59.6442 71.0815 59.9566C70.894 60.2378 70.7691 60.4409 70.7066 60.5659C71.7688 60.4096 72.7061 60.0347 73.5184 59.4411C74.362 58.8475 75.0337 58.1445 75.5336 57.3322C76.0334 56.4887 76.3459 55.5827 76.4708 54.6141C76.5958 53.6144 76.5021 52.6146 76.1897 51.6148C75.8772 50.6151 75.3617 49.7715 74.6431 49.0842C73.9246 48.3969 73.0966 47.8345 72.1594 47.3971C71.2221 46.9597 70.2067 46.6473 69.1132 46.4598C68.0197 46.2724 66.9262 46.1942 65.8327 46.2255C64.7392 46.2255 63.6926 46.3192 62.6928 46.5067C61.6931 46.6941 60.8183 46.9597 60.0685 47.3034C59.9123 47.3659 59.8185 47.3971 59.7873 47.3971C59.7873 47.3971 59.7717 47.3815 59.7404 47.3502C59.7092 47.2565 59.7873 47.1471 59.9747 47.0222C60.7558 46.3348 61.7399 45.8193 62.9272 45.4757C64.1456 45.132 65.411 44.9602 66.7231 44.9602C68.0666 44.9602 69.41 45.1476 70.7534 45.5225C72.0969 45.8662 73.2997 46.4129 74.362 47.1628C75.4555 47.8814 76.3459 48.8186 77.0332 49.9746C77.7518 51.0993 78.1423 52.4272 78.2048 53.958C78.236 54.8953 78.1111 55.7545 77.8299 56.5356C77.5487 57.2854 77.1738 57.9571 76.7052 58.5507C76.2365 59.1443 75.6898 59.6598 75.0649 60.0972C74.4713 60.5034 73.8465 60.847 73.1904 61.1282C74.2214 61.5969 75.1118 62.3311 75.8616 63.3308C76.6114 64.2993 77.1426 65.2679 77.455 66.2364C77.8299 67.5173 77.908 68.7358 77.6893 69.8918C77.5018 71.0477 77.1582 72.0944 76.6583 73.0317C76.1897 73.9689 75.6429 74.7812 75.0181 75.4686C74.4244 76.1247 73.9089 76.5933 73.4715 76.8745C72.5655 77.4681 71.6439 77.9367 70.7066 78.2804C69.7693 78.5928 68.8476 78.8428 67.9416 79.0302C67.0356 79.1864 66.1608 79.2958 65.3172 79.3583C64.5049 79.4208 63.7707 79.4676 63.1146 79.4989C62.6147 79.5614 62.3648 79.5457 62.3648 79.452C62.3336 79.3895 62.4117 79.327 62.5991 79.2645C62.8178 79.2333 63.0053 79.2021 63.1615 79.1708C64.38 78.9521 65.5828 78.6553 66.77 78.2804C67.9572 77.9055 69.1601 77.4056 70.3785 76.7808C70.9721 76.4683 71.5814 76.109 72.2062 75.7029C72.8623 75.2655 73.4559 74.7656 73.987 74.2032C74.5494 73.6096 75.0181 72.9535 75.393 72.235C75.7991 71.5164 76.0647 70.7197 76.1897 69.8449C76.3459 68.7514 76.3146 67.6735 76.0959 66.6113C75.9085 65.5178 75.393 64.4712 74.5494 63.4714C73.7371 62.5029 72.8779 61.8468 71.9719 61.5031C71.0971 61.1595 70.1442 61.0189 69.1132 61.0814C68.8633 61.0814 68.7383 61.0657 68.7383 61.0345C68.7383 60.972 68.9101 60.8627 69.2538 60.7064C69.5975 60.5502 69.8162 60.4409 69.9099 60.3784C70.1911 60.1909 70.4879 59.9722 70.8003 59.7223C71.1127 59.4724 71.2846 59.3786 71.3158 59.4411ZM71.8782 54.0986C71.8782 53.0989 71.3471 52.3803 70.2848 51.9429C69.2226 51.4743 67.7542 51.1618 65.8796 51.0056C66.0983 51.9741 66.2389 52.8645 66.3014 53.6769C66.3639 54.4892 66.3482 55.3015 66.2545 56.1138C66.192 56.8948 66.0514 57.7228 65.8327 58.5976C65.6453 59.4411 65.4266 60.3784 65.1766 61.4094C65.8327 61.097 66.5513 60.6283 67.3324 60.0035C68.1134 59.3474 68.832 58.6757 69.4881 57.9883C70.1755 57.2698 70.7378 56.5668 71.1752 55.8795C71.6439 55.1609 71.8782 54.5673 71.8782 54.0986ZM65.411 46.9285C66.4732 46.866 67.676 46.9909 69.0195 47.3034C70.3941 47.5845 71.6282 48.0532 72.7217 48.7093C73.2841 49.0529 73.7527 49.4747 74.1276 49.9746C74.5026 50.4745 74.7837 51.0056 74.9712 51.568C75.1899 52.0991 75.3149 52.6459 75.3461 53.2082C75.3773 53.7706 75.3149 54.2861 75.1586 54.7547C75.1274 54.8172 75.0962 54.9109 75.0649 55.0359C75.0337 55.1296 74.9868 55.239 74.9243 55.364C74.8618 55.4577 74.7994 55.5514 74.7369 55.6451C74.6744 55.7076 74.6119 55.7232 74.5494 55.692C74.4557 55.692 74.4088 55.5827 74.4088 55.364C74.4401 55.1453 74.4869 54.9109 74.5494 54.661C74.7056 53.7862 74.6275 53.0208 74.3151 52.3647C74.0339 51.7086 73.5965 51.1618 73.0029 50.7244C72.4093 50.2558 71.722 49.8809 70.9409 49.5997C70.1598 49.3185 69.3475 49.0998 68.504 48.9436C67.6917 48.7874 66.895 48.7093 66.1139 48.7093C65.3328 48.678 64.6611 48.6937 64.0988 48.7561C63.3177 48.8499 62.5366 49.0061 61.7556 49.2248C61.0057 49.4122 60.3028 49.6309 59.6467 49.8809C58.9906 50.1308 58.4282 50.3964 57.9596 50.6776C57.491 50.9587 57.1629 51.2243 56.9755 51.4743C56.788 51.7242 56.6786 51.8023 56.6474 51.7086C56.6474 51.6148 56.6786 51.4742 56.7411 51.2868C56.9598 50.6619 57.366 50.0996 57.9596 49.5997C58.5532 49.0686 59.2405 48.6156 60.0216 48.2406C60.8027 47.8657 61.6618 47.5689 62.5991 47.3502C63.5364 47.1315 64.4737 46.9909 65.411 46.9285ZM63.1146 78.5147C62.0836 78.9209 61.2557 79.2802 60.6308 79.5926C60.0372 79.905 59.4436 80.3112 58.85 80.8111C58.7875 80.8423 58.725 80.9048 58.6626 80.9985C58.6001 81.0922 58.5376 81.1235 58.4751 81.0922C58.4126 81.061 58.4126 80.9673 58.4751 80.8111C58.5376 80.6861 58.6001 80.5924 58.6626 80.5299C58.975 80.0925 59.3811 79.6707 59.881 79.2645C60.3809 78.8272 61.0839 78.421 61.9899 78.0461C62.3023 77.9211 62.646 77.7961 63.0209 77.6712C63.427 77.515 63.802 77.39 64.1456 77.2963C64.5205 77.2025 64.8173 77.1401 65.036 77.1088C65.286 77.0776 65.4422 77.1088 65.5047 77.2025C65.5359 77.265 65.4422 77.3587 65.2235 77.4837C65.0048 77.6087 64.7549 77.7493 64.4737 77.9055C64.1925 78.0305 63.9113 78.1554 63.6301 78.2804C63.3802 78.4054 63.2084 78.4835 63.1146 78.5147ZM93.2885 60.1441C93.5384 60.4565 93.7259 60.847 93.8508 61.3157C94.0071 61.7843 94.0695 62.2998 94.0383 62.8622C94.0071 63.3933 93.8821 63.9557 93.6634 64.5493C93.4447 65.1429 93.101 65.7209 92.6324 66.2832C91.7263 67.3455 90.7266 68.1734 89.6331 68.767C88.5708 69.3294 87.6023 69.6106 86.7275 69.6106C86.1964 69.6106 86.1964 69.5169 86.7275 69.3294C87.0087 69.2357 87.3368 69.0951 87.7117 68.9076C88.1178 68.6889 88.5396 68.439 88.977 68.1578C89.4144 67.8454 89.8518 67.4861 90.2892 67.0799C90.7578 66.6738 91.1796 66.2051 91.5545 65.674C92.1794 64.7992 92.5387 63.9557 92.6324 63.1434C92.7574 62.2998 92.6011 61.6593 92.1637 61.2219C91.7888 60.847 91.3514 60.644 90.8515 60.6127C90.3517 60.5502 89.6019 60.8158 88.6021 61.4094C87.6961 61.9405 86.8837 62.5966 86.1652 63.3777C85.4466 64.1588 84.7749 64.9867 84.15 65.8615C83.8063 66.2989 83.572 66.5176 83.4471 66.5176C83.3533 66.5176 83.4002 66.2364 83.5876 65.674C83.9626 64.5805 84.4781 63.5651 85.1341 62.6279C85.8215 61.6906 86.6338 60.8939 87.5711 60.2378C88.2584 59.7692 88.8833 59.4411 89.4456 59.2537C90.0392 59.0662 90.5704 58.9881 91.039 59.0193C91.5389 59.0506 91.9763 59.1756 92.3512 59.3943C92.7261 59.5817 93.0385 59.8316 93.2885 60.1441ZM95.8191 63.4245C95.6942 64.1744 95.4911 64.8148 95.2099 65.346C94.96 65.8458 94.6631 66.2832 94.3195 66.6582C94.0071 67.0018 93.679 67.283 93.3353 67.5017C93.0229 67.7204 92.7417 67.9235 92.4918 68.1109C92.3668 68.2047 92.2731 68.2203 92.2106 68.1578C92.1481 68.0953 92.195 67.986 92.3512 67.8298C92.9136 67.3611 93.4759 66.7363 94.0383 65.9552C94.6319 65.1429 94.9443 64.2525 94.9756 63.284C94.9756 61.6281 94.5694 60.3628 93.7571 59.488C92.9448 58.6132 91.9294 58.2383 90.711 58.3632C89.4925 58.457 88.2272 58.9256 86.915 59.7692C86.0714 60.3003 85.3216 60.9251 84.6655 61.6437C84.0407 62.3311 83.4939 63.0809 83.0253 63.8932C82.5566 64.6743 82.1661 65.4866 81.8537 66.3301C81.5725 67.1737 81.3694 68.0172 81.2444 68.8608C81.1195 69.6731 80.9945 70.5479 80.8695 71.4851C80.7758 72.4224 80.7758 73.3441 80.8695 74.2501C80.9945 75.1561 81.2913 76.0309 81.7599 76.8745C82.2286 77.6868 82.9628 78.3898 83.9625 78.9834C84.1188 79.0771 84.275 79.1396 84.4312 79.1708C84.6186 79.2021 84.7124 79.2333 84.7124 79.2645C84.7124 79.327 84.6343 79.3583 84.4781 79.3583C84.3218 79.3895 84.15 79.3739 83.9625 79.3114C83.1815 79.1552 82.5098 78.8428 81.9474 78.3741C81.4163 77.8743 80.9789 77.3119 80.6352 76.687C80.2915 76.0622 80.026 75.4061 79.8385 74.7187C79.6511 74.0314 79.5417 73.4066 79.5105 72.8442C79.323 70.376 79.6667 67.9391 80.5415 65.5334C80.7289 65.0335 80.9633 64.4712 81.2444 63.8463C81.5569 63.2215 81.9318 62.5966 82.3692 61.9718C82.8066 61.3157 83.3221 60.6908 83.9157 60.0972C84.5093 59.4724 85.181 58.9256 85.9308 58.457C86.6494 58.0196 87.3992 57.6915 88.1803 57.4728C88.9614 57.2541 89.7424 57.1604 90.5235 57.1916C91.3046 57.1916 92.0388 57.3322 92.7261 57.6134C93.4134 57.8634 94.0227 58.2539 94.5538 58.785C95.0224 59.2849 95.3817 59.9254 95.6317 60.7064C95.9129 61.4875 95.9753 62.3935 95.8191 63.4245ZM91.5545 61.7374C91.9294 62.1748 91.9763 62.8622 91.6951 63.7995C91.4139 64.7055 90.7578 65.6272 89.7268 66.5644C89.1645 67.0956 88.6177 67.5329 88.0866 67.8766C87.5555 68.189 86.8837 68.4702 86.0714 68.7202C85.7278 69.9074 85.5091 71.079 85.4153 72.235C85.3216 73.3909 85.3529 74.3282 85.5091 75.0468C85.5403 75.328 85.634 75.6092 85.7902 75.8904C85.9777 76.1403 86.2276 76.3434 86.5401 76.4996C86.8837 76.6245 87.3211 76.6714 87.8523 76.6402C88.3834 76.6089 89.0395 76.4371 89.8205 76.1247C90.0392 76.0309 90.1642 76.0153 90.1955 76.0778C90.2579 76.109 90.1642 76.2028 89.9143 76.359C89.3519 76.7964 88.7583 77.1088 88.1334 77.2963C87.5086 77.4525 86.915 77.4993 86.3526 77.4369C85.8215 77.3744 85.3529 77.1869 84.9467 76.8745C84.5718 76.5621 84.3218 76.1403 84.1969 75.6092C83.9469 74.5157 83.8376 73.3753 83.8688 72.1881C83.9001 71.0009 84.0719 69.8293 84.3843 68.6733C84.728 67.5173 85.1966 66.4395 85.7902 65.4397C86.4151 64.4087 87.1805 63.5339 88.0866 62.8153C89.7737 61.4719 90.9297 61.1126 91.5545 61.7374ZM91.0859 76.687C90.8672 76.9995 90.586 77.3119 90.2423 77.6243C89.9299 77.9055 89.555 78.1711 89.1176 78.421C88.7114 78.6397 88.274 78.8272 87.8054 78.9834C87.368 79.1396 86.915 79.2177 86.4463 79.2177C85.634 79.2177 84.8686 79.0459 84.15 78.7022C83.4627 78.3273 82.9315 77.5931 82.5566 76.4996C82.4941 76.3746 82.4629 76.2653 82.4629 76.1715C82.4629 76.0466 82.4941 75.9841 82.5566 75.9841C82.6816 75.9216 82.8066 75.9685 82.9315 76.1247C83.0565 76.2496 83.1815 76.3902 83.3065 76.5464C83.6501 76.9526 84.0875 77.3119 84.6187 77.6243C85.181 77.9367 85.7121 78.0929 86.212 78.0929C87.1493 78.0929 87.9616 77.9524 88.649 77.6712C89.3363 77.39 89.9924 77.0151 90.6172 76.5464C90.7734 76.4527 90.9453 76.359 91.1327 76.2653C91.3514 76.1715 91.3358 76.3121 91.0859 76.687ZM90.4298 63.0028C90.3048 62.7528 89.8518 62.9559 89.0707 63.612C88.3521 64.1744 87.7742 64.8305 87.3368 65.5803C86.9306 66.2989 86.5713 67.0956 86.2589 67.9703C86.8525 67.6892 87.3992 67.3767 87.8991 67.0331C88.399 66.6582 88.8677 66.2989 89.305 65.9552C89.7737 65.549 90.1174 65.0179 90.3361 64.3618C90.5547 63.7057 90.586 63.2527 90.4298 63.0028ZM100.822 61.9718C100.853 61.6906 100.947 61.3625 101.103 60.9876C101.259 60.5815 101.462 60.2066 101.712 59.8629C101.993 59.488 102.322 59.1599 102.696 58.8787C103.071 58.5663 103.493 58.3632 103.962 58.2695C104.962 58.0821 105.789 58.1445 106.446 58.457C107.102 58.7694 107.601 59.1287 107.945 59.5348C108.07 59.7223 108.117 59.8316 108.086 59.8629C108.023 59.9254 107.914 59.9098 107.758 59.816C107.57 59.6911 107.258 59.5817 106.82 59.488C106.414 59.3943 105.961 59.3786 105.461 59.4411C104.993 59.4724 104.524 59.613 104.055 59.8629C103.618 60.1128 103.259 60.519 102.978 61.0814C102.728 61.6125 102.556 62.1592 102.462 62.7216C102.368 63.284 102.306 63.8151 102.275 64.315C102.275 64.7836 102.29 65.1898 102.321 65.5334C102.353 65.8771 102.368 66.1114 102.368 66.2364C102.431 66.5801 102.478 67.0174 102.509 67.5486C102.571 68.0485 102.603 68.564 102.603 69.0951C102.603 69.6262 102.587 70.1573 102.556 70.6885C102.525 71.1883 102.462 71.6257 102.368 72.0006C102.337 72.0944 102.29 72.2506 102.228 72.4693C102.197 72.688 102.15 72.7973 102.087 72.7973C101.931 72.7973 101.853 72.688 101.853 72.4693C101.853 72.2506 101.853 72.0944 101.853 72.0006C101.79 71.2196 101.681 70.4385 101.525 69.6574C101.369 68.8451 101.212 68.0172 101.056 67.1737C100.931 66.3301 100.837 65.4866 100.775 64.643C100.713 63.7682 100.728 62.8778 100.822 61.9718ZM99.1816 71.2508C99.2129 70.626 99.1504 69.7512 98.9942 68.6264C98.8692 67.4705 98.8223 66.1427 98.8536 64.643C98.8848 63.8619 98.9629 63.0653 99.0879 62.2529C99.2129 61.4094 99.5097 60.5815 99.9783 59.7692C100.478 58.8944 101.103 58.2539 101.853 57.8477C102.634 57.4103 103.306 57.2073 103.868 57.2385C103.962 57.2385 104.055 57.2385 104.149 57.2385C104.243 57.2385 104.29 57.2541 104.29 57.2854C104.29 57.3479 104.274 57.3791 104.243 57.3791C104.212 57.3479 104.102 57.3635 103.915 57.426C103.353 57.5822 102.853 57.8477 102.415 58.2227C101.978 58.5663 101.603 58.9725 101.29 59.4411C100.978 59.9098 100.728 60.394 100.541 60.8939C100.353 61.3938 100.244 61.8468 100.213 62.2529C100.025 63.9713 100.041 65.4709 100.259 66.7519C100.416 67.7829 100.541 68.8608 100.634 69.9855C100.728 71.079 100.681 72.0944 100.494 73.0317C100.338 73.9377 100.01 74.7031 99.5097 75.328C99.041 75.9216 98.3068 76.2496 97.3071 76.3121C97.2133 76.3121 97.0884 76.3121 96.9322 76.3121C96.8072 76.2809 96.7447 76.234 96.7447 76.1715C96.7447 76.109 96.8853 75.9997 97.1665 75.8435C97.9788 75.4686 98.5099 74.9218 98.7598 74.2032C99.0098 73.4847 99.1504 72.5005 99.1816 71.2508ZM94.214 76.7808C94.6514 77.4681 95.3388 77.9836 96.276 78.3273C97.2446 78.6397 98.3849 78.6085 99.6971 78.2335C100.353 78.0461 100.931 77.718 101.431 77.2494C101.931 76.7808 102.337 76.2653 102.65 75.7029C102.993 75.1093 103.243 74.5001 103.399 73.8752C103.587 73.2503 103.696 72.6724 103.727 72.1412C103.759 71.2664 103.727 70.4073 103.634 69.5637C103.571 68.7202 103.477 67.9079 103.353 67.1268C103.259 66.3145 103.165 65.5334 103.071 64.7836C103.009 64.0338 103.009 63.2996 103.071 62.581C103.134 61.7999 103.353 61.2063 103.727 60.8002C104.102 60.394 104.555 60.1441 105.086 60.0503C105.649 59.9254 106.227 59.9566 106.82 60.1441C107.414 60.3315 107.961 60.6283 108.461 61.0345C108.586 61.097 108.632 61.1751 108.601 61.2688C108.601 61.3313 108.57 61.3469 108.508 61.3157C108.445 61.2844 108.383 61.2532 108.32 61.2219C107.164 60.847 106.258 60.7377 105.602 60.8939C104.977 61.0501 104.633 61.6125 104.571 62.581C104.508 63.7057 104.587 65.0335 104.805 66.5644C105.055 68.0641 105.149 69.7356 105.086 71.5789C105.118 72.2037 105.04 72.9223 104.852 73.7346C104.696 74.5469 104.415 75.3436 104.009 76.1247C103.634 76.8745 103.118 77.5462 102.462 78.1398C101.837 78.7334 101.087 79.1083 100.213 79.2645C98.5568 79.5145 97.229 79.4208 96.2292 78.9834C95.2607 78.546 94.5577 77.8743 94.1203 76.9682C94.0578 76.7808 94.0266 76.6714 94.0266 76.6402H94.0734C94.0734 76.6402 94.1203 76.687 94.214 76.7808ZM96.276 76.7808C96.8697 76.937 97.5882 76.9995 98.4318 76.9682C98.713 76.937 99.0566 76.8589 99.4628 76.7339C99.8689 76.6089 100.088 76.5777 100.119 76.6402C100.213 76.7651 100.119 76.9214 99.8377 77.1088C99.5565 77.2963 99.1972 77.4681 98.7598 77.6243C98.3224 77.7493 97.8694 77.843 97.4008 77.9055C96.9322 77.9367 96.5416 77.8899 96.2292 77.7649C95.6356 77.515 95.2138 77.2494 94.9639 76.9682C94.6827 76.6558 94.4327 76.2809 94.214 75.8435L94.1203 75.656C94.0578 75.5311 94.0422 75.4529 94.0734 75.4217C94.1047 75.3905 94.1516 75.3905 94.214 75.4217C94.2453 75.4529 94.2609 75.4842 94.2609 75.5154C94.6358 75.8591 94.9482 76.1247 95.1982 76.3121C95.4794 76.4683 95.8387 76.6245 96.276 76.7808ZM121.793 58.457C121.824 58.4882 121.84 58.5663 121.84 58.6913C121.84 58.785 121.824 58.8631 121.793 58.9256C121.511 59.8316 121.027 60.4721 120.34 60.847C119.653 61.2219 119.043 61.4094 118.512 61.4094C117.856 61.4094 117.184 61.3625 116.497 61.2688C115.81 61.1438 115.154 60.847 114.529 60.3784C114.466 60.3159 114.388 60.2534 114.294 60.1909C114.201 60.1285 114.154 60.066 114.154 60.0035C114.154 59.9098 114.201 59.8473 114.294 59.816C114.388 59.7535 114.466 59.7067 114.529 59.6754C114.81 59.6129 115.169 59.5661 115.607 59.5348C116.075 59.4724 116.528 59.4724 116.966 59.5348C117.278 59.5973 117.653 59.6286 118.09 59.6286C118.528 59.6286 118.965 59.5973 119.403 59.5348C119.871 59.4724 120.293 59.3786 120.668 59.2537C121.043 59.0975 121.324 58.8787 121.511 58.5976C121.605 58.4726 121.699 58.4257 121.793 58.457ZM122.121 57.0042L121.98 57.2385C121.449 57.9259 120.887 58.3789 120.293 58.5976C119.699 58.785 119.075 58.8631 118.418 58.8319C117.762 58.8006 117.091 58.7225 116.403 58.5976C115.747 58.4414 115.091 58.3476 114.435 58.3164C113.56 58.2851 112.685 58.5507 111.811 59.1131C110.936 59.6754 110.186 60.6596 109.561 62.0655C109.467 62.253 109.405 62.2998 109.374 62.2061C109.342 62.0811 109.342 61.9718 109.374 61.878C109.624 60.9408 109.92 60.1597 110.264 59.5348C110.608 58.91 110.967 58.4101 111.342 58.0352C111.748 57.629 112.17 57.3322 112.607 57.1448C113.045 56.9573 113.498 56.8324 113.966 56.7699C114.498 54.989 114.904 53.2551 115.185 51.568C115.497 49.8496 115.529 48.225 115.279 46.6941C115.279 46.5692 115.279 46.5067 115.279 46.5067C115.341 46.4754 115.404 46.4911 115.466 46.5535C115.529 46.616 115.56 46.6629 115.56 46.6941C116.247 48.1938 116.528 49.8028 116.403 51.5211C116.278 53.2082 115.966 54.989 115.466 56.8636C115.622 56.8948 115.747 56.9105 115.841 56.9105C115.935 56.9105 116.044 56.9105 116.169 56.9105C116.325 56.0982 116.466 55.239 116.591 54.3329C116.747 53.3957 116.856 52.5053 116.919 51.6617C117.013 50.8182 117.044 50.0527 117.013 49.3654C116.981 48.678 116.872 48.1625 116.685 47.8189C116.591 47.5377 116.591 47.3971 116.685 47.3971C116.747 47.3971 116.794 47.4283 116.825 47.4908C116.856 47.5533 116.903 47.6158 116.966 47.6783C117.403 48.1157 117.747 48.7093 117.997 49.4591C118.247 50.2089 118.418 51.0056 118.512 51.8492C118.606 52.6927 118.637 53.5363 118.606 54.3798C118.575 55.1921 118.481 55.9107 118.325 56.5356L118.137 57.2854C118.231 57.3479 118.325 57.3791 118.418 57.3791C118.512 57.3791 118.606 57.3947 118.7 57.426C118.887 56.4887 119.043 55.5514 119.168 54.6141C119.325 53.6769 119.387 52.6927 119.356 51.6617C119.356 51.443 119.371 51.3337 119.403 51.3337C119.465 51.3337 119.512 51.3805 119.543 51.4743C119.574 51.568 119.606 51.6461 119.637 51.7086C120.012 52.3959 120.184 53.2551 120.152 54.2861C120.152 55.3171 120.074 56.4106 119.918 57.5666C120.605 57.5666 121.262 57.3791 121.886 57.0042C122.043 56.9105 122.121 56.9105 122.121 57.0042ZM112.42 60.1909C112.42 60.3472 112.326 60.5034 112.139 60.6596C111.982 60.8158 111.858 60.9251 111.764 60.9876C111.608 61.1126 111.42 61.2688 111.201 61.4563C111.014 61.6125 110.842 61.7843 110.686 61.9718C110.53 62.2217 110.373 62.4404 110.217 62.6279C110.092 62.8153 109.983 63.0809 109.889 63.4245C109.858 63.487 109.811 63.5495 109.749 63.612C109.717 63.6432 109.686 63.6432 109.655 63.612C109.561 63.5183 109.561 63.3152 109.655 63.0028C109.78 62.5341 109.905 62.1592 110.03 61.878C110.155 61.5656 110.389 61.2376 110.733 60.8939C110.858 60.7689 111.014 60.644 111.201 60.519C111.389 60.394 111.576 60.2847 111.764 60.1909C111.951 60.0972 112.107 60.0503 112.232 60.0503C112.357 60.0503 112.42 60.0972 112.42 60.1909ZM116.075 79.0302C116.231 78.9677 116.294 78.9834 116.263 79.0771C116.231 79.1708 116.185 79.2333 116.122 79.2645C115.56 79.452 114.966 79.4208 114.341 79.1708C113.716 78.9209 113.138 78.5303 112.607 77.9992C112.076 77.4681 111.623 76.8589 111.248 76.1715C110.873 75.453 110.639 74.75 110.545 74.0627C110.389 72.5943 110.373 71.1727 110.498 69.798C110.623 68.4234 110.858 67.0643 111.201 65.7209L111.998 62.7685C111.811 62.7685 111.623 62.7216 111.436 62.6279C111.217 62.5654 111.108 62.4873 111.108 62.3935C111.108 62.3311 111.217 62.2373 111.436 62.1124C112.311 61.675 113.185 61.4875 114.06 61.55C114.966 61.6125 115.872 61.7218 116.778 61.878C117.341 61.9718 117.903 62.0499 118.465 62.1124C119.059 62.1436 119.699 62.0186 120.387 61.7374C120.449 61.675 120.512 61.6593 120.574 61.6906C120.637 61.7531 120.621 61.8624 120.527 62.0186C120.34 62.4248 120.074 62.7216 119.731 62.909C119.387 63.0965 119.028 63.2371 118.653 63.3308C118.403 64.1431 118.184 64.8773 117.997 65.5334C117.809 66.1583 117.653 66.6894 117.528 67.1268C117.184 68.6264 116.778 70.1573 116.31 71.7195C115.872 73.2503 115.575 74.5469 115.419 75.6092C115.357 75.9528 115.294 76.1403 115.232 76.1715C115.169 76.2028 115.107 76.1403 115.044 75.9841C114.982 75.8279 114.935 75.7029 114.904 75.6092C114.779 74.7031 114.747 73.7659 114.81 72.7973C114.904 71.7976 115.06 70.7822 115.279 69.7512C115.497 68.7202 115.747 67.6892 116.028 66.6582C116.31 65.5959 116.606 64.5337 116.919 63.4714C116.763 63.4714 116.606 63.4714 116.45 63.4714C116.294 63.4714 116.138 63.4558 115.982 63.4245C115.732 64.0806 115.466 64.7367 115.185 65.3928C114.935 66.0177 114.685 66.6113 114.435 67.1737C114.404 67.2361 114.326 67.3924 114.201 67.6423C114.107 67.861 114.029 67.9703 113.966 67.9703C113.841 67.9391 113.795 67.7985 113.826 67.5486C113.857 67.2674 113.873 67.0799 113.873 66.9862C113.935 66.5176 114.029 65.9708 114.154 65.346C114.31 64.7211 114.451 64.0494 114.576 63.3308C114.419 63.2996 114.248 63.284 114.06 63.284C113.873 63.2527 113.685 63.2059 113.498 63.1434C113.31 63.7682 113.123 64.3774 112.935 64.9711C112.779 65.5647 112.623 66.1583 112.467 66.7519C112.217 67.8454 112.029 69.017 111.904 70.2667C111.779 71.4851 111.779 72.7505 111.904 74.0627C111.967 74.6563 112.123 75.2655 112.373 75.8904C112.654 76.5152 112.982 77.0776 113.357 77.5774C113.732 78.0773 114.154 78.4679 114.622 78.749C115.122 79.0302 115.607 79.124 116.075 79.0302ZM116.497 77.9992C116.653 77.8743 116.747 77.8743 116.778 77.9992C116.809 78.0929 116.747 78.1867 116.591 78.2804C116.466 78.3741 116.294 78.4522 116.075 78.5147C115.888 78.546 115.669 78.546 115.419 78.5147C115.169 78.4835 114.904 78.3898 114.622 78.2335C114.341 78.0773 114.076 77.8274 113.826 77.4837C113.607 77.2025 113.42 76.7964 113.263 76.2653C113.138 75.7341 113.045 75.2186 112.982 74.7187C112.92 74.1876 112.904 73.7346 112.935 73.3597C112.967 72.9848 113.045 72.7973 113.17 72.7973C113.326 72.7973 113.435 73.016 113.498 73.4534C113.591 73.8908 113.67 74.2501 113.732 74.5313C113.857 75.0312 114.029 75.5467 114.248 76.0778C114.466 76.6089 114.701 77.0307 114.951 77.3431C115.263 77.7493 115.544 77.9992 115.794 78.0929C116.044 78.1554 116.278 78.1242 116.497 77.9992ZM126.431 63.6589C126.275 64.7524 126.197 65.8146 126.197 66.8456C126.197 67.8766 126.275 68.8451 126.431 69.7512C126.587 70.6572 126.806 71.4851 127.087 72.235C127.4 72.9535 127.79 73.5628 128.259 74.0627C128.852 74.6875 129.618 75.1405 130.555 75.4217C131.524 75.6716 132.601 75.7185 133.789 75.5623C134.101 74.3438 134.46 73.1722 134.867 72.0475C135.304 70.9228 135.71 69.8293 136.085 68.767C136.491 67.7048 136.835 66.6582 137.116 65.6272C137.397 64.5961 137.538 63.5808 137.538 62.581C137.538 62.4873 137.553 62.4404 137.585 62.4404C137.616 62.4404 137.647 62.4873 137.678 62.581C137.741 62.6747 137.772 62.7372 137.772 62.7685C138.147 63.9244 138.256 65.096 138.1 66.2832C137.975 67.4392 137.71 68.6264 137.303 69.8449C136.929 71.0634 136.491 72.3131 135.991 73.594C135.491 74.8437 135.085 76.1403 134.773 77.4837C134.617 78.0773 134.523 78.7647 134.492 79.5457C134.46 80.358 134.507 81.1703 134.632 81.9827C134.788 82.8262 135.038 83.6541 135.382 84.4664C135.757 85.2787 136.272 85.9973 136.929 86.6222C136.96 86.6847 137.007 86.7472 137.069 86.8096L137.116 86.8565C137.116 86.8565 137.069 86.8565 136.975 86.8565C136.944 86.8565 136.913 86.8409 136.882 86.8096C136.038 86.2473 135.335 85.6068 134.773 84.8882C134.242 84.1696 133.836 83.4198 133.554 82.6387C133.304 81.8889 133.148 81.1235 133.086 80.3424C133.054 79.5926 133.101 78.9053 133.226 78.2804C132.289 78.4991 131.352 78.5303 130.414 78.3741C129.509 78.2179 128.665 77.9367 127.884 77.5306C127.728 77.4681 127.556 77.3431 127.368 77.1557C127.212 76.9682 127.15 76.8589 127.181 76.8276C127.181 76.8276 127.415 76.8745 127.884 76.9682C128.384 77.0307 128.931 77.1088 129.524 77.2025C130.149 77.265 130.758 77.3275 131.352 77.39C131.977 77.4212 132.43 77.4212 132.711 77.39C132.805 77.3588 132.898 77.3431 132.992 77.3431C133.117 77.3119 133.258 77.265 133.414 77.2025C133.414 77.0463 133.429 76.9057 133.461 76.7808C133.492 76.6245 133.539 76.4683 133.601 76.3121C132.508 76.5621 131.445 76.5933 130.414 76.4059C129.384 76.2184 128.462 75.781 127.65 75.0937C126.994 74.5313 126.462 73.8596 126.056 73.0785C125.681 72.2662 125.385 71.3914 125.166 70.4541C124.978 69.5169 124.869 68.5483 124.838 67.5486C124.807 66.5176 124.838 65.5022 124.932 64.5024C125.056 62.909 125.369 61.3001 125.869 59.6754C126.369 58.0508 127.025 56.5512 127.837 55.1765C128.681 53.7706 129.665 52.5677 130.789 51.568C131.945 50.537 133.242 49.8184 134.679 49.4122C135.335 49.2248 136.038 49.1467 136.788 49.1779C137.538 49.2092 138.241 49.3498 138.897 49.5997C139.553 49.8496 140.115 50.2089 140.584 50.6776C141.084 51.115 141.396 51.6773 141.521 52.3647C141.677 53.1145 141.615 53.8487 141.334 54.5673C141.053 55.2546 140.662 55.8638 140.162 56.395C139.662 56.8948 139.1 57.2541 138.475 57.4728C137.85 57.6915 137.257 57.6759 136.694 57.426C136.476 57.3635 136.429 57.301 136.554 57.2385C136.616 57.2073 136.663 57.2073 136.694 57.2385C136.725 57.2698 136.772 57.2854 136.835 57.2854C137.21 57.3479 137.632 57.2698 138.1 57.0511C138.569 56.8324 138.991 56.5199 139.365 56.1138C139.772 55.7076 140.084 55.239 140.303 54.7079C140.553 54.1455 140.631 53.5831 140.537 53.0208C140.443 52.5521 140.24 52.146 139.928 51.8023C139.647 51.4586 139.272 51.1774 138.803 50.9587C138.334 50.7401 137.803 50.5995 137.21 50.537C136.647 50.4745 136.038 50.5057 135.382 50.6307C134.226 50.8494 133.148 51.3805 132.148 52.2241C131.149 53.0364 130.258 54.0518 129.477 55.2702C128.696 56.4574 128.04 57.7853 127.509 59.2537C126.978 60.7221 126.619 62.1905 126.431 63.6589ZM130.133 79.124C130.571 79.1864 130.821 79.2333 130.883 79.2645C130.946 79.2958 130.711 79.3114 130.18 79.3114C129.305 79.3114 128.415 79.1708 127.509 78.8896C126.634 78.6085 125.806 78.2179 125.025 77.718C124.244 77.1869 123.541 76.5464 122.916 75.7966C122.292 75.0468 121.823 74.2189 121.51 73.3128C120.823 71.3445 120.417 69.47 120.292 67.6892C120.167 65.8771 120.245 64.065 120.526 62.2529C120.683 61.2844 120.932 60.1753 121.276 58.9256C121.62 57.6759 122.088 56.395 122.682 55.0828C123.307 53.7706 124.072 52.474 124.978 51.1931C125.884 49.9121 126.978 48.7405 128.259 47.6783C129.602 46.5535 131.102 45.8193 132.758 45.4757C134.414 45.1008 135.991 45.0383 137.491 45.2882C138.991 45.5382 140.318 46.0849 141.474 46.9285C142.63 47.7408 143.396 48.7561 143.771 49.9746C143.802 50.0371 143.849 50.1621 143.911 50.3495C143.974 50.537 143.974 50.6463 143.911 50.6776C143.849 50.7088 143.786 50.6463 143.724 50.4901C143.661 50.3339 143.552 50.1621 143.396 49.9746C142.084 48.1938 140.6 47.069 138.944 46.6004C137.288 46.1318 135.648 46.0849 134.023 46.4598C132.43 46.8347 130.914 47.5533 129.477 48.6156C128.071 49.6466 126.947 50.8025 126.103 52.0835C124.635 54.2392 123.541 56.598 122.823 59.1599C122.104 61.6906 121.76 64.2681 121.792 66.8925C121.823 68.1734 121.963 69.47 122.213 70.7822C122.463 72.0944 122.916 73.3753 123.572 74.625C124.197 75.8435 125.119 76.8589 126.337 77.6712C127.587 78.4835 128.852 78.9677 130.133 79.124ZM123.479 61.3625C123.697 59.7379 124.072 58.1445 124.603 56.5824C125.135 54.989 125.838 53.5519 126.712 52.2709C127.618 50.99 128.727 49.8809 130.04 48.9436C131.352 48.0063 132.898 47.3502 134.679 46.9753C135.273 46.8503 135.944 46.8035 136.694 46.8347C137.475 46.8347 138.241 46.9753 138.991 47.2565C139.772 47.5064 140.49 47.897 141.146 48.4281C141.834 48.9592 142.396 49.6934 142.833 50.6307C143.24 51.5367 143.38 52.4428 143.255 53.3488C143.161 54.2236 142.911 55.0203 142.505 55.7389C142.13 56.4262 141.646 57.0042 141.053 57.4728C140.49 57.9415 139.928 58.207 139.365 58.2695C139.272 58.3008 139.147 58.3164 138.991 58.3164C138.866 58.2851 138.803 58.2383 138.803 58.1758C138.803 58.1133 138.819 58.0977 138.85 58.1289C138.881 58.1289 139.053 58.0664 139.365 57.9415C139.584 57.8477 139.834 57.6915 140.115 57.4728C140.428 57.2229 140.709 56.9105 140.959 56.5356C141.24 56.1606 141.49 55.7232 141.709 55.2234C141.927 54.7235 142.068 54.1767 142.13 53.5831C142.193 52.9583 142.115 52.3647 141.896 51.8023C141.677 51.2399 141.349 50.74 140.912 50.3027C140.506 49.834 140.022 49.4435 139.459 49.1311C138.897 48.8186 138.319 48.6156 137.725 48.5218C135.882 48.2406 134.21 48.4906 132.711 49.2716C131.211 50.0215 129.883 51.0681 128.727 52.4115C127.572 53.7237 126.603 55.2077 125.822 56.8636C125.041 58.4882 124.447 60.0347 124.041 61.5031C124.041 61.5344 124.01 61.6437 123.947 61.8312C123.885 62.0186 123.822 62.2217 123.76 62.4404C123.697 62.6591 123.635 62.8622 123.572 63.0496C123.541 63.2058 123.51 63.284 123.479 63.284C123.447 63.284 123.416 63.2058 123.385 63.0496C123.385 62.8622 123.385 62.6591 123.385 62.4404C123.416 62.1905 123.432 61.9718 123.432 61.7843C123.463 61.5656 123.479 61.425 123.479 61.3625ZM139.553 77.9055C139.365 78.5928 139.084 79.452 138.709 80.483C138.366 81.5453 138.053 82.5138 137.772 83.3886C137.678 83.6385 137.6 83.7635 137.538 83.7635C137.413 83.7635 137.335 83.701 137.303 83.576C137.303 83.4823 137.303 83.4042 137.303 83.3417C137.21 82.4982 137.194 81.6859 137.257 80.9048C137.319 80.155 137.444 79.4051 137.632 78.6553C137.819 77.9055 138.038 77.1557 138.288 76.4059C138.569 75.656 138.85 74.8593 139.131 74.0158C139.506 72.9223 139.85 71.8601 140.162 70.829C140.475 69.7668 140.662 68.5796 140.725 67.2674C140.725 67.1112 140.725 67.0331 140.725 67.0331C140.756 67.0018 140.803 66.9862 140.865 66.9862L141.006 67.2674C141.318 67.9235 141.443 68.7358 141.381 69.7043C141.349 70.6728 141.224 71.6726 141.006 72.7036C140.787 73.7346 140.521 74.7188 140.209 75.656C139.928 76.5933 139.709 77.3431 139.553 77.9055ZM139.694 70.4541C139.256 71.6414 138.772 72.8754 138.241 74.1564C137.71 75.4373 137.163 76.6714 136.6 77.8586C136.569 77.8899 136.507 77.9992 136.413 78.1867C136.351 78.3429 136.272 78.4054 136.179 78.3741C136.116 78.3429 136.085 78.2492 136.085 78.0929C136.085 77.9055 136.085 77.7649 136.085 77.6712C136.085 77.39 136.116 77.0463 136.179 76.6402C136.241 76.2028 136.319 75.781 136.413 75.3748C136.507 74.9374 136.6 74.5157 136.694 74.1095C136.819 73.7034 136.944 73.3597 137.069 73.0785C137.132 72.8911 137.272 72.3912 137.491 71.5789C137.71 70.7353 137.928 69.8293 138.147 68.8608C138.366 67.861 138.538 66.8925 138.663 65.9552C138.787 65.0179 138.787 64.315 138.663 63.8463C138.6 63.6901 138.6 63.5808 138.663 63.5183C138.725 63.5183 138.772 63.5651 138.803 63.6589C138.866 63.7214 138.928 63.7838 138.991 63.8463C139.272 64.2837 139.49 64.7992 139.647 65.3928C139.803 65.9552 139.897 66.5488 139.928 67.1737C139.99 67.7673 139.99 68.3609 139.928 68.9545C139.897 69.5169 139.818 70.0167 139.694 70.4541ZM136.929 84.279C137.303 85.0601 137.756 85.7943 138.288 86.4816C138.381 86.5753 138.397 86.6534 138.334 86.7159C138.241 86.7784 138.147 86.7784 138.053 86.7159C137.991 86.6847 137.944 86.6534 137.913 86.6222C137.475 86.3722 137.116 86.1223 136.835 85.8724C136.554 85.6224 136.272 85.1382 135.991 84.4196C135.898 84.1696 135.804 83.8416 135.71 83.4354C135.648 83.0605 135.601 82.6856 135.569 82.3107C135.538 81.967 135.523 81.6702 135.523 81.4203C135.554 81.1703 135.616 81.061 135.71 81.0922C135.866 81.0922 135.991 81.2797 136.085 81.6546C136.21 82.0295 136.288 82.2638 136.319 82.3576C136.444 82.7012 136.538 83.0293 136.6 83.3417C136.663 83.6541 136.772 83.9666 136.929 84.279ZM150.25 63.7995C150.343 63.3933 150.39 62.9247 150.39 62.3935C150.421 61.8624 150.39 61.3157 150.296 60.7533C150.203 60.1909 150.031 59.6598 149.781 59.1599C149.562 58.6288 149.265 58.1758 148.891 57.8009C148.703 57.6759 148.594 57.6134 148.562 57.6134C148.438 57.6134 148.438 57.7072 148.562 57.8946C148.75 58.3008 148.812 58.9412 148.75 59.816C148.719 60.6596 148.625 61.55 148.469 62.4873C148.313 63.3933 148.141 64.2212 147.953 64.9711C147.797 65.6896 147.703 66.127 147.672 66.2832C147.453 66.8456 147.25 67.5486 147.063 68.3921C146.907 69.2357 146.829 69.923 146.829 70.4541C146.797 70.5166 146.782 70.6416 146.782 70.829C146.782 71.0165 146.829 71.1258 146.922 71.1571C146.954 71.1571 147.016 71.079 147.11 70.9228C147.203 70.7666 147.282 70.6572 147.344 70.5947C147.906 69.595 148.438 68.5015 148.937 67.3143C149.469 66.127 149.906 64.9554 150.25 63.7995ZM150.437 70.8759C150.562 70.3135 150.765 69.595 151.046 68.7202C151.327 67.8141 151.562 66.8925 151.749 65.9552C151.937 64.9867 152.03 64.0494 152.03 63.1434C152.03 62.2061 151.843 61.4406 151.468 60.847C151.343 60.7221 151.249 60.6596 151.187 60.6596C151.124 60.6596 151.109 60.7221 151.14 60.847C151.14 62.0343 150.999 63.1434 150.718 64.1744C150.468 65.1741 150.187 66.1583 149.875 67.1268C149.344 68.7202 148.859 70.2823 148.422 71.8132C147.985 73.3128 147.797 74.8593 147.86 76.4527C147.86 76.5464 147.86 76.6558 147.86 76.7808C147.891 76.8745 147.953 76.9214 148.047 76.9214C148.109 76.9214 148.156 76.8901 148.188 76.8276C148.219 76.7651 148.266 76.6714 148.328 76.5464C148.641 75.7966 149 74.9218 149.406 73.9221C149.812 72.8911 150.156 71.8757 150.437 70.8759ZM147.11 79.2645C146.516 78.6397 146.063 77.9524 145.751 77.2025C145.438 76.4215 145.22 75.6404 145.095 74.8593C144.97 74.047 144.938 73.2347 145.001 72.4224C145.063 71.6101 145.188 70.8447 145.376 70.1261C145.657 69.0014 146.016 67.8766 146.454 66.7519C146.891 65.6272 147.266 64.518 147.578 63.4245C147.891 62.2998 148.063 61.2063 148.094 60.1441C148.156 59.0506 147.938 57.9883 147.438 56.9573C147.344 56.8011 147.282 56.723 147.25 56.723C147.219 56.723 147.203 56.7543 147.203 56.8167C147.203 56.848 147.219 56.8792 147.25 56.9105C147.344 57.8477 147.282 58.8163 147.063 59.816C146.844 60.8158 146.563 61.8468 146.219 62.909C145.876 63.9401 145.485 65.0179 145.048 66.1427C144.642 67.2361 144.298 68.3609 144.017 69.5169C143.798 70.3604 143.642 71.2196 143.548 72.0944C143.486 72.9692 143.548 73.844 143.736 74.7187C143.923 75.5623 144.267 76.3746 144.767 77.1557C145.266 77.9367 145.985 78.6553 146.922 79.3114C146.985 79.3739 147.063 79.4051 147.157 79.4051C147.25 79.4364 147.235 79.3895 147.11 79.2645ZM147.485 77.4837C147.391 77.2338 147.282 76.9214 147.157 76.5464C147.063 76.1715 146.985 75.8122 146.922 75.4686C146.86 75.3436 146.782 75.1093 146.688 74.7656C146.594 74.4219 146.516 74.2501 146.454 74.2501C146.329 74.2501 146.235 74.3595 146.172 74.5782C146.141 74.7969 146.126 75.078 146.126 75.4217C146.126 75.7341 146.141 76.0778 146.172 76.4527C146.235 76.7964 146.313 77.0932 146.407 77.3431C146.594 77.968 146.813 78.4054 147.063 78.6553C147.344 78.9053 147.703 79.1083 148.141 79.2645C148.328 79.3583 148.469 79.4051 148.562 79.4051C148.594 79.4051 148.594 79.3739 148.562 79.3114C148.562 79.2802 148.547 79.2645 148.516 79.2645C148.297 79.0146 148.094 78.749 147.906 78.4679C147.75 78.1867 147.61 77.8586 147.485 77.4837ZM151.14 53.2551C150.984 53.2551 150.734 53.2395 150.39 53.2082C150.078 53.1457 149.922 52.9895 149.922 52.7396C149.922 52.6458 150.062 52.5365 150.343 52.4115C150.625 52.2553 150.937 52.0522 151.281 51.8023C151.624 51.5211 151.937 51.1774 152.218 50.7713C152.499 50.3339 152.64 49.7872 152.64 49.1311C152.64 48.3187 152.483 47.7095 152.171 47.3034C152.109 47.2096 152.03 47.1159 151.937 47.0222C151.843 46.8972 151.812 46.8191 151.843 46.7879C151.905 46.7879 151.968 46.8191 152.03 46.8816C152.124 46.9128 152.187 46.9441 152.218 46.9753C152.843 47.319 153.311 47.772 153.624 48.3344C153.967 48.8655 154.139 49.381 154.139 49.8809C154.139 50.8806 153.905 51.6929 153.436 52.3178C152.968 52.9427 152.202 53.2551 151.14 53.2551ZM149.406 51.3805C149.031 51.5367 148.844 51.443 148.844 51.0993C148.844 50.8494 148.937 50.6151 149.125 50.3964C149.312 50.1464 149.484 49.8809 149.64 49.5997C149.828 49.3185 149.953 49.0061 150.015 48.6624C150.078 48.2875 149.984 47.8345 149.734 47.3034C149.672 47.1472 149.562 46.9753 149.406 46.7879C149.25 46.6004 149.203 46.4911 149.265 46.4598C149.328 46.4286 149.453 46.4598 149.64 46.5535C149.859 46.616 150 46.6629 150.062 46.6941C150.593 46.9441 150.984 47.319 151.234 47.8189C151.515 48.3187 151.656 48.7561 151.656 49.1311C151.656 49.7247 151.406 50.2245 150.906 50.6307C150.437 51.0056 149.937 51.2556 149.406 51.3805ZM148.047 48.8499C148.047 48.6937 148.094 48.5218 148.188 48.3344C148.281 48.1157 148.438 48.0063 148.656 48.0063C148.812 48.0063 148.937 48.1157 149.031 48.3344C149.125 48.5218 149.172 48.6937 149.172 48.8499C149.172 48.9748 149.125 49.1467 149.031 49.3654C148.937 49.5528 148.812 49.6466 148.656 49.6466C148.438 49.6466 148.281 49.5528 148.188 49.3654C148.094 49.1779 148.047 49.0061 148.047 48.8499ZM170.215 58.3164C170.152 58.2851 170.074 58.332 169.981 58.457C169.918 58.5819 169.856 58.6757 169.793 58.7382C169.325 59.3318 168.903 60.066 168.528 60.9408C168.153 61.8156 167.825 62.7372 167.544 63.7057C167.294 64.6743 167.075 65.6428 166.888 66.6113C166.731 67.5798 166.591 68.439 166.466 69.1888C166.31 70.2511 166.169 71.2664 166.044 72.235C165.95 73.1722 165.857 74.0939 165.763 74.9999C165.669 75.906 165.591 76.8276 165.529 77.7649C165.466 78.6709 165.388 79.6082 165.294 80.5767C165.325 80.608 165.341 80.6861 165.341 80.8111C165.341 80.9673 165.341 81.1079 165.341 81.2328C165.341 81.389 165.341 81.514 165.341 81.6077C165.341 81.7327 165.372 81.7952 165.435 81.7952C165.466 81.7952 165.513 81.7327 165.575 81.6077C165.638 81.514 165.7 81.4047 165.763 81.2797C165.825 81.1547 165.872 81.0298 165.903 80.9048C165.935 80.7798 165.95 80.7173 165.95 80.7173C166.294 79.9675 166.591 79.0927 166.841 78.0929C167.091 77.0932 167.294 76.0934 167.45 75.0937C167.481 74.8437 167.544 74.3282 167.637 73.5472C167.731 72.7661 167.84 71.8601 167.965 70.829C168.09 69.798 168.231 68.6889 168.387 67.5017C168.575 66.2832 168.747 65.1273 168.903 64.0338C169.09 62.909 169.278 61.8937 169.465 60.9876C169.684 60.0816 169.887 59.3943 170.074 58.9256C170.106 58.8006 170.137 58.7069 170.168 58.6444C170.199 58.5819 170.215 58.5195 170.215 58.457V58.3164ZM168.668 58.1289C168.668 58.0977 168.559 58.0821 168.34 58.0821C168.247 58.0821 168.153 58.0977 168.059 58.1289C166.872 58.2539 165.778 58.5819 164.779 59.1131C163.779 59.613 162.857 60.2534 162.014 61.0345C161.201 61.7843 160.467 62.6435 159.811 63.612C159.186 64.5805 158.671 65.5803 158.265 66.6113C157.827 67.6735 157.499 68.7983 157.28 69.9855C157.062 71.1727 156.984 72.2818 157.046 73.3128C157.14 74.6563 157.734 74.7812 158.827 73.6877C159.764 72.7505 160.639 71.7351 161.451 70.6416C162.295 69.5481 163.076 68.3921 163.795 67.1737C164.544 65.9552 165.247 64.7211 165.903 63.4714C166.56 62.1905 167.216 60.9095 167.872 59.6286C167.997 59.3786 168.044 59.2537 168.012 59.2537C167.95 59.1912 167.872 59.1912 167.778 59.2537C167.716 59.3161 167.684 59.3786 167.684 59.4411C165.997 61.5969 164.419 63.6589 162.951 65.6272C161.514 67.5954 160.186 69.5481 158.968 71.4851C158.811 71.6414 158.702 71.6882 158.64 71.6257C158.608 71.5632 158.608 71.4539 158.64 71.2977C158.702 70.5791 158.811 69.8449 158.968 69.0951C159.155 68.314 159.405 67.533 159.717 66.7519C160.467 64.8461 161.545 63.159 162.951 61.6906C164.357 60.2222 166.122 59.1287 168.247 58.4101C168.528 58.2851 168.668 58.1914 168.668 58.1289ZM166.138 57.8009C166.107 57.7384 166.028 57.7071 165.903 57.7071C165.81 57.7071 165.716 57.7071 165.622 57.7071C164.747 57.7071 163.826 57.9571 162.857 58.457C161.92 58.9569 161.014 59.5973 160.139 60.3784C159.264 61.1282 158.483 61.9718 157.796 62.909C157.109 63.8151 156.593 64.6899 156.249 65.5334C155.812 66.6582 155.437 67.7516 155.125 68.8139C154.844 69.8449 154.687 70.8915 154.656 71.9538C154.625 72.5161 154.64 73.0629 154.703 73.594C154.797 74.1251 154.953 74.7031 155.172 75.328C155.297 75.7029 155.5 75.9997 155.781 76.2184C156.093 76.4371 156.406 76.5777 156.718 76.6402C157.062 76.7027 157.405 76.7027 157.749 76.6402C158.093 76.5777 158.39 76.4527 158.64 76.2653C158.671 76.234 158.733 76.1715 158.827 76.0778C158.952 75.9841 159.061 75.8903 159.155 75.7966C159.28 75.6716 159.374 75.5623 159.436 75.4686C159.53 75.3748 159.561 75.2967 159.53 75.2343C159.499 75.1718 159.343 75.2186 159.061 75.3748C158.811 75.4998 158.593 75.5779 158.405 75.6092C157.749 75.7341 157.249 75.6873 156.906 75.4686C156.593 75.2499 156.359 74.9375 156.203 74.5313C156.078 74.0939 156.015 73.6253 156.015 73.1254C156.046 72.5943 156.093 72.0788 156.156 71.5789C156.156 71.3914 156.187 71.0634 156.249 70.5947C156.343 70.1261 156.484 69.5637 156.671 68.9076C156.859 68.2203 157.109 67.4705 157.421 66.6582C157.765 65.8459 158.171 65.0335 158.64 64.2212C159.108 63.4089 159.655 62.6591 160.28 61.9718C160.936 61.2844 161.592 60.6752 162.248 60.1441C162.904 59.6129 163.529 59.1756 164.123 58.8319C164.747 58.4882 165.279 58.2539 165.716 58.1289C165.935 58.0664 166.06 58.0196 166.091 57.9883C166.122 57.9259 166.138 57.8634 166.138 57.8009ZM171.808 57.2854C171.715 57.2854 171.636 57.3479 171.574 57.4728C171.543 57.5353 171.511 57.6134 171.48 57.7071C170.543 59.6442 169.887 61.6437 169.512 63.7057C169.137 65.7365 168.856 67.8141 168.668 69.9386C168.481 72.0631 168.294 74.2032 168.106 76.359C167.919 78.5147 167.544 80.6705 166.981 82.8262C166.794 83.5135 166.606 84.2321 166.419 84.9819C166.231 85.7318 165.982 86.466 165.669 87.1846C165.357 87.9031 164.935 88.5748 164.404 89.1997C163.904 89.8558 163.217 90.4025 162.342 90.8399C161.342 91.3711 160.42 91.5898 159.577 91.496C158.733 91.4335 157.952 91.2148 157.234 90.8399C156.515 90.465 155.859 89.9808 155.265 89.3871C154.672 88.8248 154.156 88.3093 153.719 87.8406C153.656 87.7782 153.594 87.7001 153.531 87.6063C153.469 87.5438 153.422 87.5282 153.391 87.5595C153.328 87.5907 153.313 87.6532 153.344 87.7469C153.406 87.8719 153.453 87.9656 153.485 88.0281C154.203 89.3715 155.297 90.5431 156.765 91.5429C157.109 91.7928 157.53 92.0115 158.03 92.199C158.53 92.3864 159.061 92.5114 159.624 92.5739C160.217 92.6676 160.811 92.652 161.405 92.527C162.029 92.4333 162.623 92.199 163.185 91.8241C164.216 91.1367 165.029 90.4025 165.622 89.6215C166.247 88.8716 166.747 88.0906 167.122 87.2783C167.497 86.4972 167.778 85.6849 167.965 84.8414C168.184 83.9978 168.387 83.1699 168.575 82.3576C169.106 80.2331 169.465 78.1242 169.653 76.0309C169.871 73.9064 170.043 71.8132 170.168 69.7512C170.293 67.6892 170.449 65.6584 170.637 63.6589C170.824 61.6281 171.183 59.6598 171.715 57.754C171.777 57.629 171.808 57.5353 171.808 57.4728V57.2854ZM166.278 66.2364C166.435 65.5803 166.638 64.9086 166.888 64.2212C167.169 63.5027 167.387 62.7997 167.544 62.1124C167.544 62.0499 167.559 61.9405 167.591 61.7843C167.653 61.6281 167.669 61.55 167.637 61.55C167.575 61.5188 167.481 61.5969 167.356 61.7843C167.231 61.9718 167.169 62.0811 167.169 62.1124C166.731 62.8309 166.341 63.5964 165.997 64.4087C165.654 65.1898 165.341 65.9083 165.06 66.5644C164.997 66.7206 164.857 66.9862 164.638 67.3611C164.451 67.736 164.248 68.1422 164.029 68.5796C163.841 68.9857 163.67 69.3763 163.513 69.7512C163.388 70.0948 163.373 70.2979 163.467 70.3604C163.529 70.3604 163.623 70.2979 163.748 70.1729C163.873 70.0167 163.966 69.9074 164.029 69.8449C164.123 69.6887 164.232 69.5325 164.357 69.3763C164.482 69.1888 164.607 69.017 164.732 68.8608C164.544 69.6418 164.373 70.2979 164.216 70.829C164.091 71.3289 163.951 71.7819 163.795 72.1881C163.638 72.5943 163.451 72.9848 163.232 73.3597C163.045 73.7034 162.779 74.1095 162.436 74.5782C162.186 74.9218 161.873 75.2967 161.498 75.7029C161.155 76.0778 160.748 76.4371 160.28 76.7808C159.842 77.0932 159.358 77.3587 158.827 77.5774C158.296 77.7649 157.734 77.8586 157.14 77.8586C156.39 77.8586 155.796 77.6712 155.359 77.2963C154.922 76.8901 154.594 76.4059 154.375 75.8435C154.156 75.2499 154.016 74.625 153.953 73.9689C153.891 73.3128 153.875 72.7036 153.906 72.1412C154.031 69.8918 154.547 67.7048 155.453 65.5803C156.39 63.4245 157.687 61.5031 159.342 59.816C159.342 59.7848 159.389 59.7223 159.483 59.6286C159.577 59.5348 159.624 59.4724 159.624 59.4411C159.561 59.3786 159.483 59.3786 159.389 59.4411L159.202 59.5348C158.64 59.8785 158.046 60.3472 157.421 60.9408C156.827 61.5344 156.249 62.2373 155.687 63.0496C155.156 63.8307 154.656 64.7055 154.187 65.674C153.75 66.6425 153.375 67.6423 153.063 68.6733C152.907 69.2044 152.782 69.8449 152.688 70.5947C152.625 71.3133 152.61 72.0787 152.641 72.8911C152.703 73.6721 152.813 74.4688 152.969 75.2811C153.156 76.0622 153.438 76.7651 153.813 77.39C154.219 77.9836 154.719 78.4679 155.312 78.8428C155.937 79.1864 156.702 79.327 157.609 79.2645C158.515 79.2021 159.233 79.0458 159.764 78.7959C160.327 78.546 160.78 78.2804 161.123 77.9992C161.561 77.6556 161.951 77.2963 162.295 76.9214C162.639 76.5464 162.982 76.1872 163.326 75.8435C163.138 76.937 162.951 77.8743 162.764 78.6553C162.607 79.4051 162.451 80.1237 162.295 80.8111C162.076 81.7483 161.873 82.6388 161.686 83.4823C161.498 84.3571 161.295 85.1225 161.076 85.7786C160.858 86.4347 160.608 86.9659 160.327 87.372C160.045 87.8094 159.717 88.0593 159.342 88.1218C158.905 88.1218 158.686 88.1687 158.686 88.2624C158.655 88.3561 158.718 88.4342 158.874 88.4967C159.03 88.5592 159.186 88.6061 159.342 88.6373C159.811 88.7311 160.249 88.653 160.655 88.403C161.092 88.1531 161.467 87.7782 161.779 87.2783C162.123 86.8096 162.42 86.2473 162.67 85.5912C162.951 84.9351 163.185 84.2634 163.373 83.576C163.748 82.1389 164.06 80.7329 164.31 79.3583C164.56 78.0148 164.794 76.5933 165.013 75.0937C165.232 73.6253 165.404 72.1569 165.529 70.6885C165.685 69.22 165.935 67.736 166.278 66.2364ZM161.03 89.4809C160.967 89.4184 160.873 89.3871 160.748 89.3871C160.655 89.4184 160.592 89.434 160.561 89.434C160.03 89.5277 159.499 89.5121 158.968 89.3871C158.468 89.2622 157.952 89.0903 157.421 88.8716C156.827 88.6217 156.281 88.3093 155.781 87.9344C155.281 87.5907 154.719 87.2158 154.094 86.8096C154.031 86.7472 153.938 86.6847 153.813 86.6222C153.688 86.5597 153.625 86.5597 153.625 86.6222C153.594 86.6534 153.609 86.7315 153.672 86.8565C153.766 86.9815 153.844 87.0752 153.906 87.1377C154.312 87.6688 154.734 88.1687 155.172 88.6373C155.64 89.106 156.234 89.4809 156.952 89.7621C157.421 89.9495 157.905 90.0745 158.405 90.137C158.905 90.1995 159.358 90.1995 159.764 90.137C160.202 90.1057 160.545 90.0276 160.795 89.9027C161.045 89.7777 161.123 89.6371 161.03 89.4809ZM187.232 66.2832C187.325 65.4397 187.341 64.5493 187.279 63.612C187.216 62.6747 187.013 61.8156 186.669 61.0345C186.357 60.2222 185.857 59.5505 185.17 59.0193C184.514 58.4882 183.639 58.2227 182.545 58.2227C181.077 58.2227 179.796 58.6288 178.702 59.4411C177.609 60.2222 176.672 61.2063 175.891 62.3935C175.11 63.5495 174.5 64.7992 174.063 66.1427C173.626 67.4548 173.344 68.6577 173.219 69.7512C173.032 71.2508 173.001 72.5474 173.126 73.6409C173.282 74.7344 173.547 75.6404 173.922 76.359C174.297 77.0463 174.766 77.5618 175.328 77.9055C175.922 78.2492 176.562 78.421 177.25 78.421C178.218 78.4522 179.234 78.1867 180.296 77.6243C181.389 77.0307 182.405 76.2184 183.342 75.1874C184.279 74.1251 185.092 72.8442 185.779 71.3445C186.498 69.8137 186.982 68.1266 187.232 66.2832ZM172.142 69.5169C172.267 68.2672 172.579 66.8925 173.079 65.3928C173.579 63.8932 174.266 62.5029 175.141 61.2219C176.047 59.941 177.125 58.8788 178.374 58.0352C179.624 57.1604 181.077 56.723 182.733 56.723C183.982 56.723 185.014 57.0198 185.826 57.6134C186.638 58.207 187.263 58.9725 187.7 59.9098C188.138 60.8158 188.419 61.8156 188.544 62.909C188.669 63.9713 188.669 64.9867 188.544 65.9552C188.263 68.2047 187.716 70.1573 186.904 71.8132C186.091 73.469 185.138 74.8593 184.045 75.9841C182.952 77.0776 181.796 77.9055 180.577 78.4679C179.359 78.999 178.187 79.2645 177.062 79.2645C176.219 79.2645 175.453 79.0771 174.766 78.7022C174.11 78.3273 173.547 77.7493 173.079 76.9682C172.641 76.1559 172.329 75.1405 172.142 73.9221C171.985 72.6724 171.985 71.204 172.142 69.5169ZM177.39 76.1247C177.234 76.1247 177.078 76.0778 176.922 75.9841C176.765 75.8591 176.64 75.7185 176.547 75.5623C176.453 75.4061 176.391 75.2499 176.359 75.0937C176.328 74.9375 176.391 74.8281 176.547 74.7656C176.64 74.7344 176.765 74.8437 176.922 75.0937C177.078 75.3436 177.25 75.4686 177.437 75.4686C177.75 75.4686 178.109 75.2655 178.515 74.8593C178.952 74.4532 179.359 73.9845 179.734 73.4534C180.14 72.8911 180.483 72.3443 180.765 71.8132C181.077 71.2821 181.296 70.8915 181.421 70.6416C181.546 70.3916 181.671 70.0792 181.796 69.7043C181.92 69.2982 182.03 68.892 182.124 68.4859C182.249 68.0797 182.342 67.6892 182.405 67.3143C182.498 66.9081 182.561 66.5644 182.592 66.2832C182.748 64.8773 182.717 63.7995 182.498 63.0496C182.28 62.2686 181.92 61.878 181.421 61.878C181.046 61.878 180.655 62.003 180.249 62.2529C179.843 62.4716 179.452 62.7685 179.077 63.1434C178.734 63.5183 178.421 63.9401 178.14 64.4087C177.859 64.8461 177.656 65.2991 177.531 65.7677C177.375 66.2989 177.265 66.5644 177.203 66.5644C177.109 66.5644 177.062 66.2989 177.062 65.7677C177.156 65.1741 177.359 64.5961 177.671 64.0338C177.984 63.4402 178.374 62.9247 178.843 62.4873C179.312 62.0186 179.827 61.6437 180.39 61.3625C180.952 61.0501 181.53 60.8939 182.124 60.8939C182.717 60.8939 183.155 61.1126 183.436 61.55C183.748 61.9561 183.967 62.4717 184.092 63.0965C184.217 63.6901 184.264 64.315 184.232 64.9711C184.232 65.5959 184.201 66.0958 184.139 66.4707C184.014 67.3143 183.811 68.1422 183.529 68.9545C183.28 69.7356 182.967 70.5322 182.592 71.3445C182.405 71.7195 182.124 72.1881 181.749 72.7505C181.374 73.2816 180.936 73.7971 180.436 74.297C179.968 74.7969 179.452 75.2343 178.89 75.6092C178.359 75.9528 177.859 76.1247 177.39 76.1247ZM178.89 77.0151C178.921 77.2025 178.765 77.3587 178.421 77.4837C178.109 77.6087 177.781 77.6712 177.437 77.6712C176.469 77.6399 175.719 77.3275 175.188 76.7339C174.688 76.1403 174.329 75.4373 174.11 74.625C173.922 73.8127 173.829 72.9692 173.829 72.0944C173.86 71.2196 173.907 70.4854 173.969 69.8918C174.094 68.8608 174.344 67.7048 174.719 66.4238C175.094 65.1429 175.625 63.9401 176.312 62.8153C177 61.6906 177.843 60.7533 178.843 60.0035C179.843 59.2224 181.03 58.8319 182.405 58.8319C183.311 58.8319 184.029 59.0662 184.561 59.5348C185.123 60.0035 185.529 60.5815 185.779 61.2688C186.06 61.9561 186.216 62.706 186.248 63.5183C186.31 64.2993 186.294 65.0179 186.201 65.674C186.138 66.3926 186.029 67.0487 185.873 67.6423C185.716 68.2359 185.498 68.892 185.217 69.6106C185.123 69.8293 184.998 70.0792 184.842 70.3604C184.685 70.6416 184.514 70.7666 184.326 70.7353C184.232 70.7041 184.201 70.5791 184.232 70.3604C184.295 70.1417 184.357 69.8761 184.42 69.5637C184.514 69.2201 184.607 68.8764 184.701 68.5327C184.795 68.1578 184.857 67.8141 184.889 67.5017C184.951 66.9706 184.982 66.3145 184.982 65.5334C185.014 64.7211 184.951 63.9401 184.795 63.1902C184.67 62.4404 184.42 61.7999 184.045 61.2688C183.67 60.7377 183.108 60.4721 182.358 60.4721C181.264 60.4721 180.249 60.8314 179.312 61.55C178.406 62.2373 177.609 63.0965 176.922 64.1275C176.234 65.1273 175.672 66.1895 175.235 67.3143C174.828 68.4077 174.578 69.3763 174.485 70.2198C174.422 70.7197 174.407 71.3445 174.438 72.0944C174.469 72.8442 174.578 73.594 174.766 74.3438C174.985 75.0624 175.328 75.6873 175.797 76.2184C176.266 76.7495 176.906 77.0307 177.718 77.0619C177.968 77.0932 178.203 77.0776 178.421 77.0151C178.671 76.9214 178.827 76.9214 178.89 77.0151ZM198.113 54.8485C198.301 54.1611 198.426 53.3332 198.488 52.3647C198.551 51.3649 198.551 50.3808 198.488 49.4122C198.426 48.4125 198.27 47.4752 198.02 46.6004C197.801 45.7256 197.457 45.0539 196.989 44.5853C196.801 44.3978 196.645 44.3353 196.52 44.3978C196.426 44.4603 196.457 44.6165 196.614 44.8664C196.926 45.4288 197.067 46.3036 197.035 47.4908C197.035 48.6468 196.942 49.9121 196.754 51.2868C196.567 52.6615 196.317 54.0361 196.004 55.4108C195.692 56.7855 195.38 57.9883 195.067 59.0193C194.911 59.4567 194.755 60.0035 194.598 60.6596C194.442 61.3157 194.27 61.9874 194.083 62.6747C193.927 63.3308 193.786 63.9869 193.661 64.643C193.536 65.2679 193.443 65.799 193.38 66.2364C193.38 66.3301 193.364 66.5176 193.333 66.7987C193.302 67.0487 193.333 67.2049 193.427 67.2674C193.489 67.2674 193.583 67.1424 193.708 66.8925C193.833 66.6113 193.911 66.4395 193.942 66.377C194.692 64.6274 195.458 62.7685 196.239 60.8002C197.02 58.8006 197.645 56.8167 198.113 54.8485ZM197.035 66.2832C197.192 65.7209 197.41 64.9867 197.692 64.0806C197.973 63.1746 198.254 62.1905 198.535 61.1282C198.816 60.0347 199.082 58.91 199.332 57.754C199.613 56.5668 199.816 55.4264 199.941 54.3329C200.097 53.2082 200.144 52.1772 200.082 51.2399C200.05 50.3027 199.894 49.5372 199.613 48.9436C199.582 48.8499 199.519 48.7561 199.425 48.6624C199.332 48.5687 199.285 48.6468 199.285 48.8967C199.347 50.8963 199.144 52.8958 198.676 54.8953C198.207 56.8948 197.707 58.7069 197.176 60.3315C196.77 61.6125 196.348 62.8934 195.911 64.1744C195.505 65.4553 195.145 66.7363 194.833 68.0172C194.552 69.2669 194.364 70.501 194.27 71.7195C194.208 72.9379 194.333 74.1095 194.645 75.2343C194.77 75.6404 194.88 75.8435 194.973 75.8435C195.067 75.8122 195.114 75.6092 195.114 75.2343C195.114 74.6719 195.161 74.047 195.255 73.3597C195.38 72.6411 195.536 71.8913 195.723 71.1102C195.911 70.3292 196.114 69.5325 196.332 68.7202C196.551 67.8766 196.785 67.0643 197.035 66.2832ZM196.145 79.124C195.051 78.999 194.067 78.4522 193.193 77.4837C192.349 76.5152 191.787 75.328 191.505 73.9221C191.224 72.5786 191.146 71.2196 191.271 69.8449C191.427 68.439 191.677 67.1268 192.021 65.9083C192.521 64.0338 193.114 62.1124 193.802 60.1441C194.489 58.1445 195.067 56.1763 195.536 54.2392C196.036 52.3022 196.317 50.4432 196.379 48.6624C196.442 46.8503 196.129 45.1945 195.442 43.6948C195.38 43.6636 195.333 43.6011 195.301 43.5074C195.27 43.3824 195.223 43.3356 195.161 43.3668C195.067 43.3668 195.051 43.4761 195.114 43.6948C195.364 45.132 195.38 46.6941 195.161 48.3812C194.942 50.0371 194.583 51.7711 194.083 53.5831C193.614 55.364 193.068 57.2073 192.443 59.1131C191.849 61.0189 191.287 62.9247 190.756 64.8305C190.349 66.2364 190.068 67.736 189.912 69.3294C189.787 70.8915 189.896 72.4693 190.24 74.0627C190.428 74.875 190.709 75.6092 191.084 76.2653C191.49 76.9214 191.958 77.4837 192.49 77.9524C193.021 78.3898 193.599 78.7334 194.224 78.9834C194.848 79.2333 195.489 79.3427 196.145 79.3114H196.286C196.317 79.3114 196.364 79.2958 196.426 79.2645C196.426 79.1708 196.332 79.124 196.145 79.124ZM194.739 76.7808C194.177 76.1247 193.724 75.2811 193.38 74.2501C193.349 74.1564 193.302 74.0158 193.239 73.8283C193.177 73.6096 193.114 73.4066 193.052 73.2191C192.989 73.0004 192.927 72.813 192.865 72.6567C192.802 72.4693 192.755 72.3756 192.724 72.3756C192.599 72.3756 192.536 72.5786 192.536 72.9848C192.536 73.3909 192.583 73.8596 192.677 74.3907C192.771 74.9218 192.911 75.4686 193.099 76.0309C193.286 76.5621 193.505 76.9838 193.755 77.2963C194.255 77.8586 194.755 78.2023 195.255 78.3273C195.786 78.4522 196.317 78.5147 196.848 78.5147C197.035 78.5147 197.176 78.4679 197.27 78.3741C197.395 78.2492 197.317 78.1554 197.035 78.0929C196.129 77.9992 195.364 77.5618 194.739 76.7808ZM214.188 66.2832C214.281 65.4397 214.297 64.5493 214.234 63.612C214.172 62.6747 213.969 61.8156 213.625 61.0345C213.313 60.2222 212.813 59.5505 212.126 59.0193C211.469 58.4882 210.595 58.2227 209.501 58.2227C208.033 58.2227 206.752 58.6288 205.658 59.4411C204.565 60.2222 203.628 61.2063 202.847 62.3935C202.065 63.5495 201.456 64.7992 201.019 66.1427C200.581 67.4548 200.3 68.6577 200.175 69.7512C199.988 71.2508 199.957 72.5474 200.082 73.6409C200.238 74.7344 200.503 75.6404 200.878 76.359C201.253 77.0463 201.722 77.5618 202.284 77.9055C202.878 78.2492 203.518 78.421 204.206 78.421C205.174 78.4522 206.189 78.1867 207.252 77.6243C208.345 77.0307 209.361 76.2184 210.298 75.1874C211.235 74.1251 212.047 72.8442 212.735 71.3445C213.453 69.8137 213.938 68.1266 214.188 66.2832ZM199.097 69.5169C199.222 68.2672 199.535 66.8925 200.035 65.3928C200.535 63.8932 201.222 62.5029 202.097 61.2219C203.003 59.941 204.081 58.8788 205.33 58.0352C206.58 57.1604 208.033 56.723 209.689 56.723C210.938 56.723 211.969 57.0198 212.782 57.6134C213.594 58.207 214.219 58.9725 214.656 59.9098C215.094 60.8158 215.375 61.8156 215.5 62.909C215.625 63.9713 215.625 64.9867 215.5 65.9552C215.219 68.2047 214.672 70.1573 213.86 71.8132C213.047 73.469 212.094 74.8593 211.001 75.9841C209.907 77.0776 208.751 77.9055 207.533 78.4679C206.314 78.999 205.143 79.2645 204.018 79.2645C203.175 79.2645 202.409 79.0771 201.722 78.7022C201.066 78.3273 200.503 77.7493 200.035 76.9682C199.597 76.1559 199.285 75.1405 199.097 73.9221C198.941 72.6724 198.941 71.204 199.097 69.5169ZM204.346 76.1247C204.19 76.1247 204.034 76.0778 203.878 75.9841C203.721 75.8591 203.596 75.7185 203.503 75.5623C203.409 75.4061 203.346 75.2499 203.315 75.0937C203.284 74.9375 203.346 74.8281 203.503 74.7656C203.596 74.7344 203.721 74.8437 203.878 75.0937C204.034 75.3436 204.206 75.4686 204.393 75.4686C204.705 75.4686 205.065 75.2655 205.471 74.8593C205.908 74.4532 206.314 73.9845 206.689 73.4534C207.096 72.8911 207.439 72.3443 207.72 71.8132C208.033 71.2821 208.251 70.8915 208.376 70.6416C208.501 70.3916 208.626 70.0792 208.751 69.7043C208.876 69.2982 208.986 68.892 209.079 68.4859C209.204 68.0797 209.298 67.6892 209.361 67.3143C209.454 66.9081 209.517 66.5644 209.548 66.2832C209.704 64.8773 209.673 63.7995 209.454 63.0496C209.236 62.2686 208.876 61.878 208.376 61.878C208.002 61.878 207.611 62.003 207.205 62.2529C206.799 62.4716 206.408 62.7685 206.033 63.1434C205.69 63.5183 205.377 63.9401 205.096 64.4087C204.815 64.8461 204.612 65.2991 204.487 65.7677C204.331 66.2989 204.221 66.5644 204.159 66.5644C204.065 66.5644 204.018 66.2989 204.018 65.7677C204.112 65.1741 204.315 64.5961 204.627 64.0338C204.94 63.4402 205.33 62.9247 205.799 62.4873C206.268 62.0186 206.783 61.6437 207.345 61.3625C207.908 61.0501 208.486 60.8939 209.079 60.8939C209.673 60.8939 210.11 61.1126 210.392 61.55C210.704 61.9561 210.923 62.4717 211.048 63.0965C211.173 63.6901 211.22 64.315 211.188 64.9711C211.188 65.5959 211.157 66.0958 211.095 66.4707C210.97 67.3143 210.767 68.1422 210.485 68.9545C210.235 69.7356 209.923 70.5322 209.548 71.3445C209.361 71.7195 209.079 72.1881 208.705 72.7505C208.33 73.2816 207.892 73.7971 207.392 74.297C206.924 74.7969 206.408 75.2343 205.846 75.6092C205.315 75.9528 204.815 76.1247 204.346 76.1247ZM205.846 77.0151C205.877 77.2025 205.721 77.3587 205.377 77.4837C205.065 77.6087 204.737 77.6712 204.393 77.6712C203.425 77.6399 202.675 77.3275 202.144 76.7339C201.644 76.1403 201.284 75.4373 201.066 74.625C200.878 73.8127 200.785 72.9692 200.785 72.0944C200.816 71.2196 200.863 70.4854 200.925 69.8918C201.05 68.8608 201.3 67.7048 201.675 66.4238C202.05 65.1429 202.581 63.9401 203.268 62.8153C203.956 61.6906 204.799 60.7533 205.799 60.0035C206.799 59.2224 207.986 58.8319 209.361 58.8319C210.267 58.8319 210.985 59.0662 211.516 59.5348C212.079 60.0035 212.485 60.5815 212.735 61.2688C213.016 61.9561 213.172 62.706 213.203 63.5183C213.266 64.2993 213.25 65.0179 213.157 65.674C213.094 66.3926 212.985 67.0487 212.829 67.6423C212.672 68.2359 212.454 68.892 212.172 69.6106C212.079 69.8293 211.954 70.0792 211.798 70.3604C211.641 70.6416 211.469 70.7666 211.282 70.7353C211.188 70.7041 211.157 70.5791 211.188 70.3604C211.251 70.1417 211.313 69.8761 211.376 69.5637C211.469 69.2201 211.563 68.8764 211.657 68.5327C211.751 68.1578 211.813 67.8141 211.844 67.5017C211.907 66.9706 211.938 66.3145 211.938 65.5334C211.969 64.7211 211.907 63.9401 211.751 63.1902C211.626 62.4404 211.376 61.7999 211.001 61.2688C210.626 60.7377 210.064 60.4721 209.314 60.4721C208.22 60.4721 207.205 60.8314 206.268 61.55C205.362 62.2373 204.565 63.0965 203.878 64.1275C203.19 65.1273 202.628 66.1895 202.19 67.3143C201.784 68.4077 201.534 69.3763 201.441 70.2198C201.378 70.7197 201.363 71.3445 201.394 72.0944C201.425 72.8442 201.534 73.594 201.722 74.3438C201.94 75.0624 202.284 75.6873 202.753 76.2184C203.221 76.7495 203.862 77.0307 204.674 77.0619C204.924 77.0932 205.158 77.0776 205.377 77.0151C205.627 76.9214 205.783 76.9214 205.846 77.0151Z" fill="#FFBC3F"/>
</g>
<defs>
<clipPath id="clip0">
<rect width="220" height="98.9349" fill="white"/>
</clipPath>
</defs>
</svg>
